<svg width="376" height="375" viewBox="0 0 376 375" fill="none" xmlns="http://www.w3.org/2000/svg">
<path d="M327.856 264.938C329.6 270.31 334.418 289.616 333.873 299.473C333.498 306.467 330.843 308.648 330.948 309.709C331.053 310.77 334.45 313.646 336.28 315.488C344.607 323.873 345.335 334.041 341.022 340.613C336.335 347.738 321.728 353.843 312.955 355.221C304.585 356.533 278.798 363.896 268.583 349.084C266.555 346.14 267.417 342.598 268.649 332.248C268.998 329.308 268.336 328.708 266.435 327.786C249.869 319.748 252.337 306.527 249.7 296.492C247.508 288.15 247.546 288.073 247.075 287.38C243.215 281.783 218.763 270.915 219.929 259.611C220.552 253.611 224.407 250.954 224.654 250.123C224.888 249.33 210.217 232.498 234.607 228.66C233.399 222.596 225.685 217.153 240.543 208.375C245.168 205.643 251.793 206.62 257.155 207.002C264.92 207.565 272.343 210.27 279.655 212.959C287.673 215.91 290.673 217.193 301.743 225.833C313.623 235.125 322.957 249.859 327.856 264.938Z" fill="white"/>
<path d="M265.802 314.103C259.086 307.78 257.479 299.579 258.49 299.29C259.427 299.024 261.814 305.823 268.052 311.707C274.29 317.59 281.232 319.563 281.023 320.51C280.827 321.429 272.787 320.677 265.802 314.103Z" fill="black"/>
<path d="M332.538 309.265C344.414 286.928 326.663 241.124 300.451 221.433C285.766 210.479 249.91 198.419 235.576 208.48C233.065 210.064 231.145 212.429 230.11 215.211C229.075 217.993 228.983 221.038 229.847 223.878C231.413 228.496 232.814 226.752 228.947 227.761C218.312 230.521 214.156 241.716 222.31 249.8C216.844 253.611 217.334 261.395 220.319 267.323C225.511 277.823 245.539 285.783 246.349 290.603C248.757 306.376 250.574 323.318 267.201 330.068C265.536 340.255 263.734 349.3 272.215 354.764C283.87 362.438 301.079 360.942 314.717 357.111C347.256 348.13 357.366 331.135 332.538 309.265ZM313.482 352.675C301.204 356.127 284.959 357.966 274.366 351.331C268.142 347.581 269.08 340.585 270.107 331.081C275.811 332.72 284.048 332.922 284.048 332.06C284.059 331.454 278.022 331.263 271.392 328.767C254.329 322.497 253.204 306.936 250.808 289.883C249.484 281.616 229.422 275.226 224.294 265.332C221.935 260.75 221.106 254.999 225.737 252.432C228.772 254.091 232.071 255.213 235.488 255.747L236.17 252.863C230.299 251.151 224.5 248.748 222.655 242.885C220.979 237.91 225.081 233.435 230.095 232.197C241.064 229.452 263.976 239.885 276.959 244.338C275.787 246.621 274.823 249.006 274.079 251.463L277.859 252.608C281.984 238.953 289.827 232.113 288.895 231.125C288.295 230.459 282.674 234.687 278.429 241.705C268.889 237.434 259.514 232.863 249.323 229.846C244.846 228.561 229.922 227.645 234.417 216.863C240.293 202.7 271.645 211.628 285.475 217.917C321.205 234.366 338.873 285.792 329.648 306.535C324.586 318.003 309.068 326.249 296.974 329.699C291.319 331.289 288.019 331.574 288.049 331.949C288.087 334.011 318.829 329.676 330.925 311.937C351.899 332.911 342.216 344.375 313.482 352.675Z" fill="black"/>
<path d="M88.2909 76.4338C87.3122 66.9782 91.7147 56.8119 99.9797 52.1244C110.95 45.8957 130.068 48.3857 188.142 40.5726C210.719 37.5351 219.232 34.9101 229.928 34.2819C242.448 33.5469 245.217 37.2951 249.554 40.0607C255.44 43.8107 257.9 53.9732 258.903 60.8882L282.841 286.481C282.841 286.481 278.693 297.283 273.64 300.056C268.587 302.829 137.75 318.862 137.75 318.862C137.75 318.862 120.095 321.204 115.741 307.483C112.522 297.322 113.422 321.429 88.2909 76.4338Z" fill="#FFD9F9"/>
<path d="M117.652 87.3088C115.215 79.0382 119.01 71.2513 125.505 68.6751C131.266 66.3913 139.41 65.8382 225.733 55.7188C225.733 55.7188 237.283 54.0182 240.159 60.1157C244.471 69.2601 243.144 65.1782 265.687 271.593C266.456 278.626 262.933 285.641 255.457 287.296C255.061 287.384 259.273 286.858 152.923 299.692C152.923 299.692 145.164 299.669 142.891 295.004C138.386 285.749 142.05 309.262 117.652 87.3088Z" fill="white"/>
<path d="M284.375 278.72L259.813 54.3989C258.344 40.9983 247.027 31.1489 234.358 32.6677L106.874 48.0108C94.3382 49.5108 85.3401 61.6983 86.812 75.1758L111.374 299.497C112.726 311.85 122.529 321.382 134.249 321.382C136.141 321.382 127.863 322.32 264.309 305.885C276.849 304.376 285.849 292.188 284.375 278.72ZM112.865 51.2696C242.842 35.6246 235.289 36.4571 236.926 36.4571C246.761 36.4571 254.771 44.5946 255.89 54.8208L280.04 275.415C278.904 285.24 271.717 293.308 262.25 294.448L145.73 308.471C134.366 309.834 124.447 300.836 123.149 288.971L99.6689 74.4989C99.0357 69.7176 99.9823 64.8603 102.364 60.6665C104.747 56.4728 108.434 53.1723 112.865 51.2677V51.2696ZM263.842 301.957L136.357 317.306C125.786 318.577 116.516 310.181 115.299 299.068L90.7401 74.7464C89.5476 63.8452 96.4007 53.9583 106.184 52.1133C102.878 54.8195 100.308 58.3158 98.7117 62.2788C97.1153 66.2419 96.5442 70.5435 97.0514 74.7858L120.532 289.267C121.991 302.591 133.233 312.637 146.043 311.092L262.565 297.069C266.472 296.538 270.176 295.009 273.319 292.627C276.461 290.246 278.936 287.093 280.503 283.475C279.71 292.976 272.893 300.873 263.842 301.963V301.957Z" fill="black"/>
<path d="M250.276 119.127C244.207 63.7922 244.651 66.9835 243.997 64.726C243.234 61.8021 241.577 59.1893 239.258 57.2522C236.938 55.3152 234.072 54.1503 231.059 53.9203C229.349 53.8791 236.455 53.3953 127.974 66.1922C120.496 67.0735 114.753 74.8772 115.949 83.9841C115.949 83.9841 137.699 281.948 138.352 287.386C138.667 290.291 139.797 293.048 141.612 295.339C143.427 297.63 145.852 299.361 148.608 300.333C151.282 300.999 154.074 301.03 156.762 300.425C156.95 300.404 254.825 287.875 254.761 287.403C254.694 286.861 155.574 298.353 152.746 298.465C146.472 298.705 141.528 293.108 140.844 287.054C133.405 219.27 125.978 151.484 118.561 83.6972C117.534 75.7847 122.386 69.5035 128.283 68.806C237.646 55.8553 231.369 55.5272 235.557 57.8597C237.346 58.9171 238.861 60.3808 239.98 62.1322C241.098 63.8837 241.789 65.8738 241.996 67.9416C242.054 68.3766 241.284 60.5278 265.077 271.87C265.475 274.687 265.017 277.558 263.761 280.11C262.505 282.662 260.509 284.778 258.035 286.18C256.081 287.146 253.259 287.635 255.669 287.375C257.837 286.969 259.861 286.002 261.539 284.569C263.216 283.137 264.49 281.29 265.231 279.213C266.971 274.934 268.402 284.377 250.276 119.125V119.127Z" fill="black"/>
<path d="M233.147 78.6783C231.971 74.5321 229.209 71.0162 225.459 68.8926C220.884 66.487 224.196 66.7533 143.301 76.7939C137.497 77.5158 133.301 82.6908 132.118 88.5089C131.596 91.2138 131.557 93.9899 132.004 96.7083C147.086 234.35 146.085 226.121 147.034 229.061C149.612 237.041 155.826 240.585 160.897 240.054C175.882 238.483 232.551 230.516 234.195 230.229C250.168 227.456 186.527 235.185 160.695 237.635C156.656 238.01 151.609 235.072 149.464 228.298C148.644 225.71 149.869 235.111 134.617 96.4195C134.209 93.98 134.233 91.4876 134.689 89.0564C135.626 84.4158 138.889 80.0076 143.614 79.4076C223.826 69.2414 219.63 70.0983 220.991 70.2426C224.741 70.642 228.774 73.6514 230.632 79.4695C231.396 81.8583 230.212 73.6308 246.313 213.345C247.157 220.657 243.615 226.7 239.04 228.776C237.598 229.428 235.624 229.813 237.343 229.67C242.385 229.545 248.604 222.661 247.779 213.208C247.421 209.088 234.611 83.2589 233.147 78.6783Z" fill="black"/>
<path d="M153.199 269.311C153.199 246.284 157.87 254.597 234.833 243.692C236.89 243.212 239.039 243.294 241.054 243.931C255.696 250.129 255.117 274.879 241.405 278.787C237.702 279.842 247.949 277.731 165.743 288.349C165.743 288.349 157.514 290.357 155.584 284.189C154.005 279.387 153.199 274.365 153.199 269.311Z" fill="#FB6320"/>
<path d="M176.093 276.491C175.761 275.762 175.286 275.102 174.996 274.355C174.548 273.206 174.559 271.918 174.114 270.765C173.645 269.81 173.113 268.888 172.521 268.005C171.263 265.702 169.189 257.357 166.097 257.659C163.26 257.934 162.347 265.55 162.463 265.331C162.39 265.519 159.651 277.273 160.266 279.553C161.006 282.247 164.061 282.42 165.156 279.615C166.959 274.989 163.524 276.185 169.294 275.032C170.034 274.884 170.256 275.096 170.363 275.867C171.431 283.511 177.833 280.312 176.093 276.491ZM168.488 270.304C168.165 271.494 165.578 272.413 165.632 269.355C165.627 267.958 165.854 266.57 166.305 265.249C166.338 265.202 166.384 265.166 166.436 265.144C166.488 265.12 166.545 265.111 166.601 265.119C166.658 265.127 166.711 265.15 166.755 265.186C166.8 265.222 166.833 265.27 166.853 265.324C167.374 266.762 168.902 268.764 168.488 270.304Z" fill="white"/>
<path d="M177.949 277.687C178.608 278.41 179.44 278.954 180.367 279.267C181.294 279.579 182.286 279.65 183.248 279.474C184.211 279.296 185.112 278.876 185.867 278.253C186.622 277.629 187.205 276.823 187.561 275.911C189.409 271.855 185.671 269.577 183.949 271.265C182.866 272.328 183.111 275.109 181.9 274.137C178.827 271.672 179.68 262.484 180.644 262.15C181.034 262.015 183.481 263.118 184.598 261.284C185.716 259.45 183.756 256.473 180.621 256.651C172.96 257.075 172.681 271.173 177.949 277.687Z" fill="white"/>
<path d="M192.134 261.832C190.821 270.481 194.442 274.411 195.155 271.932C195.228 271.681 195.155 268.983 197.624 269.015C198.4 269.103 199.12 269.465 199.654 270.035C200.188 270.605 200.502 271.347 200.54 272.127C200.562 272.645 200.463 273.16 200.249 273.633C199.791 274.854 198.964 275.902 197.881 276.63C196.799 277.358 195.517 277.73 194.213 277.694C192.821 277.454 191.494 276.924 190.319 276.14C187.533 273.702 184.711 261.639 188.615 257.077C192.781 252.202 198.755 257.116 196.473 259.822C194.305 262.396 192.591 258.828 192.134 261.832Z" fill="white"/>
<path d="M199.495 258.665C200.217 266.352 200.777 266.628 200.796 268.475C200.622 269.74 200.867 271.028 201.493 272.14C201.988 273.442 202.305 275.485 203.843 276.23C206.095 276.763 208.463 276.478 210.525 275.427C211.442 274.987 211.665 274.608 211.59 273.395C211.495 271.824 211.176 270.946 209.547 270.661C206.132 270.067 206.655 272.467 205.868 268.182C205.632 266.89 209.747 267.835 209.974 264.749C210.098 263.073 208.675 261.457 205.44 262.01C205.123 262.064 205.032 261.987 204.977 261.708C204.662 260.088 204.544 259.719 204.628 259.514C205.039 258.545 210.057 259.456 207.503 254.894C206.46 253.034 204.522 253.509 202.183 254.013C201.714 253.971 201.242 254.043 200.806 254.224C200.371 254.405 199.987 254.689 199.686 255.052C199.383 255.413 199.173 255.841 199.072 256.301C198.971 256.762 198.983 257.239 199.107 257.694C199.159 258.061 199.847 261.348 199.495 258.665Z" fill="white"/>
<path d="M221 254.983C217.771 249.936 211.668 251.657 210.4 254.659C209.932 255.769 210.305 257.599 210.805 260.517C213.025 273.486 213.535 274.247 214.722 274.827C215.12 274.999 215.56 275.048 215.986 274.968C216.412 274.888 216.804 274.683 217.113 274.378C217.317 274.176 217.478 273.936 217.589 273.67C217.784 272.903 217.771 272.097 217.55 271.337C215.911 262.613 218.388 268.56 221.65 264.178C223.642 261.49 222.826 257.854 221 254.983ZM217.081 261.008C214.859 264.312 213.974 255.96 215.347 256.915C217.137 256.264 218.75 258.516 217.072 261.008H217.081Z" fill="white"/>
<path d="M225.311 255.749C226.661 268.753 226.717 269.812 227.156 271.574C228.045 275.137 230.923 274.222 231.604 272.137C232.325 269.93 230.944 269.458 230.42 255.961C230.347 254.068 233.4 255.912 234.39 254.007C234.607 253.476 234.692 252.899 234.639 252.328C234.586 251.756 234.395 251.205 234.084 250.722C232.609 249.102 223.494 250.512 222.315 251.247C220.53 252.361 220.485 255.637 223.093 255.768C223.295 255.77 225.287 255.547 225.311 255.749Z" fill="white"/>
<path d="M155.666 254.724C152.875 257.929 151.424 262.086 151.614 266.332C151.282 296.578 162.765 289.597 178.262 287.707C233.574 280.957 239.621 279.59 239.574 279.193C239.497 278.54 206.685 281.518 177.947 285.093C168.362 286.286 160.571 289.434 157.275 284.426C153.979 279.418 153.847 266.801 154.582 262.749C154.866 260.422 155.907 258.254 157.544 256.577C159.182 254.9 161.325 253.808 163.644 253.47L237.262 244.845C250.725 244.47 256.352 270.44 243.984 277.374C241.46 278.79 237.471 279.496 240.866 279.249C259.297 277.873 255.778 240.264 235.584 242.364C156.844 250.533 159.844 250.404 155.666 254.724Z" fill="black"/>
<path d="M166.488 276.643C166.33 277.479 166.223 278.323 166.165 279.17C166.158 279.957 165.884 280.718 165.389 281.329C164.894 281.94 164.206 282.365 163.438 282.535C162.669 282.704 161.866 282.609 161.16 282.263C160.453 281.918 159.884 281.343 159.546 280.633C159.141 278.884 159.227 277.058 159.794 275.355C160.604 269.943 161.891 264.614 163.638 259.428C164.288 257.825 166.056 257.593 166.088 257.791C166.099 257.859 165.848 257.934 165.456 258.18C164.376 258.86 163.915 259.734 162.676 267.288C162.646 267.476 160.938 278.176 160.917 278.685C160.821 280.95 162.916 281.518 163.917 280.185C164.359 279.6 164.358 279.17 164.603 277.126C164.83 275.233 164.815 275.233 165.029 275.225C165.948 274.871 166.893 274.593 167.856 274.395C171.171 273.823 170.669 274.228 170.881 274.676C172.411 278.718 172.358 278.791 172.827 279.275C173.035 279.473 173.292 279.61 173.572 279.675C173.851 279.739 174.143 279.727 174.416 279.64C174.689 279.553 174.934 279.394 175.125 279.18C175.317 278.966 175.447 278.705 175.503 278.424C175.891 277.098 169.229 261.695 168.243 259.23C167.637 257.711 166.229 257.958 166.214 257.769C166.199 257.58 167.969 257.24 168.876 258.922C170.155 261.29 177.876 276.271 177.136 278.893C176.277 281.97 171.974 282.819 170.47 278.668C170.296 278.188 169.533 276.191 169.45 276.003C168.438 276.08 167.441 276.296 166.488 276.643Z" fill="black"/>
<path d="M188.917 272.105C188.708 271.557 188.362 271.073 187.912 270.698C187.462 270.324 186.922 270.073 186.346 269.968C185.77 269.864 185.176 269.91 184.623 270.102C184.07 270.294 183.576 270.626 183.189 271.066C182.669 271.653 182.368 272.401 182.337 273.185C182.12 275.556 179.403 266.648 180.77 262.805C181.411 263.141 182.148 263.246 182.857 263.101C183.566 262.957 184.204 262.573 184.662 262.013C185.123 261.456 185.378 260.756 185.383 260.033C185.388 259.309 185.143 258.606 184.69 258.042C184.075 257.285 183.22 256.758 182.267 256.549C181.313 256.34 180.317 256.459 179.44 256.889C180.562 256.825 181.681 257.046 182.694 257.532C186.378 259.585 183.082 263.279 181.158 261.398C177.97 258.286 177.929 277.274 182.947 275.003C183.305 274.827 183.606 274.554 183.817 274.215C184.027 273.876 184.138 273.484 184.137 273.085C184.177 272.863 184.263 272.653 184.389 272.466C184.516 272.279 184.679 272.121 184.87 272.001C185.061 271.881 185.274 271.802 185.497 271.769C185.72 271.737 185.947 271.751 186.164 271.81C186.382 271.87 186.584 271.975 186.758 272.117C186.933 272.26 187.076 272.437 187.178 272.638C187.281 272.838 187.34 273.058 187.353 273.283C187.365 273.508 187.331 273.733 187.252 273.944C187.169 274.722 186.912 275.472 186.499 276.136C186.085 276.801 185.527 277.363 184.865 277.781C184.203 278.198 183.455 278.461 182.677 278.548C181.9 278.635 181.112 278.545 180.374 278.285C175.224 276.183 173.654 262.379 177.055 258.728C178.231 257.399 179.287 257.103 179.219 256.956C179.219 256.87 178.042 256.913 176.549 258.237C172.22 261.938 173.307 277.206 179.737 279.891C185.815 282.297 190.269 275.41 188.917 272.105Z" fill="black"/>
<path d="M201.226 272.11C200.45 280.548 186.248 283.806 186.102 264.785C186.04 256.508 190.814 255.269 190.838 255.539C191.142 256.068 186.91 256.456 187.383 264.747C188.348 281.684 198.869 278.108 199.424 271.917C199.788 270.102 196.595 268.973 196.205 271.827C196.178 272.157 196.065 272.473 195.876 272.745C195.688 273.017 195.431 273.234 195.132 273.375C194.833 273.516 194.502 273.575 194.172 273.547C193.843 273.519 193.526 273.404 193.255 273.215C190.921 271.46 189.948 260.99 192.505 259.658C193.049 259.375 192.848 259.345 193.293 259.784C193.557 260.012 193.878 260.163 194.221 260.223C194.565 260.282 194.918 260.247 195.243 260.121C195.569 259.996 195.852 259.784 196.066 259.506C196.28 259.231 196.415 258.903 196.454 258.556C196.782 257.191 194.939 255.181 192.11 255.368C191.513 255.408 191.187 255.485 191.161 255.41C192.028 254.891 193.047 254.688 194.046 254.833C195.046 254.979 195.964 255.464 196.647 256.208C197.185 256.795 197.482 257.564 197.477 258.361C197.471 259.158 197.165 259.923 196.619 260.503C196.074 261.083 195.329 261.435 194.534 261.489C193.739 261.543 192.954 261.294 192.335 260.793C193.63 260.999 192.822 260.51 192.64 262.529C192.278 266.558 193.859 272.999 194.457 271.705C194.444 271.234 194.529 270.764 194.707 270.327C194.885 269.891 195.153 269.496 195.492 269.168C195.831 268.84 196.235 268.585 196.677 268.422C197.12 268.258 197.592 268.189 198.063 268.218C198.534 268.245 198.994 268.371 199.414 268.586C199.833 268.801 200.204 269.101 200.502 269.467C200.799 269.833 201.017 270.258 201.142 270.713C201.267 271.168 201.295 271.644 201.226 272.11Z" fill="black"/>
<path d="M209.561 276.831C203.238 277.748 201.362 278.356 200.441 271.053C198.853 258.462 197.237 255.115 200.285 254.052C201.035 253.698 204.281 253.628 202.254 254.052C200.842 254.573 200.942 254.448 200.567 254.648C198.663 255.687 199.698 258.267 200.15 260.59C202.487 272.639 202.025 275.403 204.534 275.637C206.565 275.643 208.577 275.243 210.452 274.461C210.746 274.215 210.953 273.879 211.04 273.505C211.127 273.131 211.09 272.739 210.935 272.388C210.782 272.035 210.519 271.743 210.184 271.553C209.85 271.364 209.464 271.288 209.083 271.338C208.884 271.36 205.957 271.921 205.77 271.956C205.728 271.956 205.743 271.87 205.728 271.831L204.887 266.697C206.606 266.489 207.641 266.51 208.383 265.947C208.618 265.712 208.789 265.422 208.881 265.103C208.972 264.784 208.98 264.447 208.905 264.123C208.83 263.8 208.674 263.501 208.452 263.255C208.229 263.009 207.948 262.824 207.633 262.716C206.557 262.754 205.483 262.859 204.42 263.03L203.717 258.443C209.298 258.846 207.673 254.286 206.062 254.022C205.743 253.925 201.093 254.06 203.76 253.57C204.559 253.345 205.389 253.253 206.218 253.298C206.804 253.444 207.337 253.753 207.754 254.191C208.17 254.628 208.454 255.175 208.571 255.768C208.689 256.36 208.637 256.974 208.419 257.538C208.202 258.102 207.828 258.592 207.343 258.951C205.106 260.523 205.046 258.323 205.599 261.252C205.674 261.528 206.829 261.106 207.849 261.179C211.005 261.665 212.488 267.381 206.949 268.199H206.921C206.932 268.234 207.17 269.611 207.178 269.646C207.225 269.918 207.112 269.87 207.611 269.778C208.552 269.464 209.566 269.44 210.521 269.708C214.044 270.839 213.453 276.265 209.561 276.831Z" fill="black"/>
<path d="M218.6 274.038C218.354 274.692 217.912 275.253 217.334 275.646C216.755 276.038 216.07 276.241 215.371 276.228C214.673 276.214 213.996 275.983 213.434 275.568C212.873 275.153 212.453 274.574 212.235 273.91C211.434 269.41 210.016 258.593 209.754 256.722C209.594 256.12 209.59 255.486 209.743 254.882C209.896 254.277 210.201 253.722 210.63 253.268C211.625 252.331 214.192 251.673 214.192 252.023C214.246 252.211 213.223 252.275 211.957 253.304C210.041 255.378 210.238 251.992 213.937 273.412C214.327 274.912 217.488 275.009 216.967 272.026C216.86 271.417 216.217 267.233 215.986 265.79C219.361 265.381 221.891 264.477 221.986 260.624C222.08 256.687 219.68 252.839 215.928 252.258C214.86 252.093 214.241 252.136 214.226 252.018C214.207 251.93 214.801 251.675 215.979 251.656C219.528 251.596 223.411 255.192 223.507 260.639C223.581 262.231 223.06 263.794 222.046 265.023C221.032 266.253 219.598 267.062 218.021 267.293C218.722 271.634 219.09 272.656 218.6 274.038Z" fill="black"/>
<path d="M230.994 274.614C230.49 274.924 229.912 275.095 229.32 275.11C228.728 275.125 228.143 274.984 227.623 274.7C227.104 274.417 226.668 274.002 226.359 273.498C226.049 272.994 225.878 272.417 225.861 271.826C223.847 250.981 225.737 258.251 222.017 256.104C221.652 255.878 221.338 255.58 221.092 255.229C220.846 254.878 220.674 254.48 220.586 254.06C220.499 253.641 220.497 253.207 220.582 252.787C220.667 252.367 220.836 251.968 221.079 251.615C221.919 250.243 222.943 250.383 224.216 250.303C227.779 250.093 227.908 250.338 224.301 251.004C223.054 251.233 222.465 251.13 221.955 252.12C221.76 252.411 221.646 252.75 221.625 253.1C221.605 253.45 221.678 253.8 221.837 254.113C221.994 254.426 222.232 254.693 222.527 254.884C222.822 255.074 223.162 255.183 223.513 255.198C226.701 255.386 225.551 251.16 227.638 271.625C227.637 272.046 227.8 272.452 228.094 272.754C228.388 273.056 228.788 273.231 229.209 273.242C229.63 273.253 230.039 273.098 230.348 272.811C230.657 272.525 230.841 272.128 230.861 271.708C229.251 248.966 228.536 255.74 232.762 254.428C234.559 253.865 234.396 250.865 232.762 250.556C231.75 250.481 230.734 250.471 229.719 250.528C222.456 250.548 232.026 249.449 232.95 249.56C233.732 249.788 234.402 250.299 234.828 250.994C235.254 251.688 235.406 252.517 235.254 253.318C235.104 254.119 234.661 254.835 234.011 255.327C233.362 255.819 232.552 256.051 231.741 255.978C231.517 255.984 231.294 256.001 231.073 256.031C232.772 272 233.439 273.11 230.994 274.614Z" fill="black"/>
<path d="M216.051 261.321C217.292 261.051 217.686 258.374 217.686 258.374C218.153 258.128 218.734 261.544 216.39 262.446C214.14 263.311 213.69 257.946 214.032 257.232C214.211 256.879 214.494 256.59 214.842 256.402C215.19 256.214 215.587 256.136 215.981 256.18C216.374 256.223 216.745 256.386 217.043 256.646C217.342 256.905 217.554 257.25 217.652 257.633C217.767 257.997 217.725 258.214 217.652 258.239C217.483 258.346 217.14 257.478 216.244 257.194C215.794 257.054 214.992 257.343 215.106 257.993C215.286 259.03 215.586 261.336 216.051 261.321Z" fill="black"/>
<path d="M167.128 271.957C164.754 272.411 165.116 270.68 165.229 269.499C165.3 268.74 165.868 264.975 166.395 265.085C166.644 265.14 166.476 266.63 166.369 270.751C166.792 270.813 167.91 270.416 167.721 270.395C168.041 270.007 167.256 267.77 167.098 267.307C165.174 261.661 169.654 268.882 168.832 270.96C168.607 271.531 167.73 271.841 167.128 271.957Z" fill="black"/>
<path d="M238.951 37.2423C235.031 42.0029 226.925 43.5498 229.681 44.5548C235.295 46.606 239.461 45.6535 244.329 54.841C245.711 57.8786 247.332 60.8016 249.178 63.5823C249.669 59.6231 250.939 55.8003 252.914 52.3339C254.89 48.8676 257.531 45.8261 260.686 43.3848C262.247 42.1604 264.029 41.2504 265.936 40.7054C268.61 38.1291 252.772 40.201 247.728 24.4829C244.411 14.1535 244.811 24.2223 244.409 26.0129C243.493 30.1311 241.623 33.9771 238.951 37.2423Z" fill="white"/>
<path d="M266.125 38.7782C261.779 37.1226 256.225 36.0257 252.666 31.7338C246.854 24.7363 246.441 14.9132 245.127 15.0857C243.019 15.1682 245.944 32.5082 234.149 40.1169C229.954 42.9988 225.595 43.7057 225.734 44.4744C225.722 45.2244 229.934 45.3538 234.454 47.2494C247.939 52.4694 247.217 68.9882 249.267 68.6582C250.744 68.3151 249.94 53.0807 260.824 44.7763C266.911 40.2013 271.774 40.8951 266.125 38.7782ZM248.854 60.8919C247.781 57.1467 245.898 53.6827 243.34 50.7444C237.261 43.8801 230.251 44.3938 231.872 43.8782C240.437 40.0794 244.622 32.5926 245.791 23.7369C248.762 33.4326 255.089 38.7838 264.852 40.2538C256.523 42.5001 250.454 52.3588 248.854 60.8919Z" fill="black"/>
<path d="M138.332 353.538C140.77 355.003 143.033 361.35 151.15 364.053C158.104 366.371 163.3 364.068 167.775 359.818C175.787 352.178 181.464 342.419 184.144 331.678C186.374 322.663 193.412 311.405 183.407 300.74C177.051 293.968 169.345 295.136 162.771 293.973C155.179 292.631 162.445 289.175 147.844 278.103C141.457 273.328 134.834 268.878 127.999 264.768C123.499 261.018 122.355 261.72 109.386 251.671C90.4335 236.988 85.5547 230.925 74.7097 233.578C71.3797 234.393 68.9647 235.496 67.9785 241.155C66.9641 247.092 68.0108 253.197 70.9447 258.457C67.2791 256.693 64.401 253.468 60.576 252.082C54.3079 249.832 46.7329 253.711 44.2972 259.914C43.2113 263.075 43.1354 266.496 44.0801 269.702C45.0247 272.908 46.9432 275.741 49.5697 277.809C33.7991 271.861 28.221 283.773 33.9154 294.62C39.5835 305.416 52.701 311.193 66.6791 318.819C64.1741 322.305 59.4116 323.591 56.8766 327.054C54.906 329.748 52.7141 337.998 54.0997 342.285C56.1622 348.63 63.9473 351.643 70.0579 351.622C74.4379 351.607 78.7579 350.619 83.1304 350.341C97.1779 349.453 110.736 355.901 124.911 355.603C136.491 355.366 135.432 351.795 138.332 353.538Z" fill="white"/>
<path d="M136.333 302.249C129.345 289.609 132.258 282.749 130.781 282.499C128.758 282.053 125.983 302.687 144.532 316.5C140.415 315.203 136.081 314.739 131.782 315.136C121.481 316.15 115.61 322.679 116.167 323.327C116.917 324.239 122.098 319.414 132.105 318.411C141.2 317.534 148.698 319.958 149.036 318.869C149.715 317.969 142.048 312.325 136.333 302.249Z" fill="black"/>
<path d="M189.924 310.609C187.825 291.221 166.158 293.252 160.122 292.234C154.237 274.875 141.125 271.371 114.284 252.493C100.957 243 92.7123 233.137 82.8011 230.946C71.2099 228.302 62.163 236.991 66.9198 251.349C67.7523 253.721 67.8892 252.007 62.4198 250.161C49.188 245.794 36.5261 259.581 42.5036 271.723C43.6042 273.973 44.1049 274.123 43.8386 274.082C29.4011 272.162 21.2842 292.888 43.788 308.235C69.3011 324.868 65.5511 313.937 56.9936 324.026C46.3736 336.157 52.0586 351.829 66.6817 353.621C70.6492 353.944 74.6411 353.814 78.5805 353.233C98.0617 350.012 118.18 363.615 137.59 354.733C162.798 392.625 192.817 336.619 189.924 310.609ZM45.198 265.367C45.2813 263.592 45.7674 261.859 46.6194 260.3C47.4715 258.74 48.6673 257.396 50.1161 256.367C63.228 246.832 67.9623 264.87 98.6786 276.429C93.7484 283.573 89.731 291.304 86.7199 299.445C75.3199 292.534 64.323 284.079 52.4936 277.536C49.6042 275.938 44.8849 270.624 45.198 265.367ZM185.172 319.277C183.189 330.838 178.825 343.292 171.768 352.597C160.846 367.121 151.053 367.222 140.364 353.286C153.552 345.411 157.749 329.199 156.691 328.809C155.515 328.339 151.126 341.762 139.254 348.969C121.042 359.966 101.275 345.697 78.0948 348.656C73.0323 349.202 67.0211 349.952 62.5623 347.707C48.9573 340.892 56.6205 316.836 88.263 317.411C96.2861 317.501 101.039 319.427 101.33 318.739C102.382 317.124 83.9224 309.739 67.0324 316.997C57.4117 312.242 40.7936 303.63 36.1492 293.994C31.7449 285.112 36.1792 277.682 43.2555 278.619C50.1161 279.508 71.2961 294.988 85.7299 302.385C85.2536 303.894 83.1348 311.13 84.0592 311.415C85.1673 311.752 89.4367 299.861 97.0942 286.444C104.703 273.009 112.297 262.884 111.391 262.119C110.853 261.664 106.094 266.158 100.557 273.78C95.0383 271.239 89.7018 268.32 84.5861 265.042C77.4461 260.447 73.6155 258.105 70.9586 249.997C69.1623 244.408 69.288 238.935 74.4592 236.029C80.9617 232.892 88.173 237.75 93.9199 242.167C105.826 251.49 98.388 248.002 137.71 272.773C144.94 277.327 150.835 280.957 155.523 289.588C163.368 303.896 158.086 320.557 159.157 320.826C159.674 320.957 164.14 308.413 161.058 295.455C172.424 297.542 188.86 296.938 185.172 319.277Z" fill="black"/>
<path d="M132.122 142.499C134.56 160.051 134.513 161.062 135.644 163.124C139.043 169.353 152.117 170.729 159.001 167.469C161.284 166.459 163.239 164.829 164.644 162.765C166.048 160.701 166.846 158.284 166.947 155.789C166.806 153.649 166.346 151.542 165.58 149.538C151.517 106.525 152.108 115.353 154.641 105.766C157.985 102.864 160.978 99.5811 163.559 95.9842C163.9 95.6101 164.144 95.158 164.269 94.6677C164.395 94.1773 164.398 93.6636 164.279 93.1717C163.206 83.9167 162.216 89.4986 170.841 80.673C172.221 79.2592 172.006 78.0123 170.429 76.8742C168.072 75.1698 167.573 75.7492 166.84 71.6242C166.519 69.8242 165.977 68.0692 165.226 66.4023C160.631 68.166 156.148 70.2072 151.801 72.5148C151.414 70.7767 153.278 67.9848 153.944 66.3911C158.087 56.4911 161.292 59.4536 150.132 54.5355C147.113 61.9929 143.765 69.3126 140.097 76.473C139.019 73.524 138.51 70.3976 138.597 67.2592C138.949 65.3842 139.456 66.0592 142.347 56.8961C142.649 55.9398 142.664 56.2473 134.491 54.5673C130.89 62.4539 129.433 71.151 130.268 79.7805C128.142 76.5123 124.015 75.5936 122.543 70.5086C122.05 68.8042 121.716 68.2323 119.821 68.5211C115.219 69.2242 115.144 69.1792 114.857 69.4248C113.545 70.5498 117.73 79.3998 118.883 81.3967C128.781 98.5773 123.597 81.0311 132.122 142.499Z" fill="white"/>
<path d="M213.941 154.558C212.677 148.412 209.137 148.054 203.441 150.752C202.649 151.127 202.537 151.435 202.64 152.196C202.848 153.75 203.152 155.29 203.549 156.807C196.469 159.595 196.612 159.267 196.869 160.257C201.862 179.241 201.744 178.303 201.453 178.774C199.889 179.707 198.191 180.393 196.419 180.808C195.346 181.099 194.958 181.352 194.842 182.573C194.654 184.57 194.917 186.582 195.614 188.462L196.899 233.82L226.1 230.445C228.061 225.64 230.473 234.861 213.941 154.558Z" fill="white"/>
<path d="M181.858 84.8153C181.646 86.3828 181.025 88.3534 179.447 88.4359C178.254 88.4996 175.811 86.4559 175.02 89.8084C174.922 90.649 174.689 91.4684 174.33 92.2346C168.122 92.5346 171.705 89.2346 168.932 100.038C175.063 101.953 172.295 100.157 171.686 105.527C171.615 106.157 176.548 106.578 177.067 107.478C177.51 108.243 177.502 107.394 173.54 128.883C172.586 134.066 172.47 136.038 175.415 143.529C185.278 168.654 183.665 168.95 189.088 173.124C191.222 174.767 194.15 175.848 194.987 178.406C195.424 179.737 195.429 180.581 196.939 180.633C198.685 180.556 200.389 180.076 201.919 179.229L196.669 159.512C198.185 159.105 203.306 157.37 203.91 156.483C204.587 155.493 203.565 152.212 202.862 150.84C213.082 148.937 206.413 149.968 210.08 139.893C211.867 134.983 211.886 134.69 212.374 134.364C213.274 133.764 218.681 134.679 219.727 134.88C221.915 114.217 224.162 112.862 226.102 95.529C226.95 87.9221 226.085 86.484 216.45 80.6659C211.445 77.6434 209.863 77.0696 203.107 76.6365C193.509 76.0234 183.077 75.8003 181.858 84.8153Z" fill="white"/>
<path d="M212.856 126.922L193.232 124.49L193.844 119.68L196.388 120.003L196.101 122.26L213.171 124.375L212.856 126.922Z" fill="black"/>
<path d="M198.831 127.769L198.484 130.314L206.147 131.358L206.494 128.816L198.831 127.769Z" fill="black"/>
<path d="M223.703 100.151L224.108 97.8017L210.996 95.5311L210.587 97.8804L208.9 97.5879L208.431 100.294L205.47 99.8098L205.969 96.9317L204.282 96.6392L204.709 94.1061L175.763 88.9423L175.418 90.8886L191.282 93.7161C191.13 94.5861 191.505 94.4267 189.48 94.0761L188.114 101.951L189.801 102.244L189.396 104.591L202.51 106.875L202.917 104.529L204.604 104.82L205.054 102.221L208.015 102.703L207.533 105.476L209.22 105.77L208.814 108.118L221.937 110.381L222.344 108.034L224.031 108.324L225.396 100.449L223.703 100.151Z" fill="black"/>
<path d="M176.458 173.043L154.691 112.385C156.003 106.288 154.044 109.833 165.722 95.3395L165.033 88.6177L174.408 79.1752C167.553 71.7783 169.513 75.0633 166.218 64.4902L154.061 69.7852L160.38 58.1414L150.442 51.7271C140.745 70.7902 142.535 67.102 140.552 71.6958C140.032 66.997 139.397 70.2464 144.849 55.4583L133.974 51.9821C127.892 67.6027 128.912 61.9383 128.912 76.7995C124.667 72.0933 126.035 74.5102 123.071 65.8214L112.492 67.5596C114.793 78.0145 112.738 73.1414 122.22 89.4614C126.238 99.5189 123.648 84.7739 134.835 177.386L140.705 176.4L143.439 187.852L152.357 185.116L154.008 191.536L172.383 185.225L170.057 176.437L176.458 173.043ZM125.143 88.1583C116.088 72.7102 117.735 76.5089 116.342 70.1771L120.9 69.427C123.174 76.0927 120.825 72.6352 132.107 85.1489C132.107 61.6908 131.133 68.1014 135.857 55.9571L140.662 57.4927L136.873 67.7696L138.675 84.0821C142.463 74.5868 146.803 65.3211 151.672 56.3321L156.127 59.2064C147.225 75.6145 149.31 70.5333 146.396 81.9258C157.545 70.6758 153.476 73.5145 164.208 68.842L165.66 73.4958L147.26 87.0933L146.381 91.8052L139.929 90.8677L137.844 105.478L141.02 105.93L142.65 94.5033L148.97 95.422L150.182 88.9233L167.328 76.2502L169.953 79.0814L161.679 87.4177L162.386 94.3364C150.761 108.774 153.039 104.761 151.355 112.582L164.019 148.5L158.904 149.949L160.217 154.305L154.352 156.052L156.123 161.576L150.641 163.402L148.578 158.835L141.69 160.691L140.505 156.566L135.903 158.208C126.98 85.9589 129.253 98.6395 125.143 88.1583Z" fill="black"/>
<path d="M241.46 226.173L240.387 206.924L218.144 139.272L212.814 138.412L213.221 135.678L220.796 136.297L230.476 75.8955L226.539 75.0462L227.572 69.0668L222.247 68.0168L223.064 63.2205L194.619 58.2668L193.619 63.3293L188.277 62.3487L187.34 67.5724L182.84 66.8318L179.373 86.5999L174.076 85.4599L173.152 90.5449L169.087 89.6074L166.794 101.27L170.975 102.207L169.955 106.947L175.143 108.402L170.493 137.851L166.556 139.402L179.681 174.8L173.234 177.937L175.916 186.967L153.873 194.529L156.176 236.677C156.224 237.605 156.629 238.479 157.305 239.117C157.982 239.754 158.878 240.107 159.807 240.1C160.167 240.1 157.602 240.406 198.648 235.263L197.733 221.201L207.05 220.222L197.675 181.972L203.18 180.359L198.221 159.972L205.389 157.685L204.029 151.863L207.174 151.032L208.955 159.867L201.873 162.211L215.459 217.842L220.878 217.377L224.315 231.468L239.442 228.894C240.066 228.79 240.625 228.449 241.001 227.941C241.377 227.433 241.542 226.8 241.46 226.173ZM209.733 137.322L192.528 135.125L193.188 130.207L186.776 129.303L187.061 127.256L183.873 126.828L183.176 132.035L189.412 132.916C188.765 137.675 188.019 143.457 187.391 148.216L190.655 148.647L191.281 143.898L206.079 145.623L206.66 148.512L200.958 150.012L202.346 155.956L195.153 158.249L200.101 178.578L197.054 179.471L193.117 163.417L188.981 164.354L185.57 150.972L181.527 151.944L175.413 135.918L173.952 136.494L178.752 106.094L173.722 104.682L174.776 99.7849L170.538 98.8305L171.592 93.4793L175.702 94.4168L176.639 89.2849L178.784 89.748L177.029 98.5905L184.621 100.025L187.657 83.5118L192.622 84.4812L193.314 80.7068L207.001 83.3093L206.664 86.2493L215.195 87.7043L214.556 90.7624L224.564 92.5099L220.169 119.943L217.649 119.636L218.268 115.066L190.01 111.665L189.352 116.51L185.487 115.968L184.737 121.254L187.916 121.7L188.212 119.591L192.087 120.132L192.757 115.226L214.644 117.862L214.025 122.426L219.65 123.114L218.088 132.864L210.498 132.236L209.733 137.322Z" fill="black"/>
<path d="M192.566 95.4302L192.096 98.1478L194.813 98.6201L195.286 95.9025L192.566 95.4302Z" fill="white"/>
<path d="M194.812 98.6223L194.342 101.34L197.059 101.81L197.53 99.0927L194.812 98.6223Z" fill="white"/>
<path d="M211.982 98.9424L211.512 101.662L214.231 102.132L214.702 99.4147L211.982 98.9443V98.9424Z" fill="white"/>
<path d="M214.232 102.133L213.762 104.851L216.479 105.323L216.95 102.606L214.232 102.133Z" fill="white"/>
<path d="M102.045 266.027C104.31 264.364 120.734 252.374 120.533 252.152C127.242 259.756 126.36 262.628 128.639 260.416C129.764 259.324 134.706 254.978 136.236 255.329C139.21 255.998 150.212 274.666 156.79 281.804C157.399 282.464 157.442 282.863 156.666 283.502C149.307 289.577 149.001 289.621 148.99 290.361C148.975 291.181 150.51 292.397 153.719 298.193C155.58 301.557 140.837 306.698 134.419 313.426C133.55 314.335 132.594 315.157 131.564 315.878C126.529 319.409 123.415 308.813 120.398 308.161C119.234 307.907 118.806 308.376 111.074 312.981C110.05 313.592 109.476 313.63 108.48 312.366C104.942 307.889 93.7448 292.928 91.5023 289.007C91.3923 288.869 91.3417 288.692 91.3617 288.517C91.3818 288.341 91.4708 288.18 91.6092 288.07C95.5917 283.442 97.3092 284.018 97.8229 282.676C98.6067 280.634 88.9223 275.309 94.1536 271.255C96.6661 269.307 99.2067 268.109 102.045 266.027Z" fill="#7E45C5"/>
<path d="M87.3753 158.061C87.0528 158.365 87.2984 157.656 83.9459 171.528C83.3834 173.873 86.4284 172.506 87.0284 173.817C87.1573 175.219 87.1094 176.632 86.8859 178.023C90.1541 179.056 96.2609 180.13 97.0109 179.791C97.6165 179.519 98.5109 176.116 98.6572 175.518C99.3791 172.568 102.51 177.58 103.358 173.202C105.156 163.921 106.003 161.66 104.378 161.266C102.454 160.799 102.452 162.503 103.223 156.342C92.7509 153.55 91.7028 153.496 91.1853 156.205C90.5759 159.361 88.9353 156.595 87.3753 158.061Z" fill="#7E45C5"/>
<path d="M128.384 140.02C128.486 140.69 127.647 140.937 125.176 142.51C124.846 142.719 124.801 142.876 125.022 143.21C127.338 146.84 127.522 146.994 127.481 147.453C127.374 148.595 117.611 153.753 116.606 154.272C116.141 154.514 115.906 154.497 115.526 153.963C111.68 148.54 113.052 148.889 109.586 151.111C108.558 151.769 107.922 151.809 106.946 150.399C105.791 148.73 98.9562 138.211 98.9844 137.039C99.0237 135.526 102.674 135.85 101.208 133.754C99.8075 131.748 98.9956 130.807 98.9769 129.894C98.9619 129.228 99.5225 128.51 100.179 128.624C104.855 126.65 109.801 119.943 112.179 122.915C114.744 126.115 114.896 126.43 115.227 126.455C115.471 126.474 115.415 126.455 118.415 124.315C122.323 129.155 125.668 134.424 128.384 140.02Z" fill="#7E45C5"/>
<path d="M139.886 121.961C134.048 123.802 136.98 124.653 137.231 126.547C137.419 128.028 135.84 127.616 135.761 128.366C135.739 128.585 135.593 128.159 138.793 135.517C140.106 138.532 141.381 135.877 142.425 136.492C142.699 136.653 142.703 136.743 144.124 139.342C144.568 140.157 150.218 137.467 151.048 137.036C151.849 136.616 151.596 136.484 150.347 133.771C153.936 131.937 152.957 133.038 150.546 127.94C147.66 121.846 148.539 122.388 146.059 123.252C145.71 123.376 145.59 123.324 145.408 123.039C143.252 119.669 144.703 120.442 139.886 121.961Z" fill="#7E45C5"/>
<path d="M68.5138 205.013C68.4595 205.388 68.3788 205.064 72.5732 213.882C66.9182 218.438 66.6145 218.57 66.4345 219.083C65.7707 220.99 71.4595 228.794 72.997 231.726C74.992 235.529 77.482 243.599 79.9907 243.914C82.4282 244.221 87.4101 237.567 89.4182 240.578C92.9901 245.935 94.9045 249.786 96.9689 248.718C98.0001 248.185 97.5314 247.197 101.227 245.21C118.138 236.125 118.269 236.095 118.501 235.405C118.893 234.252 117.221 233.286 114.502 226.825C114.241 226.205 114.314 225.94 114.946 225.571C120.322 222.453 121.993 221.446 121.936 220.004C121.886 218.675 108.335 194.661 107.645 193.45C107.167 192.608 106.809 192.545 106.07 192.888C103.559 194.07 101.129 195.416 98.7951 196.917L93.7439 188.48C74.3132 200.526 68.6413 204.126 68.5138 205.013Z" fill="#7E45C5"/>
<path d="M100.887 216.018C97.1187 223.359 97.5496 222.845 97.2091 222.522C90.8575 216.498 92.1524 217.734 91.4644 217.04C91.3139 217.302 90.429 219.044 89.4978 220.829C89.331 221.146 88.6616 220.342 98.6383 229.788C98.9093 230.049 98.2468 231.1 104.411 219.121C100.591 215.517 101.003 215.793 100.887 216.018Z" fill="black"/>
<path d="M90.5259 211.63C94.1163 204.634 93.88 204.838 94.0955 205.048C95.5919 206.47 98.6031 209.32 99.9304 210.574L101.969 206.636L92.5574 197.73L86.998 208.549C90.9151 212.241 90.4147 211.862 90.5259 211.63Z" fill="black"/>
<path d="M96.3999 217.45L98.4499 213.464L94.9962 210.196L92.9531 214.18L96.3999 217.45Z" fill="black"/>
<path d="M83.498 215.382L86.8916 218.609L88.9091 214.69L85.504 211.461L83.498 215.382Z" fill="black"/>
<path d="M107.8 212.114C106.278 210.681 104.65 209.127 104.511 209.018C102.276 213.364 102.408 212.933 102.574 213.089C106.063 216.394 105.868 216.342 105.998 216.089C108.055 212.052 108.041 212.34 107.8 212.114Z" fill="black"/>
<path d="M123.151 218.927C107.476 189.954 108.567 189.733 105.104 191.962C105.104 191.962 99.6493 195.437 99.6175 195.461C98.4106 193.468 97.3303 191.402 96.3831 189.273C95.2581 187.007 93.9231 186.692 91.8831 188.295C91.48 188.604 93.4956 187.215 68.0968 203.201C67.6242 203.506 67.2828 203.976 67.1399 204.52C66.9969 205.064 67.0627 205.641 67.3243 206.139L71.2187 213.875C66.7731 216.778 63.9943 217.785 65.26 220.215C78.9475 246.465 77.8918 245.325 79.1837 245.67C80.32 245.973 80.1718 245.803 88.3712 241.012C94.0075 250.31 93.6775 250.145 94.7706 250.438C95.9837 250.758 94.7331 251.653 118.834 236.85C119.3 236.557 119.641 236.101 119.79 235.572C119.939 235.042 119.886 234.475 119.641 233.983C119.575 233.833 118.028 230.253 116.044 226.423L122.142 222.806C122.773 222.41 123.23 221.788 123.417 221.067C123.605 220.345 123.509 219.58 123.151 218.927ZM109.249 218.703L113.23 226.269L96.4 236.932C90.775 226.233 93.1468 226.995 83.4625 233.13L73.8118 214.8C74.0181 214.248 73.0618 214.987 80.5618 210.234C82.4781 209.019 80.7193 207.144 77.2712 200.589C95.7643 189.018 93.8143 190.007 93.9925 190.391C94.1706 190.775 93.9925 190.432 97.315 196.756C98.6518 199.726 100.212 198.257 106.817 193.991L116.492 212.208C109.926 216.375 108.254 216.815 109.249 218.703ZM69.8162 205.241L75.595 201.637L79.3075 208.695L73.4368 212.417L69.8162 205.241ZM117.124 234.812L95.4793 247.687C88.1312 235.563 91.21 236.312 79.93 242.906L67.7425 219.3L72.3643 216.281C82.57 235.674 81.9268 234.941 82.9187 235.207C83.83 235.455 83.7287 235.301 90.91 230.752C94.1237 236.855 95.0725 240.106 97.1162 238.815L113.899 228.183C115.049 230.356 116.124 232.566 117.124 234.812ZM120.797 220.55C114.587 224.21 114.642 224.188 114.447 224.338L111.094 217.963L117.445 213.941C121.006 220.5 121.062 220.397 120.794 220.55H120.797Z" fill="black"/>
<path d="M92.2255 168.739C91.6831 169.063 91.0751 169.586 90.8667 169.116C90.7467 168.844 90.8971 160.745 90.8999 160.674C90.9204 160.239 91.1944 160.065 91.5355 160.289C93.1245 161.334 93.6937 161.567 93.6789 162.491C93.5815 168.453 93.8872 167.741 92.2255 168.739Z" fill="black"/>
<path d="M96.7405 166.013C94.6804 167.25 94.9678 167.3 95.054 163.495C95.0653 162.995 95.3824 162.859 95.7129 163.079C98.6388 165.047 98.8478 164.746 96.7405 166.013Z" fill="black"/>
<path d="M141.162 240.031C140.999 241.233 141.216 241.76 142.594 242.08C146.941 243.093 149.084 242.144 149.507 243.58C149.723 244.315 148.99 245.56 148.919 249.73C148.849 253.808 160.862 252.181 167.937 254.017C171.259 254.879 173.446 255.179 173.98 251.69C175 245.03 174.917 244.891 175.379 244.477C175.992 243.914 176.327 244.141 184.641 245.414C185.804 237.089 186.689 228.623 187.591 220.267C185.272 220.352 182.955 220.076 180.722 219.447C180.824 217.823 182.189 211.657 180.846 210.597C180.443 210.333 179.979 210.173 179.498 210.134C154.658 206.097 156.152 206.251 155.528 206.442C152.076 207.494 156.632 215.504 151.133 214.657C142.57 213.34 145.236 210.02 141.162 240.031Z" fill="#7E45C5"/>
<path d="M182.145 218.234L182.98 211.053C183.056 210.508 182.913 209.956 182.582 209.516C182.251 209.076 181.76 208.786 181.215 208.708C152.955 204.759 154.675 204.77 153.735 205.811C153.115 206.501 153.242 206.656 152.31 213.641C146.556 212.804 144.124 211.891 143.548 214.494C143.505 214.681 143.764 213.673 139.84 240.434C139.786 240.78 139.802 241.133 139.887 241.472C139.972 241.811 140.125 242.13 140.336 242.409C140.546 242.688 140.811 242.921 141.114 243.096C141.417 243.271 141.752 243.382 142.099 243.425L148.167 244.113C147.843 246.388 147.611 248.675 147.473 250.968C147.435 251.24 147.452 251.517 147.521 251.783C147.591 252.048 147.713 252.297 147.879 252.516C148.046 252.734 148.254 252.917 148.491 253.055C148.729 253.193 148.991 253.282 149.263 253.318C174.079 256.505 172.759 256.259 173.693 255.554C174.57 254.891 174.368 254.851 176.13 245.923C184.525 246.823 184.418 246.997 185.28 246.346C186.267 245.596 185.747 246.839 189.077 221.392C189.435 218.684 186.214 218.874 182.145 218.234ZM174.597 210.464L180.308 211.243L179.539 217.852L173.712 217.019L174.597 210.464ZM146.318 215.437C151.849 216.284 154.656 217.516 154.92 214.001C154.92 214.001 155.728 207.868 155.732 207.813C157.09 208.1 153.46 207.575 172.639 210.209C171.278 220.293 170.052 218.501 179.83 219.898C180.017 220.181 180.158 218.611 177.58 237.676C167.455 236.229 169.311 234.83 167.912 245.197L150.703 242.737C152.091 232.466 153.484 234.232 143.655 232.828C145.866 218.304 145.767 215.347 146.318 215.437ZM148.874 241.561C148.686 241.522 148.487 241.507 142.444 240.834L143.363 234.776L149.668 235.678L148.874 241.561ZM183.552 244.076C172.174 242.857 174.394 241.177 171.996 253.284L150.126 250.766C150.194 249.781 150.381 247.316 150.745 244.726C169.463 247.402 168.07 247.214 168.261 247.214C170.136 247.214 169.873 245.474 170.79 238.691L177.705 239.679C179.914 240.003 179.449 238.655 181.853 220.852L186.409 221.568L183.552 244.076Z" fill="black"/>
<path d="M169.292 236.783C168.094 237.345 167.451 238.217 165.506 238.609C163.809 238.952 162.729 238.469 161.259 238.609C158.549 238.873 158.362 241.75 158.639 241.669C158.744 241.674 158.83 239.288 161.303 239.04C162.652 238.905 163.868 239.382 165.59 239.032C168.699 238.4 169.834 235.615 172.025 237.656C172.573 238.166 172.826 238.588 172.885 238.549C173.028 238.479 171.625 235.69 169.293 236.783H169.292Z" fill="black"/>
<path d="M172.986 233.034C173.376 231.053 172.403 228.899 171.247 227.263C171.541 227.088 171.78 226.834 171.937 226.53C172.094 226.226 172.163 225.884 172.136 225.543C172.109 225.202 171.988 224.875 171.785 224.6C171.582 224.324 171.306 224.111 170.988 223.984C173.957 222.199 171.424 216.091 168.285 217.603C167.885 216.989 167.388 216.445 166.813 215.991C165.911 215.296 166.053 215.759 166.075 214.851C166.135 212.365 164.37 211.352 163.342 213.844C163.341 213.479 163.3 213.116 163.22 212.76C163.186 212.598 163.116 212.445 163.015 212.314C162.915 212.182 162.786 212.074 162.638 211.999C162.491 211.923 162.329 211.882 162.163 211.877C161.997 211.872 161.833 211.904 161.681 211.971C160.785 212.29 160.222 213.075 159.541 213.703C155.961 217.014 153.354 218.229 152.211 219.149C151.543 219.648 151.029 220.325 150.727 221.102C150.426 221.878 150.348 222.724 150.503 223.543C148.11 223.336 145.681 225.886 148.511 230.074C149.814 231.972 151.721 232.02 152.655 231.081C152.786 232.181 152.855 233.288 152.86 234.396C152.869 234.74 153.005 235.068 153.241 235.318C153.477 235.568 153.796 235.722 154.138 235.753C154.346 235.762 154.192 235.644 153.628 236.623C152.188 239.067 152.54 241.623 152.736 241.609C153.025 241.589 152.688 238.209 155.301 235.47C155.52 238.143 158.19 238.357 158.826 234.838C159.236 235.64 159.943 236.25 160.797 236.537C161.651 236.824 162.584 236.766 163.395 236.374C167.024 238.407 171.728 236.629 172.829 233.615C175.213 234.538 176.371 237.429 176.531 237.387C176.926 237.309 175.676 233.854 172.987 233.034H172.986ZM170.46 223.77C169.817 223.552 169.913 223.604 169.891 223.399C171.095 222.725 171.155 220.287 169.513 220.183C169.194 220.183 169.372 220.329 169.1 219.418C169.184 219.349 169.283 219.302 169.389 219.28C169.495 219.258 169.605 219.261 169.709 219.29C169.9 219.332 170.002 219.403 170.019 219.38C170.095 219.31 169.502 218.894 169.023 219.174C168.895 218.766 168.727 218.373 168.52 217.999C171.158 217.18 172.983 222.3 170.46 223.77ZM169.844 223.037C169.739 222.331 169.518 221.222 169.372 220.516C170.64 220.507 170.656 222.289 169.844 223.037ZM168.383 219.152C168.817 220.236 169.259 222.326 169.722 223.495C168.47 222.949 169.13 222.447 168.281 221.882C168.382 220.818 167.644 219.281 167.222 218.621C168.223 218.679 167.929 218.006 168.383 219.152ZM151.307 221.424C152.097 219.236 153.992 219.32 158.525 215.481C160.646 213.693 161.66 212.07 162.418 212.492C163.528 212.958 162.341 218.276 163.12 215.586C163.415 214.547 163.051 214.885 163.942 213.524C164.643 212.468 165.541 212.87 165.449 214.832C165.407 215.725 165.281 215.718 165.757 216.053C166.603 216.577 167.322 217.283 167.86 218.12C167.552 218.182 167.238 218.214 166.923 218.216C165.207 216.251 163.406 218.178 161.801 218.806C159.394 219.769 156.924 219.926 156.008 221.178C154.551 222.277 152.924 223.13 151.191 223.705C151.021 222.948 151.061 222.159 151.307 221.424ZM151.391 226.46C151.689 227.294 151.957 228.138 152.193 228.992C152.05 229.104 151.882 229.179 151.703 229.211C151.525 229.244 151.341 229.232 151.168 229.177C150.087 228.831 149.965 226.742 151.391 226.46ZM152.548 230.525C152.261 230.849 151.869 231.062 151.44 231.126C151.012 231.189 150.575 231.099 150.206 230.872C149.295 230.381 148.68 229.239 148.175 228.035C147.14 225.5 148.852 223.907 150.593 224.009C151.152 226.457 151.656 225.706 150.312 225.852C148.807 225.995 148.935 227.554 149.107 227.482C149.192 227.489 148.769 225.941 151.022 226.152C151.076 226.157 151.104 226.198 151.061 226.19C149.661 226.48 149.569 229.052 151.061 229.516C151.265 229.578 151.481 229.593 151.693 229.56C151.904 229.528 152.106 229.449 152.283 229.328C152.398 229.72 152.487 230.119 152.548 230.523V230.525H152.548ZM151.265 224.023C152.163 223.791 153.035 223.464 153.864 223.048C156.219 221.857 155.585 221.327 155.501 222.806C155.448 224.177 155.642 225.929 156.543 226.971C155.608 228.245 154.466 229.353 153.164 230.249C152.592 227.447 151.609 225.4 151.265 224.021V224.023ZM163.009 235.455C158.342 231.93 161.722 227.155 161.526 227.036C160.96 227.773 160.555 228.62 160.337 229.524C160.119 230.428 160.094 231.367 160.262 232.281C160.615 233.788 161.514 235.112 162.785 235.996C162.368 236.106 161.933 236.131 161.507 236.069C161.08 236.007 160.671 235.859 160.303 235.633C159.935 235.408 159.617 235.111 159.368 234.759C159.119 234.407 158.944 234.008 158.854 233.587C158.687 232.711 158.62 234.014 158.369 234.794C158.17 235.388 157.684 236.556 157.104 236.786C156.48 237.035 156.044 236.298 155.948 235.619C155.629 233.573 155.914 234.854 156.285 232.915C156.371 232.423 156.343 232.144 156.302 232.139C156.262 232.136 156.196 232.399 156.04 232.853C155.868 233.436 155.59 233.982 155.22 234.464V234.479C154.407 235.576 153.545 235.353 153.447 234.316C153.492 233.067 153.418 231.817 153.225 230.583C154.68 229.784 155.904 228.625 156.782 227.217C157.19 227.604 157.713 227.845 158.272 227.902C159.175 227.96 159.643 227.329 160.243 226.787C160.438 226.605 160.649 226.436 160.835 226.233C160.881 226.394 160.964 226.542 161.077 226.666C161.189 226.789 161.328 226.886 161.484 226.947C162.585 227.34 163.576 226.582 164.087 226.463C164.867 226.284 165.294 227.09 165.381 227.019C165.304 226.728 165.124 226.475 164.874 226.307C164.624 226.138 164.322 226.067 164.023 226.105C163.455 226.174 162.46 226.794 161.696 226.45C161.53 226.341 161.411 226.173 161.363 225.981C161.315 225.788 161.341 225.584 161.435 225.41C161.775 224.476 163.239 223.87 164.139 223.349C165.261 222.699 166.36 222.152 167.407 222.23C167.925 222.235 168.245 222.481 168.3 222.879C168.431 223.851 167.453 224.295 167.046 224.668C166.926 224.763 166.83 224.885 166.766 225.023C166.701 225.162 166.671 225.314 166.677 225.467C166.683 225.62 166.725 225.769 166.8 225.902C166.874 226.036 166.979 226.15 167.106 226.235C167.164 226.209 166.979 225.964 166.934 225.542C166.867 224.71 168.628 224.722 168.826 223.172C169.447 224.313 172.095 224.255 171.481 226.057C171.017 227.416 163.142 230 162.334 233.239C162.24 233.61 162.206 233.59 162.444 233.268C163.65 231.636 162.55 232.852 165.044 234.167C168.502 235.984 172.338 233.345 170.131 229.651C170.33 229.491 170.485 229.283 170.582 229.047C170.679 228.811 170.715 228.554 170.686 228.301C170.668 227.548 170.51 227.747 170.776 227.584C175.928 235.176 167.63 238.522 163.009 235.455ZM169.732 233.02C168.77 234.252 167.055 234.351 165.606 233.772C166.412 232.489 169.173 232.137 169.732 233.02ZM165.663 230.442C166.472 229.932 167.146 229.562 167.985 229.119C168.367 229.669 167.879 230.576 167.319 230.803C167.037 230.903 166.732 230.922 166.44 230.859C166.147 230.795 165.878 230.651 165.663 230.442ZM168.364 228.918C169.026 228.57 169.689 228.222 170.34 227.844C170.535 229.673 169.172 230.019 168.364 228.918ZM163.703 232.464C163.604 232.359 163.509 232.249 163.419 232.136C163.986 231.601 164.602 231.121 165.26 230.703C165.401 230.927 165.465 231.191 165.443 231.454C165.421 231.718 165.315 231.967 165.14 232.165C164.965 232.363 164.73 232.5 164.471 232.553C164.212 232.607 163.943 232.576 163.703 232.464Z" fill="black"/>
<path d="M127.971 197.25C128.38 190.547 128.485 190.524 128.159 190.235C127.922 190.029 127.744 190.078 122.58 189.557C122.008 189.413 121.479 189.131 121.041 188.735C125.839 156.731 124.95 160.667 125.53 160.018C126.895 158.488 130.251 159.894 132.004 159.954C133.757 160.014 133.14 158.12 133.152 157.084C133.176 155.21 133.365 153.345 133.714 151.505C134.177 150.98 133.189 151.025 155.38 153.965C157.817 154.288 158.174 155.33 156.557 163.852C158.331 164.295 160.109 164.717 161.89 165.12C159.797 185.942 159.938 191.824 156.998 191.43C151.78 190.73 151.791 190.659 151.317 190.946C149.417 192.095 149.817 201.534 147.149 201.418C140.511 201.131 136.71 199.85 134.114 199.684C131.802 199.528 125.766 199.86 127.971 197.25Z" fill="#7E45C5"/>
<path d="M157.584 162.875C158.419 155.857 159.388 153.097 156.846 152.75C132.313 149.334 133.813 149.306 132.928 150.508C132.463 151.136 132.576 150.943 131.537 158.803C126.246 157.878 124.273 157.134 123.818 160.743C120.144 189.9 119.603 188.482 120.587 189.753C121.363 190.755 121.781 190.597 127.174 191.169C126.829 193.623 126.564 196.087 126.381 198.558C126.33 198.826 126.334 199.101 126.392 199.368C126.45 199.634 126.561 199.886 126.719 200.109C126.876 200.331 127.077 200.52 127.309 200.663C127.541 200.806 127.799 200.902 128.068 200.943C145.367 203.096 147.857 203.083 148.058 203.083C150.39 203.083 150.201 200.319 151.68 192.307L158.066 192.933C158.336 192.961 158.608 192.935 158.867 192.856C159.126 192.777 159.366 192.647 159.574 192.474C159.782 192.301 159.954 192.089 160.08 191.849C160.205 191.609 160.281 191.347 160.303 191.077L163.511 165.937C163.869 163.269 161.156 163.445 157.584 162.875ZM129.634 189.866C131.094 178.959 132.259 180.74 123.902 179.553L126.471 160.741C131.265 161.433 133.843 162.68 134.158 159.08C134.158 159.08 135.021 152.501 135.03 152.407C135.525 152.553 134.509 152.392 149.344 154.4C147.934 164.915 146.719 163.228 155.186 164.431C155.496 164.977 155.685 162.639 152.948 183.688C144.056 182.422 145.755 180.943 144.386 191.968L129.634 189.866ZM154.973 162.53L150.206 161.853L151.172 154.642L155.837 155.265L154.973 162.53ZM122.642 188.041C122.732 187.854 123.047 185.338 123.63 181.38L128.805 182.115L127.935 188.608C127.8 188.583 126.574 188.458 122.642 188.041ZM157.761 190.26C147.887 189.292 149.886 187.55 147.518 200.385L129.032 198.393C129.113 197.368 129.347 194.619 129.75 191.746C144.848 193.893 144.454 193.854 144.651 193.854C146.552 193.854 146.25 191.274 147.066 184.711L153.023 185.559C155.049 185.859 154.667 184.164 157.172 165.472L160.841 166.059L157.761 190.26Z" fill="black"/>
<path d="M140.041 173.797C137.922 173.797 136.138 171.311 135.335 169.636C135.148 169.261 135.114 169.608 135.843 167.922C137.049 165.112 138.546 162.435 140.309 159.937C141.178 158.598 140.855 158.611 141.434 160.044C142.883 164.023 143.96 168.128 144.652 172.306C144.312 173.356 140.437 173.797 140.041 173.797ZM136.625 169.342C137.2 170.447 137.999 171.421 138.971 172.201C139.244 172.369 139.55 172.475 139.869 172.511C140.187 172.548 140.51 172.513 140.814 172.411C141.673 172.286 142.524 172.104 143.358 171.867C142.7 168.422 141.813 165.024 140.703 161.696C139.065 164.086 137.698 166.65 136.625 169.342Z" fill="black"/>
<path d="M144.547 175.402C145.001 173.902 142.462 174.98 141.309 175.261C138.701 175.884 138.249 175.42 136.871 173.448C133.993 169.336 134.602 173.799 135.02 178.816C134.985 181.093 135.591 183.333 136.77 185.281C139.125 185.259 144.255 176.369 144.547 175.4V175.402ZM141.911 177.614C140.554 179.78 139.014 181.825 137.306 183.727C136.421 181.902 136.406 179.952 136.02 175.651C135.742 172.574 136.226 176.274 138.739 176.71C142.294 177.327 143.814 174.635 141.911 177.616V177.614Z" fill="black"/>
<path d="M129.163 139.048C117.638 121.121 120.077 121.944 114.831 125.31C112.581 121.721 111.977 119.631 109.785 121.438C98.0834 128.822 96.9941 128.869 98.0797 130.592L100.592 134.717C96.2797 137.586 96.1728 135.291 106.555 151.879C107.528 153.435 108.675 152.329 111.945 150.424L115.172 155.023C116.256 156.743 117.143 155.816 128.037 149.087C128.35 148.88 128.568 148.556 128.644 148.188C128.719 147.82 128.645 147.437 128.438 147.124C128.393 147.041 127.36 145.144 126.077 143.134C128.112 141.937 130.438 141.043 129.163 139.048ZM124 142.959L116.188 147.973C112.453 142.044 113.687 142.472 109.047 145.447L102.688 135.345C102.855 134.829 102.227 135.345 105.688 133.132C106.828 132.403 105.615 131.177 103.467 127.766C108.703 124.461 110.869 123.103 111.04 122.97C114.578 128.621 113.633 128.428 118.185 125.509L124.56 135.502C120.064 138.375 120.313 137.1 124 142.959ZM99.9997 129.951L102.345 128.469L104.697 132.201L102.304 133.734L99.9997 129.951ZM126.501 147.703L116.582 153.598C111.844 146.848 113.312 147.347 107.987 150.446L99.9584 137.509L101.751 136.326C108.578 147.163 108.145 146.722 108.763 146.861C109.326 146.985 109.384 146.799 112.6 144.737C114.765 148.174 115.48 149.987 116.62 149.263L124.438 144.244C125.34 145.654 126.126 147.034 126.501 147.703ZM124.727 141.641L122.625 138.304L125.26 136.616L127.438 140.032C127.403 140.062 124.765 141.617 124.727 141.641Z" fill="black"/>
<path d="M118.614 136.561C113.951 132.643 110.392 127.168 109.74 129.774C109.646 130.149 109.637 129.905 111.094 134.926C110.687 135.157 110.284 135.395 109.886 135.645C109.735 135.733 109.626 135.877 109.582 136.046C109.538 136.215 109.563 136.395 109.651 136.545C109.739 136.696 109.884 136.806 110.053 136.85C110.222 136.894 110.401 136.869 110.552 136.781L111.472 136.218L112.56 139.957C112.616 140.114 112.729 140.244 112.877 140.321C113.024 140.398 113.196 140.416 113.357 140.372C113.517 140.328 113.655 140.225 113.743 140.083C113.831 139.941 113.861 139.772 113.829 139.608L112.654 135.566C113.121 135.324 114.069 134.986 113.623 134.295C113.248 133.715 112.686 134.073 112.281 134.28C110.64 128.636 110.861 131.748 117.684 137.482C118.327 138.033 119.263 137.107 118.614 136.563V136.561Z" fill="black"/>
<path d="M103.837 160.479C105.106 154.304 106.576 155.887 92.8698 153.166C90.9123 152.514 90.8373 153.747 90.016 157.452C87.1623 156.869 86.3467 156.427 85.8723 158.636C82.4167 174.772 81.4567 173.416 86.2848 174.228C84.9592 180.187 84.3123 178.644 96.721 180.937C97.0663 181 97.4224 180.926 97.7142 180.731C98.0061 180.536 98.2107 180.235 98.2848 179.893L99.4379 175.696C104.958 176.581 103.3 178.061 106.687 162.541C107.052 160.863 105.125 160.766 103.837 160.479ZM88.2085 173.249C89.3917 167.891 89.731 168.708 85.816 167.909L87.8092 159.033C91.9173 159.881 91.4167 160.284 92.5585 155.146L99.3348 156.479C98.5267 160.123 98.4123 160.188 98.7123 160.651C99.2167 161.429 101.54 161.146 102.037 161.801L100.04 170.812C95.6992 169.925 96.4773 169.327 95.296 174.699L88.2085 173.249ZM101.874 160.228L99.9404 159.832L100.627 156.734L102.515 157.109L101.874 160.228ZM84.8523 171.999L85.5142 169.186L87.6592 169.625L87.0517 172.364L84.8523 171.999ZM102.177 174.144C97.1973 173.347 98.1723 172.854 96.511 178.906L87.6798 177.406C87.7829 176.791 87.976 175.719 88.2292 174.594C97.5329 176.495 96.0292 177.477 97.3323 171.594C101.958 172.531 100.707 173.857 103.257 162.369L104.637 162.676L102.177 174.144Z" fill="black"/>
<path d="M153.237 131.797C147.908 120.442 149.112 121.128 145.925 122.53C144.175 118.715 145.782 118.987 135.998 123.192C134.828 123.924 135.695 124.91 136.581 126.924C135.498 127.42 134.367 127.711 134.879 128.832C139.773 139.582 138.331 138.526 142.038 137.082C143.311 139.52 143.673 140.844 144.756 140.39C151.653 137.499 152.735 137.577 152.153 136.329C151.049 133.435 150.68 134.223 152.686 133.428C152.833 133.361 152.964 133.265 153.072 133.145C153.18 133.025 153.263 132.884 153.314 132.732C153.366 132.579 153.386 132.417 153.372 132.256C153.359 132.095 153.313 131.939 153.237 131.797ZM149.099 132.839L144.963 134.65C143.45 131.347 143.898 131.527 141.192 132.712L138.687 127.231C141.406 126.04 141.198 126.425 139.718 123.194L143.787 121.445C145.33 124.82 144.923 124.717 147.708 123.498L150.125 128.793C147.4 129.993 147.603 129.571 149.099 132.839ZM138.426 123.749L139.214 125.47L137.81 126.089L137.043 124.345L138.426 123.749ZM144.614 138.865C142.439 134.694 143.153 135.072 139.866 136.353L136.388 128.624L137.538 128.099C140.819 135.262 139.93 134.795 142.893 133.495C143.885 135.657 144.102 136.557 145.062 136.139C150.323 133.839 149.562 134.047 149.716 134.379C150.1 135.192 150.43 135.993 150.62 136.467L144.614 138.865ZM150.571 132.678L149.596 130.55L150.839 130.006L151.865 132.164L150.571 132.678Z" fill="black"/>
<path d="M158.223 281.156C158.223 281.156 138.735 254.707 138.51 254.437C137.306 253.051 135.78 253.027 133.822 254.461C133.822 254.461 128.009 258.686 127.882 258.791C123.215 252.337 121.949 248.598 117.894 252.185C117.491 252.541 119.632 250.861 91.6832 271.023C91.0985 271.445 90.7046 272.082 90.5872 272.793C90.4699 273.505 90.6388 274.234 91.057 274.822L96.247 282.267C90.9482 286.222 89.9807 286.548 89.7332 288.097C89.4839 289.677 88.852 288.455 107.692 314.63C108.111 315.211 108.742 315.605 109.449 315.725C110.155 315.845 110.881 315.682 111.468 315.271L119.761 309.672C127.113 318.558 127.004 318.946 128.728 318.946C129.92 318.946 128.073 320.501 155.114 301.421C155.691 301.015 156.085 300.401 156.214 299.708C156.343 299.016 156.195 298.3 155.803 297.716C154.271 295.231 152.639 292.81 150.913 290.457C157.873 285.699 158.551 285.614 158.859 283.749C158.932 283.296 158.914 282.833 158.805 282.388C158.695 281.942 158.498 281.523 158.223 281.156ZM141.736 282.999L147.11 290.405L128.726 303.749C120.933 293.013 123.802 293.531 113.137 301.274L99.9914 283.164C100.19 282.423 99.1195 283.383 107.197 277.512C107.412 277.358 107.593 277.162 107.732 276.936C107.87 276.71 107.962 276.46 108.003 276.198C108.086 275.67 107.955 275.132 107.641 274.7L102.511 267.631C122.608 253.207 120.356 254.442 120.847 255.119C127.938 264.907 125.812 264.806 136.134 257.157L149.242 275.062L142.183 280.184C141.968 280.339 141.786 280.535 141.648 280.761C141.509 280.986 141.417 281.237 141.376 281.499C141.334 281.76 141.344 282.027 141.406 282.285C141.468 282.542 141.58 282.785 141.736 282.999ZM94.402 273.436L100.499 269.073L105.365 275.78L99.1776 280.28L94.402 273.436ZM152.429 298.983L128.868 315.138C118.901 303.093 122.411 303.626 110.118 311.93L93.5545 288.704L98.3601 285.117C112.449 304.527 111.551 303.717 112.724 303.907C113.812 304.079 113.443 304.113 121.627 298.171C126.058 304.276 127.563 307.661 129.811 306.024L148.175 292.694C150.05 295.257 151.679 297.794 152.429 298.985V298.983ZM148.679 287.707C148.237 288.009 149.021 288.822 144.011 281.919L150.725 277.044L155.311 283.169L148.679 287.707Z" fill="black"/>
<g clip-path="url(#clip0_7047_199143)">
<path d="M127.143 268.161L125.094 267.905L126.05 269.314L127.356 268.474L127.143 268.161Z" fill="black"/>
<path d="M130.989 271.405L129.14 271.105L127.356 268.474L129.141 268.681L130.989 271.405Z" fill="black"/>
<path d="M129.14 271.105L126.478 272.91L128.515 273.083L130.989 271.405L129.14 271.105Z" fill="black"/>
<path d="M132.341 273.735L130.344 273.352L134.061 278.832L135.973 279.09L132.341 273.735Z" fill="black"/>
<path d="M134.752 279.918L132.808 279.682L134.061 278.832L135.973 279.09L134.752 279.918Z" fill="black"/>
<path d="M133.679 280.966L132.808 279.682L134.752 279.918L135.686 281.296L133.679 280.966Z" fill="black"/>
<path d="M133.679 280.966L128.324 284.598L130.112 285.077L135.686 281.296L133.679 280.966Z" fill="black"/>
<path d="M127.465 283.331L128.324 284.598L126.181 284.202L127.465 283.331Z" fill="black"/>
<path d="M129.315 277.296L129.995 278.298L128.407 277.912L129.315 277.296Z" fill="black"/>
<path d="M128.962 280.416L127.929 281.117L122.725 273.444L124.395 273.683L128.962 280.416Z" fill="black"/>
<path d="M124.395 273.683L122.725 273.444L125.543 271.532L126.18 272.472L124.395 273.683Z" fill="black"/>
<path d="M125.094 267.905L119.52 271.685L120.476 273.095L119.223 273.944L126.181 284.202L127.465 283.331L128.324 284.598L133.679 280.966L132.808 279.682L134.061 278.832L130.344 273.352L126.899 275.688L128.407 277.912L129.315 277.296L130.653 279.269L127.929 281.117L122.725 273.444L125.543 271.532L126.478 272.91L129.14 271.105L127.356 268.474L126.05 269.314L125.094 267.905Z" fill="url(#paint0_linear_7047_199143)"/>
<path d="M125.094 267.905L127.143 268.161L127.356 268.474M125.094 267.905L126.05 269.314L127.356 268.474M125.094 267.905L119.52 271.685L120.476 273.095L119.223 273.944L126.181 284.202M127.356 268.474L129.141 268.681L130.989 271.405M127.356 268.474L129.14 271.105M129.14 271.105L130.989 271.405M129.14 271.105L126.478 272.91M130.989 271.405L128.515 273.083L126.478 272.91M126.478 272.91L125.543 271.532M130.344 273.352L132.341 273.735L135.973 279.09M130.344 273.352L134.061 278.832M130.344 273.352L126.899 275.688L128.407 277.912M135.973 279.09L134.061 278.832M135.973 279.09L134.752 279.918M134.061 278.832L132.808 279.682M132.808 279.682L134.752 279.918M132.808 279.682L133.679 280.966M134.752 279.918L135.686 281.296M133.679 280.966L135.686 281.296M133.679 280.966L128.324 284.598M135.686 281.296L130.112 285.077L128.324 284.598M128.324 284.598L127.465 283.331L126.181 284.202M128.324 284.598L126.181 284.202M129.315 277.296L129.995 278.298L128.407 277.912M129.315 277.296L128.407 277.912M129.315 277.296L130.653 279.269L127.929 281.117M127.929 281.117L128.962 280.416L124.395 273.683M127.929 281.117L122.725 273.444M124.395 273.683L122.725 273.444M124.395 273.683L126.18 272.472L125.543 271.532M122.725 273.444L125.543 271.532" stroke="black" stroke-width="0.227039"/>
<path d="M127.07 280.052L123.332 279.798L126.221 284.057L127.473 283.208L128.344 284.492L133.574 280.945L132.703 279.661L130.811 279.298L127.899 281.273L127.07 280.052Z" fill="black"/>
<path d="M124.097 275.669L120.359 275.416L122.313 278.297L125.987 278.456L124.097 275.669Z" fill="black"/>
<path d="M128.438 277.754L127.057 275.719L128.059 275.039L131.461 275.201L133.436 278.113L129.771 277.765L129.346 277.138L128.438 277.754Z" fill="black"/>
</g>
<path d="M118.225 276.856L116.177 276.599L117.132 278.008L118.438 277.169L118.225 276.856Z" fill="black"/>
<path d="M122.071 280.1L120.222 279.799L118.438 277.169L120.223 277.375L122.071 280.1Z" fill="black"/>
<path d="M120.222 279.799L117.56 281.605L119.597 281.777L122.071 280.1L120.222 279.799Z" fill="black"/>
<path d="M123.423 282.429L121.426 282.046L125.143 287.527L127.055 287.784L123.423 282.429Z" fill="black"/>
<path d="M125.834 288.613L123.89 288.376L125.143 287.527L127.055 287.784L125.834 288.613Z" fill="black"/>
<path d="M124.761 289.66L123.89 288.376L125.834 288.613L126.768 289.99L124.761 289.66Z" fill="black"/>
<path d="M124.761 289.66L119.406 293.292L121.194 293.771L126.768 289.99L124.761 289.66Z" fill="black"/>
<path d="M118.547 292.026L119.406 293.292L117.263 292.896L118.547 292.026Z" fill="black"/>
<path d="M120.397 285.99L121.077 286.992L119.489 286.606L120.397 285.99Z" fill="black"/>
<path d="M120.044 289.11L119.011 289.811L113.807 282.139L115.477 282.377L120.044 289.11Z" fill="black"/>
<path d="M115.477 282.377L113.807 282.139L116.625 280.227L117.262 281.166L115.477 282.377Z" fill="black"/>
<path d="M116.177 276.599L110.602 280.38L111.558 281.789L110.305 282.639L117.263 292.896L118.547 292.026L119.406 293.292L124.761 289.66L123.89 288.376L125.143 287.527L121.426 282.046L117.981 284.383L119.489 286.606L120.397 285.99L121.735 287.963L119.011 289.811L113.807 282.139L116.625 280.227L117.56 281.605L120.222 279.799L118.438 277.169L117.132 278.008L116.177 276.599Z" fill="black"/>
<path d="M116.177 276.599L118.225 276.856L118.438 277.169M116.177 276.599L117.132 278.008L118.438 277.169M116.177 276.599L110.602 280.38L111.558 281.789L110.305 282.639L117.263 292.896M118.438 277.169L120.223 277.375L122.071 280.1M118.438 277.169L120.222 279.799M120.222 279.799L122.071 280.1M120.222 279.799L117.56 281.605M122.071 280.1L119.597 281.777L117.56 281.605M117.56 281.605L116.625 280.227M121.426 282.046L123.423 282.429L127.055 287.784M121.426 282.046L125.143 287.527M121.426 282.046L117.981 284.383L119.489 286.606M127.055 287.784L125.143 287.527M127.055 287.784L125.834 288.613M125.143 287.527L123.89 288.376M123.89 288.376L125.834 288.613M123.89 288.376L124.761 289.66M125.834 288.613L126.768 289.99M124.761 289.66L126.768 289.99M124.761 289.66L119.406 293.292M126.768 289.99L121.194 293.771L119.406 293.292M119.406 293.292L118.547 292.026L117.263 292.896M119.406 293.292L117.263 292.896M120.397 285.99L121.077 286.992L119.489 286.606M120.397 285.99L119.489 286.606M120.397 285.99L121.735 287.963L119.011 289.811M119.011 289.811L120.044 289.11L115.477 282.377M119.011 289.811L113.807 282.139M115.477 282.377L113.807 282.139M115.477 282.377L117.262 281.166L116.625 280.227M113.807 282.139L116.625 280.227" stroke="black" stroke-width="0.227039"/>
<path d="M115.178 284.363L111.439 284.109L117.302 292.753L118.554 291.903L119.425 293.187L124.655 289.64L123.784 288.356L125.006 287.527L123.179 284.834L118.294 284.643L119.518 286.448L120.427 285.832L121.892 287.993L118.98 289.968L115.178 284.363Z" fill="#191919"/>
<path d="M113.65 282.11L115.179 284.365L111.441 284.111L110.464 282.671L111.716 281.821L110.76 280.412L113.579 278.5L119.491 278.925L120.065 279.771L117.591 281.449L116.656 280.071L113.65 282.11Z" fill="black"/>
<path d="M118.139 284.415L118.309 284.665L123.201 284.868L121.396 282.206L118.139 284.415Z" fill="black"/>
<path d="M167.751 210.783C169.438 211.632 170.098 213.408 171.936 217.248C172.656 215.677 173.104 210.912 178.281 209.408C178.843 209.247 179.145 208.868 178.641 208.565C177.418 207.83 173.751 207.406 172.303 203.193C170.078 196.717 172.613 207.479 164.439 209.29C165.452 209.969 166.571 210.473 167.751 210.783Z" fill="white"/>
<path d="M71.2404 195.081C72.5267 192.479 73.582 189.769 74.3941 186.983C75.2754 189.42 76.4754 191.732 77.9566 193.86C79.9497 196.238 84.9072 197.215 85.2072 197.837C85.5822 198.621 81.6447 199.167 79.616 201.653C79.376 201.945 76.556 206.541 76.4285 206.888C75.9916 208.03 75.9822 209.477 74.9772 210.173C74.1635 208.485 74.0097 206.545 73.1491 204.887C71.4035 201.531 67.7941 200.762 66.0241 199.922C63.3335 198.649 68.7522 198.78 71.2404 195.081Z" fill="white"/>
<path d="M81.9594 195.865C80.4283 195.225 79.0741 194.224 78.0112 192.95C76.9482 191.675 76.2078 190.163 75.8525 188.542C73.9419 182.097 74.7275 181.653 73.0831 188.793C70.7431 199.235 62.7181 198.08 62.8512 199.321C62.9581 200.309 70.9831 199.604 73.6962 208.398C74.5231 211.023 74.8081 213.309 75.1963 213.294C75.5844 213.279 75.8337 211.044 76.6869 208.419C81.035 194.874 93.3312 200.639 81.9594 195.865ZM75.1869 208.99C74.7802 207.039 73.9332 205.206 72.7104 203.632C71.4876 202.057 69.9214 200.783 68.1312 199.906C65.2231 198.547 65.4369 199.944 68.2719 198.23C69.9481 197.126 71.369 195.676 72.4393 193.978C73.5097 192.28 74.2048 190.373 74.4781 188.384C74.9614 190.832 76.1891 193.072 77.9934 194.796C79.7976 196.52 82.0904 197.645 84.5581 198.016C79.8763 199.051 76.2875 204.363 75.1869 208.994V208.99Z" fill="black"/>
<path d="M137.907 146.402C134.883 149.37 132.335 148.125 134.082 149.46C135.239 150.359 136.171 151.515 136.805 152.836C137.439 154.157 137.758 155.607 137.737 157.072C142.302 150.363 144.502 151.712 145.151 151.072C145.762 150.47 143.876 149.516 143.559 149.298C140.757 147.378 141.487 144.011 140.801 142.667C139.691 143.705 139.029 145.299 137.907 146.402Z" fill="white"/>
<path d="M144.238 149.028C139.39 145.413 143.213 135.629 139.384 143.47C138.975 144.444 138.371 145.323 137.61 146.053C136.848 146.784 135.944 147.351 134.955 147.719C133.343 148.272 131.824 148.22 131.768 148.627C131.507 149.575 136.51 150.089 136.93 155.821C137.271 160.12 137.076 159.959 139.24 156.365C143.458 149.296 150.431 153.496 144.238 149.028ZM138.238 155.502C138.155 154.35 137.835 153.226 137.297 152.203C136.76 151.18 136.018 150.278 135.116 149.555C134.366 148.964 134.335 149.309 135.366 148.974C137.555 148.191 139.348 146.578 140.357 144.483C140.444 145.802 140.875 147.075 141.609 148.174C142.342 149.274 143.351 150.162 144.535 150.749C143.207 151.051 141.959 151.63 140.872 152.45C139.785 153.269 138.884 154.309 138.229 155.502H138.238Z" fill="black"/>
<path d="M113.232 255.597C118.936 255.822 119.506 256.78 122.864 260.611C123.239 254.129 124.364 252.736 127.01 250.128C126.296 249.205 123.341 250.392 120.727 248.69C119.193 247.69 117.914 245.48 117.363 245.118C116.332 244.448 117.131 247.246 117.091 247.998C116.748 250.909 115.38 253.602 113.232 255.597Z" fill="white"/>
<path d="M176.787 206.982C170.412 204.191 172.405 192.556 170.205 202.098C168.569 209.388 163.009 208.473 163.133 209.615C163.088 210.641 168.715 209.894 170.644 216.129C172.129 220.829 171.709 220.569 173.149 216.142C176.04 207.138 184.731 210.322 176.787 206.982ZM171.899 215.731C171.538 214.459 170.913 213.278 170.063 212.265C169.213 211.252 168.159 210.431 166.969 209.855C165.73 209.279 165.799 209.799 167.087 209.022C168.196 208.305 169.15 207.374 169.895 206.284C170.639 205.193 171.158 203.965 171.422 202.672C171.835 204.17 172.651 205.525 173.782 206.59C174.913 207.655 176.315 208.389 177.835 208.711C174.97 209.624 172.859 212.772 171.899 215.731Z" fill="black"/>
<path d="M124.239 248.962C117.071 248.399 115.147 236.429 116.231 246.429C117.106 254.067 111.384 255.024 111.896 256.102C112.192 257.101 117.401 254.465 121.385 259.872C127.01 267.416 121.115 258.506 125.645 252.327C127.77 249.395 130.233 249.341 124.239 248.962ZM122.473 259.13C121.699 258.005 120.694 257.06 119.524 256.357C118.354 255.655 117.047 255.211 115.691 255.057C114.234 254.909 114.485 255.417 115.513 254.182C116.35 253.107 116.964 251.874 117.316 250.557C117.669 249.241 117.753 247.867 117.564 246.517C118.471 247.849 119.73 248.902 121.201 249.561C122.672 250.219 124.297 250.456 125.895 250.246C123.42 252.059 122.347 255.937 122.473 259.124V259.13Z" fill="black"/>
<path d="M126.278 115.686C129.25 118.394 132.006 117.79 132.167 118.264C132.317 118.703 131.027 120.184 130.707 120.919C130.18 122.127 130.471 123.603 129.807 124.739C127.581 121.176 124.148 122.161 124.139 121.48C124.139 121.184 125.693 119.793 126.096 118.174C126.194 117.788 126.627 116.013 126.278 115.686Z" fill="white"/>
<path d="M133.282 118.074C133.268 117.35 130.317 117.727 128.941 116.761C127.253 115.586 126.35 113.184 125.723 113.441C124.653 113.793 126.79 117.448 124.447 120.174C123.668 121.078 122.77 121.704 122.926 122.069C123.038 122.444 124.094 122.362 125.242 122.516C128.75 122.868 129.338 126.641 130.388 126.47C131.397 126.198 129.775 122.799 131.943 119.953C132.631 119.039 133.413 118.43 133.282 118.074ZM129.432 123.451C128.42 122.216 126.974 121.416 125.39 121.214C126.378 119.921 126.914 118.342 126.92 116.714C127.445 117.358 128.11 117.875 128.864 118.226C129.617 118.576 130.44 118.752 131.272 118.739C130.116 120.04 129.463 121.712 129.432 123.451Z" fill="black"/>
<path d="M267.826 188.347C271.525 191.722 276.415 193.422 281.157 195.033C289.499 197.868 299.508 194.095 304.951 187.158C312.368 177.712 312.638 166.548 310.523 163.795C308.523 167.885 303.642 172.795 299.24 171.753C298.167 171.495 297.226 170.851 296.599 169.943C295.972 169.035 295.702 167.928 295.84 166.833C296.62 162.503 302.988 155.502 302.365 152.615C302.095 151.362 303.155 149.603 302.928 147.395C302.795 146.131 302.352 145.362 300.021 140.307C299.844 139.802 299.568 139.337 299.21 138.939C298.852 138.541 298.42 138.217 297.936 137.986C296.532 137.017 295.285 135.488 293.579 135.505C298.491 153.693 277.332 143.182 275.991 153.608C275.418 158.071 280.205 159.884 278.547 166.996C278.228 168.359 277.895 168.818 276.408 169.073C274.928 169.468 273.375 169.495 271.882 169.153C270.39 168.811 269.003 168.111 267.843 167.112C266.247 165.477 263.376 159.132 263.905 155.44C264.468 151.488 258.44 161.504 259.968 175.25C259.032 174.937 262.902 183.852 267.826 188.347Z" fill="#7E45C5"/>
<path d="M157.151 23.7628C154.457 23.9128 154.76 42.5128 168.932 45.2203C173.664 46.1203 177.857 46.3453 183.236 42.5728C187.46 39.6159 188.323 36.6853 189.024 31.544C189.549 29.5134 189.274 27.3588 188.255 25.5253C185.923 31.0716 179.355 30.4209 178.693 26.2978C178.691 24.6528 179.055 23.028 179.758 21.5409C180.357 19.3157 180.2 16.9545 179.312 14.828C178.424 12.7015 176.855 10.9302 174.851 9.79218C174.628 11.1816 175.368 12.6684 174.84 13.9734C174.03 15.9797 171.528 15.7472 167.754 18.2859C164.516 20.4703 164.709 22.3322 166.243 25.6809C167.18 27.7265 167.675 30.3441 166.17 31.1297C165.052 31.279 163.915 31.1536 162.857 30.7645C161.799 30.3754 160.851 29.7343 160.097 28.8965C158.894 27.3217 157.904 25.5957 157.151 23.7628Z" fill="#7E45C5"/>
<path d="M94.8124 64.2595C94.4186 63.607 94.1186 63.0577 93.2111 62.947C93.7661 65.3264 93.978 67.7714 93.8355 70.2108C93.8573 71.0952 93.6923 71.9743 93.3515 72.7907C93.0107 73.6071 92.5015 74.3425 91.8573 74.9489C91.5229 75.5063 91.0189 75.942 90.4191 76.1923C89.8192 76.4426 89.155 76.4944 88.5236 76.3402C81.8655 75.5264 83.988 68.6395 81.6855 64.6364C79.8442 61.432 79.623 59.9845 76.2086 58.3439C72.0273 56.3395 66.2448 55.9495 68.6186 57.6727C69.838 58.4679 70.7936 59.6076 71.3641 60.9469C71.9346 62.2862 72.0943 63.7649 71.823 65.1952C70.833 68.7089 66.6948 70.4245 65.7461 72.8583C65.4764 73.86 65.521 74.9204 65.8738 75.896C66.2266 76.8715 66.8706 77.7151 67.7186 78.3127C71.5698 81.4158 77.0805 80.5158 75.5411 86.3545C75.4768 86.8284 75.2745 87.2729 74.9594 87.6326C74.6444 87.9923 74.2305 88.2514 73.7692 88.3777C68.7723 90.3989 67.3061 88.5764 65.4086 87.7552C64.6473 87.4252 63.8261 87.2414 63.0855 86.8702C61.3661 86.0058 60.2617 84.2283 58.5742 83.3077C58.5817 84.2489 58.6586 85.1902 58.8048 86.1202C61.4767 93.6858 64.2611 96.4645 69.2748 99.1439C78.5655 104.107 83.0711 102.991 89.1123 100.113C95.8492 96.9014 98.1405 92.3152 100.175 86.6227C101.729 81.8639 101.487 76.7002 99.4999 72.1045C98.3486 69.2648 96.7676 66.6189 94.8124 64.2595Z" fill="#7E45C5"/>
<path d="M311.144 163.531C310.394 161.692 310.458 162.725 309.348 164.589C305.616 170.945 295.298 172.951 297.49 165.995C298.572 162.62 301.666 159.412 303.319 155.626C304.386 153.035 304.747 150.208 304.368 147.431C303.989 144.655 302.882 142.028 301.159 139.818C298.221 136.068 293.596 134.394 293.378 135.11C292.767 135.371 295.339 140.409 291.503 144.138C285.944 149.78 279.456 142.869 275.191 151.141C272.026 157.22 277.851 161.223 277.628 165.44C277.45 169.027 271.167 170.06 266.854 163.068C263.83 158.023 264.685 153.519 263.952 153.457C263.556 153.204 258.691 159.32 258.235 168.05C256.949 191.956 284.432 205.01 301.3 192.442C311.086 185.161 314.537 171.901 311.144 163.529V163.531ZM309.019 177.444C301.383 198.538 275.507 198.427 265.332 183.144C262.778 179.413 261.188 175.108 260.704 170.612C260.22 166.117 260.857 161.572 262.559 157.383C263.626 154.606 263.309 155.364 263.249 156.296C262.701 167.628 273.117 174.408 278.811 169.749C279.411 169.241 279.901 168.616 280.251 167.913C280.602 167.209 280.805 166.442 280.849 165.658C281.243 159.74 274.002 154.717 279.754 150.59C282.124 148.878 285.108 150.114 288.334 149.015C294.001 147.206 297.166 140.986 294.096 135.862C299.706 139.912 301.662 144.862 301.497 149.471C301.298 156.896 293.103 161.919 294.109 168.609C295.197 176.761 308.613 173.075 310.609 164.724C311.069 169.03 310.525 173.385 309.019 177.446V177.444Z" fill="black"/>
<path d="M188.208 23.954C187.672 23.8959 185.804 30.3103 181.698 28.3753C177.794 26.6465 184.595 20.0672 181.111 13.9697C179.27 10.7297 174.736 8.86967 174.511 9.37405C173.948 9.33092 174.468 11.9597 174.166 12.8297C173.675 14.2959 171.749 14.7965 170.266 15.2353C164.44 17.0015 161.885 21.3534 165.192 26.1459C166.075 27.4265 166.557 28.3153 166.36 28.8272C166.025 30.4772 162.442 30.7359 160.012 27.4097C157.96 24.5559 158.337 21.9928 157.882 21.9722C157.75 21.854 156.899 22.4334 156.08 24.0347C153.929 28.244 154.443 35.774 159.38 41.5678C169.362 53.2434 187.748 47.5265 189.856 33.7359C190.769 28.0772 188.705 23.7384 188.208 23.954ZM157.064 31.0847C156.604 28.9235 156.63 26.6873 157.139 24.5372C157.146 26.6077 157.925 28.6011 159.324 30.1271C160.724 31.6531 162.643 32.6017 164.705 32.7872C165.457 32.8248 166.206 32.6684 166.88 32.333C167.554 31.9976 168.131 31.4945 168.554 30.8721C168.978 30.2496 169.234 29.5287 169.299 28.7785C169.364 28.0284 169.234 27.2742 168.923 26.5884C167.913 24.2559 164.695 22.0153 168.275 19.1372C170.817 17.0747 177.558 16.4972 175.372 10.8872C175.072 10.2328 175.103 10.3453 175.298 10.5703C176.45 11.8828 176.913 12.179 177.736 13.1953C182.048 18.5015 176.343 22.7765 177.682 27.6947C178.883 32.5584 186.818 32.7422 188.343 26.5584C190.111 48.5165 160.947 51.4715 157.064 31.0847Z" fill="black"/>
<path d="M92.4439 61.9118C92.0464 62.0581 93.3251 64.7449 93.0439 69.1343C92.4814 76.0981 87.1208 78.3912 85.0995 71.0506C83.5995 65.6581 82.6883 59.1837 74.3314 56.5868C70.3095 55.3493 66.5389 56.4912 66.6814 56.9862C66.5951 57.3799 71.2658 58.5799 71.0201 63.2749C70.8608 66.7081 68.2639 67.7562 65.9726 70.3662C62.8995 73.8893 63.5351 79.0174 69.8089 81.4137C71.5734 81.8416 73.1916 82.7329 74.4964 83.9956C76.062 85.8593 74.4214 88.5462 70.0245 88.1862C62.6145 87.5749 58.9451 82.4918 58.5476 82.8912C58.2251 82.8818 57.6101 88.7262 62.5526 94.9718C78.0176 114.318 110.12 97.9043 100.265 71.9993C97.7276 65.5643 92.8114 61.4299 92.4439 61.9118ZM99.3383 85.5537C96.9964 95.9468 85.0526 103.134 74.952 100.471C70.9828 99.4658 67.374 97.3703 64.5334 94.4213C61.6928 91.4724 59.7338 87.7877 58.8776 83.7837C63.0964 90.6481 76.1951 93.2787 77.4908 86.1162C78.1695 82.4037 74.3033 80.2756 70.722 78.9912C66.2689 77.3843 65.8245 74.2399 67.8064 71.8662C69.6008 69.6012 73.0845 67.6193 72.8445 63.2562C72.8117 61.928 72.386 60.6394 71.6211 59.5531C70.8562 58.4668 69.7864 57.6316 68.547 57.1531C70.3238 57.2135 72.0745 57.5986 73.7126 58.2893C80.7645 61.2893 81.2126 66.5749 82.6208 71.7499C86.3183 84.4737 99.3083 75.9031 93.6476 63.6087C93.4508 63.1868 102.17 73.2406 99.3383 85.5537Z" fill="black"/>
<path d="M235.448 254.437C236.198 271.282 253.36 279.628 266.792 286.325C268.948 287.4 269.563 288.078 269.314 291.827C268.453 304.742 277.991 318.945 281.713 321.358C287.946 325.398 300.87 315.84 303.981 308.477C307.579 299.955 304.96 288.38 302.25 279.573C301.217 276.212 297.898 265.766 295.826 262.948C292.907 258.982 279.491 252.294 274.864 250.533C269.018 248.308 262.545 247.044 257.873 242.885C252.81 238.385 249.115 234.427 242.614 239.103C240.271 240.892 238.396 243.221 237.148 245.891C235.901 248.561 235.317 251.493 235.448 254.437Z" fill="white"/>
<path d="M301.55 271.069C296.487 251.88 275.879 251.025 262.842 243.221C258.271 240.575 255.948 236.966 251.708 235.447C245.268 232.954 233.581 240.643 233.909 253.843C234.505 269.69 251.87 285.259 267.284 288.718C266.489 307.954 279.344 322.025 280.675 320.874C281.585 320.124 275.5 312.264 272.557 300.748C269.427 289.282 270.764 279.424 269.602 279.236C269.172 279.155 268.347 280.94 267.783 284.111C248.056 279.345 229.267 254.392 243.408 242.203C251.095 235.794 252.393 242.627 260.493 247.157C274.475 255.422 292.9 255.14 298.428 271.974C307.439 302.773 308.403 300.703 301.55 271.069Z" fill="black"/>
<path d="M240.635 236.077C242.533 238.477 249.084 237.378 252.62 234.753C255.875 240.596 263.709 240.035 264.024 238.841C264.212 238.134 262.23 237.02 260.863 235.503C257.55 231.827 257.822 225.566 256.203 223.37C254.486 224.782 253.593 226.991 251.927 228.459C249.61 230.381 246.667 231.382 243.66 231.272C241.567 231.005 233.366 226.672 232.618 226.41C233.394 233.295 237.067 233.835 234.737 238.843C232.734 243.155 227.778 247.468 227.477 247.991C234.32 247.59 239.52 246.926 240.281 239.366C240.509 238.284 240.628 237.183 240.635 236.077Z" fill="#7E45C5"/>
<path d="M255.905 225.051C257.208 228.828 256.109 231.635 259.43 235.158C260.51 236.18 261.517 237.278 262.441 238.443C261.457 238.681 260.435 238.717 259.436 238.547C258.438 238.377 257.485 238.005 256.635 237.454C255.785 236.903 255.057 236.185 254.494 235.343C253.931 234.501 253.546 233.553 253.363 232.557C251.698 234.616 249.313 235.963 246.69 236.326C244.068 236.689 241.406 236.039 239.246 234.509C240.802 240.346 237.168 247.733 229.649 247.03C233.463 242.879 236.161 241.021 235.979 235.296C235.88 232.126 234.172 230.288 233.484 227.598C239.439 229.848 245.441 236.721 253.784 228.076C254.211 226.898 254.943 225.854 255.905 225.051ZM256.861 221.77C254.611 223.565 253.209 224.395 252.104 226.97C245.079 233.93 241.842 228.636 230.632 224.412C232.794 232.868 234.007 232.866 234.007 235.358C234.359 240.282 231.463 242.142 225.5 248.63L229.469 249.005C236.853 249.691 241.348 243.905 241.556 237.785C244.215 238.657 247.094 238.581 249.704 237.571C254.163 235.853 251.343 235.086 253.867 237.717C258.151 242.181 262.949 240.359 265.666 239.592C260.501 232.28 259.522 233.99 258.742 229.152C258.478 226.613 257.844 224.126 256.861 221.77Z" fill="black"/>
<defs>
<linearGradient id="paint0_linear_7047_199143" x1="122.887" y1="269.402" x2="132.445" y2="283.494" gradientUnits="userSpaceOnUse">
<stop/>
<stop offset="0.512744" stop-color="#191919"/>
</linearGradient>
<clipPath id="clip0_7047_199143">
<rect width="11.4276" height="17.3306" fill="white" transform="translate(118.057 272.495) rotate(-34.1473)"/>
</clipPath>
</defs>
</svg>
