<svg width="272" height="270" viewBox="0 0 272 270" fill="none" xmlns="http://www.w3.org/2000/svg">
<path d="M12.1622 62.8303C14.0191 61.7023 15.979 60.7619 17.9347 59.8186C24.9607 56.4346 27.0433 56.7786 32.0446 58.9148C35.6344 60.4488 49.2649 66.1058 50.6566 69.6815C51.0796 70.7729 50.9738 70.5726 51.0655 84.6529C51.0965 89.3369 50.4296 89.0451 49.977 91.4547C49.3213 94.9487 50.376 96.174 46.2602 98.3102C40.848 101.365 34.9296 103.418 28.7889 104.373C26.9804 104.907 25.0827 105.068 23.21 104.849C21.3373 104.629 19.5285 104.033 17.8924 103.096C15.2585 101.849 4.74274 95.7736 3.3412 93.2356C2.4952 91.6944 2.6503 91.1051 2.2978 77.3632C1.98478 65.0158 0.853963 69.6858 12.1622 62.8303Z" fill="#FFB282"/>
<path d="M47.9965 64.2003C28.265 55.8319 27.4401 54.7096 23.6811 56.2761L5.06909 64.0311C3.73482 64.5848 2.5949 65.522 1.79369 66.7241C0.992487 67.9262 0.566042 69.339 0.568369 70.7836V91.7432C0.566294 93.1881 0.993344 94.6011 1.79537 95.8031C2.59739 97.005 3.73826 97.9416 5.07332 98.4943C25.4591 106.992 24.5313 106.82 26.5152 106.82C28.4991 106.82 27.2991 107.102 47.9571 98.4943C49.2914 97.9411 50.4315 97.0042 51.2328 95.8023C52.034 94.6004 52.4604 93.1877 52.4578 91.7432V70.9344C52.459 69.4976 52.0364 68.0923 51.2429 66.8945C50.4493 65.6966 49.3201 64.7595 47.9965 64.2003ZM24.8175 59.0002C25.3539 58.7768 25.9295 58.6627 26.5105 58.6644C27.0916 58.6661 27.6665 58.7836 28.2016 59.0101C48.5648 67.6576 47.0744 66.9808 47.5707 67.3192L26.518 75.3322L5.46248 67.1627C5.97572 66.8215 4.49522 67.4701 24.8175 58.9988V59.0002ZM6.20978 95.7674C5.41504 95.4371 4.73621 94.8784 4.25929 94.162C3.78237 93.4457 3.52883 92.6038 3.53078 91.7432C3.53078 69.2777 3.31505 70.0898 4.04684 68.725L25.5324 77.0609C25.5324 106.514 25.8299 103.945 24.8401 103.534L6.20978 95.7674ZM49.4968 91.7432C49.4984 92.6037 49.2447 93.4454 48.7678 94.1617C48.2909 94.878 47.6123 95.4368 46.8178 95.7674L28.1931 103.534C27.2061 103.947 27.4994 106.527 27.4994 77.0651L48.9892 68.8871C49.6998 70.2153 49.5024 69.3242 49.5024 91.7432H49.4968Z" fill="black"/>
<path d="M74.9456 106.094C73.2536 103.979 66.3939 100.588 61.5224 99.1328C57.7859 98.0175 57.7718 99.2992 55.4594 100.238C57.2219 95.6797 54.1072 89.1627 50.4214 85.7153C45.6204 81.2315 46.2253 79.2828 43.0894 79.8821C42.6768 80.0161 42.2974 80.2363 41.9763 80.528C41.6552 80.8196 41.3997 81.1762 41.2268 81.5741C39.4897 84.6169 44.945 88.4027 45.8939 90.7715C46.1071 91.2972 46.1705 91.8716 46.0772 92.431C45.9839 92.9905 45.7374 93.5132 45.3652 93.9412C43.8142 95.0579 41.5384 93.9088 40.4386 92.7032C39.3388 91.4977 38.6648 90.0129 37.6271 88.782C35.1991 85.9028 32.1619 86.6769 30.9846 88.9089C30.374 90.0693 31.4372 92.08 32.1633 93.1671C36.5343 99.7166 37.135 100.728 38.3673 102.012C41.1873 104.965 45.2538 106.022 47.1093 105.678C48.1261 105.38 49.1008 104.954 50.0097 104.409C50.3537 104.691 50.7105 104.958 51.0785 105.209C50.6441 106.165 50.4044 107.198 50.3735 108.248C50.7739 114.106 61.5689 119.578 65.2631 121.643C67.818 123.075 69.9485 119.307 68.9869 117.684C68.1874 116.335 63.7191 115.851 60.761 112.738C58.9829 110.867 59.1747 109.09 60.0842 108.226C60.7386 107.778 61.4769 107.466 62.2547 107.311C63.0324 107.155 63.8337 107.158 64.6102 107.319C66.594 108.081 68.4571 109.126 70.1417 110.421C71.8858 111.718 72.9236 112.113 74.5127 110.448C75.8226 109.089 76.2146 107.687 74.9456 106.094Z" fill="#FDFE1F"/>
<path d="M76.291 107.49C76.2723 106.963 76.0951 106.453 75.7825 106.028C75.4698 105.603 75.0362 105.282 74.5384 105.107C70.8146 101.176 63.3444 96.3259 57.4774 97.5554C58.6491 91.2273 50.7714 84.2661 46.5527 80.6551C46.0874 80.2603 46.3525 80.0192 45.3514 79.5102C42.9233 78.2779 39.8848 80.6847 40.539 83.0775C41.3653 86.3205 45.0694 89.6961 45.247 92.2002C45.3359 93.5327 44.676 93.9712 43.5029 93.6455C40.8788 92.9066 37.1748 87.4415 35.7084 86.7745C32.4485 85.3081 29.0236 88.7485 30.9623 91.7659C31.4318 92.4554 33.9557 99.7 39.8453 104.164C42.6202 106.223 45.8294 107.562 49.0272 106.29C48.8601 107.919 49.1025 109.564 49.7324 111.076C50.3622 112.588 51.3596 113.918 52.634 114.946C55.3581 117.367 62.8029 121.122 64.8305 121.892C65.1732 122.636 66.8905 123.199 68.7785 120.813C70.6383 118.467 69.32 116.795 68.5318 116.699C67.1429 115.441 61.8399 112.277 60.8332 110.309C60.2311 109.091 61.1152 108.185 62.3588 107.971C64.6472 107.562 68.9858 110.632 71.4773 111.56C73.0099 113.598 76.5589 110.465 76.291 107.49ZM32.2793 92.4033C31.9874 91.4304 31.0864 89.9442 32.5105 88.5624C33.0042 88.1463 33.5991 87.868 34.2349 87.7556C34.8707 87.6431 35.5249 87.7007 36.1314 87.9223C36.7377 90.841 41.1087 96.9209 44.9735 96.1341C43.9047 99.0613 45.4783 101.94 47.6525 104.171C41.2088 106.018 33.6794 94.0953 32.2793 92.3976V92.4033ZM60.8303 113.708C66.8102 118.03 68.3738 116.585 68.5275 117.882C68.5966 118.471 68.3231 119.01 67.6237 119.894C65.7216 122.302 65.4185 121.414 64.9447 121.101C59.4133 116.538 50.9674 113.426 51.4087 107.163C53.4403 108.468 55.8497 109.057 58.2543 108.837C57.8863 110.908 59.1764 112.452 60.8303 113.708ZM71.9045 111.074C70.8315 109.447 65.6229 105.306 62.2742 105.556C62.3943 105.096 62.4059 104.615 62.3081 104.15C62.2102 103.685 62.0055 103.249 61.7102 102.877C61.204 102.327 60.217 101.477 60.9615 103.356C61.1094 103.784 61.1384 104.244 61.0455 104.687C60.9527 105.131 60.7414 105.54 60.4341 105.873C57.1108 109.721 44.8424 101.763 46.6739 96.254C47.4509 93.7089 49.4855 94.0233 49.5941 93.7301C49.7139 93.5327 48.7481 92.9969 47.5919 93.3762C47.814 91.9257 47.4669 90.4455 46.6232 89.2449C45.2028 87.184 43.4868 85.3435 41.5303 83.7825C41.4801 83.2626 41.5649 82.7386 41.7766 82.2611C41.9883 81.7836 42.3197 81.3689 42.7386 81.057C43.4986 80.5643 44.4183 80.3811 45.3091 80.5452C47.7061 84.1745 55.0592 90.4772 55.165 96.1468C55.2005 96.6472 55.1311 97.1496 54.9612 97.6216C54.7912 98.0937 54.5244 98.525 54.178 98.8878C53.3968 97.6607 52.6869 96.3896 52.0517 95.0808C51.1592 93.7695 50.0438 93.5933 49.9367 93.8823C49.7957 94.1643 50.3089 94.7283 50.6036 95.807C50.8728 97.613 51.6152 99.3157 52.7553 100.742C53.3749 101.549 54.2052 102.17 55.1548 102.535C56.1043 102.901 57.1363 102.998 58.1372 102.815C59.5881 102.426 60.9178 102.244 59.6882 101.558C58.6547 100.948 57.514 101.52 56.2958 100.739C56.1139 100.629 56.1435 100.667 56.2154 100.559C62.3658 97.5215 70.4395 103.864 74.4354 105.927C75.8835 107.858 73.6148 111.565 71.9045 111.08V111.074Z" fill="black"/>
<path d="M231.017 62.7342C232.874 61.6062 234.832 60.6643 236.79 59.7224C243.816 56.3384 245.9 56.681 250.899 58.8172C254.489 60.3513 268.12 66.0082 269.511 69.5839C269.934 70.6753 269.829 70.4751 269.92 84.5553C269.951 89.2393 269.284 88.9475 268.832 91.3572C268.176 94.8511 269.231 96.0764 265.115 98.2126C259.703 101.266 253.784 103.32 247.644 104.276C245.835 104.809 243.937 104.971 242.065 104.751C240.192 104.531 238.383 103.935 236.747 102.998C234.113 101.752 223.598 95.676 222.196 93.138C221.35 91.5969 221.507 91.0089 221.154 77.2656C220.84 64.9225 219.709 69.5882 231.017 62.7342Z" fill="#FFB282"/>
<path d="M266.969 64.2001C247.169 55.8021 246.383 54.7193 242.652 56.2759L224.04 64.0309C222.706 64.5845 221.566 65.5218 220.765 66.7239C219.964 67.926 219.538 69.3389 219.541 70.7834V91.743C219.538 93.1874 219.964 94.6001 220.765 95.802C221.566 97.0039 222.706 97.9409 224.04 98.4941C244.426 106.994 243.498 106.82 245.482 106.82C247.559 106.82 247.174 106.729 266.924 98.4941C268.258 97.9407 269.398 97.0037 270.199 95.8018C271.001 94.6 271.427 93.1875 271.425 91.743V70.9343C271.426 69.4981 271.004 68.0935 270.212 66.8958C269.419 65.6981 268.291 64.7605 266.969 64.2001ZM243.789 59C244.325 58.7777 244.901 58.6642 245.482 58.6659C246.063 58.6675 246.637 58.7845 247.173 59.0099C267.542 67.6476 266.048 66.9764 266.546 67.3092L245.492 75.3278L224.437 67.1583C224.937 66.8269 223.302 67.5432 243.789 59ZM225.177 95.763C224.382 95.4332 223.703 94.8746 223.226 94.1581C222.749 93.4416 222.495 92.5996 222.498 91.7388C222.498 69.2225 222.291 70.0728 223.014 68.7206L244.501 77.0565C244.501 106.51 244.797 103.941 243.807 103.529L225.177 95.763ZM268.464 91.7388C268.466 92.5996 268.213 93.4416 267.736 94.1581C267.259 94.8746 266.58 95.4332 265.785 95.763L247.159 103.529C246.172 103.942 246.466 106.523 246.466 77.0607L267.955 68.8827C268.672 70.2152 268.474 69.3255 268.474 91.743L268.464 91.7388Z" fill="black"/>
<path d="M241.3 86.5931C240.994 85.6611 239.271 83.4911 237.954 83.4911C235.275 83.4742 232.665 90.5764 229.319 90.7992C228.849 90.8438 228.376 90.7476 227.96 90.523C227.545 90.2983 227.205 89.9552 226.985 89.5372C225.797 86.8921 232.19 80.9362 231.497 78.9763C230.915 78.1663 230.207 77.455 229.399 76.8698C228.14 76.2183 226.896 77.2321 225.933 78.1486C215.061 88.4854 216.876 86.3774 216.121 91.7382C215.866 92.8408 215.918 93.9923 216.272 95.0672C213.757 94.7741 211.209 94.937 208.751 95.548C207.396 96.0331 206.656 96.5717 201.253 100.036C199.913 100.896 197.372 101.707 196.901 103.816C196.54 105.427 197.76 108.328 199.463 108.176C200.865 108.052 200.39 106.808 206.513 104.668C207.591 104.2 208.759 103.98 209.933 104.022C210.518 104.059 211.076 104.285 211.522 104.666C211.967 105.048 212.277 105.564 212.403 106.137C212.578 107.695 209.192 112.101 206.185 112.797C205.236 113.017 204.057 113.079 203.612 113.94C203.201 114.742 203.723 115.688 204.229 116.434C205.756 118.69 206.753 118.476 207.936 117.747C217.565 111.825 218.229 111.532 219.216 110.385C220.399 109.021 222.318 104.69 222.019 102.272C222.312 101.925 222.652 101.621 223.027 101.366C225.261 100.197 227.589 104.447 233.968 98.5936C235.765 96.9439 237.172 94.7655 239.93 90.8781C240.84 89.5978 241.786 88.0722 241.3 86.5931Z" fill="#FDFE1F"/>
<path d="M242.223 86.3448C242.154 85.4756 241.778 84.6594 241.161 84.0424C240.545 83.4255 239.729 83.048 238.86 82.9777C238.259 82.9026 237.648 82.9858 237.089 83.2193C236.53 83.4528 236.042 83.8284 235.672 84.3088C234.385 85.6145 229.403 91.676 227.786 90.0813C224.684 87.7379 235.926 79.8941 230.729 76.3705C228.806 75.0366 226.375 76.1096 226.294 76.9951C221.634 80.8924 215.365 86.545 215.047 92.6024C214.95 94.372 215.563 94.1224 214.546 93.9757C208.714 93.2073 201.574 97.952 198.086 101.632C197.707 101.737 197.365 101.946 197.099 102.236C194.43 105.04 199.183 110.696 201.14 108.087C203.612 107.156 207.984 104.091 210.256 104.499C211.525 104.719 212.371 105.634 211.781 106.836C210.779 108.796 205.455 111.987 204.083 113.226C203.224 113.331 201.987 115.006 203.834 117.341C205.793 119.807 207.484 119.092 207.782 118.421C212.108 116.594 216.202 114.262 219.979 111.472C221.254 110.444 222.251 109.113 222.882 107.602C223.512 106.09 223.754 104.444 223.587 102.815C226.782 104.084 229.991 102.752 232.769 100.69C236.836 97.6093 238.7 94.214 240.972 89.647C241.937 87.6829 242.27 87.4235 242.223 86.3448ZM200.72 107.606C199.015 108.088 196.739 104.372 198.192 102.454C202.491 100.235 210.292 94.0547 216.412 97.0876C216.484 97.1934 216.512 97.1567 216.331 97.2681C215.095 98.0323 213.968 97.4768 212.939 98.0859C212.543 98.3073 212.419 98.5427 212.476 98.6823C212.534 98.8219 212.78 98.884 213.102 98.9643C214.422 99.5352 215.905 99.6024 217.27 99.1533C221.235 97.3682 221.641 93.5598 222.021 92.3416C222.315 91.2643 222.831 90.706 222.689 90.4197C222.587 90.1279 221.471 90.3069 220.574 91.6168C219.936 92.9242 219.226 94.1952 218.448 95.4238C218.349 95.3623 218.25 95.3026 218.149 95.2447C214.995 89.7316 224.093 81.4465 226.765 77.8496C227.432 76.9599 227.209 77.0868 227.575 77.0459C227.967 76.9767 228.368 76.9869 228.756 77.0756C229.144 77.1643 229.511 77.3299 229.834 77.5625C230.156 77.7952 230.43 78.0902 230.637 78.4301C230.844 78.77 230.98 79.1479 231.039 79.5416C231.159 80.6343 231.332 79.9138 228.752 82.4349C227.118 84.11 225.247 86.1996 224.97 88.5219C224.791 90.4437 225.508 89.8289 224.378 89.7909C223.383 89.7373 222.968 90.1687 223.029 90.2703C223.092 90.4451 223.545 90.3859 224.177 90.6552C225.835 91.3517 227.033 94.0618 225.252 96.8733C223.741 99.307 219.68 102.761 216.055 103.316C212.407 103.957 210.959 101.507 211.66 99.8978C211.911 99.2661 212.306 98.9714 212.213 98.8163C212.062 98.4074 209.759 99.4705 210.346 102.102C207.056 101.841 201.79 105.979 200.72 107.606ZM207.168 118.097C206.209 118.053 205.66 117.259 205.002 116.426C204.004 115.157 203.968 114.67 204.217 113.864C206.275 113.681 215.175 109.952 214.381 105.369C216.785 105.589 219.194 105 221.225 103.695C221.698 110.49 210.952 114.213 207.166 118.097H207.168ZM224.972 100.693C227.15 98.4567 228.714 95.5747 227.651 92.656C230.629 93.2609 233.432 90.0983 235.06 87.5447C237.151 84.2214 235.813 84.5062 237.219 84.3017C239.856 83.8914 241.428 85.8866 240.723 87.838C239.665 91.0148 230.925 102.408 224.972 100.693Z" fill="black"/>
<path d="M101.268 187.894C101.089 186.135 100.479 184.438 100.342 182.677C100.23 181.25 100.432 179.817 100.438 178.386C100.462 171.798 96.1611 167.731 91.7126 168.003C91.0457 164.451 90.1729 160.555 87.2654 158.408C86.0291 157.434 84.5785 156.768 83.0336 156.466C81.4888 156.165 79.8944 156.236 78.3825 156.673C77.9411 150.361 73.8366 143.799 67.3069 144.75C58.4239 146.046 41.3897 168.376 37.8252 175.488C34.6739 181.78 33.2103 189.313 35.0729 195.972C32.0132 191.286 25.8036 196.512 25.6936 206.448C25.6142 207.494 25.7531 208.545 26.1014 209.534C26.4497 210.523 26.9999 211.429 27.7169 212.195C29.914 215.341 32.3342 218.324 34.9587 221.123C37.8788 223.895 46.8111 229.962 52.9136 231.767C61.9983 234.453 69.0793 230.831 70.4329 227.633C70.8559 226.631 70.8559 225.917 71.2789 221.07C71.441 219.182 71.3325 217.374 69.5291 216.787C82.5377 213.496 86.4632 200.945 86.7438 200.64C88.29 199.259 90.1764 198.314 92.2089 197.905C97.9899 197.614 101.852 193.655 101.268 187.894ZM43.2974 207.804C46.1989 210.293 49.2922 212.55 52.5484 214.553C49.0607 212.917 45.92 210.626 43.2974 207.804ZM54.8383 215.7C58.154 217.12 61.7626 217.722 65.3597 217.454C61.4272 219.07 59.1557 217.815 54.8383 215.703V215.7Z" fill="white"/>
<path d="M100.506 181.076C104.043 176.169 100.07 167.22 94.6797 166.753C94.409 160.591 86.7837 153.99 79.8281 155.539C79.797 152.331 78.5356 149.257 76.3042 146.952C74.0727 144.647 71.0415 143.286 67.8361 143.151C62.9829 142.969 59.6426 146.056 56.5434 149.788C46.0629 162.716 30.1101 176.655 32.8991 193.075C24.4391 194.806 19.1446 207.272 30.9519 219.229C38.8296 226.96 55.163 238.092 65.4969 233.815C67.3213 233.078 68.96 231.946 70.2953 230.501C71.6307 229.055 72.6298 227.332 73.2209 225.455C73.97 222.843 73.7088 220.044 72.4891 217.616C79.807 214.58 84.9168 207.209 88.7182 200.208C92.7381 198.994 97.2501 199.024 100.462 195.366C103.993 191.441 103.742 185.335 100.506 181.076ZM93.5051 172.066C93.9296 171.209 94.2468 170.303 94.4498 169.369C96.7637 170.571 99.2439 175.302 98.5727 179.03C96.546 177.315 94.1407 176.107 91.5551 175.505C90.4567 175.22 91.6298 175.815 93.5051 172.066ZM91.3239 167.335C91.2184 170.226 89.9939 172.963 87.9089 174.968C84.4202 174.76 80.9219 175.156 77.5679 176.138C63.4524 180.268 70.0005 182.873 64.6904 177.324C71.7714 171.907 78.8482 165.687 79.7506 158.083C85.2989 157.374 91.1998 162.933 91.3239 167.335ZM70.6096 224.683C70.0766 226.099 69.2485 227.385 68.1803 228.456C67.1121 229.527 65.8283 230.358 64.414 230.895C55.6368 234.316 39.9731 223.216 33.3066 216.831C23.1631 206.842 27.1238 197.103 33.4067 195.356C37.1136 208.865 55.2617 222.864 70.2853 218.397C71.1963 220.373 71.3125 222.624 70.6096 224.683ZM98.0552 193.296C94.6416 197.404 86.6201 195.627 76.8234 204.284C75.0313 205.875 74.246 206.955 74.394 207.12C74.7775 207.55 78.5972 204.138 85.3257 201.421C80.4951 208.779 75.8618 214.684 67.4385 216.066C53.4076 218.132 35.9518 203.149 36.0096 189.364C35.9715 177.407 47.3051 165.88 55.0756 156.772C60.1206 150.929 64.5311 142.803 72.4609 147.78C77.1139 150.641 78.8623 158.136 74.0683 164.782C70.8107 168.837 67.1014 172.507 63.0125 175.722C56.3023 169.782 48.9125 170.356 48.8998 171.252C48.8787 172.638 55.8878 171.42 64.9653 181.898C63.3805 182.873 52.6391 190.307 53.2186 191.118C53.5584 191.596 59.5481 187.67 65.1486 184.657C94.2933 168.993 103.898 186.269 98.0552 193.296Z" fill="black"/>
<path d="M56.113 165.079C56.3442 170.46 56.9209 176.425 60.907 180.038C64.2515 183.064 69.085 183.582 73.3686 184.973C84.0324 188.434 83.4021 193.056 125.832 207.905C135.19 211.18 136.871 210.219 143.393 207.304C152.575 203.2 161.237 200.002 169.901 194.896C174.258 192.327 179.753 190.725 184.199 188.313C191.735 184.224 200.727 183.338 208.11 178.976C210.648 177.477 211.405 175.028 212.249 172.208C212.778 170.008 212.795 167.716 212.296 165.508C210.429 153.743 213.249 141.985 212.214 130.117C211.023 116.44 214.727 102.734 212.032 89.276C211.423 87.6966 210.421 86.2989 209.121 85.2152C207.72 83.8926 205.552 83.8785 203.822 83.0325C202.264 82.4577 200.779 81.7004 199.399 80.7765C194.669 76.8962 182.479 76.2476 157.307 63.7888C152.388 61.3537 142.502 57.4297 137.065 56.6542C128.552 55.4388 125.422 58.9581 117.55 62.4211C100.359 69.9815 89.5046 74.698 80.0534 79.1578C70.3935 83.7149 59.3926 83.4978 57.702 92.1876C57.2339 94.5846 56.1299 116.277 55.9677 120.716C55.4299 135.5 55.4783 150.299 56.113 165.079Z" fill="#FFB282"/>
<path d="M111.982 103.869C112.993 104.737 114.149 105.421 115.397 105.89C116.59 106.296 116.612 103.507 116.683 102.788C116.797 101.608 117.106 100.65 116.602 100.608C115.333 100.497 114.683 101.379 113.754 102.046C113.287 102.375 111.694 103.142 111.982 103.869Z" fill="#7E45C5"/>
<path d="M145.183 190.202C142.258 190.521 141.623 191.494 141.492 193.376C141.304 196.055 142.131 198.971 142.633 199.377C142.818 199.482 143.024 199.544 143.236 199.559C143.448 199.573 143.66 199.54 143.858 199.462C152.642 197.338 152.431 197.008 152.432 194.621C152.432 193.651 152.42 190.044 151.775 189.311C150.496 187.852 145.43 189.7 143.656 190.721L145.183 190.202Z" fill="#7E45C5"/>
<path d="M194.276 105.593H194.4C194.234 104.193 196.459 103.88 197.033 103.717C197.292 103.644 203.309 100.969 204.384 101.918C205.046 102.501 204.446 104.143 204.525 105.804C204.744 110.212 211.206 116.171 201.021 118.776C197.67 119.634 195.267 120.715 195.859 118.101C196.8 113.962 191.835 112.137 194.276 105.594V105.593Z" fill="#7E45C5"/>
<path d="M214.263 91.8961C214.342 90.0396 213.846 88.204 212.844 86.6395C211.841 85.0751 210.381 83.8579 208.661 83.1541L138.938 55.4165C134.061 53.4764 137.201 53.3015 61.4385 84.2722C59.6977 84.9526 58.1938 86.1269 57.1116 87.6507C56.0294 89.1746 55.4162 90.9815 55.3473 92.8492V173.177C55.2731 175.002 55.7524 176.807 56.7225 178.355C57.6925 179.903 59.1079 181.122 60.7829 181.851L130.509 211.152C131.668 211.636 132.912 211.882 134.168 211.876C135.424 211.87 136.666 211.613 137.821 211.119L208.332 180.727C210.029 180.023 211.489 178.848 212.538 177.34C213.588 175.832 214.183 174.055 214.254 172.22L214.263 91.8961ZM210.783 149.472L188.35 159.101V133.263L210.783 123.553V149.472ZM159.958 171.338V145.499L185.943 134.295C186.532 134.525 186.38 129.585 186.38 159.945L159.958 171.338ZM186.38 162.096V186.437L159.958 197.827V173.484L186.38 162.096ZM134.166 182.458C108.459 171.66 111.028 173.167 111.028 171.771L134.757 162.072L157.921 171.286C158.024 171.031 157.988 170.917 157.988 172.189L134.166 182.458ZM135.605 78.0061L158.729 88.45C153.358 90.9697 146.769 94.09 136.342 99.0448C134.18 100.07 138.41 101.294 111.027 88.8279L135.605 78.0061ZM108.628 87.7351C101.255 84.3797 93.8664 81.0572 86.4632 77.7679L111.354 67.5933L132.858 77.0643L108.628 87.7351ZM137.557 76.7259L158.925 67.0786L183.798 76.9712C173.35 81.6905 167.984 84.127 161.089 87.3488L137.557 76.7259ZM186.38 131.965C185.712 132.247 188.53 133.209 161.808 122.578V89.8375L186.38 100.933V131.965ZM157.988 169.189L135.737 160.337V135.662L157.988 144.513V169.189ZM111.069 114.24C111.905 112.337 109.177 114.797 130.276 104.188C131.686 103.483 132.868 102.862 133.815 102.398V133.351C133.815 133.672 135.588 132.814 111.028 142.853C111.028 112.983 110.928 114.178 111.069 114.24ZM135.788 132.429V101.467C142.036 98.5061 153.633 93.0184 159.838 90.1068V122.592L135.788 132.429ZM135.737 133.48L135.768 133.559L135.737 133.546V133.48ZM111.028 144.981L133.767 135.686V160.349L111.028 169.642V144.981ZM160.16 143.268L136.986 134.051L160.822 124.308L183.349 133.27L160.16 143.268ZM161.752 89.8121C160.201 89.8121 160.185 89.9446 161.097 89.5174L161.752 89.8121ZM132.535 100.857C128.223 102.983 119.805 107.368 110.103 111.663L84.6429 100.455L108.613 89.8967C119.388 94.7908 128.677 99.0744 132.535 100.857ZM109.058 113.355V143.924L83.1779 133.047V101.956L109.058 113.355ZM81.2081 132.219L58.8723 122.831C59.1036 90.0927 59.0133 92.4474 59.2742 91.4293L81.2081 101.089V132.219ZM58.7624 124.962L81.2081 134.355V160.204L58.7624 150.733V124.962ZM83.1779 135.183L109.058 146.06C109.058 172.671 109.001 170.788 109.058 170.929C109.058 172.331 112.964 173.551 83.1779 161.031V135.183ZM109.058 174.044V198.398L83.1779 187.522V163.169L109.058 174.044ZM210.89 121.402L188.35 131.117V100.563L210.92 90.3732C211.185 91.4308 211.118 89.1917 210.89 121.402ZM210.124 88.5713C184.72 100.042 187.202 98.7233 187.438 99.2492L163.451 88.4176C170.003 85.3677 175.57 82.8453 186.336 77.9836C209.518 87.2008 208.767 86.5225 210.124 88.5713ZM133.257 58.6412C136.218 57.4328 136.443 58.135 156.381 66.0663L134.849 75.7953L113.888 66.5569L133.257 58.6412ZM83.9337 78.8042C91.3754 82.1013 98.8015 85.4337 106.212 88.8011L82.2008 99.3761L60.0779 89.6316C61.4188 87.6364 60.632 88.3288 83.9337 78.8028V78.8042ZM58.5903 173.201V152.863L81.2138 162.341V186.695L62.1153 178.673C61.0483 178.218 60.1422 177.453 59.5139 176.477C58.8856 175.502 58.5639 174.361 58.5903 173.201ZM111.028 199.225V174.873L133.294 184.268V208.359C132.283 208.2 133.726 208.765 111.028 199.225ZM135.265 208.341V184.089L157.995 174.339V198.675C134.565 208.77 136.225 208.167 135.265 208.341ZM206.972 177.562L188.35 185.588V161.247L210.604 151.624V172.194C210.581 173.344 210.226 174.463 209.582 175.415C208.937 176.368 208.031 177.114 206.972 177.562Z" fill="black"/>
<path d="M152.884 190.99C152.925 190.165 152.714 189.346 152.28 188.643C152.013 188.335 151.662 188.109 151.271 187.994C150.879 187.879 150.463 187.878 150.071 187.991C150.439 182.633 141.677 183.347 142.54 190.237C140.17 191.432 140.553 194.563 140.831 197.365C140.832 197.944 141.007 198.509 141.334 198.987C141.661 199.465 142.125 199.833 142.664 200.044C144.003 200.251 145.372 200.037 146.584 199.431C152.025 197.537 153.415 197.819 152.884 190.99ZM144.163 188.106C144.868 186.273 148.552 184.743 148.757 188.354C142.823 190.075 144.873 189.466 143.785 189.764C143.836 189.197 143.963 188.639 144.163 188.106ZM146.137 197.921C144.453 198.407 143.27 198.917 142.753 198.055C142.471 197.592 141.804 192.773 143.176 191.851C143.438 191.686 149.624 189.736 149.886 189.658C151.334 189.104 151.314 189.633 151.517 191.134C152.32 196.997 151.368 196.324 146.142 197.921H146.137Z" fill="black"/>
<path d="M147.197 192.406C146.047 192.375 146.239 196.04 147.382 195.887C148.525 195.735 148.35 192.439 147.197 192.406Z" fill="black"/>
<path d="M117.314 99.8916C116.64 99.4192 115.657 100.042 114.506 100.721C111.738 96.1988 110.156 91.9927 108.611 96.9616C108.339 97.833 107.507 99.8337 107.58 99.9747C107.593 99.9973 107.572 100.028 107.534 100.009C100.394 94.597 98.7438 94.4208 106.506 101.271C106.87 101.51 107.133 102.021 107.916 101.96C108.186 101.931 108.442 101.822 108.65 101.646C108.857 101.47 109.007 101.235 109.079 100.973C109.708 98.6888 109.671 99.3473 110.335 97.2506L113.084 101.725C109.745 104.062 110.899 104.741 114.071 106.086C116.757 107.242 116.989 107.558 117.763 101.946C117.841 101.388 117.982 100.358 117.314 99.8916ZM115.715 105.016C115.665 105.233 115.82 105.298 114.97 104.875C114.829 104.804 112.866 103.897 112.725 103.849C113.843 102.911 115.055 102.089 116.341 101.399C116.3 101.864 116.06 103.453 115.715 105.014V105.016Z" fill="black"/>
<path d="M207.017 111.924C206.735 109.434 204.743 108.479 204.745 103.667C204.737 100.847 205.591 100.084 199.451 102.31C195.916 103.601 194.325 104.105 193.723 106.875C192.745 111.257 195.307 113.83 195.635 115.515C196.425 119.322 192.725 122.238 200.969 119.417C204.752 118.142 207.43 115.921 207.017 111.924ZM205.226 116.372C203.571 116.677 201.952 117.15 200.393 117.782C194.658 119.744 196.04 120.688 196.907 118.064C197.766 115.22 196.892 113.966 196.029 112.13C195.101 109.828 194.738 107.338 194.97 104.867C196.116 105.355 201.865 103.739 204.126 101.834C203.581 103.046 203.309 104.365 203.332 105.694C203.354 107.024 203.67 108.332 204.256 109.525C205.935 112.979 205.691 112.21 205.23 116.372H205.226Z" fill="black"/>
<path d="M202.117 106.776C201.905 106.16 196.468 108.031 196.68 108.647C196.891 109.263 202.328 107.392 202.117 106.776Z" fill="black"/>
<path d="M202.742 109.695C202.538 109.078 197.46 110.754 197.666 111.372C197.872 111.989 202.947 110.314 202.742 109.695Z" fill="black"/>
<path d="M201.001 112.544C198.139 113.437 196.814 114.878 201.295 113.485C205.746 112.092 203.871 111.646 201.001 112.544Z" fill="black"/>
<path d="M123.236 6.62898C125.093 5.50098 127.051 4.55911 129.007 3.61723C136.034 0.233225 138.118 0.575854 143.118 2.71341C146.708 4.24608 160.338 9.90441 161.73 13.4788C162.153 14.5701 162.047 14.3713 162.139 28.4501C162.169 33.1356 161.503 32.8423 161.051 35.252C160.395 38.746 161.448 39.9713 157.334 42.1074C151.921 45.161 146.003 47.2147 139.862 48.1704C138.054 48.7033 136.156 48.8647 134.283 48.6449C132.411 48.4251 130.602 47.8287 128.966 46.8915C126.332 45.6451 115.816 39.5694 114.415 37.0328C113.569 35.4903 113.725 34.9023 113.373 21.159C113.058 8.81307 111.928 13.4844 123.236 6.62898Z" fill="#FFB282"/>
<path d="M159.151 8.60018C139.418 0.234655 138.593 -0.889114 134.834 0.675986L116.222 8.43098C114.888 8.98486 113.748 9.92238 112.947 11.1247C112.146 12.3271 111.72 13.7402 111.723 15.1849V36.1445C111.72 37.5888 112.147 39.0012 112.948 40.203C113.749 41.4048 114.888 42.3419 116.222 42.8956C136.567 51.3782 135.68 51.2217 137.664 51.2217C139.648 51.2217 138.606 51.4416 159.106 42.8956C160.44 42.3423 161.58 41.4053 162.381 40.2035C163.182 39.0016 163.609 37.589 163.606 36.1445V15.3358C163.608 13.8994 163.186 12.4945 162.394 11.2966C161.601 10.0987 160.473 9.1608 159.151 8.60018ZM135.972 3.40434C136.509 3.18228 137.084 3.06893 137.665 3.07087C138.246 3.0728 138.821 3.18998 139.356 3.41562C159.689 12.0519 158.237 11.3821 158.729 11.7135L137.672 19.7321L116.615 11.564C117.124 11.2256 115.6 11.8968 135.972 3.40434ZM117.36 40.1687C116.565 39.8383 115.886 39.2795 115.41 38.5632C114.933 37.8469 114.679 37.0051 114.681 36.1445C114.681 13.6268 114.474 14.4785 115.197 13.1263L136.684 21.4622C136.684 50.903 136.981 48.3467 135.99 47.935L117.36 40.1687ZM160.647 36.1445C160.649 37.0053 160.396 37.8473 159.919 38.5638C159.442 39.2803 158.763 39.8389 157.968 40.1687L139.342 47.935C138.355 48.3481 138.648 50.9284 138.648 21.4664L160.138 13.2884C160.854 14.6138 160.655 13.7255 160.655 36.1445H160.647Z" fill="black"/>
<path d="M266.417 196.565C265.282 193.394 262.496 191.154 259.838 189.085C258.926 188.174 257.696 187.651 256.407 187.627C255.915 191.165 256.877 185.539 253.315 176.227C251.905 172.545 249.242 167.02 246.171 164.226C245.598 163.704 238.648 157.508 233.94 153.629C225.95 147.045 217.407 140.208 207.163 138.703C204.824 138.279 202.42 138.394 200.133 139.04C193.47 141.179 194.806 146.513 193.435 149.488C192.672 150.782 191.82 152.022 190.887 153.199C186.805 159.604 191.013 168.87 200.533 170.881C199.242 174.406 193.105 170.317 193.366 179.421C193.709 191.376 196.891 190.907 201.021 195.725C203.01 198.046 204.195 200.942 205.878 203.48C209.388 208.8 218.467 215.864 221.388 216.996C227.688 219.438 235.714 215.702 241.41 212.985C235.555 217.302 232.608 216.049 228.479 218.276C226.047 219.589 225.073 220.666 227.688 224.621C240.935 244.677 271.04 209.487 266.417 196.565Z" fill="white"/>
<path d="M267.976 199.835C267.553 193.762 263.7 187.85 257.892 186.385C258.38 156.964 205.522 126.102 194.632 140.247C193.717 141.501 193.102 142.95 192.837 144.48C192.571 146.01 192.662 147.58 193.101 149.07C188.602 151.233 187.247 157.456 188.699 162.493C187.754 163.743 187.082 165.177 186.727 166.703C186.372 168.228 186.341 169.812 186.636 171.351C186.932 172.889 187.547 174.348 188.441 175.634C189.335 176.92 190.489 178.005 191.828 178.818C189.995 184.624 192.11 188.942 196.141 193.572C201.512 199.737 198.317 194.711 207.668 206.774C212.338 212.817 217.462 218.566 225.152 219.475C226.668 230.851 238.592 235.145 248.593 229.431C255.962 225.284 268.622 211.805 267.976 199.835ZM193.999 151.305C197.131 157.227 203.819 159.287 209.518 161.245C213.179 162.528 216.771 164.003 220.278 165.663C218.163 168.267 216.308 171.072 214.74 174.038C205.612 169.842 206.307 172.944 198.415 168.772C189.448 164.017 190.329 154.36 194.004 151.305H193.999ZM190.136 165.828C191.99 168.701 194.763 170.86 198.002 171.954C195.88 172.768 194.101 174.286 192.964 176.254C191.637 174.907 190.679 173.24 190.185 171.414C189.691 169.588 189.677 167.665 190.144 165.832L190.136 165.828ZM216.011 211.104C211.97 207.31 208.606 201.939 204.835 197.663C201.821 194.233 196.805 190.253 195.133 185.799C193.723 182.226 195.094 177.411 198.105 175.568C202.335 172.823 209.697 174.933 214.363 177.014C228.811 183.578 234.599 198.754 235.689 198.181C235.886 198.08 235.233 196.192 233.561 192.987C230.563 187.375 228.419 185.373 229.12 185.819C235.334 189.73 241.021 191.776 241.291 191.146C241.681 190.252 224.854 180.359 223.333 179.527C221.337 177.77 219.134 176.263 216.774 175.039C224.156 163.129 229.943 158.453 229.304 157.73C228.972 157.296 225.122 159.845 220.818 165.062C219.315 164.052 217.751 163.138 216.134 162.325C211.058 159.356 206.799 158.417 202.502 155.931C198.091 153.358 194.569 149.18 195.959 144.312C197.72 138.318 204.92 140.099 210.873 141.537C220.888 144.332 230.055 149.564 237.554 156.765C245.681 164.536 254.141 174.056 254.439 185.225C255.028 204.175 231.598 226.06 216.015 211.108L216.011 211.104ZM262.259 209.71C259.48 214.965 252.912 223.024 246.915 226.513C239.109 231.112 229.713 228.628 227.553 219.604C242.149 219.482 256.186 203.964 257.747 188.823C263.158 190.947 267.952 199.089 262.263 209.714L262.259 209.71Z" fill="black"/>
<path d="M167.032 177.794C166.544 178.584 165.622 179.66 166.2 179.834C171.286 181.385 175.95 178.766 187.027 183.035C192.544 185.161 198.92 189.046 202.524 194.105C205.363 198.092 205.782 201.089 206.217 200.203C207.588 197.421 206.612 197.383 209.36 194.177C212.462 190.55 216.042 189.208 220.991 187.422C226.306 185.504 232.032 183.118 237.782 183.725C240.602 184.022 239.191 182.597 237.499 174.099C235.58 164.502 238.674 156.897 245.972 151.754C246.701 151.211 247.476 150.733 248.287 150.325C249.089 150.048 249.839 149.639 250.505 149.115C252.369 147.433 236.828 146.777 228.068 136.642C225.671 133.798 223.786 130.56 222.497 127.071C221.778 125.344 221.275 123.46 220.45 121.786C219.082 119.013 219.492 114.914 218.429 115.95C214.632 119.653 213.735 123.874 207.3 126.082C195.768 130.042 183.399 132.293 171.301 130.735C177.961 146.023 171.418 170.722 167.032 177.794Z" fill="white"/>
<path d="M251.684 148.765C251.975 147.695 240.153 145.087 230.534 135.633C219.811 125.09 220.061 113.989 219.048 114.03C218.541 113.826 216.51 118.594 210.993 122.335C209.763 123.142 208.475 123.859 207.141 124.48C187.588 133.977 171.342 129.116 171.055 130.389C170.384 130.661 172.569 134.648 173.256 145.842C174.598 167.723 164.538 179.09 165.664 179.878C165.543 181.446 179.829 180.668 189.004 184.909C194.018 187.256 198.395 190.772 201.767 195.161C207.548 202.706 204.352 202.455 209.686 196.421C221.472 182.918 239.437 185.187 239.517 183.673C241.792 183.25 232.144 165.245 246.971 152.381C249.654 150.03 251.817 149.204 251.684 148.765ZM245.709 150.713C238.198 155.545 233.271 165.659 237.058 178.024C237.573 179.878 238.279 181.674 239.165 183.382C234.578 181.353 216.14 182.47 208.017 195.164C204.019 201.333 207.922 201.525 203.49 193.99C201.057 190.003 197.737 186.633 193.787 184.14C189.838 181.648 185.366 180.101 180.72 179.62C159.74 177.039 165.48 185.238 172.152 170.275C178.154 156.811 176.44 137.394 171.512 130.782C175.286 132.741 186.719 134.333 198.344 130.997C204.15 129.358 211.426 126.121 215.483 121.382C220.533 115.46 217.472 113.909 219.23 121.695C221.52 132.228 230.749 142.8 244.199 147.357C251.958 149.988 250.745 147.458 245.709 150.713Z" fill="black"/>
<path d="M147.92 32.1288C147.289 30.5186 146.631 30.1337 145.143 30.1661C143.783 30.1943 142.182 30.6455 141.759 31.9413C141.477 32.8211 141.931 39.0829 140.545 41.3023C140.379 41.632 140.129 41.9125 139.821 42.1157C139.512 42.3189 139.156 42.4379 138.788 42.4607C138.419 42.4835 138.051 42.4094 137.72 42.2458C137.389 42.0821 137.106 41.8346 136.9 41.5279C132.706 37.2246 136.421 29.8065 132.142 29.8784C131.151 29.9167 130.209 30.3226 129.501 31.017C128.793 31.7114 128.368 32.6445 128.311 33.6347C128.253 34.6358 128.471 35.6369 128.354 36.638C127.865 40.8215 126.936 37.1428 129.267 47.6289C129.863 50.315 130.579 52.6443 133.714 54.1149C129.484 55.3839 128.866 61.7134 128.356 66.6541C127.885 71.2887 128.638 74.5642 133.202 76.2646C135.708 77.1981 135.757 76.5974 135.568 77.1797C134.354 76.5792 133.027 76.2428 131.674 76.1927C127.266 75.8219 126.175 85.3958 126.335 89.489C126.435 91.9988 127.36 92.5149 129.313 92.498C130.77 92.4839 131.48 92.2907 132.001 90.9893C132.923 88.6952 132.857 85.3887 136.133 85.7906C137.684 85.9809 138.143 86.7409 138.268 88.2327C138.475 90.6932 136.435 92.1384 138.891 93.0183C142.212 94.2055 143.931 94.9782 144.331 85.6158C144.572 83.4684 144.137 81.2993 143.085 79.4118C143.316 78.4586 143.465 77.4857 143.532 76.5057C144.829 76.2971 146.363 76.5593 147.652 73.8126C149.848 69.13 148.664 60.6009 147.179 55.5531C146.964 54.8185 146.768 54.5929 146.015 54.4392C143.86 53.9993 144.097 54.4956 144.041 53.9514C151.209 51.474 149.923 37.257 147.92 32.1288Z" fill="#FDFE1F"/>
<path d="M147.896 30.6599C147.497 30.2114 147.001 29.8587 146.447 29.6282C145.893 29.3978 145.293 29.2955 144.694 29.329C144.095 29.3625 143.511 29.5309 142.985 29.8216C142.46 30.1124 142.007 30.518 141.661 31.0082C141.043 32.0234 141.284 33.133 141.087 35.7838C140.418 44.3214 137.139 42.7662 136.083 39.1777C135.127 35.8177 135.349 31.496 134.045 30.1537C133.662 29.8241 133.214 29.5773 132.731 29.429C132.247 29.2806 131.738 29.2338 131.236 29.2916C130.734 29.3493 130.249 29.5103 129.811 29.7645C129.374 30.0186 128.994 30.3604 128.696 30.7685C127.335 32.7848 124.495 49.5694 131.981 54.3916C128.931 56.5066 127.989 61.5826 127.633 65.2966C127.253 69.1317 127.831 73.1714 130.864 75.5684C124.958 78.8523 124.875 90.9586 126.685 92.6435C128.455 94.3158 131.985 93.7898 132.348 91.2603C133.093 89.9462 133.49 88.4403 134.116 87.4533C135.028 86.0151 136.183 86.2238 136.623 86.6693C137.364 87.4166 136.623 92.5251 137.439 92.8099C138.323 94.9982 142.206 95.1054 143.351 92.9509C144.53 91.5409 146.971 81.8344 144.01 78.0937C144.044 77.9598 144.076 77.8258 144.106 77.6905C150.991 75.9872 150.259 67.5159 149.887 61.0778C149.688 58.4834 149.197 55.3814 147.024 53.9517C153.344 48.5838 150.259 33.2811 147.896 30.6585V30.6599ZM137.243 83.9988C135.142 84.3936 134.175 81.8612 133.9 81.9092C133.666 81.9303 133.588 83.1697 134.494 84.2893C131.999 85.2199 131.26 88.9 131.346 91.3308C131.041 91.6331 130.671 91.8622 130.265 92.0008C129.858 92.1394 129.425 92.1839 128.999 92.1309C128.572 92.078 128.163 91.929 127.803 91.6951C127.442 91.4613 127.14 91.1487 126.918 90.7809C126.86 90.6399 126.935 90.8852 127.32 88.742C128.253 83.9339 128.841 77.9245 133.559 77.0193C133.927 77.149 134.286 77.2534 134.636 77.3408C133.98 78.3807 133.582 79.5621 133.474 80.7868C133.524 81.3297 133.718 81.5835 133.865 81.5736C134.033 81.5651 134.147 81.3057 134.354 80.9476C135.139 79.5263 136.353 78.7465 137.04 76.9009C138.487 73.1164 135.406 69.8339 135.223 67.0703C135.125 65.7689 136.138 63.5707 134.626 64.9328C131.884 67.3989 134.877 71.7995 135.13 74.5969C134.46 74.5853 133.79 74.6411 133.132 74.7633C128.902 72.0335 129.629 66.3526 130.634 61.2682C131.101 58.8458 131.857 56.4742 134.047 55.3462C134.653 55.5408 135.271 55.6916 135.898 55.7974C135.853 56.7252 135.361 60.4814 136.265 60.2614C136.688 60.167 139.297 55.6084 137.707 50.2504C137.289 48.8739 136.786 47.5248 136.201 46.2108C135.895 46.0895 135.325 46.9708 135.373 48.4076C135.373 49.6456 135.897 51.9185 135.897 53.2904C129.007 52.5854 129.193 42.1091 129.27 35.1014C129.333 31.1252 128.988 31.8147 129.463 31.4706C129.774 31.1748 130.147 30.9518 130.555 30.8179C130.962 30.684 131.395 30.6426 131.821 30.6965C132.247 30.7505 132.655 30.8986 133.017 31.1301C133.378 31.3615 133.684 31.6705 133.911 32.0346C134.147 32.4041 132.091 42.7831 137.591 44.1917C136.356 44.5865 136.04 45.8103 136.322 45.8682C136.485 45.9528 136.745 45.5608 137.309 45.369C138.514 44.9601 141.075 46.0035 142.318 49.1196C143.572 52.4964 143.552 56.2145 142.261 59.5776C141.112 62.0507 138.561 62.6796 137.07 61.2132C136.6 60.769 136.462 60.339 136.279 60.3672C135.942 60.3672 135.94 62.148 137.704 63.1167C136.279 63.2577 134.097 64.7438 136.743 64.3194C143.998 63.1153 143.699 82.7904 137.243 83.9946V83.9988ZM142.979 85.3876C142.274 92.8607 142.838 91.8877 142.556 92.1951C142.253 92.4844 141.893 92.7081 141.5 92.8524C141.107 92.9966 140.688 93.0583 140.269 93.0336C139.851 93.0088 139.442 92.8982 139.069 92.7086C138.695 92.519 138.364 92.2544 138.098 91.9315C138.822 90.0731 139.601 87.0754 138.468 85.4314C140.435 84.5263 142.015 82.9501 142.924 80.9856C143.199 82.4371 143.217 83.9255 142.979 85.3834V85.3876ZM147.141 57.6106C147.67 59.5367 148.438 69.4222 146.931 72.9261C146.449 74.1411 145.554 75.1478 144.404 75.77C144.739 71.8559 143.699 65.2232 140.098 63.5594C143.822 63.0575 145.301 58.984 145.521 55.2165C145.942 55.4809 146.304 55.8301 146.582 56.2418C146.861 56.6535 147.051 57.1187 147.14 57.6078L147.141 57.6106ZM145.411 52.2103C144.988 49.0787 143.491 45.6679 140.53 44.4553C139.563 44.0323 139.436 44.2622 139.922 44.0634C143.306 42.7098 143.381 34.8984 141.803 32.2659C143.605 30.6444 144.93 30.1777 147.752 31.7484C147.521 36.1504 150.407 47.7759 145.411 52.2075V52.2117V52.2103Z" fill="black"/>
<path d="M179.94 163.746C179.647 166.425 180.046 167.163 181.902 168.647C200.343 183.402 207.482 183.376 224.718 176.151C227.758 174.882 228.189 174.001 228.477 171.59C231.187 148.816 231.334 149.146 230.865 147.879C229.857 145.155 221.465 141.252 218.835 139.983C209.034 135.264 207.665 134.422 205.538 134.238C201.488 133.885 189.072 139.113 185.332 140.739C183.261 141.639 183.293 142.77 182.722 145.649C181.533 151.638 180.605 157.676 179.94 163.746Z" fill="#7E45C5"/>
<path d="M229.17 142.693C210.383 132.377 209.674 131.177 205.777 132.357L186.478 138.199C185.095 138.614 183.865 139.431 182.947 140.546C182.028 141.662 181.462 143.024 181.319 144.462L179.204 165.312C179.057 166.748 179.339 168.197 180.015 169.473C180.69 170.749 181.729 171.797 183 172.483C201.994 182.762 201.72 182.966 204.241 182.966C205.792 182.966 205.007 183.061 225.665 176.807C227.048 176.391 228.276 175.574 229.195 174.459C230.113 173.344 230.68 171.981 230.824 170.544L232.922 149.843C233.07 148.414 232.793 146.973 232.125 145.701C231.458 144.43 230.43 143.383 229.17 142.693ZM206.633 135.184C207.189 135.017 207.772 134.962 208.349 135.022C208.927 135.083 209.486 135.257 209.996 135.535C229.37 146.167 227.977 145.369 228.433 145.747L206.679 151.6L186.553 141.349C187.093 141.063 185.529 141.572 206.633 135.184ZM184.413 169.884C183.655 169.475 183.036 168.851 182.632 168.091C182.23 167.329 182.062 166.466 182.15 165.609C184.422 143.19 184.131 144.029 184.985 142.767L205.52 153.228C202.552 182.519 203.105 180.008 202.16 179.496L184.413 169.884ZM227.89 170.25C227.806 171.107 227.468 171.92 226.92 172.584C226.373 173.249 225.64 173.736 224.815 173.983C203.869 180.328 205.324 179.914 204.793 179.98L207.484 153.427L229.689 147.453C230.257 148.847 230.152 147.943 227.89 170.25Z" fill="black"/>
<path d="M200.812 157.443C200.473 155.677 200.458 155.39 200.041 155.093C199.275 154.552 198.17 155.281 197.493 155.569C194.26 156.943 193.205 157.62 196.506 159.93L193.827 164.301C192.496 158.284 192.502 158.133 192.227 157.877C192.012 157.633 191.717 157.476 191.395 157.434C191.073 157.392 190.747 157.469 190.477 157.65C189.112 158.6 178.492 173.672 190.571 159.99C191.238 159.236 190.76 158.631 192.333 165.582C192.74 167.382 194.106 167.073 194.628 166.32L197.93 160.927C200.7 162.568 201.839 162.755 200.812 157.443ZM196.147 157.801C199.704 156.378 198.985 155.779 199.361 157.723C199.502 158.48 199.721 159.773 199.762 160.251C198.475 159.563 197.263 158.741 196.147 157.801Z" fill="black"/>
<path d="M200.613 173.935C187.655 179.49 195.38 191.08 200.389 196.29C201.964 197.928 205.909 199.151 207.374 200.889C209.07 203.174 210.922 205.338 212.917 207.367C214.521 208.843 254.638 215.61 224.521 183.338C218.719 177.121 208.437 170.579 200.613 173.935Z" fill="white"/>
<path d="M201.156 193.856C196.319 188.981 193.205 185.213 195.211 179.452C198.303 170.569 211.832 175.008 219.508 180.319C227.462 185.818 234.757 198.67 235.692 198.187C236.853 197.586 230.223 183.523 221.493 177.5C211.532 170.635 195.905 166.751 191.965 178.289C189.4 185.801 193.025 190.592 198.711 196.286C205.761 203.344 205.734 204.427 210.261 209.218C213.418 212.559 215.979 213.99 216.247 213.63C216.548 213.226 214.676 211.263 212.138 207.663C205.848 198.746 205.825 198.564 201.156 193.856Z" fill="black"/>
<path d="M100.837 193.291C106.463 186.373 94.8091 173.665 81.6609 176.883C73.5379 178.871 52.1496 190.446 50.9229 194.134C50.3279 195.932 52.0509 197.763 52.9984 199.399C54.0173 201.001 55.3444 202.385 56.9027 203.47C61.2596 206.747 66.1692 211.701 71.3298 209.944C74.6236 208.823 77.9004 203.458 81.0377 202.067C81.5002 201.864 98.0239 196.748 100.837 193.291Z" fill="white"/>
<path d="M78.3883 179.208C70.0496 181.342 63.3606 185.682 56.5785 189.565C52.1934 192.075 52.1905 191.483 55.81 188.464C90.073 159.888 111.059 183.445 100.465 195.366C98.3695 197.725 95.8117 198.565 92.7224 199.254C79.8223 202.129 75.0156 207.815 74.3924 207.121C74.2514 206.956 75.0283 205.875 76.8218 204.286C86.5226 195.699 94.6048 197.446 98.0536 193.298C103.324 186.961 96.1995 174.65 78.3883 179.208Z" fill="black"/>
<path d="M109.35 154.203C108.71 146.999 110.619 115.342 109.649 113.602C109.12 112.657 106.547 111.683 100.249 108.808C98.0633 107.811 95.6338 107.411 93.461 106.355C89.7217 104.543 87.14 103.112 83.4585 101.183C81.7016 100.265 78.3825 100.143 76.7469 99.0254C71.6228 95.7927 66.1322 93.1814 60.3909 91.2464C58.3013 90.6147 57.5286 91.5749 57.1281 93.6434C56.8997 94.8193 57.1747 94.3287 57.1465 95.5046C56.942 103.965 56.5627 97.9383 56.9279 111.387C57.1338 118.956 57.4383 120.336 56.7009 122.317C58.4916 142.727 53.2492 148.261 61.2961 153.609C66.8924 157.326 82.4687 160.303 93.9517 166.347C98.3227 168.65 102.79 170.985 107.664 171.801C108.69 171.973 109.46 171.742 109.67 169.73C110.119 167.203 110.332 164.64 110.305 162.074C110.089 159.475 109.35 156.813 109.35 154.203Z" fill="white"/>
<path d="M65.0551 148.405C61.5865 146.969 62.6186 146.647 63.3504 99.859C65.0692 99.7603 66.4609 101.303 67.9851 102.101C88.5852 112.885 102.603 116.119 103.139 116.934C103.406 117.34 102.639 161.208 102.434 161.879C101.701 164.319 100.872 162.584 100.037 162.443C98.5644 162.109 97.1421 161.582 95.8072 160.875C91.3178 158.937 86.4674 157.544 81.9779 155.605C72.8933 151.685 78.1357 153.827 65.0551 148.405Z" fill="#7E45C5"/>
<path d="M71.4224 134C71.4732 133.421 71.6268 130.907 71.1503 130.56C70.4719 130.366 69.8388 130.04 69.2878 129.599C68.7369 129.158 68.2791 128.613 67.9411 127.993C67.6854 127.529 67.5518 127.007 67.5526 126.476C67.5535 125.946 67.6888 125.424 67.946 124.96C68.2032 124.496 68.5738 124.105 69.0232 123.823C69.4726 123.542 69.9861 123.378 70.5158 123.349C70.9077 123.278 72.5391 123.208 72.6124 123.415C69.956 116.009 67.7395 112.335 74.2368 116.549C75.6284 113.606 75.6327 113.503 75.9499 113.259C77.8872 111.76 79.1168 116.909 80.8849 114.625C81.4489 113.903 81.494 112.46 81.8113 112.027C82.1736 111.533 83.4229 111.494 83.6894 113.337C83.8628 114.542 83.4638 117.269 84.9217 117.51C85.5247 117.503 86.1099 117.306 86.594 116.946C88.733 115.846 90.2995 117.256 90.0527 118.215C89.9724 118.528 89.6297 118.888 89.8313 119.212C90.7265 118.644 91.8078 118.447 92.8459 118.662C93.1093 118.886 93.2929 119.189 93.3692 119.526C93.4455 119.863 93.4103 120.215 93.2689 120.53C92.7148 121.844 91.4359 121.94 91.4529 122.867C91.4529 123.149 91.4303 123.042 92.6584 125.573C93.0419 125.911 93.283 126.38 93.3324 126.889C95.3205 126.889 95.5419 126.62 96.4626 127.91C96.7801 128.396 96.9829 128.948 97.0555 129.524C97.1281 130.1 97.0687 130.685 96.8817 131.234C96.6948 131.784 96.3852 132.283 95.9764 132.695C95.5676 133.107 95.0704 133.421 94.5224 133.612C91.7518 134.525 95.4009 134.771 94.5549 140.356C94.2475 142.38 94.349 145.183 92.4793 145.996C91.8392 146.278 91.4613 146.497 92.1691 147.471C93.1336 148.798 93.6849 148.488 94.4251 151.488C94.8531 152.816 94.9622 154.226 94.7438 155.604C94.5436 158.52 96.0057 160.725 94.7523 160.385C92.2096 159.852 89.7865 158.857 87.6036 157.448C87.4626 157.385 78.2073 154.222 67.7437 149.303C64.5331 147.793 69.5189 143.014 74.2297 142.676C75.8442 142.56 74.8543 141.572 73.8067 140.489C70.6554 137.204 71.2814 135.622 71.4224 134Z" fill="#FDFE1F"/>
<path d="M71.5497 125.524C70.0635 125.486 69.3275 126.922 69.6419 127.061C69.8281 127.163 70.4682 126.33 71.5285 126.356C71.7457 126.361 71.9586 126.413 72.1531 126.511C71.8926 126.591 71.6604 126.744 71.4843 126.952C71.3081 127.16 71.1954 127.414 71.1595 127.684C71.1236 127.955 71.1659 128.229 71.2816 128.476C71.3972 128.723 71.5813 128.932 71.8119 129.077C72.2843 129.336 72.6199 129.2 72.6142 129.097C72.6311 128.888 71.5835 128.485 72.0502 127.56C72.1842 127.278 72.2561 127.341 72.3661 127.376C74.5741 128.385 74.1991 128.465 73.8508 127.295C73.6966 126.798 73.3929 126.362 72.9813 126.045C72.5697 125.727 72.0702 125.545 71.5511 125.522L71.5497 125.524Z" fill="black"/>
<path d="M111.377 114.632C111.377 109.682 108.557 111.501 61.9071 89.984C61.2631 89.6846 60.554 89.5522 59.8453 89.599C59.1366 89.6459 58.4511 89.8704 57.852 90.2519C55.063 92.0158 55.9908 89.8374 55.4691 149.114C55.4587 149.959 55.7012 150.789 56.1655 151.495C56.6298 152.202 57.2946 152.754 58.0747 153.08C108.862 174.422 106.861 174.461 109.572 172.664C112.284 170.866 111.394 173.041 111.377 114.632ZM106.717 170.316C55.9005 148.959 59.0279 150.369 58.7064 149.967C60.3124 149.307 62.4161 147.523 62.0129 147.006C61.6096 146.488 59.0166 148.146 58.4287 148.571C58.8517 90.0559 58.7953 93.7388 58.8897 93.4399C59.4706 94.7794 62.2159 99.6735 62.9336 99.2026C63.5921 98.7697 61.1218 94.3437 59.7484 92.601C60.3561 92.412 56.9637 91.05 107.265 113.27C106.214 113.693 102.639 115.491 102.949 116.168C103.291 116.909 107.223 114.942 108.351 114.219C108.448 114.514 108.461 110.628 108.513 169.119C108.513 169.965 108.506 169.026 106.362 166.626C103.564 163.479 99.2552 160.845 105.259 167.613C106.221 168.689 107.107 169.646 107.789 170.292C107.622 170.374 107.44 170.418 107.255 170.422C107.07 170.426 106.887 170.39 106.717 170.316Z" fill="black"/>
<path d="M63.9493 123.348C64.1861 92.0687 62.4476 92.0067 62.2135 123.289C62.0824 127.787 62.1247 146.737 62.2981 146.758C63.6235 146.932 63.9337 123.849 63.9493 123.348Z" fill="black"/>
<path d="M102.375 162.547C103.595 162.688 103.889 140.597 103.913 139.697C104.146 109.173 102.407 109.111 102.177 139.639C102.1 142.472 102.041 162.512 102.375 162.547Z" fill="black"/>
<path d="M95.5789 159.957C96.0856 155.976 95.33 151.937 93.4188 148.409C92.0582 146.205 91.6676 146.89 92.5023 146.435C94.6498 145.264 94.9557 143.31 94.9318 140.888C95.273 139.843 95.3989 138.74 95.302 137.645C95.205 136.55 94.8872 135.486 94.3678 134.517C94.0561 134 94.8711 134.658 96.4024 133.229C99.4861 130.455 96.9523 124.952 93.6797 126.238C93.2708 123.811 91.5266 123.961 92.3923 123.047C92.6948 122.795 92.9733 122.516 93.2243 122.212C95.0051 119.856 93.8912 117.384 91.05 118.188C90.0052 118.553 90.6552 118.646 90.5664 117.547C90.4536 116.025 88.3809 114.618 85.2845 116.729C84.5654 117.243 84.753 117.293 84.5795 116.331C84.282 114.657 83.9112 112.294 83.0962 111.596C82.6563 111.147 81.9386 111.018 81.235 111.99C80.8227 112.66 80.4958 113.379 80.2621 114.13C79.8053 115.241 79.6192 114.256 78.3403 112.943C77.194 111.766 75.8023 111.749 75.0197 113.171C74.7236 113.804 74.4938 114.466 74.3331 115.145C74.2955 115.317 74.2246 115.479 74.1244 115.623C73.1599 115.401 72.1983 113.974 70.8179 113.816C67.7794 113.627 70.1933 118.247 71.8501 122.659C66.5724 121.691 64.8988 129.348 70.9096 131.38C70.1806 135.382 71.0153 139.49 74.1526 142.011C70.4668 142.482 67.166 144.521 66.3271 148.187C48.4201 142.093 101.053 164.7 101.703 163.147C101.796 162.905 99.4297 161.694 95.5789 159.957ZM91.7945 145.194C89.0253 146.724 77.7044 145.608 77.5775 140.601C77.5154 138.151 78.5645 135.87 81.7045 133.996C81.5925 134.403 81.6095 134.835 81.7532 135.233C81.8968 135.63 82.1601 135.973 82.5068 136.215C84.5725 137.319 85.5623 135.972 86.0643 138.281C86.1432 138.629 86.2828 138.816 86.3815 138.792C86.4802 138.768 86.5493 138.599 86.6395 138.29C87.7915 134.342 81.3408 136.101 83.4219 133.778C84.3483 132.708 89.884 132.56 91.6352 133.967C93.4766 135.459 89.5089 135.276 88.7715 137.005C88.4895 137.679 88.5783 139.035 88.8138 139.103C89.1367 139.196 89.3355 137.954 89.6795 137.521C90.3662 136.656 92.9338 137.134 93.4865 135.124C93.9278 136.243 94.0858 137.453 93.949 138.649C93.6219 142.812 91.2263 142.222 87.3883 142.047C68.5422 140.72 89.3242 144.466 92.4826 143.375C93.4978 143.051 93.6275 142.478 93.3286 143.375C93.2048 143.763 93.0056 144.124 92.7424 144.435C92.4791 144.747 92.157 145.003 91.7945 145.19V145.194ZM80.241 133.161C79.771 132.894 79.3683 132.524 79.0636 132.077C78.7588 131.631 78.5601 131.121 78.4827 130.586C81.1984 130.382 80.8191 130.354 80.8289 130.49C80.8839 131.281 80.7514 131.678 81.7454 131.549C82.7395 131.421 82.5393 131.025 82.4913 130.404C84.3032 130.592 84.416 130.936 85.0293 130.686C84.7798 131.886 84.7671 131.627 84.0748 131.802C83.3524 131.953 82.7016 132.342 82.2262 132.907C81.7919 133.069 81.3681 133.257 80.9572 133.471C80.711 133.384 80.4716 133.279 80.241 133.157V133.161ZM87.4968 131.475C84.6585 131.497 85.7809 131.969 85.6004 130.437C85.9162 130.493 87.8902 130.304 88.6178 130.259C88.56 130.4 88.6432 130.631 88.6967 131.123C88.7348 131.47 90.4141 131.661 90.3563 130.982C90.3337 130.736 90.2999 130.517 90.2717 130.318C90.8724 130.396 92.0709 130.667 92.1174 130.668C90.8456 132.861 91.4688 131.541 87.4968 131.475ZM92.484 128.339C92.9155 129.279 92.4473 129.979 92.061 129.849C90.4438 129.424 88.7507 129.376 87.1119 129.708C84.6966 129.973 86.5719 130.104 85.7231 128.157C86.065 127.552 86.5651 127.052 87.1697 126.71C87.7743 126.368 88.4606 126.196 89.1551 126.214C89.8495 126.233 90.526 126.439 91.1119 126.812C91.6979 127.186 92.1712 127.711 92.4812 128.333L92.484 128.339ZM85.0984 129.326C85.0462 130.313 84.2383 129.799 83.1315 129.667C80.7852 129.354 78.3643 130.107 78.0865 129.891C77.5042 129.577 78.2867 126.277 81.5946 126.297C83.6588 126.294 85.2408 128.157 85.0998 129.314L85.0984 129.326ZM94.8133 127.432C97.0312 128.195 96.9565 132.679 93.4527 133.456C93.3526 133.372 92.147 132.512 91.913 132.384C92.4473 131.845 92.797 131.15 92.9112 130.4C92.9835 130.344 93.0496 130.28 93.1086 130.21C93.1521 130.351 93.237 130.475 93.3522 130.567C93.4674 130.658 93.6075 130.713 93.7544 130.724C93.8193 130.682 93.9715 130.99 93.8841 131.171C93.7135 131.585 92.9817 131.955 93.0903 132.175C93.1862 132.457 94.2747 132.335 94.6639 131.47C94.7301 131.318 94.7627 131.153 94.7593 130.987C94.7559 130.821 94.7166 130.658 94.6441 130.509C94.5716 130.359 94.4677 130.228 94.3394 130.122C94.2112 130.017 94.0616 129.94 93.901 129.898C94.042 129.695 94.6554 129.546 94.8697 129.873C95.2293 130.455 95.4647 130.217 95.4337 129.697C95.3801 128.791 94.2 128.619 93.4921 129.144C93.5021 128.746 93.4171 128.352 93.244 127.993C93.1636 127.827 94.0195 127.149 94.8091 127.421L94.8133 127.432ZM75.6373 115.542C75.7473 115.174 76.128 113.489 76.5059 113.405C77.5704 112.631 79.7277 119.045 81.5621 113.788C81.6101 113.647 82.1261 112.213 82.3235 112.248C82.8438 111.433 84.0423 119.752 83.7194 121.07C83.6898 121.211 83.6828 121.118 73.5251 122.845C73.621 123.113 73.1021 121.795 72.995 121.511C73.277 121.468 82.7987 119.624 82.7564 119.279C82.7042 118.828 76.4311 119.607 72.8272 121.08C67.816 108.163 73.9171 121.382 75.6387 115.542H75.6373ZM71.9431 131.597C74.1258 131.831 74.9394 130.32 74.2259 130.559C71.5328 131.466 67.7484 128.726 68.7382 125.633C69.4432 123.431 72.2124 123.591 73.9129 124.794C75.3229 125.811 75.4921 127.08 75.7092 127.032C75.8023 127.025 75.901 126.707 75.8037 126.129C75.619 125.391 75.2625 124.708 74.7631 124.134C84.8305 122.317 84.4837 122.386 84.7346 122.019C85.1001 120.924 85.1644 119.75 84.9208 118.621C86.3829 117.775 87.3911 116.788 88.7729 117.234C90.4931 117.899 86.5987 120.973 87.329 121.421C87.4771 121.598 88.4429 120.806 90.0602 119.893C91.6324 119.058 93.182 118.94 92.4967 120.56C92.0145 121.748 91.184 121.791 90.7596 122.85C90.0405 124.594 92.0554 124.608 92.4191 126.798C91.9469 126.305 91.3684 125.927 90.7278 125.692C90.0872 125.458 89.4014 125.373 88.7228 125.443C88.0442 125.514 87.3908 125.739 86.8125 126.101C86.2342 126.463 85.7463 126.953 85.3861 127.532C84.9113 126.792 84.226 126.21 83.4182 125.862C82.6104 125.514 81.7169 125.416 80.8528 125.58C79.9887 125.744 79.1933 126.163 78.5689 126.782C77.9445 127.402 77.5197 128.194 77.3491 129.056C77.318 129.479 77.2222 130.238 77.8637 130.507C77.8158 131.206 77.9878 131.902 78.3558 132.498C78.7238 133.094 79.2691 133.559 79.9153 133.829C80.437 134.041 80.1634 133.63 78.5588 135.183C77.8212 135.88 77.237 136.724 76.8435 137.66C76.45 138.596 76.2557 139.603 76.2732 140.618C76.2634 142.007 77.0826 142.489 75.65 141.429C72.5156 139.144 71.7979 135.47 71.9445 131.597H71.9431ZM74.2245 151.089C75.4009 150.291 76.7499 149.784 78.1607 149.609C79.5714 149.434 81.0035 149.597 82.339 150.084C88.0806 152.022 89.5301 155.824 89.9728 155.633C90.2802 155.507 89.4652 153.173 87.1387 151.495C81.259 147.145 75.6895 148.225 73.6647 150.873C71.535 150.051 69.3934 149.259 67.2408 148.499C68.8468 144.965 71.7528 143.846 75.5034 142.896C76.1491 143.235 76.8302 143.505 77.5338 143.696C79.7094 146.322 82.6098 146.583 85.7907 147.08C87.4865 147.392 89.226 147.381 90.9175 147.047C93.6712 150.371 94.2874 155.16 94.5412 159.483C88.505 156.793 80.5469 153.526 74.2231 151.089H74.2245Z" fill="black"/>
<path d="M102.837 116.743C103.154 115.952 64.6483 99.7848 64.3056 100.556C63.7106 101.894 102.301 118.071 102.838 116.743H102.837Z" fill="black"/>
<path d="M159.366 83.5128C160.433 81.8603 161.302 82.0338 162.06 83.0898C164.537 86.5161 174.829 101.034 174.114 105.249C173.803 106.287 173.243 107.232 172.485 108.005C171.726 108.778 170.791 109.355 169.76 109.687C168.762 109.99 167.363 110.75 166.376 111.071C165.248 111.645 164.151 112.277 163.089 112.964C159.618 114.515 155.677 111.695 148.806 107.637C147.049 106.6 147.529 105.089 148.383 103.294C151.602 96.4643 155.271 89.8561 159.366 83.5128Z" fill="#7E45C5"/>
<path d="M158.673 133.089C159.21 134.194 159.969 136.014 161.465 135.435C162.329 135.099 162.501 133.988 162.887 133.147C163.342 132.334 163.911 131.596 164.579 130.948C165.936 129.409 174.916 114.98 174.015 113.182C173.423 111.999 170.238 114.808 165.451 116.62C163.707 117.435 161.786 117.802 159.864 117.687C157.942 117.572 156.079 116.979 154.444 115.961C151.003 114.193 149.168 112.889 147.683 113.806C146.952 114.258 147.16 114.229 147.48 115.121C151.273 125.62 156.686 129 158.673 133.089Z" fill="#7E45C5"/>
<path d="M146.777 107.645C148.108 109.567 159.044 114.554 160.675 114.332C160.789 114.332 160.887 114.254 161.016 114.332L161.341 114.24C170.831 109.728 178.867 109.542 173.044 99.435C169.204 93.1379 162.033 80.8399 161.25 81.2953C160.317 80.7073 149.663 98.4409 149.161 99.3137C147.705 101.981 145.755 105.222 146.777 107.645ZM159.982 111.647C156.21 110.282 152.584 108.545 149.158 106.46C148.607 106.058 149.244 106.117 151.39 105.709C155.457 104.937 159.171 103.991 160.235 103.854C160.269 112.913 160.758 111.897 159.982 111.648V111.647ZM161.623 111.299C160.592 111.736 161.098 112.671 161.399 103.803C162.926 103.872 168.026 105.298 172.274 105.967C171.111 107.95 164.381 110.13 161.623 111.3V111.299ZM163.53 87.2934C170.026 100.904 172.512 102.156 172.515 104.982C172.504 105.719 173.486 105.446 163.529 102.849C162.845 102.675 162.146 102.567 161.441 102.524C161.558 98.5438 161.783 85.5324 161.317 82.0877C161.941 83.8696 162.681 85.6089 163.53 87.2949V87.2934ZM149.17 105.313C150.147 102.227 157.954 90.1515 160.873 82.9041C160.399 87.3668 160.235 97.6034 160.231 102.567C157.641 102.863 149.088 105.576 149.17 105.315V105.313Z" fill="black"/>
<path d="M175.312 110.99C175.091 110.846 174.837 110.761 174.574 110.745C174.311 110.728 174.048 110.781 173.811 110.897C170.278 112.634 166.589 114.214 162.151 116.309C160.246 117.21 161.257 117.286 158 116.027C146.464 111.55 148.235 109.061 146.429 109.875C142.622 111.595 156.413 133.237 160.435 136.177C163.068 138.102 173.604 118.482 175.138 115.271C175.812 113.832 176.582 111.825 175.312 110.99ZM150.508 117.082C148.588 113.134 148.238 114.981 157.069 118.406C159.377 119.301 159.431 119.322 159.766 119.425C161.003 119.848 160.154 117.944 160.122 127.164C160.078 129.803 160.187 132.442 160.447 135.068C159.056 132.349 154.647 125.587 150.508 117.082ZM160.863 136.015C160.533 134.845 161.364 138.203 161.402 127.169C161.431 118.678 160.772 119.648 161.358 119.469L172.796 114.233C168.249 123.792 161.168 135.077 160.863 136.015Z" fill="black"/>
<path d="M132.067 173.693C130.351 172.923 128.791 171.844 127.463 170.512C126.591 169.214 125.597 168.003 124.495 166.894C122.414 164.498 120.689 161.815 119.373 158.927C118.844 157.579 118.693 156.365 117.334 149.149C116.105 142.622 114.969 134.748 120.617 130.266C125.105 126.703 133.642 127.793 137.396 129.451C142.215 131.58 148.883 138.77 150.867 148.142C151.734 152.231 152.329 163.015 150.668 166.851C147.352 174.503 133.631 174.197 132.067 173.693Z" fill="#FDFE1F"/>
<path d="M141.799 130.9C135.938 125.439 130.97 126.388 123.197 127.599C111.134 129.473 113.365 164.834 130.826 173.778C133.48 175.109 139.174 174.537 142.132 173.942C146.095 173.096 147.772 172.592 149.808 170.185C155.631 162.423 152.497 140.42 141.799 130.9ZM121.818 130.244C122.856 129.575 128.332 128.872 129.322 128.777C128.181 129.545 127.206 130.535 126.455 131.688C125.705 132.841 125.193 134.133 124.951 135.487C121.776 136.116 122.098 136.474 118.573 135.829C119.095 133.816 120.067 131.379 121.818 130.244ZM118.234 137.328C122.689 136.774 120.096 136.857 124.604 137.145C124.156 140.289 124.146 143.48 124.573 146.627C121.23 147.473 121.856 147.769 117.997 147.345C117.552 144.014 117.632 140.634 118.234 137.328ZM118.207 148.815C123.142 147.782 121.591 148.431 124.801 148.292C125.317 151.487 126.114 154.629 127.183 157.683C123.115 158.322 124.666 158.277 120.586 157.776C119.51 154.872 118.714 151.872 118.208 148.817L118.207 148.815ZM121.186 159.297C125.709 158.471 125.691 159.326 127.802 159.334C128.797 161.918 130.091 164.376 131.66 166.658C128.603 167.681 129.247 167.306 125.951 167.336C123.967 164.913 122.363 162.203 121.195 159.297H121.186ZM127.108 168.603C130.086 167.629 131.338 168.369 132.807 168.1C134.538 170.103 136.792 171.586 139.317 172.382C133.752 172.981 130.9 172.446 127.108 168.609V168.603ZM150.85 162.505C149.782 170.006 146.594 171.02 142.345 171.901C133.308 171.595 128.765 160.228 126.726 151.407C121.049 126.798 135.144 122.22 145.272 137.819C149.945 145.151 151.917 153.882 150.85 162.511V162.505Z" fill="black"/>
<path d="M147.83 151.849C148.383 156.678 148.272 163.834 144.755 167.127C144.35 167.547 143.865 167.882 143.328 168.112C142.521 168.458 141.628 168.554 140.765 168.389C139.903 168.223 139.109 167.804 138.486 167.184C128.718 159.307 124.461 128.973 136.171 132.567C140.745 133.97 144.152 140.356 145.979 144.777C147.752 149.179 147.919 149.096 146.453 144.604C140.531 127 127.277 126.721 127.751 143.138C128.202 155.025 137.258 176.057 145.491 167.91C149.218 164.252 149.28 156.98 148.33 151.77C147.406 147.095 147.235 147.205 147.83 151.849Z" fill="black"/>
<path d="M140.897 150.196C139.03 154.689 139.243 154.375 139.075 154.178C135.927 150.49 136.569 151.246 136.228 150.821C136.153 150.982 135.715 152.048 135.253 153.141C135.171 153.335 134.839 152.843 139.783 158.625C139.917 158.785 139.589 159.429 142.643 152.095C140.75 149.889 140.955 150.058 140.897 150.196Z" fill="black"/>
<path d="M135.764 147.509C137.543 143.227 137.426 143.352 137.533 143.48C138.274 144.35 139.766 146.095 140.424 146.863L141.434 144.453L136.77 139L134.016 145.623C135.957 147.883 135.709 147.652 135.764 147.509Z" fill="black"/>
<path d="M138.675 151.072L139.691 148.632L137.979 146.632L136.967 149.071L138.675 151.072Z" fill="black"/>
<path d="M132.281 149.806L133.963 151.782L134.963 149.383L133.275 147.406L132.281 149.806Z" fill="black"/>
<path d="M144.324 147.805C143.569 146.928 142.763 145.977 142.694 145.91C141.586 148.571 141.651 148.307 141.734 148.402C143.463 150.426 143.366 150.394 143.431 150.239C144.45 147.767 144.443 147.944 144.324 147.805Z" fill="black"/>
<path d="M175.447 226.196C177.304 225.068 179.262 224.126 181.218 223.185C188.245 219.801 190.329 220.143 195.329 222.279C198.919 223.813 212.549 229.47 213.941 233.046C214.364 234.137 214.258 233.939 214.35 248.017C214.38 252.703 213.714 252.41 213.261 254.819C212.606 258.313 213.659 259.539 209.545 261.675C204.132 264.728 198.214 266.782 192.073 267.738C190.265 268.271 188.367 268.432 186.494 268.212C184.622 267.993 182.813 267.396 181.177 266.459C178.543 265.212 168.027 259.137 166.626 256.599C165.78 255.058 165.936 254.47 165.584 240.726C165.269 228.38 164.138 233.052 175.447 226.196Z" fill="#FFB282"/>
<path d="M211.363 227.14C191.623 218.775 190.805 217.65 187.046 219.216L168.434 226.971C167.1 227.525 165.96 228.462 165.159 229.664C164.357 230.866 163.931 232.279 163.934 233.724V254.68C163.932 256.125 164.359 257.537 165.16 258.739C165.961 259.941 167.101 260.878 168.434 261.433C188.82 269.932 187.892 269.752 189.876 269.752C191.86 269.752 190.662 270.041 211.318 261.433C212.652 260.878 213.791 259.941 214.592 258.739C215.393 257.537 215.82 256.125 215.819 254.68V233.874C215.821 232.438 215.4 231.033 214.607 229.835C213.815 228.637 212.686 227.7 211.363 227.14ZM188.183 221.944C188.719 221.722 189.295 221.609 189.876 221.61C190.457 221.612 191.031 221.729 191.567 221.954C211.933 230.598 210.442 229.921 210.94 230.254L189.886 238.271L168.831 230.103C169.341 229.762 167.866 230.41 188.183 221.944ZM169.571 258.707C168.776 258.378 168.097 257.819 167.62 257.103C167.143 256.386 166.889 255.544 166.892 254.683C166.892 232.218 166.676 233.03 167.408 231.665L188.895 240.001C188.895 269.442 189.192 266.885 188.201 266.474L169.571 258.707ZM212.858 254.683C212.86 255.544 212.607 256.386 212.13 257.103C211.653 257.819 210.974 258.378 210.179 258.707L191.554 266.474C190.567 266.887 190.862 269.467 190.862 240.005L212.35 231.827C213.066 233.153 212.868 232.28 212.868 254.683H212.858Z" fill="black"/>
<path d="M92.9213 226.196C94.7782 225.068 96.7367 224.126 98.6924 223.184C105.718 219.8 107.804 220.142 112.804 222.279C116.394 223.813 130.024 229.47 131.416 233.045C131.839 234.137 131.733 233.938 131.825 248.017C131.854 252.702 131.189 252.409 130.736 254.819C130.079 258.313 131.134 259.538 127.019 261.674C121.607 264.728 115.689 266.781 109.548 267.737C107.739 268.27 105.842 268.432 103.969 268.212C102.096 267.992 100.288 267.396 98.6515 266.458C96.0176 265.212 85.5019 259.136 84.1003 256.598C83.2543 255.057 83.4108 254.469 83.0583 240.726C82.7439 228.38 81.6131 233.051 92.9213 226.196Z" fill="#FFB282"/>
<path d="M128.836 227.268C109.106 218.901 108.277 217.779 104.52 219.344L85.9075 227.099C84.5735 227.653 83.4338 228.59 82.6329 229.792C81.8319 230.993 81.4057 232.406 81.4082 233.85V254.807C81.4061 256.251 81.8325 257.664 82.6334 258.866C83.4343 260.068 84.5737 261.005 85.9075 261.56C106.293 270.06 105.366 269.886 107.349 269.886C109.426 269.886 109.053 269.79 128.791 261.56C130.126 261.006 131.265 260.069 132.067 258.867C132.868 257.664 133.294 256.252 133.292 254.807V234.004C133.294 232.567 132.872 231.162 132.08 229.964C131.287 228.766 130.159 227.828 128.836 227.268ZM105.657 222.072C106.194 221.85 106.769 221.736 107.35 221.738C107.931 221.74 108.506 221.857 109.041 222.082C129.389 230.712 127.913 230.047 128.415 230.382L107.362 238.4L86.3009 230.231C86.8043 229.892 85.1687 230.613 105.657 222.072ZM87.0454 258.837C86.2511 258.506 85.5727 257.946 85.0959 257.23C84.6191 256.514 84.3653 255.672 84.3664 254.811C84.3664 232.295 84.1591 233.145 84.8824 231.793L106.369 240.13C106.369 269.582 106.667 267.015 105.676 266.602L87.0454 258.837ZM130.332 254.811C130.334 255.672 130.08 256.514 129.604 257.23C129.127 257.947 128.448 258.506 127.653 258.837L109.027 266.602C108.04 267.015 108.332 269.597 108.332 240.135L129.823 231.95C130.54 233.283 130.341 232.394 130.341 254.811H130.332Z" fill="black"/>
<path d="M197.616 227.451C197.51 225.663 194.947 220.632 192.65 215.981C192.04 214.392 190.865 213.084 189.351 212.306C188.543 211.756 187.62 211.398 186.652 211.26C185.684 211.122 184.698 211.208 183.769 211.511C181.673 211.951 182.106 212.034 181.546 211.357C182.815 211.243 183.444 210.944 184.292 209.306C187.373 203.354 184.413 201.379 183.288 196.616C183.004 194.543 182.464 192.514 181.68 190.574C180.139 186.485 179.915 183.511 174.831 186.395C173.469 187.167 173.37 187.716 173.859 188.962C174.64 190.95 176.884 197.195 176.479 199.302C176.444 199.725 176.292 200.13 176.039 200.471C175.787 200.812 175.443 201.076 175.048 201.232C174.654 201.388 174.223 201.431 173.805 201.355C173.387 201.279 172.999 201.087 172.685 200.802C170.255 199.196 170.275 196.825 169.901 194.9C169.419 192.428 167.475 188.381 165.037 188.104C164.436 188.095 163.848 188.272 163.35 188.608C162.854 188.947 162.474 189.429 162.26 189.99C161.65 192.579 167.336 207.07 169.092 209.085C170.205 210.272 171.677 211.061 173.282 211.332C174.018 215.573 174.801 213.859 173.229 214.998C172.654 215.61 172.245 216.359 172.041 217.173C171.836 217.987 171.844 218.84 172.061 219.651C172.733 223.393 179.162 230.931 180.629 231.931C183.492 233.896 187.165 232.942 185.912 229.704C185.479 228.815 184.936 227.983 184.296 227.228C181.219 222.929 184.069 219.654 186.428 220.319C188.393 220.868 188.825 223.445 189.431 224.864C190.319 226.835 191.617 228.593 193.238 230.023C193.665 230.378 194.191 230.592 194.744 230.637C195.297 230.682 195.851 230.554 196.329 230.273C196.808 229.992 197.188 229.57 197.419 229.066C197.649 228.561 197.718 227.997 197.616 227.451Z" fill="#FDFE1F"/>
<path d="M197.988 225.434C197.463 220.85 192.396 210.02 185.721 209.776C188.673 203.758 183.414 190.262 180.972 186.769C181.292 183.549 174.881 183.308 173.65 186.661C172.885 188.786 176.271 196.589 176.1 198.897C176.037 200.242 174.899 200.659 173.844 199.808C172.568 198.775 170.285 192.44 168.593 190.51C168.549 190.081 168.42 189.665 168.215 189.286C168.009 188.907 167.731 188.572 167.395 188.301C167.06 188.03 166.674 187.828 166.26 187.707C165.846 187.586 165.412 187.547 164.984 187.594C162.526 187.721 161.459 190.196 162.248 191.26C160.618 193.006 165.223 206.117 167.423 209.321C167.941 210.161 168.623 210.889 169.428 211.459C170.233 212.03 171.145 212.433 172.11 212.643C172.433 213.807 172.606 213.912 172.465 213.785C171.774 214.582 171.29 215.538 171.057 216.568C170.824 217.597 170.848 218.668 171.129 219.686C172.149 223.916 178.91 232.734 180.683 232.215C180.876 232.542 181.152 232.813 181.484 232.998C184.144 234.653 188.295 232.279 186.241 229.701C185.536 227.445 183.273 222.434 185.472 222.112C188.197 221.713 189.494 227.317 191.562 229.045C191.973 231.301 197.404 232.57 197.737 229.609C198.11 228.25 198.195 226.828 197.988 225.434ZM165.122 196.833C163.247 190.05 162.089 191.906 163.045 190.249C163.249 189.891 163.545 189.594 163.901 189.386C164.257 189.179 164.662 189.07 165.074 189.069C165.654 189.058 166.229 189.188 166.747 189.45C167.265 189.711 167.712 190.095 168.048 190.568C168.01 192.071 169.955 197.522 170.505 198.957C170.751 199.741 171.164 200.463 171.717 201.071C172.271 201.677 172.95 202.157 173.709 202.473C171.594 204.368 171.37 207.972 171.705 210.631C168.073 207.104 166.662 202.37 165.122 196.833ZM185.646 230.273C185.58 231.215 185.544 231.526 184.284 231.947C183.123 232.167 181.929 232.135 180.781 231.854C180.499 230.805 174.192 221.947 173.524 219.118C173.267 218.194 173.337 217.211 173.72 216.333C175.502 219.219 178.958 222.1 182.321 222.114C181.684 224.581 183.893 228.93 185.646 230.273ZM196.737 229.315C196.097 230.43 193.509 229.584 192.679 229.116C191.692 228.562 192.415 229.045 191.337 225.809C190.437 223.321 189.385 220.199 186.366 219.697C186.809 218.661 186.452 217.771 186.254 217.819C186.053 217.83 186.02 218.328 185.621 218.916C182.967 222.902 174.126 217.345 173.872 208.457C173.538 201.003 178.077 202.894 178.2 202.746C178.293 202.663 178.163 202.165 177.386 201.728C179.965 199.134 177.488 194.798 176.117 191.599C175.615 190.294 174.928 189.069 174.078 187.959C174.756 186.624 175.849 185.562 178.696 185.703C179.431 185.74 179.732 186.101 180.274 186.617C179.811 191.025 187.853 205.696 182.118 210.484C180.907 207.829 180.834 204.403 179.136 203.132C177.64 202.013 178.483 203.837 178.641 205.326C179.022 208.913 179.125 212.037 182.248 214.534C183.205 215.282 183.865 215.629 184.429 216.104C185.546 216.95 185.89 217.74 186.24 217.726C186.837 217.662 186.464 216.027 185.715 214.93C185.04 214.112 184.315 213.337 183.544 212.609C185.602 211.812 187.915 212.186 190.213 214.793C192.482 217.321 197.937 227.098 196.737 229.315Z" fill="black"/>
<path d="M130.706 196.09C129.909 195.106 128.785 194.442 127.539 194.219C124.333 194.059 123.967 200.34 121.968 202.82C120.544 204.586 118.598 204.431 118.091 203.621C117.769 202.562 117.805 201.426 118.194 200.39C118.987 198.908 119.579 197.326 119.955 195.687C120.552 194.151 120.569 192.451 120.004 190.904C119.453 189.753 116.658 189.107 115.165 190.64C114.491 191.488 114.009 192.473 113.755 193.526C112.573 196.926 106.923 205.774 112.609 209.882C112.263 212.138 112.49 211.77 111.803 211.574C106.457 210.061 99.4222 225.179 99.418 226.973C99.4503 227.51 99.6593 228.02 100.012 228.426C100.365 228.831 100.842 229.109 101.369 229.215C104.251 229.83 105.65 226.536 106.626 225.013C108.144 222.643 109.948 222.484 110.658 222.963C111.15 223.505 111.488 224.168 111.639 224.884C111.79 225.6 111.749 226.343 111.519 227.038C111.105 228.394 109.695 230.109 110.651 231.574C111.653 233.111 112.217 233.211 113.178 233.225C115.739 233.264 114.671 233.467 117.294 230.739C118.908 228.614 120.372 226.379 121.676 224.05C122.576 222.355 122.818 220.388 122.356 218.525C121.894 216.663 120.76 215.036 119.172 213.959C119.525 212.607 119.257 212.942 119.955 213.069C122.329 213.114 124.649 212.357 126.539 210.919C127.899 209.046 128.933 206.958 129.599 204.742C129.846 203.849 129.977 202.928 130.219 202.036C130.69 200.342 131.921 197.937 130.706 196.09Z" fill="#FDFE1F"/>
<path d="M131.744 196.138C130.948 193.827 127.884 192.528 126.015 194.247C124.242 194.553 121.236 204.155 119.529 203.453C117.285 202.668 121.884 194.429 121.137 191.691C120.98 191.19 120.719 190.729 120.37 190.338C120.021 189.946 119.593 189.634 119.114 189.421C118.635 189.207 118.116 189.098 117.591 189.101C117.067 189.103 116.549 189.217 116.072 189.435C114.3 190.329 103.921 203.294 110.555 210.708C106.466 211.394 104.915 213.742 103.072 216.748C101.704 219.027 98.5007 225.16 98.8645 227.702C99.1945 230.264 103.291 231.028 104.404 229.085C105.109 229.042 106.508 227.694 107.722 225.886C107.956 225.417 108.334 225.036 108.8 224.797C109.266 224.558 109.797 224.475 110.314 224.559C113.383 225.49 109.163 229.982 110.263 231.009C110.334 231.531 110.53 232.028 110.835 232.459C111.139 232.889 111.543 233.239 112.011 233.48C112.48 233.722 113 233.846 113.527 233.843C114.054 233.839 114.572 233.707 115.037 233.459C117.716 231.917 126.144 221.525 122.079 215.103C128.018 214.355 129.564 208.848 130.841 203.433C131.032 202.586 132.334 196.777 131.744 196.138ZM103.957 228.641C101.852 229.007 100.647 228.722 99.5611 226.88C101.676 224.743 105.82 215.73 108.254 214.175C109.129 213.609 110.12 213.246 111.154 213.112C110.967 213.978 110.633 214.805 110.167 215.559C107.571 219.696 108.791 222.336 112.268 216.842C114.045 213.979 113.877 210.867 114.482 208.174C115.046 205.599 115.834 204.897 115.566 204.412C115.188 203.673 112.618 204.464 111.918 208.477C107.97 202.872 116.041 193.115 115.521 190.499C117.235 190.546 118.493 189.907 120.456 192.473C118.827 193.46 115.704 200.723 116.488 203.371C116.231 203.512 115.627 204.027 115.773 204.296C115.934 204.595 116.65 204.449 117.106 204.559C120.284 204.559 118.425 222.481 111.889 222.253C109.602 222.131 109.753 220.052 109.241 220.016C108.908 219.96 108.326 220.961 108.725 222.193C105.967 222.938 103.805 227.299 103.957 228.641ZM115.292 232.431C113.371 232.492 112.671 232.61 111.062 230.933C112.164 230.306 113.018 229.32 113.48 228.139C113.942 226.958 113.984 225.655 113.6 224.447C117.173 223.65 118.909 219.802 119.903 216.283C123.186 220.991 116.044 228.38 115.292 232.43V232.431ZM129.908 199.243C127.169 206.313 127.127 212.718 120.77 212.727C121.229 210.431 121.172 208.062 120.604 205.791C123.376 204.859 125.615 199.251 126.207 196.389C126.57 194.524 126.131 194.963 126.912 194.803C127.656 194.762 128.399 194.902 129.077 195.211C129.756 195.52 130.349 195.988 130.807 196.577C131.154 196.961 131.035 196.334 129.908 199.243Z" fill="black"/>
</svg>
