<svg width="298" height="341" viewBox="0 0 298 341" fill="none" xmlns="http://www.w3.org/2000/svg">
<path d="M92.4862 230.611C104.118 225.264 108.004 219.645 111.914 220.597C112.872 220.958 113.716 221.568 114.36 222.364C115.004 223.161 115.423 224.115 115.575 225.127C118.868 238.667 101.041 261.471 86.3091 263.376C84.9204 263.554 79.8066 263.525 78.9727 262.408C78.1672 261.331 79.2234 259.821 78.9887 251.287C78.6882 240.406 76.6594 238.429 78.4926 236.048C80.4752 233.466 84.5399 234.263 92.4862 230.611Z" fill="#FF8C49"/>
<path d="M79.6854 260.078C79.1558 263.925 77.6723 267.579 75.37 270.706C74.1941 272.248 72.6 273.419 70.7774 274.081C68.9548 274.743 66.9804 274.868 65.0891 274.44C63.3981 273.922 62.9554 273.647 61.4422 274.863C52.918 281.693 51.4849 283.439 39.6713 282.815C27.8576 282.19 5.94801 281.534 8.71828 270.693C9.67667 266.945 14.0401 265.452 17.1411 263.136C20.3914 260.711 13.841 259.635 13.0035 254.068C12.5821 251.269 14.1752 248.256 13.0195 245.674C11.9366 243.257 7.68521 241.513 9.92738 235.818C11.4636 231.906 22.3562 218.037 32.5091 214.431C33.2564 214.307 33.9383 213.93 34.4404 213.362C34.9425 212.795 35.2343 212.073 35.2669 211.316C36.156 207.226 36.2484 202.941 37.8363 199.075C41.6503 189.79 52.045 189.819 54.7281 200.039C56.6431 207.329 53.8391 209.58 58.7946 223.19C59.6997 225.679 59.5912 226.213 62.3135 225.089C71.4635 221.312 84.3973 235.805 79.6854 260.078Z" fill="white"/>
<path d="M52.0065 244.798C49.0299 237.465 48.7241 230.847 47.643 230.799C45.5609 230.71 45.2568 248.123 55.9467 256.803C48.9464 256.17 44.4194 264.524 45.5822 265.516C46.5495 266.339 50.3493 262.803 52.1398 261.442C54.5456 259.634 58.4254 259.115 58.4236 257.98C59.1775 257.205 54.8639 252.177 52.0065 244.798Z" fill="black"/>
<path d="M111.133 217.205C102.715 216.99 100.587 231.403 78.0747 232.45C74.2749 225.192 67.5235 220.61 60.5374 224.883C55.2796 216.323 58.9371 207.657 57.0345 199.906C56.6434 197.89 55.7192 196.016 54.3579 194.478C52.9967 192.94 51.2482 191.796 49.2945 191.163C46.7377 190.481 44.0538 190.425 41.4709 191.001C37.2035 192.267 36.0851 196.691 35.4254 201.014C32.1288 222.55 36.4603 202.97 23.2704 218.42C16.8124 226.176 11.631 227.084 9.34617 232.529C8.37033 234.898 8.12878 237.506 8.65285 240.015C9.17692 242.523 10.4424 244.816 12.2854 246.597C11.5816 247.832 11.1344 249.197 10.9706 250.609C10.8069 252.021 10.9299 253.452 11.3323 254.815C12.2963 257.91 13.9947 260.725 16.2825 263.021C5.99981 264.741 5.46816 277.097 11.9351 280.624C14.8422 282.225 18.0553 281.849 21.1242 281.869C31.3376 281.835 50.2849 292.004 64.0669 275.041C72.1163 277.945 77.495 273.389 80.011 265.166C116.213 267.033 129.156 217.63 111.133 217.205ZM14.307 244.344C13.1491 242.941 12.4053 241.243 12.1593 239.441C11.9134 237.638 12.175 235.803 12.9148 234.141C14.6929 230.214 19.9952 229.125 26.6061 221.195C28.6633 218.729 29.9329 216.369 32.9005 216.115C37.6765 215.774 42.7227 221.627 37.4364 232.093C31.9937 233.354 26.679 238.316 22.0809 240.863C18.987 242.586 16.8959 242.258 14.307 244.344ZM60.6707 272.372C49.9826 285.914 34.4546 279.419 25.7953 278.403C22.8284 278.131 19.8452 278.083 16.8711 278.259C12.6516 278.202 10.7758 275.628 10.8931 272.516C11.2487 263.27 21.7626 265.059 30.8486 266.419C51.7287 269.68 27.36 263.418 21.5563 262.895C19.1132 259.184 13.5354 254.49 15.6566 249.481C16.7395 247.057 18.9852 246.736 21.1918 246.008C27.7601 243.857 36.43 234.084 41.6558 236.542C43.1269 237.523 44.3004 238.889 45.0488 240.491C45.7972 242.093 46.0917 243.87 45.9001 245.628C44.4137 257.317 26.6843 260.816 26.7963 261.712C26.8266 261.986 28.1619 262.193 30.5517 261.876C44.1505 260.05 55.0004 248.007 47.6533 236.538C46.9483 235.296 45.9701 234.231 44.7928 233.423C43.6154 232.615 42.2697 232.086 40.8575 231.874C45.5943 223.395 43.1103 216.282 38.0125 213.297C40.2849 197.746 39.6484 194.627 45.3027 194.951C55.6156 195.468 52.8863 206.403 53.2028 213.798C53.8038 228.135 60.4929 229.47 63.7557 238.478C65.8325 243.912 68.8286 262.404 60.6707 272.372ZM74.9168 267.409C72.9413 271.855 69.9204 273.181 65.893 272.456C69.8226 266.044 70.7561 258.13 70.2706 250.662C69.5594 238.955 67.5253 234.712 62.2852 227.385C75.388 221.227 81.5562 252.313 74.9168 267.409ZM80.9036 261.499C82.4021 253.398 82.0857 245.065 79.9772 237.1C79.1967 234.57 79.1238 237.411 89.0455 235.267C101.295 232.808 108.206 222.205 110.955 222.562C118.734 222.897 111.222 259.623 80.9036 261.499Z" fill="black"/>
<path d="M179.955 26.651C200.963 19.3964 225.31 32.2128 230.412 53.8451C234.919 72.9596 223.015 93.0662 204.201 99.0584C184.464 105.344 161.705 94.6434 155.383 74.1651C149.233 54.2167 161.184 33.1357 179.955 26.651Z" fill="white"/>
<path d="M192.593 102.082C175.687 102.082 159.451 91.5561 154.2 74.522C151.323 64.6555 152.351 54.0604 157.07 44.9305C161.789 35.8007 169.839 28.8354 179.552 25.4769C201.377 17.9396 226.378 31.3446 231.618 53.5565C237.109 76.846 218.832 102.081 192.593 102.081V102.082ZM156.567 73.793C162.682 93.624 184.755 103.953 203.825 97.879C233.541 88.4142 240.852 47.1803 210.989 30.7383C180.306 13.8429 147.088 43.0569 156.567 73.793Z" fill="black"/>
<path d="M178.301 87.2906C182.836 88.886 187.577 89.8202 192.378 90.0644C214.677 90.9855 221.921 45.7296 206.74 39.3427C205.228 38.7061 193.08 35.4878 187.359 37.353C166.948 43.9995 162.531 81.9297 178.301 87.2906Z" fill="#FDFE1F"/>
<path d="M212.363 43.1605C209.518 38.228 206.302 38.0289 202.634 37.1452C197.891 36.1477 191.416 34.7786 186.809 36.4642C166.752 43.5374 161.083 80.9858 177.365 88.0021C182.123 90.0523 192.835 92.1291 197.198 90.8186C213.66 85.5288 220.681 58.3791 212.363 43.1605ZM213.548 60.1039C207.413 60.5733 208.836 60.015 204.317 59.1775C204.645 55.6213 204.431 52.0331 203.683 48.5392C204.913 48.5783 206.599 48.525 207.97 48.6477C208.444 48.6477 211.704 49.3429 212.47 49.4674C213.402 52.9311 213.764 56.5228 213.548 60.1021V60.1039ZM211.947 47.7533C206.593 48.1267 207.354 47.6181 203.171 46.6669C202.212 43.1536 199.951 40.1374 196.848 38.2316C205.984 39.7216 209.342 40.2053 211.945 47.7533H211.947ZM177.097 85.6586C169.385 81.6401 168.708 68.989 170.448 60.5111C176.583 30.6392 208.821 28.605 202.191 64.4744C199.879 75.9058 194.099 88.2617 182.36 87.4225C180.553 87.0038 178.79 86.4132 177.095 85.6586H177.097ZM186.165 88.2706C189.405 87.6923 192.397 86.1549 194.753 83.8574C197.109 84.4655 198.028 83.5018 202.723 85.1856C197.477 89.6397 193.418 89.5811 186.169 88.2706H186.165ZM204.179 83.8254C199.124 83.26 200.85 84.0245 196.11 82.3318C198.053 79.8317 199.627 77.0651 200.783 74.117C204.051 74.3855 202.955 73.3115 210.029 74.8638C208.647 78.1873 206.665 81.2281 204.182 83.8343L204.179 83.8254ZM210.703 73.1906C203.574 73.2511 207.596 73.4965 201.467 72.3407C202.782 68.6789 203.677 64.8797 204.134 61.0161C208.035 61.3272 205.336 60.3653 213.423 61.7468C213.017 65.666 212.104 69.5158 210.706 73.1995L210.703 73.1906Z" fill="black"/>
<path d="M187.266 83.908C191.978 81.6196 200.186 69.1694 199.855 54.7971C199.384 36.3387 182.439 35.2256 175.495 54.9056C174.274 58.3853 173.415 61.3387 176.004 55.1011C182.533 39.6406 192.338 39.5393 195.983 45.4283C202.661 55.8799 194.823 78.7604 186.699 82.754C180.167 86.0933 172.661 78.1772 173.897 63.5328C174.375 58.6164 174.317 57.3095 173.364 63.4653C171.066 79.1125 180.005 87.5797 187.266 83.908Z" fill="black"/>
<path d="M184.284 64.4048C184.834 64.7134 185.446 64.8951 186.075 64.9363C186.704 64.9775 187.334 64.8773 187.919 64.6431C193.772 62.7494 192.682 64.5826 191.297 55.7242C190.78 52.5153 189.925 49.3702 188.746 46.3412C185.673 50.4253 183.045 54.8262 180.908 59.4688C180.695 59.892 180.702 59.7249 180.888 60.1498C181.634 61.8379 182.804 63.3039 184.284 64.4048ZM188.28 49.8529C189.428 53.8763 190.265 57.9822 190.782 62.1342C189.936 62.4748 189.063 62.7407 188.171 62.929C186.596 63.3077 184.77 64.3817 182.506 59.8387C184.1 56.3283 186.035 52.9835 188.285 49.8529H188.28Z" fill="black"/>
<path d="M181.914 79.4694C183.495 79.4801 193.089 67.0939 191.804 65.7408C190.915 64.7984 187.762 67.3411 184.846 67.0779C183.384 66.9428 182.421 64.3557 181.128 63.1661C181.012 63.0607 180.868 62.9915 180.714 62.9672C180.559 62.9428 180.401 62.9643 180.258 63.029C180.116 63.0937 179.995 63.1988 179.912 63.3313C179.829 63.4637 179.786 63.6178 179.789 63.7742C179.816 64.994 178.943 79.4499 181.914 79.4694ZM181.302 65.9915C183.159 68.6942 184.361 69.6188 189.615 67.6718C187.431 71.163 184.942 74.4535 182.177 77.5046C181.158 75.1131 181.212 67.4158 181.302 65.9933V65.9915Z" fill="black"/>
<path d="M202.024 44.3429C207.714 41.9744 208.927 39.4584 210.381 34.1402C211.726 29.2486 212.671 21.5975 210.785 16.866C208.402 21.281 209.498 23.0982 205.063 26.4855C200.22 30.1839 198.804 23.7792 198.818 17.6839C198.818 14.9368 201.181 11.9372 199.544 7.6733C199.474 7.49549 194.149 0.982346 191.679 1.35752C191.438 1.58156 192.853 3.2014 193.102 4.0371C194.626 9.24335 187.531 11.5478 187.188 11.754C183.938 13.7099 182.279 13.1996 181.697 15.0542C181.395 15.8009 181.318 16.6199 181.476 17.41C181.634 18.2 182.02 18.9264 182.586 19.4994C184.009 21.5957 183.209 20.9716 184.172 22.3568C185.483 24.2451 186.606 23.9446 186.934 26.9691C187.255 29.9297 183.973 30.9307 181.482 30.287C179.713 29.8301 179.16 28.1249 178.116 27.8226C176.182 27.2607 175.234 23.7686 174.56 23.2174C173.977 22.3003 173.474 21.3341 173.059 20.3297C172.807 18.6441 171.637 23.7401 171.637 24.1598C171.77 42.8795 186.672 50.7369 202.024 44.3411V44.3429Z" fill="#FF8C49"/>
<path d="M211.816 18.5998C211.137 16.5994 210.435 15.6464 210.323 15.7033C209.926 15.6624 209.896 18.4611 207.846 22.0546C204.448 27.7569 199.019 27.3889 200.34 20.3885C200.909 17.3107 201.907 13.9394 201.194 10.7602C199.446 2.24314 190.748 -0.00970513 190.589 0.891787C190.353 1.19228 193.806 4.13502 191.656 8.00415C189.09 12.6841 181.457 9.87292 180.588 16.7932C179.905 21.7026 185.228 23.4362 186.021 26.9444C186.578 29.1812 184.066 30.7477 180.509 28.6389C174.272 24.9173 173.575 19.215 172.999 19.4195C172.732 19.279 169.789 23.9589 171.398 31.2829C172.417 36.292 175.273 40.7385 179.405 43.7478C183.537 46.757 188.646 48.111 193.726 47.5435C209.784 46.0944 215.531 29.4835 211.816 18.5998ZM211.061 27.2644C206.692 56.1904 166.687 47.5346 172.917 20.3156C173.295 22.9153 174.405 25.3537 176.118 27.3462C182.079 34.5546 189.622 31.9692 188.342 26.4572C187.487 22.1595 182.474 20.4703 182.942 17.0777C183.315 13.6514 187.046 13.6442 189.905 12.1862C190.837 11.7529 191.656 11.1084 192.296 10.3038C192.936 9.49924 193.38 8.55665 193.593 7.55073C193.804 6.54431 193.778 5.50249 193.516 4.50799C193.254 3.51349 192.764 2.59372 192.085 1.82173C193.871 2.75202 195.421 4.07751 196.617 5.69732C197.814 7.31713 198.625 9.18856 198.989 11.1691C199.878 15.8918 196.37 20.9984 198.278 25.4205C200.997 31.6278 210.332 27.1666 210.621 17.5649C211.375 20.7424 211.523 24.0319 211.061 27.2644Z" fill="black"/>
<path d="M91.7478 11.8239C112.756 4.5675 137.103 17.3858 142.205 39.018C146.712 58.1307 134.808 78.2373 115.994 84.2295C96.2571 90.515 73.4975 79.8145 67.1764 59.3362C61.026 39.3861 72.9765 18.3157 91.7478 11.8239Z" fill="white"/>
<path d="M104.384 87.2553C87.478 87.2553 71.244 76.7272 65.9915 59.6949C63.1165 49.8291 64.145 39.2355 68.8641 30.107C73.5833 20.9785 81.6318 14.014 91.3435 10.6552C113.175 3.11428 138.171 16.5229 143.41 38.7348C148.9 62.0206 130.622 87.2553 104.384 87.2553ZM104.002 11.0268C66.1498 11.0268 52.0193 62.3869 86.3987 80.3598C115.767 95.7119 147.99 68.9801 140.986 39.3055C137.074 22.6555 121.071 11.0268 104.002 11.0268Z" fill="black"/>
<path d="M120.422 72.2463C115.355 73.8465 110.101 74.78 104.791 75.0201C80.033 75.9411 71.996 30.687 88.847 24.2983C90.8278 23.5461 104.19 20.4967 110.362 22.3086C132.985 28.9409 137.979 66.8693 120.422 72.2463Z" fill="#FDFE1F"/>
<path d="M105.246 20.5711C99.5494 20.8378 93.8986 21.7233 88.3918 23.2098C72.8442 29.2944 76.3897 68.32 98.2851 75.4376C104.331 77.7669 121.692 74.2943 125.374 70.8004C139.348 59.6607 129.636 20.7543 105.246 20.5693V20.5711ZM94.5778 24.1842C101.475 22.8151 99.7432 23.176 98.5305 23.9104C95.8532 25.7726 93.8607 28.4616 92.8584 31.565C88.006 32.5519 89.1706 33.0889 83.0238 32.6621C86.043 24.8954 90.2286 25.1408 94.5778 24.1842ZM82.4032 34.4793C83.767 34.282 85.7941 33.8037 87.4601 33.6259C95.7425 33.6259 90.4366 31.2343 91.5604 44.081C86.4626 44.931 88.3172 45.5426 81.2101 45.0092C80.9852 41.4565 81.3915 37.892 82.4103 34.4811H82.4032V34.4793ZM81.3684 46.7659C90.4491 45.3328 87.5401 46.3623 91.7844 46.0263C92.2948 49.8758 93.278 53.6472 94.7076 57.2567C87.4174 58.528 92.5561 58.1635 84.3698 58.1048C82.835 54.4872 81.8243 50.6691 81.3684 46.7659ZM85.1771 59.8758C85.5469 59.8011 88.911 59.0508 89.6614 59.0508C91.9267 58.8907 95.4953 59.3228 95.4829 59.0757C96.7771 62.0455 98.506 64.8063 100.613 67.2673C95.2055 69.033 97.3019 68.1653 91.6404 68.7467C88.9473 66.2217 86.7546 63.2116 85.1771 59.874V59.8758ZM93.3456 70.1585C98.2425 68.544 99.8783 69.3886 102.122 68.8676C101.944 68.0852 104.404 72.0024 111.411 73.2168C101.031 74.8598 97.7019 73.4106 93.3456 70.1585ZM128.854 61.7019C128.082 64.6273 126.406 67.2344 124.066 69.1521C123.462 69.6299 122.812 70.0468 122.126 70.3968C98.7972 81.4903 86.8485 42.2531 95.9629 28.3147C107.16 11.6255 136.511 35.3559 128.854 61.7019Z" fill="black"/>
<path d="M125.189 45.3239C122.973 38.1333 130.041 59.2108 119.47 66.7108C108.59 74.7957 97.5464 53.1848 97.9873 39.3869C98.6346 23.7148 114.156 21.2041 122.957 39.9736C124.147 42.5448 124.58 44.0632 124.701 44.033C124.482 42.5585 124.073 41.1184 123.487 39.7478C117.264 24.058 104.892 22.8204 100.061 29.0793C92.8149 37.9928 97.2441 55.3808 106.179 65.6137C116.227 77.0735 130.662 63.1066 125.189 45.3239Z" fill="black"/>
<path d="M116.309 49.52C113.416 56.4812 113.747 55.994 113.486 55.6882C108.61 49.9752 109.604 51.147 109.076 50.4891C108.961 50.738 108.281 52.3898 107.567 54.0826C107.439 54.3831 106.925 53.6203 114.583 62.5783C114.791 62.8254 114.282 63.8229 119.014 52.4627C116.082 49.0452 116.398 49.3066 116.309 49.52Z" fill="black"/>
<path d="M108.355 45.3579C111.111 38.7238 110.929 38.9176 111.095 39.1168C112.243 40.4646 114.555 43.1673 115.574 44.3568L117.138 40.6228L109.914 32.1769L105.646 42.4365C108.653 45.9375 108.269 45.5783 108.355 45.3579Z" fill="black"/>
<path d="M112.865 50.8776L114.438 47.0974L111.787 43.9982L110.219 47.7766L112.865 50.8776Z" fill="black"/>
<path d="M102.961 48.9165L105.566 51.9766L107.115 48.2604L104.501 45.1985L102.961 48.9165Z" fill="black"/>
<path d="M121.615 45.8167C120.447 44.4583 119.197 42.9842 119.091 42.8811C117.375 47.0027 117.476 46.5938 117.604 46.7413C120.282 49.8761 120.133 49.8263 120.232 49.5863C121.811 45.7581 121.8 46.0319 121.615 45.8167Z" fill="black"/>
<path d="M75.1746 29.1112C79.3727 33.2168 86.91 33.816 93.7183 28.6827C97.1358 26.1044 97.5377 24.1788 97.6426 20.283C97.7049 18.1979 97.5481 16.112 97.1749 14.0597C96.5221 12.6958 95.7213 11.4078 94.787 10.219C94.4029 10.1461 94.4118 10.6688 94.1735 11.4334C93.5245 13.512 91.8425 15.6279 90.2262 15.3097C85.8556 14.4491 88.585 7.5963 83.5992 4.33707C81.9652 3.27021 77.9822 1.67882 79.2287 3.4658C80.4342 5.19233 80.6636 5.16921 79.643 7.02198C77.4701 10.9693 75.6458 9.78869 75.1871 12.4594C74.5665 16.0653 78.7219 16.1258 80.0573 19.193C80.4129 20.0323 79.0473 22.2638 76.7091 22.4042C73.2401 22.6141 70.3862 17.8292 70.3791 18.6934C70.3471 23.0017 73.7948 27.7598 75.1746 29.1112Z" fill="#FF8C49"/>
<path d="M98.3751 15.6794C97.1838 11.0954 94.1735 8.49765 93.8695 8.82659C93.4623 8.95639 94.1646 14.4418 90.4146 14.3387C86.325 14.3262 90.9374 3.15271 81.1846 2.16942C76.5615 1.70001 79.378 3.22205 79.5292 5.07482C79.771 7.67973 73.3467 9.49871 74.4189 14.7103C75.0342 17.8984 78.8873 18.5136 78.9477 19.7903C79.2429 21.1576 76.6167 22.541 73.6686 20.834C71.1633 19.3547 70.596 17.2903 70.2404 17.4201C69.0918 17.0396 68.2419 27.0858 77.904 31.7604C88.8019 37.2369 101.478 27.2067 98.3751 15.6794ZM95.5302 23.8426C89.3567 35.7558 72.4506 31.0723 70.5445 19.6178C73.1672 25.3575 81.798 24.9219 81.3606 19.4987C81.021 16.4866 77.2888 16.227 76.7962 14.2089C75.9072 10.4624 82.143 8.51898 80.8858 4.75477C80.2084 2.81843 78.0782 2.47348 80.8752 3.52255C85.5516 5.25085 85.2884 7.41123 85.9178 11.908C87.07 19.7565 95.9178 16.812 94.8599 10.7576C96.029 12.7192 96.7008 14.9369 96.8167 17.2175C96.9326 19.4982 96.4891 21.7726 95.5249 23.8426H95.5302Z" fill="black"/>
<path d="M87.3394 116.468C83.1147 122.421 81.966 130.574 82.4888 137.818C83.2232 147.972 88.3565 164.695 98.0915 165.522C93.6331 171.192 90.8091 177.972 89.9248 185.131C88.7761 192.007 90.9365 198.842 93.993 204.523C94.6705 205.78 96.8611 206.518 97.5315 207.396C97.7555 207.689 97.5866 207.535 101.073 210.097C103.294 211.729 103.07 214.332 103.44 215.81C105.261 223.075 102.77 224.332 97.9902 234.933C95.5206 240.863 94.0509 247.161 93.641 253.571C93.6801 256.13 95.3515 256.224 89.5514 260.861C83.2534 265.902 78.2943 273.249 74.2989 280.259C72.4179 284.16 71.299 288.384 71.0023 292.705C69.8039 304.099 69.6421 313.687 78.4703 322.021C82.3277 325.271 86.8134 327.692 91.6477 329.133C132.064 341.27 170.963 341.165 209.578 332.358C226.004 328.612 229.066 318.774 232.213 303.731C235.737 286.882 225.799 237.901 207.161 220.339C206.327 219.553 201.713 216.461 201.199 215.438C200.666 214.382 200.435 214.194 201.313 212.415C203.091 208.859 216.249 194.329 215.972 169.578C215.924 165.454 214.768 165.506 217.846 162.152C239.494 138.564 232.56 113.372 224.789 109.178C215.385 104.089 207.661 115.849 205.778 115.591C205.067 115.495 203.498 113.79 203.011 113.262C177.384 85.4172 151.594 97.798 150.945 93.9325C150.111 89.0285 126.143 76.6245 109.622 84.9033C108.759 85.1809 107.994 85.7028 107.42 86.4058C106.846 87.1088 106.489 87.9629 106.39 88.8649C106.178 90.5274 107.635 91.4094 107.812 92.3002C108.1 93.6907 104.967 93.0257 100.238 95.8208C98.497 96.8503 96.8309 97.8869 96.5037 99.457C96.1125 100.559 95.9614 101.733 96.0574 102.898C96.2121 103.657 96.6388 104.724 97.4799 104.921C102.789 106.166 108.682 106.699 113.328 110.508C113.755 110.863 113.794 111.148 113.26 111.553C103.876 118.719 104.548 120.892 103.086 122.138C101.207 123.739 101.233 121.493 100.341 119.078C98.5432 114.226 91.9607 109.955 87.3394 116.468Z" fill="#36A35C"/>
<path d="M105.247 219.242C108.476 227.339 110.916 231.322 119.79 234.356C136.767 240.17 154.009 233.516 161.234 219.902C165.455 211.946 169.749 194.494 162.996 184.916C161.89 183.348 160.905 183.493 159.018 184.43C147.446 190.197 145.402 182.604 140.526 183.95C138.76 184.439 133.279 189.672 128.648 186.594C126.353 185.067 125.386 181.817 122.781 180.904C121.904 180.668 121.001 180.544 120.092 180.535C113.704 180.001 111.104 176.1 110.437 176.089C109.744 176.075 109.095 176.874 108.922 177.35C108.114 179.12 107.449 180.952 106.936 182.828C104.18 196.9 97.4519 199.683 105.247 219.242Z" fill="white"/>
<path d="M142.054 132.339C139.626 115.139 123.368 115.625 115.965 126.571C108.319 137.878 110.452 159.323 126.896 159.167C137.787 159.062 143.703 144.064 142.054 132.339Z" fill="white"/>
<path d="M177.385 139.076C174.684 122.076 156.491 122.184 148.031 133.308C139.428 144.615 141.836 166.061 160.332 165.904C172.595 165.797 179.247 150.801 177.385 139.076Z" fill="white"/>
<path d="M178.634 138.872C175.434 118.192 151.063 120.116 143.618 137.124C143.674 109.883 118.563 114.346 112.642 128.834C105.681 142.785 112.018 162.357 127.223 160.904C128.993 160.838 130.734 160.422 132.342 159.679C133.951 158.936 135.397 157.881 136.595 156.576C143.241 149.618 140.423 145.794 141.764 152.753C142.248 155.821 143.525 158.709 145.467 161.132C147.409 163.555 149.95 165.429 152.839 166.569C155.727 167.709 158.863 168.076 161.937 167.633C165.011 167.19 167.916 165.952 170.364 164.042C177.299 158.383 180.034 147.897 178.634 138.872ZM128.718 157.204C110.404 160.76 107.886 127.702 125.653 121.233C145.788 114.039 144.991 154.136 128.718 157.204ZM162 163.896C145.555 165.082 141.759 148.374 148.149 136.629C152.532 128.45 164.696 124.293 171.086 129.858C181.469 138.539 175.224 162.111 161.997 163.896H162Z" fill="black"/>
<path d="M123.142 136.676C118.051 136.676 117.985 153.099 123.142 153.099C128.298 153.099 128.2 136.676 123.142 136.676Z" fill="black"/>
<path d="M157.388 143.138C151.623 143.138 151.618 159.559 157.388 159.559C163.158 159.559 163.156 143.138 157.388 143.138Z" fill="black"/>
<path d="M204.624 155.888C211.453 164.547 227.561 139.423 210.989 134.67C212.278 131.528 214.766 125.214 217.486 124.505C222.691 123.145 221.425 133.088 221.932 133.218C222.485 133.36 224.84 126.639 221.663 123.34C221.043 122.74 220.284 122.301 219.454 122.063C218.623 121.825 217.747 121.796 216.903 121.976C213.514 122.723 211.526 126.688 210.079 129.846C206.809 136.793 201.021 149.61 204.624 155.888ZM209.641 138.141C220.666 140.483 210.708 154.93 208.148 154.635C206.955 154.932 204.969 150.872 209.641 138.141Z" fill="black"/>
<path d="M185.377 130.23C184.915 129.11 177.98 132.2 170.637 125.607C163.88 119.823 163.491 111.841 162.308 111.857C161.488 111.868 160.847 117.472 163.716 122.704C167.018 129.242 174.408 133.584 180.521 132.593C183.956 132.095 185.578 130.598 185.377 130.23Z" fill="black"/>
<path d="M129.013 111.001C139.891 108.595 143.704 117.855 144.991 117.485C145.448 117.354 145.603 115.809 144.541 113.616C143.798 112.193 142.78 110.931 141.545 109.905C140.31 108.879 138.884 108.108 137.349 107.638C135.814 107.167 134.201 107.006 132.603 107.164C131.005 107.323 129.455 107.797 128.042 108.559C125.933 109.779 125.197 111.146 125.501 111.511C125.846 111.925 127.093 111.404 129.013 111.001Z" fill="black"/>
<path d="M165.386 171.921C155.327 154.483 97.7369 150.614 107.001 172.871C109.682 179.391 116.291 181.656 123.023 183.539C126.234 189.674 134.636 191.873 141.115 185.699C144.563 186.921 148.164 187.659 151.814 187.892C162.008 188.16 170.457 181.295 165.386 171.921ZM162.996 178.276C162.61 179.463 161.952 180.543 161.074 181.431C160.197 182.318 159.124 182.988 157.941 183.388C153.318 185.344 148.08 184.512 143.21 183.328C143.821 182.487 144.698 181.878 145.699 181.599C147.675 181.091 152.495 181.421 152.422 180.504C152.383 180.002 147.755 178.825 145.239 179.012C141.889 179.343 140.722 181.724 138.466 183.484C133.549 187.458 127.747 185.603 125.664 181.108C124.494 178.706 124.552 172.542 117.221 171.601C115.945 171.446 115.232 171.601 115.189 171.85C115.146 172.099 115.772 172.417 116.789 172.983C120.879 175.251 120.968 175.65 121.896 180.255C119.027 179.376 116.324 178.029 113.894 176.269C110.628 173.701 108.64 169.592 110.941 166.133C117.964 155.66 165.194 164.654 162.996 178.276Z" fill="black"/>
<path d="M183.964 155.63C183.09 155.472 181.753 160.461 177.761 164.865C173.835 169.327 168.94 170.993 169.164 171.844C169.388 172.696 175.446 172.1 180.065 166.933C184.631 161.9 184.829 155.786 183.964 155.63Z" fill="black"/>
<path d="M108.864 159.229C109.398 158.788 108.144 156.357 107.415 153.082C106.633 149.818 106.171 146.953 105.447 146.964C104.302 146.95 103.857 154.199 107.074 158.063C107.879 159.041 108.61 159.439 108.864 159.229Z" fill="black"/>
<path d="M138.235 211.283C135.417 196.308 125.312 194.049 122.054 212.476C118.507 234.22 141.8 232.593 138.235 211.283ZM127.364 223.08C123.733 219.569 125.79 207.865 127.863 203.793C130.163 199.281 134.798 200.221 135.52 211.631C136.149 223.103 130.335 226.025 127.364 223.08Z" fill="black"/>
<path d="M202.59 214.729C208.624 208.075 213.135 200.185 215.806 191.609C218.478 183.033 219.247 173.977 218.06 165.074C221.813 162.229 224.872 158.569 227.005 154.37C232.482 142.878 238.163 123.964 231.616 112.825C227.194 105.193 216.966 103.856 208.572 110.632C203.31 114.926 208.556 114.626 198.04 104.971C185.887 93.6692 166.445 90.0135 152.277 93.3705C139.146 72.085 104.511 78.9929 104.484 88.3581C104.421 89.7925 104.908 91.1968 105.846 92.2841C99.7438 93.9164 91.5023 98.2994 94.413 103.826C98.3515 110.405 103.625 105.154 112.64 111.703C108.927 113.985 105.75 117.043 103.327 120.666C101.193 111.687 92.3665 108.931 86.7033 114.304C74.4664 125.769 81.3352 163.335 95.5937 166.77C84.5162 178.26 83.8281 204.859 99.7989 210.57C100.149 214.338 101.177 218.013 102.832 221.416C95.6453 231.521 90.864 245.13 91.9113 257.527C64.6603 274.368 57.7595 319.405 88.2982 330.139C132.039 345.034 184.587 342.708 212.231 333.779C224.541 329.771 231.513 323.237 234.084 305.137C237.332 281.043 228.838 235.207 202.59 214.729ZM85.3644 126.397C88.1933 111.866 99.3561 112.64 100.768 125.063C95.0656 136.848 95.8337 151.166 98.2928 164.03C87.4661 163.744 83.2875 136.863 85.3644 126.397ZM230.035 304.561C227.597 320.968 221.74 326.254 210.912 329.714C183.302 338.525 132.053 340.42 89.5927 326.336C62.9213 317.152 68.5881 277.07 92.306 260.655C92.8146 263.564 93.5507 265.203 93.9899 265.139C95.9244 264.882 92.7665 244.483 105.247 225.55C117.681 243.521 145.679 242.001 158.243 229.208C165.01 228.953 171.022 227.695 175.734 222.828C181.1 217.289 182.183 209.547 181.399 209.314C180.437 208.959 178.833 215.42 173.275 220.2C170.082 222.83 166.132 224.371 162.002 224.601C166.794 217.302 169.114 208.657 168.625 199.939C168.362 193.369 166.769 189.563 166.282 189.679C164.827 189.931 170.231 230.184 138.319 234.106C143.767 229.924 143.972 222.927 143.005 223.082C142.517 223.043 142.293 225.408 140.32 228.28C134.431 236.589 123.367 235.083 119.025 226.324C117.512 223.095 116.821 220.783 116.358 220.908C115.722 221.068 116.111 227.878 119.676 232.04C117.816 231.251 116.062 230.23 114.456 229.003C94.0077 213.472 109.614 183.276 107.112 182.346C106.129 181.966 99.8771 194.361 99.6442 206.229C87.5087 199.021 90.2381 173.71 102.338 164.055C103.805 162.883 104.73 162.293 104.596 161.978C104.511 161.759 103.52 161.791 101.895 162.43C100.451 151.214 99.7171 138.641 103.787 128.034C109.059 114.009 119.968 110.453 119.257 109.066C119.13 108.817 118.119 109.066 116.326 109.777C109.392 103.282 102.15 103.808 100.009 103.198C92.8074 101.18 109.884 90.9523 127.69 97.1258C135.039 99.6685 139.875 103.724 140.357 103.171C140.999 102.442 129.333 89.9637 111.927 91.2724C97.923 87.7713 131.058 75.4154 147.967 92.5757C153.085 97.7642 154.799 103.625 155.574 103.394C155.987 103.276 155.542 99.921 153.705 96.0234C163.134 95.2736 172.612 96.5878 181.481 99.8748C191.778 103.45 198.858 110.684 203.757 115.854C197.933 124.167 194.745 138.518 196.047 138.856C197.016 139.115 200.09 130.207 204.473 122.513C214.109 105.728 228.225 107.681 229.985 121.393C231.37 132.197 225.65 148.621 221.787 154.924C216.122 164.188 204.459 170.324 205.312 171.663C205.887 172.576 212.855 168.616 214.455 167.597C216.506 208.216 184.427 225.289 185.382 226.846C185.752 227.575 193.55 223.783 200.62 216.763C226.571 237.759 232.843 284.7 230.035 304.565V304.561Z" fill="black"/>
<path d="M98.9264 302.327C98.3061 301.735 97.5453 301.309 96.7154 301.092C95.8855 300.874 95.0139 300.871 94.1825 301.083C89.9151 302.63 89.1256 310.626 91.446 314.516C93.3415 317.795 96.9848 317.018 96.6789 316.371C96.5723 316.033 94.2394 316.397 93.1228 313.636C91.7856 310.613 92.8614 302.726 96.0637 303.648C99.5968 305.153 99.5025 313.291 96.9083 315.965C96.1793 316.717 97.376 316.566 98.2579 315.974C101.371 313.88 102.187 305.78 98.9264 302.327Z" fill="black"/>
<path d="M69.2647 176.274L30.088 183.125C27.6572 183.551 25.495 184.924 24.0768 186.944C22.6587 188.964 22.1008 191.464 22.5258 193.895L35.5557 268.383C35.9809 270.813 37.3543 272.976 39.3736 274.394C41.393 275.812 43.893 276.37 46.3238 275.945L85.4987 269.092C86.7024 268.882 87.8529 268.436 88.8845 267.781C89.916 267.126 90.8085 266.275 91.5109 265.275C92.2133 264.275 92.7118 263.146 92.9781 261.954C93.2443 260.761 93.2731 259.528 93.0627 258.324L80.0328 183.836C79.6076 181.406 78.2342 179.243 76.2148 177.825C74.1954 176.407 71.6954 175.849 69.2647 176.274Z" fill="#7E45C5"/>
<path d="M94.8909 258.003L81.8628 183.518C81.3491 180.604 79.7003 178.013 77.2782 176.313C74.8562 174.613 71.8586 173.943 68.9432 174.45L29.7684 181.301C26.8546 181.816 24.2637 183.465 22.5638 185.886C20.8639 188.308 20.1937 191.305 20.7001 194.221L33.7264 268.707C34.1808 271.293 35.5311 273.637 37.5406 275.328C39.5502 277.018 42.0907 277.948 44.7168 277.953C46.1143 277.953 43.4259 278.344 85.8209 270.933C87.2663 270.681 88.648 270.147 89.8865 269.36C91.125 268.574 92.196 267.55 93.0381 266.349C93.8807 265.148 94.478 263.792 94.796 262.36C95.1139 260.928 95.1462 259.447 94.8909 258.003ZM84.674 265.801C82.9066 268.315 86.0805 267.108 46.0041 274.114C44.0585 274.45 42.059 274.001 40.4431 272.867C38.8273 271.732 37.7267 270.004 37.3821 268.059L24.3559 193.573C24.0169 191.629 24.463 189.63 25.5964 188.014C26.7298 186.398 28.4578 185.298 30.4014 184.955L67.2736 178.506C68.7426 178.964 70.057 179.818 71.0732 180.974C72.0893 182.13 72.7679 183.543 73.0346 185.058C87.0691 265.262 87.4656 261.838 84.674 265.805V265.801ZM89.9887 264.201C89.0368 265.563 87.6538 266.566 86.0627 267.046C89.7149 262.035 88.8187 264.485 74.8714 184.733C73.9006 179.18 69.5745 177.976 70.8707 177.976C72.6218 177.981 74.3155 178.601 75.6558 179.728C76.9962 180.854 77.8979 182.416 78.2035 184.141C92.2665 264.592 92.4763 260.67 89.9887 264.21V264.201Z" fill="black"/>
<path d="M48.6605 187.52C49.5047 187.522 50.3213 187.821 50.967 188.364C51.6128 188.908 52.0464 189.662 52.1918 190.493L55.2146 207.801C55.2964 208.266 55.2858 208.741 55.1835 209.202C55.0811 209.662 54.889 210.097 54.6181 210.483C54.3473 210.869 54.003 211.197 53.6049 211.45C53.2069 211.703 52.763 211.874 52.2985 211.955L36.8167 214.663C36.3523 214.744 35.8765 214.733 35.4165 214.631C34.9564 214.528 34.521 214.336 34.1353 214.065C33.7496 213.794 33.421 213.449 33.1684 213.051C32.9158 212.653 32.7441 212.209 32.6631 211.745L29.6403 194.437C29.4771 193.499 29.6927 192.535 30.2398 191.757C30.7869 190.978 31.6207 190.448 32.5582 190.284C49.4144 187.334 48.2142 187.52 48.6605 187.52ZM47.6293 185.246C23.2179 189.498 25.7587 186.043 30.3355 212.152C30.5367 213.314 31.0786 214.389 31.8922 215.241C32.7059 216.094 33.7547 216.685 34.9052 216.941C35.668 217.11 36.4575 217.127 37.2274 216.992L52.7093 214.284C54.2644 214.012 55.6478 213.133 56.5553 211.841C57.4629 210.549 57.8203 208.95 57.5492 207.394L54.5265 190.086C54.4021 189.311 54.1235 188.569 53.7074 187.903C53.2912 187.238 52.7459 186.662 52.1035 186.211C51.4612 185.76 50.7349 185.442 49.9676 185.276C49.2004 185.111 48.4077 185.1 47.6364 185.246H47.6293Z" fill="black"/>
<path d="M47.1628 196.335C46.1341 196.379 45.1635 196.824 44.4595 197.576C43.7555 198.327 43.3742 199.325 43.3975 200.354C43.4208 201.383 43.8468 202.363 44.584 203.081C45.3212 203.8 46.3109 204.201 47.3406 204.198C48.3693 204.154 49.3398 203.709 50.0438 202.958C50.7478 202.206 51.1291 201.209 51.1058 200.18C51.0826 199.15 50.6566 198.171 49.9193 197.452C49.1821 196.734 48.1924 196.333 47.1628 196.335Z" fill="white"/>
<path d="M41.0438 197.025C41.0321 196.509 40.9189 196 40.7106 195.528C40.5023 195.055 40.2031 194.629 39.8299 194.272C39.4568 193.916 39.0171 193.636 38.5358 193.449C38.0546 193.263 37.5413 193.172 37.0253 193.184C36.5092 193.196 36.0005 193.309 35.5283 193.517C35.056 193.726 34.6293 194.025 34.2727 194.398C33.916 194.771 33.6364 195.211 33.4497 195.692C33.263 196.173 33.1729 196.687 33.1846 197.203C33.2082 198.245 33.6448 199.235 34.3984 199.955C35.152 200.675 36.1609 201.067 37.2031 201.043C38.2453 201.02 39.2354 200.583 39.9557 199.829C40.6759 199.076 41.0673 198.067 41.0438 197.025Z" fill="white"/>
<path d="M38.735 203.305C37.7063 203.349 36.7358 203.794 36.0318 204.546C35.3278 205.297 34.9465 206.294 34.9698 207.324C34.993 208.353 35.419 209.332 36.1563 210.051C36.8935 210.77 37.8832 211.171 38.9128 211.168C39.9415 211.124 40.9121 210.679 41.6161 209.928C42.3201 209.176 42.7014 208.179 42.6781 207.15C42.6548 206.12 42.2288 205.141 41.4916 204.422C40.7544 203.703 39.7647 203.302 38.735 203.305Z" fill="white"/>
<path d="M47.1424 195.413C40.784 195.557 40.8978 205.132 47.2527 205.132C53.7587 205.127 53.6414 195.269 47.1424 195.413ZM47.3203 203.272C46.7343 203.267 46.1626 203.091 45.6757 202.765C45.1889 202.439 44.8081 201.977 44.5805 201.437C44.3529 200.897 44.2883 200.302 44.3947 199.726C44.5011 199.15 44.7739 198.617 45.1794 198.194C45.7217 197.625 46.4668 197.293 47.2509 197.268C48.0222 197.295 48.7534 197.618 49.293 198.17C49.8326 198.722 50.1392 199.46 50.1492 200.232C50.1601 201.004 49.8726 201.751 49.3466 202.316C48.8205 202.882 48.0966 203.222 47.3256 203.267L47.3203 203.272Z" fill="black"/>
<path d="M37.2257 201.974C43.6446 201.825 43.4365 192.122 36.9998 192.255C30.4867 192.408 30.9045 202.261 37.2257 201.974ZM34.1104 197.191C34.0961 196.398 34.3969 195.631 34.9467 195.059C35.4966 194.487 36.2509 194.156 37.0443 194.138C37.8368 194.121 38.6042 194.417 39.1794 194.962C39.7546 195.508 40.0909 196.258 40.115 197.051C40.1293 197.844 39.8286 198.611 39.2787 199.183C38.7289 199.755 37.9746 200.086 37.1812 200.104C36.3887 200.121 35.6213 199.825 35.0461 199.28C34.4709 198.734 34.1346 197.984 34.1104 197.191Z" fill="black"/>
<path d="M38.7127 202.377C32.3561 202.526 32.4663 212.097 38.823 212.097C45.3664 212.097 45.1174 202.22 38.7127 202.377ZM40.9976 209.311C40.4813 209.845 39.7856 210.169 39.0447 210.22C38.3038 210.271 37.5703 210.046 36.9855 209.588C36.4007 209.13 36.0061 208.472 35.8779 207.741C35.7497 207.009 35.8968 206.256 36.291 205.627C36.5564 205.211 36.9199 204.866 37.3496 204.624C37.7793 204.381 38.262 204.247 38.7554 204.235C39.349 204.221 39.9332 204.384 40.4343 204.702C40.9354 205.021 41.331 205.48 41.5709 206.023C41.8108 206.566 41.8844 207.168 41.7824 207.753C41.6804 208.338 41.4072 208.88 40.9976 209.309V209.311Z" fill="black"/>
<path d="M48.3805 189.724C48.0357 189.726 47.6992 189.829 47.413 190.021C47.1269 190.214 46.9038 190.486 46.7719 190.805C46.64 191.123 46.6051 191.474 46.6715 191.812C46.7379 192.15 46.9027 192.461 47.1453 192.706C47.3902 192.949 47.7014 193.114 48.0397 193.18C48.378 193.247 48.7283 193.212 49.0468 193.08C49.3653 192.948 49.6378 192.725 49.8301 192.439C50.0223 192.152 50.1258 191.816 50.1275 191.471C50.1278 191.242 50.0828 191.014 49.995 190.802C49.9073 190.59 49.7786 190.397 49.6164 190.235C49.4541 190.073 49.2614 189.944 49.0493 189.857C48.8373 189.769 48.61 189.724 48.3805 189.724Z" fill="black"/>
<path d="M51.3849 232.686C52.2082 233.12 57.8767 234.819 58.5844 234.204C61.7974 231.734 66.1182 230.577 63.5275 226.946C61.9183 224.693 60.7555 229.062 58.5489 226.032C57.2455 224.135 59.6993 222.536 58.2608 221.029C57.6118 220.348 55.6772 218.335 55.4834 218.507C55.2612 218.415 48.9934 231.667 51.3849 232.686ZM57.1673 233.015C55.4036 232.688 53.6708 232.212 51.9877 231.592C51.8099 231.414 52.0873 231.414 57.0979 229.389C57.9496 233.705 58.2893 233.248 57.1673 233.015ZM58.1559 232.977C57.6936 227.677 56.1164 229.494 63.0261 229.243C62.626 230.367 59.4326 232.063 58.1559 232.977ZM57.5513 221.622C58.0599 222.252 57.3735 222.723 57.0339 224.249C56.9121 225.133 57.1113 226.032 57.5954 226.782C58.0795 227.533 58.8165 228.085 59.6726 228.338C60.2345 228.472 60.6843 228.516 62.4286 227.547C62.6705 227.849 62.8643 228.187 63.003 228.548C63.1701 229.082 63.1932 228.936 61.9077 228.811C60.4642 228.586 59.0004 228.519 57.5425 228.612C55.7395 217.656 54.7011 218.097 57.5513 221.622ZM55.4407 219.268C55.6186 221.418 56.5165 226.413 56.9752 228.77C55.2523 229.46 53.5738 230.255 51.9468 231.149C52.0464 229.275 54.6459 223.397 55.4407 219.268Z" fill="black"/>
<path d="M64.2028 231.457C57.967 236.08 58.5982 235.614 58.3351 235.571C55.9713 235.378 53.6791 234.666 51.621 233.487C51.5363 233.437 51.4391 233.413 51.3408 233.416C51.2425 233.42 51.1472 233.451 51.0662 233.507C50.9862 233.564 50.9241 233.642 50.8873 233.734C50.8504 233.825 50.8403 233.924 50.8582 234.021C51.4965 237.243 59.9603 245.349 60.4101 244.778C61.4005 245.329 68.1679 228.518 64.2028 231.457ZM53.6818 236.567C52.4372 234.91 52.3963 235.717 55.9524 236.4C56.8308 236.664 57.7416 236.804 58.6587 236.818C58.9254 239.321 59.4073 241.796 60.0972 244.218C59.1832 243.052 56.4503 240.237 53.6818 236.567ZM64.0516 233.103C63.1273 236.892 61.8976 240.6 60.3745 244.19C60.2412 241.099 58.8543 236.8 59.0321 236.722C59.3361 236.576 64.441 232.805 64.0534 233.109L64.0516 233.103Z" fill="black"/>
<path d="M64.6486 186.425C62.4509 186.193 60.84 182.231 59.9118 180.627C59.6839 180.038 59.2768 179.535 58.748 179.189C58.2191 178.843 57.595 178.672 56.9637 178.7C53.324 178.285 48.8325 177.811 45.9876 175.236C41.5424 171.203 43.8663 164.463 49.0779 162.416C55.3528 159.95 62.4242 160.032 69.0565 159.663C74.6451 159.354 81.8712 159.912 83.6137 166.52C86.2684 176.58 71.5921 177.642 70.0202 178.844C68.0963 180.314 68.468 186.831 64.6486 186.425Z" fill="white"/>
<path d="M67.3196 183.022C69.2755 183.721 68.6354 184.027 69.6311 181.191C70.289 179.329 70.7104 179.422 71.7186 179.175C76.018 178.124 82.1257 176.481 84.1812 172.34C86.5069 167.649 84.359 159.777 74.4017 158.556C72.0457 158.266 56.4572 158.067 48.4576 161.353C40.6944 164.541 39.7752 175.43 49.6365 178.49C52.316 179.153 55.0401 179.621 57.7872 179.886C58.6532 180.129 58.8541 180.818 59.9796 182.839C63.3722 188.974 67.092 188.529 68.8238 183.55L67.3231 183.017C64.7093 190.058 61.3594 180.818 60.1414 179.105C58.2211 176.411 48.6443 178.43 45.5042 172.743C43.8452 169.74 45.0988 164.852 51.1425 162.987C56.1988 161.698 61.3939 161.032 66.6119 161.006C70.7211 160.814 76.8555 160.259 80.3138 163.223C82.8636 165.41 84.2381 170.469 80.4792 173.497C78.1121 175.172 75.4406 176.369 72.6147 177.02C68.9092 178.067 68.9358 177.649 67.3196 183.022Z" fill="black"/>
<path d="M55.2289 166.826C54.4223 166.826 53.6487 167.146 53.0783 167.716C52.5079 168.287 52.1875 169.06 52.1875 169.867C52.1875 170.674 52.5079 171.447 53.0783 172.018C53.6487 172.588 54.4223 172.908 55.2289 172.908C56.0223 172.888 56.7765 172.559 57.3311 171.991C57.8856 171.423 58.1967 170.662 58.1983 169.868C58.1986 169.073 57.8881 168.311 57.3332 167.742C56.7783 167.174 56.0231 166.845 55.2289 166.826Z" fill="black"/>
<path d="M64.2261 166.502C63.4197 166.502 62.6463 166.822 62.0761 167.393C61.5059 167.963 61.1855 168.736 61.1855 169.543C61.1855 170.349 61.5059 171.122 62.0761 171.693C62.6463 172.263 63.4197 172.583 64.2261 172.583C65.0325 172.583 65.8059 172.263 66.3761 171.693C66.9463 171.122 67.2666 170.349 67.2666 169.543C67.2666 168.736 66.9463 167.963 66.3761 167.393C65.8059 166.822 65.0325 166.502 64.2261 166.502Z" fill="black"/>
<path d="M73.0737 166.065C72.2673 166.065 71.494 166.385 70.9238 166.955C70.3535 167.526 70.0332 168.299 70.0332 169.105C70.0332 169.912 70.3535 170.685 70.9238 171.255C71.494 171.826 72.2673 172.146 73.0737 172.146C73.8801 172.146 74.6535 171.826 75.2237 171.255C75.7939 170.685 76.1143 169.912 76.1143 169.105C76.1143 168.299 75.7939 167.526 75.2237 166.955C74.6535 166.385 73.8801 166.065 73.0737 166.065Z" fill="black"/>
<path d="M256.82 87.1289C272.903 81.5741 291.544 91.3874 295.451 107.949C298.9 122.582 289.787 137.979 275.381 142.566C260.267 147.378 242.842 139.188 238.006 123.501C233.297 108.237 242.446 92.0969 256.82 87.1289Z" fill="white"/>
<path d="M266.494 145.228C261.045 145.355 255.661 144.015 250.907 141.348C246.153 138.682 242.203 134.786 239.471 130.069C236.739 125.353 235.324 119.988 235.376 114.537C235.428 109.087 236.944 103.75 239.766 99.0862C243.547 92.8395 249.451 88.1625 256.397 85.9106C273.308 80.0678 292.652 90.4554 296.709 107.657C297.661 112.171 297.598 116.84 296.524 121.326C295.451 125.813 293.394 130.005 290.502 133.599C287.611 137.194 283.958 140.102 279.806 142.113C275.654 144.124 271.107 145.188 266.494 145.228ZM257.248 88.3554C234.412 96.243 230.804 127.747 252.897 139.298C275.152 150.93 299.483 130.678 294.199 108.249C290.49 92.5535 272.716 83.0087 257.241 88.3554H257.248Z" fill="black"/>
<path d="M250.614 129.349C252.832 132.112 256.313 130.922 266.23 132.158C269.697 132.793 273.2 133.209 276.72 133.403C284.083 133.376 283.447 119.63 284.252 114.473C284.66 111.854 287.743 101.795 281.208 99.4411C280.274 99.1605 279.308 99.0027 278.333 98.9717C264.16 97.7733 252.094 92.3928 250.965 101.609C248.365 122.787 246.925 124.754 250.614 129.349Z" fill="#7E45C5"/>
<path d="M258.63 95.3079C257.58 95.1779 256.514 95.2564 255.494 95.539C254.475 95.8216 253.52 96.3026 252.687 96.9546C251.853 97.6065 251.156 98.4166 250.636 99.3383C250.116 100.26 249.783 101.275 249.656 102.326C245.672 134.853 242.421 130.763 275.03 134.767C277.15 135.022 279.284 134.427 280.966 133.112C282.648 131.796 283.74 129.868 284.004 127.749C287.979 95.219 291.237 99.2837 258.63 95.3079ZM275.823 128.293L259.231 126.266C257.682 126.074 256.273 125.276 255.311 124.046C254.35 122.817 253.915 121.256 254.101 119.707L256.128 103.117C256.281 101.895 256.812 100.751 257.647 99.8455C258.482 98.94 259.579 98.3183 260.785 98.0675C288.609 101.467 285.245 97.1784 281.845 124.997C281.309 126.104 280.441 127.017 279.361 127.606C278.281 128.196 277.044 128.434 275.823 128.286V128.293ZM275.33 132.308C253.068 129.597 252.601 130.08 250.702 127.651C248.803 125.222 249.341 125.324 252.124 102.626C252.279 101.353 252.869 100.171 253.794 99.2818C254.718 98.3923 255.922 97.8491 257.201 97.7438C253.881 100.349 254.382 102.177 252.266 119.481C252.022 121.521 252.596 123.574 253.862 125.191C255.129 126.809 256.984 127.858 259.023 128.11C276.271 130.221 277.963 131.163 281.31 128.556C280.895 129.773 280.074 130.809 278.985 131.491C277.896 132.173 276.605 132.459 275.33 132.301V132.308Z" fill="black"/>
<path d="M278.851 111.932C277.962 105.428 277.57 105.064 274.514 106.58C271.987 107.825 267.812 108.679 272.736 112.052C273.068 112.283 273.347 111.589 269.597 117.713C267.938 110.218 267.997 108.975 266.256 109.061C265.291 109.118 264.96 109.772 264.43 110.409C258.74 117.286 255.469 122.809 261.352 116.796C267.183 110.835 265.798 110.615 266.55 114.057C267.933 120.396 267.828 120.259 268.367 120.654C268.621 120.856 268.932 120.971 269.256 120.982C269.58 120.994 269.899 120.901 270.166 120.718C270.344 120.596 270.493 120.437 270.604 120.252L274.756 113.47C275.614 114.031 276.552 114.459 277.535 114.745C278.907 114.745 279.037 113.293 278.851 111.932ZM272.515 109.532C273.074 109.274 273.968 108.847 274.933 108.437C276.557 107.761 276.141 107.281 276.557 109.434C276.735 110.323 277.001 111.95 277.06 112.613C275.441 111.749 273.917 110.716 272.515 109.532Z" fill="black"/>
<path d="M260.081 79.2653C260.673 82.1992 258.48 86.5395 259.976 88.803C260.409 89.3381 261.007 89.7152 261.677 89.8759C262.346 90.0367 263.05 89.972 263.68 89.6921C264.925 89.1021 266.01 88.2208 266.843 87.1227C271.727 100.409 253.534 109.724 243.528 99.8379C238.781 95.149 239.741 81.1075 241.866 86.4364C242.302 87.6088 243.01 88.6605 243.933 89.5047C244.856 90.3488 245.967 90.961 247.174 91.2906C249.257 91.4328 250.803 88.8724 249.348 86.1483C247.981 83.5914 246.503 82.1334 250.605 80.0282C255.191 77.6757 255.491 77.706 255.426 76.1164C255.38 75.4203 255.473 74.722 255.701 74.0627C256.117 73.499 259.499 76.3973 260.081 79.2653Z" fill="#FDFE1F"/>
<path d="M267.807 87.4053C267.378 86.0184 266.884 85.3659 266.74 85.4263C266.562 85.4086 266.385 85.7926 266.075 86.4114C263.783 90.9029 259.318 90.012 260.597 85.7108C262.069 80.3606 262.94 76.591 256.642 73.5843C255.398 72.9744 255.042 73.1931 255.188 74.8467C255.51 78.5096 252.06 77.3485 248.876 79.6191C247.938 80.2105 247.217 81.0908 246.823 82.1274C246.429 83.164 246.382 84.3006 246.69 85.3659C247.277 87.0675 249.002 88.602 248.664 89.4555C248.486 90.357 246.993 90.9846 245.04 89.7933C241.884 87.8552 242.018 83.8012 241.649 83.778C241.248 83.4135 238.689 86.463 239.242 91.5732C239.595 95.0754 241.156 98.3458 243.655 100.824C246.155 103.302 249.439 104.834 252.944 105.158C255.211 105.368 257.495 105.025 259.6 104.158C261.705 103.29 263.568 101.925 265.03 100.179C266.491 98.4334 267.508 96.3592 267.991 94.1343C268.475 91.9094 268.412 89.6004 267.807 87.4053ZM240.979 91.3278C240.599 89.5383 240.62 87.6867 241.041 85.9064C241.047 87.6192 241.692 89.2682 242.849 90.5305C244.007 91.7928 245.594 92.5774 247.3 92.7307C247.922 92.7611 248.542 92.6311 249.099 92.3533C249.657 92.0756 250.133 91.6593 250.484 91.1444C250.834 90.6295 251.046 90.0332 251.1 89.4128C251.154 88.7923 251.047 88.1684 250.791 87.6009C249.951 85.6628 247.295 83.8207 250.257 81.4381C252.361 79.7329 257.937 79.2528 256.125 74.6173C255.883 74.0839 255.896 74.1568 256.064 74.3559C257.037 75.4584 257.43 75.7197 258.084 76.5341C261.653 80.926 256.93 84.459 258.04 88.5291C259.013 92.4658 265.568 92.7965 266.861 87.5903C268.298 105.675 244.208 108.262 240.979 91.3278Z" fill="black"/>
<path d="M29.677 74.9484C52.3245 67.1248 78.5744 80.9477 84.0723 104.269C88.9389 124.874 76.1047 146.552 55.8149 153.014C34.5418 159.788 9.99708 148.254 3.18344 126.165C-3.43639 104.667 9.44765 81.9416 29.677 74.9502V74.9484Z" fill="white"/>
<path d="M43.3057 156.271C25.0448 156.271 7.56613 144.891 1.91714 126.562C-4.75603 104.918 7.50389 81.1997 29.2482 73.689C29.5504 74.5603 30.0572 76.029 29.2482 73.689C35.0191 71.758 41.1304 71.0563 47.1889 71.6289C53.2474 72.2016 59.1189 74.0359 64.4259 77.014C103.563 98.5645 86.3835 156.269 43.3057 156.271ZM4.4687 125.775C11.0352 147.064 34.7602 158.314 55.4163 151.735C87.4522 141.537 95.3327 97.0851 63.1386 79.354C30.2101 61.2281 -5.76065 92.5954 4.4687 125.775Z" fill="black"/>
<path d="M62.2673 136.559C57.7469 139.253 52.8655 141.289 47.7705 142.605C24.1663 148.449 8.51915 101.252 23.4996 91.106C25.5159 89.7404 37.6496 84.0203 43.7822 84.7493C66.6983 87.4698 78.0976 127.359 62.2673 136.559Z" fill="#FDFE1F"/>
<path d="M37.9484 84.0745C34.4082 84.8853 24.0081 88.7669 21.5899 91.0819C14.7834 97.3622 15.7062 112.456 19.506 122.312C26.117 139.489 38.3538 145.381 44.9949 144.403C50.5444 143.713 63.2684 139.089 67.662 132.828C77.5607 116.555 60.8786 78.9945 37.9484 84.0745ZM33.793 87.7871C30.8393 90.5073 28.9883 94.2181 28.5921 98.2139C24.2162 100.17 25.2795 100.525 19.4633 101.297C20.9214 92.5364 24.5042 91.3113 33.793 87.7871ZM19.2126 103.257C25.0199 101.082 20.4111 102.231 28.3805 100.351C28.209 104.252 28.6189 108.157 29.5967 111.937C24.8954 113.809 26.6895 114.114 19.9363 114.949C19.0717 111.115 18.825 107.167 19.2055 103.255L19.2126 103.257ZM20.3631 116.702C29.0757 113.333 25.2813 115.26 30.1212 113.891C31.2833 117.935 32.9117 121.83 34.9736 125.497C27.4541 128.539 32.3065 127.07 25.2688 128.434C23.1161 124.759 21.4638 120.813 20.3559 116.701L20.3631 116.702ZM26.3001 130.091C34.0775 126.654 31.5793 128.53 36.0191 127.266C37.7618 130.177 39.9261 132.813 42.4416 135.09C37.182 138.249 38.2382 137.124 34.0579 138.482C30.9689 136.196 28.3372 133.35 26.3001 130.091ZM35.8716 139.624C36.8479 139.001 37.8724 138.458 38.9352 137.999C39.113 137.999 43.9957 136.519 44.1735 136.434C47.0918 138.394 50.5453 139.402 54.0596 139.32C44.289 143.233 40.6368 142.303 35.8627 139.624H35.8716ZM62.47 135.061C36.6521 153.452 14.7425 82.6734 43.4889 85.8472C67.3135 88.4788 75.4021 127.216 62.4611 135.061H62.47Z" fill="black"/>
<path d="M62.0713 106.613C59.9002 102.016 64.95 112.569 63.7071 122.39C62.5745 131.319 57.0411 134.659 52.795 133.57C44.2602 131.396 30.6222 108.844 35.9796 95.4944C38.869 88.0886 49.3153 86.1541 59.0041 101.362C60.5137 103.768 62.2046 107.184 61.0133 104.186C54.1446 86.9649 38.9241 84.3937 34.6745 94.9734C30.9778 103.896 34.9945 121.165 47.4429 132.207C59.1285 142.523 70.6079 124.669 62.0713 106.613Z" fill="black"/>
<path d="M47.6592 119.465C46.6789 120.454 45.6662 121.9 44.9656 121.012C44.5612 120.497 40.4675 103.131 40.4351 102.979C40.2417 102.039 40.7317 101.519 41.5812 101.81C45.5421 103.175 46.8834 103.361 47.3556 105.342C50.3972 118.117 50.6617 116.431 47.6592 119.465Z" fill="black"/>
<path d="M55.8095 111.189C52.0879 114.952 52.7282 114.9 50.8381 106.734C50.5897 105.661 51.1924 105.198 52.0174 105.487C59.3338 108.092 59.6159 107.336 55.8095 111.189Z" fill="black"/>
<path d="M11.8392 96.5242C17.9683 102.52 28.9889 103.395 38.9213 95.9001C43.9106 92.1341 44.4992 89.3211 44.6503 83.6313C44.789 78.4748 44.677 75.3098 40.1251 68.786C39.2023 72.4204 37.7087 76.2042 34.549 78.2454C32.7869 79.3834 31.2613 77.0203 30.7332 75.1782C29.1134 69.5239 33.2723 63.185 27.3673 59.323C27.1895 59.2056 23.2777 53.738 18.4768 55.4112C19.5058 56.4037 20.164 57.7185 20.3419 59.1371C20.5198 60.5556 20.2068 61.9922 19.4548 63.2081C18.5463 64.8251 17.3834 66.2852 16.0106 67.5324C14.0707 69.435 12.1379 69.5595 12.0135 71.574C11.7521 75.7917 21.4178 81.6025 18.4235 83.585C10.3847 88.9051 9.15964 82.6178 6.59386 81.2344C5.527 80.6601 5.65681 80.3685 4.98113 79.6715C4.07253 78.7308 3.98185 82.0914 5.27629 85.0377C6.76811 88.4517 8.38617 93.1476 11.8392 96.5242Z" fill="#FF8C49"/>
<path d="M45.5432 77.7651C44.3217 71.4422 39.7555 66.9543 39.3003 67.4041C38.7865 67.6051 39.7769 70.0019 37.6787 73.4727C36.7523 74.9948 34.5582 77.0289 33.2797 76.4955C31.4163 76.0652 31.7328 72.0787 31.9284 70.1602C32.2662 66.6591 32.5774 63.8373 30.7264 60.5443C29.6583 58.5435 28.046 56.8856 26.0758 55.762C24.1056 54.6385 21.8578 54.0951 19.592 54.1947C16.747 54.4916 17.7961 55.0571 18.8327 56.7605C19.5961 57.9704 19.9005 59.4139 19.6907 60.8291C19.481 62.2442 18.7709 63.5373 17.6894 64.4738C16.2207 65.8216 13.1091 66.2164 11.6439 69.0649C11.0915 70.0921 10.818 71.2462 10.8507 72.4121C10.8835 73.578 11.2214 74.715 11.8306 75.7096C13.1108 77.2761 14.64 78.6239 16.3559 79.6961C19.5831 82.445 17.0867 85.0126 13.2051 84.4382C7.49386 83.6541 4.91385 77.6584 4.30041 77.9162C3.62651 77.8629 1.08384 91.8813 14.64 99.8934C29.2488 108.382 49.4034 96.3639 45.5432 77.7651ZM41.3896 89.9076C34.0016 104.732 8.2122 102.877 4.87828 81.083C4.54578 78.6505 4.84628 82.2014 8.6265 85.0712C15.5913 90.2277 22.8174 85.1512 20.4295 80.0535C18.6514 76.0492 13.9732 75.786 13.8825 72.2636C13.8203 68.5919 17.1862 68.743 19.4675 66.3177C20.2517 65.6037 20.8669 64.7239 21.2682 63.7422C21.6696 62.7605 21.847 61.7017 21.7875 60.6429C21.7281 59.584 21.4333 58.5517 20.9246 57.6211C20.4159 56.6905 19.7062 55.885 18.847 55.2633C20.8275 55.5119 22.7165 56.2436 24.3477 57.3939C25.979 58.5443 27.3024 60.078 28.2015 61.86C30.6588 66.9276 26.8608 73.2487 30.0489 77.573C32.4173 80.8981 37.4493 79.392 39.6222 74.4667C41.3487 70.4802 39.6346 68.1545 40.8135 70.2242C42.507 73.2095 43.4448 76.5636 43.5452 79.9944C43.6457 83.4251 42.9056 86.8284 41.3896 89.9076Z" fill="black"/>
<path d="M241.011 245.532C262.439 238.13 287.277 251.206 292.48 273.27C297.078 292.765 284.935 313.277 265.742 319.392C245.613 325.804 222.389 314.888 215.945 293.992C209.672 273.651 221.861 252.146 241.011 245.532Z" fill="white"/>
<path d="M253.896 322.936C236.389 322.936 219.691 312.006 214.292 294.501C203.828 260.568 240.555 228.614 274.102 247.083C311.419 267.628 295.325 322.936 253.896 322.936ZM253.515 245.176C215.372 245.176 201.133 296.919 235.773 315.032C265.423 330.534 297.845 303.549 290.798 273.667C286.856 256.937 270.75 245.176 253.519 245.176H253.515Z" fill="black"/>
<path d="M228.533 299.308C228.631 300.591 229.048 301.83 229.747 302.911C230.446 303.991 231.404 304.88 232.534 305.496C233.553 305.897 234.625 306.145 235.717 306.232C264.723 310.003 272.255 312.74 273.695 304.289C274.584 299.107 280.037 268.115 277.457 263.599C274.639 258.672 259.175 259.034 249.808 256.823C247.169 256.198 243.905 256.751 241.182 256.526C239.974 256.405 238.754 256.528 237.594 256.886C236.433 257.244 235.356 257.83 234.426 258.609C232.418 260.332 233.044 261.81 231.949 268.377C231.282 272.335 228.145 296.284 228.533 299.308Z" fill="#7E45C5"/>
<path d="M280.553 267.685C280.69 266.572 280.607 265.443 280.307 264.362C280.007 263.281 279.496 262.27 278.805 261.387C277.408 259.603 275.36 258.447 273.112 258.172C239.122 254.024 238.222 253.016 234.454 255.967C230.72 258.887 231.638 258.41 226.769 298.218C226.632 299.332 226.716 300.462 227.016 301.543C227.316 302.624 227.827 303.635 228.519 304.518C229.21 305.401 230.069 306.14 231.045 306.691C232.022 307.242 233.097 307.596 234.211 307.731C269.461 312.041 266.858 311.75 267.612 311.75C269.696 311.746 271.707 310.981 273.267 309.599C274.828 308.217 275.829 306.313 276.085 304.244L280.553 267.685ZM239.991 262.728C240.121 261.648 240.567 260.63 241.274 259.804C241.981 258.977 242.917 258.379 243.963 258.083C274.454 261.817 274.292 261.22 276.086 263.512C277.88 265.804 277.395 265.1 273.168 299.671C272.63 300.616 271.823 301.38 270.851 301.867C269.878 302.353 268.784 302.542 267.704 302.408C238.492 298.834 239.307 299.486 237.424 297.073C235.496 294.614 235.982 295.555 239.991 262.728ZM266.988 308.265L234.627 304.31C233.962 304.231 233.319 304.021 232.736 303.692C232.152 303.363 231.639 302.923 231.227 302.395C230.812 301.869 230.507 301.266 230.327 300.621C230.148 299.975 230.098 299.301 230.181 298.636C234.982 259.392 234.271 260.482 236.567 258.683C237.485 257.962 238.623 257.581 239.79 257.603C238.472 258.888 237.633 260.587 237.415 262.415C233.457 294.82 232.614 295.149 235.375 298.668C238.137 302.187 238.825 301.49 267.381 304.973C269.221 305.205 271.084 304.792 272.655 303.805C272.576 304.471 272.367 305.114 272.04 305.698C271.712 306.283 271.272 306.796 270.745 307.21C269.682 308.046 268.33 308.425 266.988 308.265Z" fill="black"/>
<path d="M246.885 276.564C246.173 271.023 249.139 271.964 246.86 267.095C246.385 266.08 248.86 265.447 249.954 265.214C252.621 271.373 255.211 270.458 256.248 274.401C256.824 276.724 257.98 278.863 259.608 280.617C261.236 282.37 263.283 283.682 265.556 284.428C267.347 285.027 270.114 284.606 270.643 286.384C272.041 291.085 263.947 294.933 255.626 289.81C253.289 288.376 251.295 286.446 249.785 284.157C248.275 281.868 247.285 279.276 246.885 276.564Z" fill="#FDFE1F"/>
<path d="M241.463 284.102C243.967 281.76 245.172 280.448 246.749 279.92C248.36 279.386 251.095 279.81 253.488 277.075C255.882 274.34 255.074 272.153 261.616 267.941C262.832 267.158 262.411 267.169 262.861 267.791C266.625 273.017 266.118 272.635 267.357 274.193C268.515 275.649 268.935 275.732 269.031 276.148C269.239 277.048 265.33 279.857 264.763 280.215C262.251 281.794 262.507 281.815 261.95 283.949C260.578 289.191 255.905 288.248 252.313 290.448C245.944 294.36 248.2 297.007 244.345 291.072C240.339 284.888 239.237 286.186 241.463 284.102Z" fill="white"/>
<path d="M271.735 287.541C271.694 281.721 265.867 286.422 260.081 279.756C256.159 275.228 258.303 273.467 254.1 269.81C248.931 265.461 252.651 263.009 247.727 265.078C245.336 266.102 245.965 266.94 246.628 268.357C246.925 268.888 247.081 269.486 247.081 270.094C247.081 270.702 246.925 271.301 246.628 271.831C244.905 277.566 248.156 286.78 256.379 291.213C264.882 295.683 271.854 291.522 271.735 287.541ZM247.612 266.867C248.188 266.508 248.837 266.28 249.512 266.202C250.288 268.012 250.065 266.542 248.026 267.886C247.868 267.555 247.729 267.215 247.612 266.867ZM247.928 272.24C248.455 271.221 248.615 270.051 248.382 268.928C249.109 268.769 249.783 268.423 250.338 267.925C252.79 272.37 253.929 270.092 255.626 275.423C256.356 277.905 257.731 280.148 259.61 281.926C261.489 283.704 263.805 284.953 266.323 285.546C270.222 286.202 267.923 285.388 267.333 287.477C267.226 287.955 267.246 288.452 267.391 288.92C267.536 289.388 267.8 289.81 268.158 290.144C259.12 295.784 244.553 282.333 247.928 272.24ZM268.702 289.756C268.376 288.144 268.209 287.365 269.667 286.378C269.923 286.966 269.966 287.624 269.79 288.24C269.614 288.857 269.229 289.392 268.702 289.756Z" fill="black"/>
<path d="M264.721 287.795C263.434 287.581 262.179 287.203 260.987 286.672C261.938 285.555 262.605 284.224 262.93 282.794C263.206 281.874 263.384 281.928 269.929 276.766C268.942 275.425 263.988 268.613 262.77 267.442C262.474 267.155 262.527 266.796 257.55 270.605C254.636 272.833 255.706 272.251 254.746 274.506C254.188 275.811 253.279 276.935 252.12 277.754C250.592 274.909 250.391 273.174 250.061 273.206C249.659 273.24 249.748 275.779 251.069 278.391C249.944 278.891 248.74 279.188 247.513 279.269C246.311 279.499 246.049 279.867 239.467 285.315C248.796 297.984 248.7 297.04 240.962 285.521C246.865 280.864 246.928 280.635 247.772 280.486C249.203 280.392 250.599 280.005 251.874 279.349C253.647 278.369 255.022 276.801 255.761 274.915C256.65 272.603 255.676 273.391 258.091 271.302C263.62 266.752 262.31 267.406 262.536 267.443C262.714 267.47 261.421 266.151 268.418 276.544C263 280.633 262.148 281.104 261.769 282.392C261.508 283.621 260.96 284.77 260.17 285.747C259.379 286.724 258.37 287.501 257.223 288.014C256.146 288.391 255.033 288.654 253.901 288.8C252.095 289.419 240.302 299.746 251.801 291.319C252.491 290.665 253.297 290.146 254.179 289.789C256.315 289.703 258.369 288.944 260.046 287.619C263.395 289.195 266.759 288.619 266.741 288.283C266.723 288.096 265.935 288.01 264.721 287.795Z" fill="black"/>
<path d="M220.631 248.324C220.417 252.963 220.737 254.688 223.766 258.149C228.65 263.74 233.95 264.951 238.671 263.802C248.479 261.414 250.289 249.09 248.038 244.942C247.437 243.838 247.229 246.67 244.909 248.151C242.526 249.672 239.806 248.468 239.872 245.052C239.902 243.505 241.845 237.342 236.219 233.8C235.686 233.464 234.235 232.794 233.869 233.062C233.406 233.4 234.203 235.018 234.096 235.845C233.963 236.887 233.093 237.468 229.628 240.678C224.436 245.488 231.378 248.614 230.601 250.991C230.184 252.26 227.3 253.261 224.688 251.492C222.288 249.864 221.596 247.417 221.23 247.356C220.802 247.282 220.645 248.046 220.631 248.324Z" fill="#FDFE1F"/>
<path d="M250.108 250.841C250.014 246.131 247.66 242.575 247.222 242.867C246.773 242.9 246.173 248.587 242.422 247.587C238.252 246.579 245.708 236.483 236.06 233.132C231.502 231.531 233.99 233.733 233.697 235.656C233.313 238.324 226.415 238.603 226.243 244.122C226.097 247.474 229.826 249.021 229.58 250.319C229.548 251.761 226.575 252.527 224.018 250.1C221.853 248.012 221.778 245.797 221.39 245.845C220.295 245.164 217.105 255.125 225.658 262.107C235.315 270.235 250.462 263.16 250.108 250.841ZM222.103 253.645C221.385 251.896 221.064 250.009 221.163 248.121C221.487 249.862 222.449 251.419 223.861 252.488C225.273 253.557 227.033 254.061 228.796 253.901C229.435 253.817 230.042 253.571 230.558 253.185C231.074 252.799 231.482 252.286 231.743 251.697C232.004 251.108 232.109 250.462 232.048 249.82C231.987 249.179 231.763 248.563 231.396 248.034C230.188 246.225 227.139 244.833 229.708 241.86C231.531 239.739 237.116 238.217 234.417 233.834C234.061 233.322 234.111 233.421 234.306 233.58C235.514 234.534 235.907 234.686 236.766 235.42C241.211 239.229 237.061 243.695 238.944 247.634C240.674 251.481 247.397 250.552 247.743 245.043C252.589 263.309 228.469 270.139 222.103 253.645Z" fill="black"/>
<path d="M183.928 197.05C184.975 198.327 186.906 198.215 188.535 198.494C191.708 199.309 194.469 201.267 196.285 203.994C200.973 210.067 203.514 217.523 203.512 225.194C222.025 218.926 219.93 219.104 232.418 220.555C240.585 224.182 247.947 229.401 254.073 235.907C254.935 229.989 257.84 224.558 262.284 220.556C266.728 216.553 272.432 214.231 278.408 213.992C279.644 213.944 280.882 214.013 282.103 214.198C283.808 214.76 285.828 214.981 284.914 213.375C280.754 206.065 277.887 194.044 280.425 187.899C280.506 187.705 284.361 179.346 284.477 176.113C283.984 176.06 275.643 174.917 274.553 174.465C271.99 173.036 269.628 171.272 267.53 169.22C261.529 162.923 262.35 154.796 261.232 153.494C260.521 152.675 259.39 154.351 254.922 156.03C245.956 159.398 234.621 156.481 229.411 151.842C227.927 150.521 226.789 148.642 222.85 144.497C221.844 143.43 221.147 143.619 220.574 144.977C215.483 157.024 203.457 161.003 191.646 159.664C190.599 163.853 196.479 166.581 192.699 182.488C192.098 186.409 190.297 190.048 187.543 192.904C186.17 194.264 185.672 195.503 184.342 196.36C184.229 196.441 184.134 196.543 184.063 196.662C183.991 196.781 183.945 196.913 183.928 197.05Z" fill="#FDFE1F"/>
<path d="M284.041 209.081C282.113 204.685 281.088 199.946 281.027 195.146C280.966 190.347 281.87 185.583 283.686 181.14C286.959 173.352 288.072 175.818 280.546 174.652C276.349 173.996 272.459 172.054 269.413 169.093C261.449 161.54 263.142 152.89 261.785 152.724C261.316 151.808 254.413 155.67 248.531 156.165C242.935 156.41 237.405 154.87 232.742 151.766C228.357 148.853 222.379 142.623 221.643 143.345C219.66 142.385 215.007 158.48 196.847 158.931C190.123 159.109 190.462 157.886 191.597 165.624C193.033 175.628 192.395 184.132 186.481 192.379C181.737 199.068 181.419 196.52 188.156 199.717C203.151 206.83 201.611 225.695 203.499 225.69C204.235 226.986 227.719 213.38 248.791 231.981C258.558 240.933 252.702 239.824 258.327 229.18C261.563 223.051 271.627 216.444 279.825 215.551C287.724 214.692 287.373 217.427 284.041 209.081ZM254.05 235.149C252.797 232.706 251.153 230.484 249.184 228.57C237.178 215.738 213 216.319 203.951 225.002C205.13 221.065 204.385 212.422 200.501 206.106C199.27 203.942 197.617 202.047 195.642 200.532C193.668 199.015 191.41 197.908 189.002 197.276C183.391 195.843 183.942 198.49 188.449 194.058C194.811 187.907 198.012 176.81 194.113 165.041C191.694 157.76 190.171 160.418 196.673 161.517C201.428 162.32 206.315 161.468 210.517 159.102C216.741 155.546 221.328 148.112 221.769 144.124C224.117 148.107 227.17 151.629 230.78 154.518C240.475 161.821 253.069 161.259 261.131 153.7C257.102 165.521 271.239 180.549 284.022 176.671C274.658 185.59 275.603 204.724 284.425 213.834C272.361 209.358 253.174 221.627 254.05 235.149Z" fill="black"/>
<path d="M243.991 174.525C244.256 171.897 237.933 169.93 236.574 175.613C232.84 191.226 232.623 192.816 231.309 195.074C229.976 197.368 227.687 195.942 230.451 185.928C231.539 181.679 232.224 177.337 232.495 172.96C232.332 172.197 231.919 171.51 231.321 171.008C230.723 170.505 229.975 170.217 229.195 170.188C228.416 170.157 227.648 170.386 227.013 170.84C226.378 171.295 225.913 171.947 225.691 172.695C224.942 178.014 223.813 183.272 222.312 188.429C221.507 188.252 221.267 187.171 219.711 183.559C219.56 183.315 219.479 183.034 219.479 182.747C219.479 182.46 219.56 182.178 219.711 181.934C220.506 180.273 222.15 178.037 221.894 176.134C221.232 173.032 219.661 170.197 217.382 167.99C213.114 164.528 209.09 167.028 205.666 166.228C204.832 166.033 204.325 167.107 204.158 167.946C203.321 172.183 200.086 192.98 201.039 195.716C201.912 198.236 207.175 198.968 209.818 199.397C211.246 199.819 212.773 199.777 214.175 199.275C215.578 198.773 216.785 197.838 217.622 196.605C219.933 193.737 220.57 190.547 221.859 190.684C220.123 204.884 233.712 207.27 238.626 194.923C240.818 188.236 242.61 181.425 243.991 174.525ZM212.504 192.128C210.532 193.49 207.963 193.518 208.377 190.679C208.69 189.196 208.888 187.69 208.968 186.175C208.95 184.745 216.925 189.078 212.504 192.126V192.128ZM214.138 178.344C212.916 178.958 211.512 179.108 210.188 178.767C210.143 178.766 210.099 178.755 210.059 178.735C210 178.704 209.952 178.654 209.925 178.593C209.897 178.532 209.891 178.463 209.907 178.397C210.316 176.406 210.529 172.308 210.929 172.242C213.735 171.774 217.54 175.883 214.138 178.344Z" fill="white"/>
<path d="M258.268 190.374C260.452 188.646 265.18 183.848 265.363 181.59C265.377 181.06 265.286 180.532 265.095 180.037C264.903 179.542 264.616 179.09 264.248 178.707C263.88 178.324 263.44 178.018 262.954 177.807C262.467 177.595 261.943 177.483 261.412 177.476C259.828 177.563 254.694 182.748 253.606 183.877C251.985 185.545 252.865 179.675 252.043 177.341C251.841 176.687 251.47 176.098 250.969 175.633C250.467 175.167 249.853 174.841 249.186 174.688C241.985 173.87 246.684 191.364 246.327 193.148C245.804 195.781 241.302 201.268 240.271 204.108C238.701 208.418 242.648 210.653 245.134 209.229C246.86 208.238 247.399 206.066 248.297 204.291C249.314 202.282 250.934 200.628 251.953 198.621C254.131 194.318 252.474 194.97 258.268 190.374Z" fill="white"/>
<path d="M268.861 182.505C266.974 183.917 259.57 199.198 258.514 202.208C257.885 204.013 260.89 207.898 263.756 205.574C266.423 203.409 273.749 186.332 273.818 186.063C274.04 185.416 274.047 184.714 273.838 184.062C273.629 183.41 273.216 182.843 272.659 182.445C272.103 182.046 271.434 181.837 270.75 181.848C270.066 181.859 269.404 182.089 268.861 182.505Z" fill="white"/>
<path d="M260.49 209.966C258.486 207.004 254.458 207.592 253.708 209.381C253.242 210.289 253.113 211.332 253.345 212.326C253.576 213.319 254.152 214.199 254.97 214.808C258.162 216.861 262.385 212.763 260.49 209.966Z" fill="white"/>
<path d="M206.853 200.261C198.106 198.005 198.958 198.762 201.403 182.214C201.986 178.257 203.41 170.747 204.004 167.21C204.322 165.322 205.613 165.284 208.862 165.382C210.755 165.29 212.638 165.705 214.317 166.584C214.205 166.972 212.137 165.885 206.069 166.894C205.436 166.999 205.677 165.521 203.593 182.498C203.572 182.676 201.79 195.556 202.349 196.109C205.303 197.508 208.507 198.299 211.773 198.435C215.862 198.234 218.789 194.637 219.596 190.836C220.005 189.443 220.062 187.97 219.762 186.55C219.46 185.131 218.81 183.809 217.872 182.703C218.584 181.916 219.191 181.04 219.68 180.098C220.537 178.231 220.799 176.145 220.431 174.124C220.063 172.102 219.083 170.243 217.623 168.798C215.887 167.198 214.637 167.038 214.74 166.711C216.021 166.773 217.247 167.244 218.238 168.057C220.383 169.788 221.795 172.265 222.193 174.993C222.59 177.72 221.943 180.497 220.38 182.768C221.203 184.008 221.757 185.407 222.008 186.873C222.258 188.34 222.198 189.843 221.833 191.285C220.88 196.28 217.059 200.635 211.906 200.887C210.2 200.938 208.495 200.727 206.853 200.261Z" fill="black"/>
<path d="M208.645 192.25C208.63 192.342 208.593 192.379 208.68 192.397C209.399 192.451 210.12 192.463 210.841 192.438C213.294 192.26 213.413 189.975 213.814 190.025C214.279 189.965 214.169 193.338 211.054 193.909C210.257 194.031 209.452 194.094 208.646 194.097C206.221 194.165 206.868 191.786 207.156 189.118C207.251 187.931 207.437 186.752 207.718 185.593C208.38 183.349 212.002 185.237 213.077 186.405C213.57 186.837 213.909 187.418 214.043 188.059C214.177 188.701 214.098 189.368 213.819 189.961C213.426 190.007 213.604 187.689 210.878 186.656C210.638 186.565 209.278 186.158 209.342 186.37C209.399 186.169 208.721 191.764 208.645 192.25Z" fill="black"/>
<path d="M210.285 178.501C210.27 178.592 210.233 178.629 210.32 178.647C211.038 178.7 211.759 178.714 212.479 178.69C214.932 178.512 215.052 176.225 215.453 176.275C215.919 176.214 215.809 179.589 212.694 180.158C211.897 180.283 211.092 180.347 210.285 180.347C207.861 180.414 208.506 178.035 208.794 175.368C208.883 174.132 209.086 172.907 209.399 171.709C210.016 169.858 213.418 171.238 214.716 172.653C215.209 173.084 215.549 173.665 215.683 174.307C215.817 174.948 215.738 175.616 215.459 176.209C215.064 176.255 215.244 173.933 212.516 172.904C212.283 172.815 210.916 172.406 210.982 172.616C211.042 172.422 210.311 178.321 210.285 178.501Z" fill="black"/>
<path d="M221.365 198.729C220.616 196.152 220.58 193.421 221.26 190.825C222.291 184.423 223.68 178.085 225.421 171.839C226.547 169.314 230.007 169.646 229.936 170.061C229.953 170.277 228.68 170.039 227.286 171.167C226.397 171.878 226.513 172.489 226.246 174.124C224.217 186.531 222.404 194.634 223.655 197.834C224.066 198.884 224.735 199.813 225.599 200.537C226.463 201.26 227.495 201.755 228.6 201.976C229.705 202.198 230.848 202.14 231.924 201.806C233 201.472 233.975 200.873 234.76 200.064C237.605 197.406 240.691 186.063 241.694 182.319C243.403 175.88 244.402 174.372 242.446 172.717C242.069 172.401 241.822 172.257 241.852 172.166C241.979 171.785 245.115 172.877 244.623 176.019C243.661 182.144 240.926 197.562 236.456 201.844C235.389 202.953 234.059 203.773 232.589 204.229C231.119 204.685 229.558 204.762 228.051 204.452C226.544 204.141 225.14 203.453 223.971 202.452C222.801 201.451 221.905 200.17 221.365 198.729Z" fill="black"/>
<path d="M230.159 195.13C230.081 195.308 231.217 193.828 233.237 186.09C236.51 173.549 236.406 172.29 239.322 171.702C240.982 171.366 241.811 172.023 241.742 172.144C241.695 172.333 240.853 172.119 239.608 172.637C237.423 173.547 238.465 173.297 235.492 186.634C234.868 189.435 233.105 197.628 230.289 198.144C228.993 198.382 227.392 197.027 227.668 194.632C227.906 190.107 231.144 177.74 232.095 173.576C232.666 171.086 229.924 170.343 230.015 170.075C229.923 169.584 233.73 170.252 233.489 173.748C233.011 177.441 229.784 195.505 230.159 195.13Z" fill="black"/>
<path d="M243.138 210.706C242.455 210.655 241.793 210.441 241.209 210.082C240.625 209.723 240.135 209.23 239.78 208.643C239.424 208.056 239.215 207.393 239.169 206.708C239.124 206.023 239.245 205.337 239.52 204.708C246.691 186.86 245.26 200.057 244.805 184.211C244.693 181.849 244.752 179.482 244.982 177.129C245.781 174.207 249.193 174.298 249.161 174.682C249.143 174.906 246.456 174.936 246.023 177.374C245.905 178.034 246.336 183.457 246.391 184.131C247.349 195.445 248.082 192.132 245.679 197.041C242.335 203.839 241.7 205.256 241.606 205.502C241.457 205.812 241.388 206.155 241.405 206.5C241.422 206.844 241.524 207.178 241.702 207.473C241.879 207.768 242.127 208.015 242.422 208.192C242.718 208.369 243.052 208.47 243.396 208.487C245.624 208.711 245.738 207.475 247.543 203.891C249.456 199.392 252.011 195.194 255.128 191.428C258.467 187.799 264.76 183.462 265.025 181.321C265.228 179.696 264.042 178.75 264.156 178.592C264.298 178.393 265.829 179.428 265.898 181.36C265.994 184.092 259.632 189.006 256.524 192.657C248.94 201.535 249.529 211.266 243.138 210.706Z" fill="black"/>
<path d="M253.657 183.058C255.582 181.026 257.683 179.169 259.935 177.508C262.33 176.491 264.38 178.191 264.11 178.554C263.904 178.826 262.209 177.892 260.653 178.922C260.12 179.269 258.116 181.847 251.654 188.216C251.326 188.596 251.526 177.562 251.464 177.258C251.093 175.412 249.186 175.033 249.213 174.683C249.251 174.174 251.978 174.336 252.972 176.767C253.319 178.849 253.546 180.949 253.657 183.058Z" fill="black"/>
<path d="M257.71 201.512C258.283 199.839 264.888 187.381 267.347 183.144C269.033 180.239 272.989 181.917 272.458 182.294C272.379 182.472 269.444 181.574 268.491 183.742C260.864 201.098 259.616 201.683 259.766 203.258C259.799 203.598 259.913 203.924 260.098 204.211C260.283 204.498 260.533 204.736 260.829 204.907C261.124 205.078 261.456 205.176 261.797 205.193C262.137 205.21 262.477 205.146 262.788 205.006C264.202 204.44 263.473 203.615 273.082 186.556C273.434 185.868 273.563 185.088 273.451 184.323C273.339 183.558 272.992 182.847 272.458 182.289C272.554 182.111 273.772 182.591 274.335 183.982C275.127 185.938 274.072 187.538 272.735 190.52C272.253 191.599 266.064 205.022 265.308 205.932C264.798 206.519 264.143 206.962 263.41 207.219C262.676 207.476 261.888 207.538 261.123 207.398C260.358 207.257 259.643 206.921 259.048 206.42C258.453 205.92 257.999 205.273 257.73 204.544C257.37 203.566 257.363 202.494 257.71 201.512Z" fill="black"/>
<path d="M251.762 211.385C251.78 210.319 252.139 209.287 252.785 208.439C253.431 207.592 254.331 206.973 255.354 206.673C256.009 206.483 256.697 206.435 257.372 206.533C258.047 206.631 258.693 206.873 259.267 207.242C259.84 207.612 260.327 208.101 260.694 208.676C261.062 209.25 261.302 209.897 261.399 210.572C261.444 211.31 261.248 211.687 261.113 211.68C260.784 211.717 260.706 210.113 259.024 208.993C258.485 208.598 257.836 208.383 257.168 208.377C256.5 208.372 255.847 208.577 255.302 208.963C254.758 209.35 254.348 209.897 254.131 210.528C253.913 211.159 253.898 211.842 254.088 212.482C254.216 212.906 254.43 213.299 254.718 213.636C255.006 213.973 255.36 214.247 255.759 214.439C258.896 215.903 260.933 211.682 261.113 211.68C261.388 211.68 261.634 212.925 260.812 214.1C257.4 219.011 251.725 216.04 251.762 211.385Z" fill="black"/>
<path d="M14.6433 246.939C14.6433 246.939 7.46869 240.663 11.3236 233.04C15.1785 225.417 23.7898 222.279 27.3762 217.347C30.9626 212.414 40.47 214.834 41.3662 219.409C42.2624 223.984 38.676 233.22 38.676 233.22C38.676 233.22 46.7467 235.73 47.8242 240.842C48.9017 245.954 43.0696 258.867 31.5014 260.841C19.9331 262.814 17.0633 261.018 17.0633 261.018C17.0633 261.018 9.71086 255.101 14.6433 246.939Z" fill="white"/>
<path d="M43.5473 232.671C39.2675 230.5 40.8624 234.449 42.8485 227.013C46.0011 214.668 33.7198 208.023 26.8617 214.302C23.9919 216.853 22.8984 220.025 16.3319 225.098C13.8905 226.988 10.7842 229.085 9.33864 232.529C8.36279 234.898 8.12125 237.506 8.64532 240.015C9.16939 242.523 10.4349 244.816 12.2778 246.597C10.1334 250.011 10.3041 255.692 14.3511 260.688C15.562 262.074 16.6982 263.523 17.749 265.032L21.4297 262.742C19.2462 259.238 16.4332 257.431 15.5264 253.752C14.7298 250.644 15.578 247.968 18.5491 246.86C20.4944 246.327 22.3756 245.585 24.1626 244.65C32.0395 240.26 39.4079 231.848 44.0967 238.884C47.0057 243.142 46.2962 247.81 43.2255 251.764C37.58 258.917 26.6786 260.905 26.7799 261.713C26.8599 262.438 33.5367 262.273 40.2027 258.557C53.4442 251.514 51.8208 236.873 43.5473 232.671ZM19.8329 241.894C17.8439 242.328 15.9637 243.162 14.3066 244.344C13.1486 242.941 12.4049 241.243 12.1589 239.441C11.913 237.639 12.1746 235.803 12.9144 234.142C14.6925 230.214 19.9947 229.126 26.6057 221.195C28.6629 218.729 29.9325 216.37 32.9001 216.115C37.6761 215.774 42.7223 221.627 37.436 232.093C30.9993 233.581 24.4151 240.422 19.8329 241.894Z" fill="black"/>
<path d="M178.491 268.315C170.536 271.391 159.25 270.627 154.874 269.505C152.693 268.731 150.423 268.234 148.118 268.025C144.52 266.928 147.611 276.297 142.044 288.443C140.562 291.674 140.562 293.262 143.836 294.583C178.722 308.68 212.148 278.225 208.496 257.931C206.947 249.32 202.836 240.021 199.202 247.32C194.719 256.333 187.874 264.692 178.491 268.315Z" fill="#36A35C"/>
<path d="M97.7781 213.041C100.586 217.131 99.6913 224.476 108.464 230.822C115.801 236.13 112.074 233.557 115.577 237.269C119.606 241.537 127.134 242.28 129.375 247.707C129.688 248.909 130.182 250.054 130.84 251.106C131.729 252.173 133.813 252.232 135.145 252.628C143.761 255.196 146.729 264.094 146.235 272.495C146.057 275.447 146.46 278.484 145.523 281.288C144.181 285.792 142.118 290.049 139.414 293.893C131.845 303.909 120.33 303.864 115.433 297.161C114.318 295.637 114.01 294.885 111.894 294.415C109.119 293.804 106.103 294.302 103.491 293.171C100.2 291.748 98.42 288.153 95.4897 286.089C90.0967 282.292 82.0704 284.387 73.0857 274.225C67.5737 267.982 68.7774 262.406 71.9869 260.208C72.8634 259.773 73.6648 259.2 74.3606 258.512C75.6213 256.843 74.4318 254.511 74.2397 252.428C74.2262 250.829 74.6713 249.261 75.5222 247.908C76.3731 246.555 77.5942 245.474 79.0406 244.794C84.3748 241.937 90.4452 243.461 89.0672 241.519C74.2611 220.706 91.3307 203.644 97.7781 213.041Z" fill="white"/>
<path d="M209.203 263.197C208.149 262.824 204.077 278.786 187.51 289.065C174.897 296.888 155.715 299.068 142.347 292.059C146.453 285.497 148.502 277.857 148.229 270.121C156.228 273.523 165.132 274.164 173.536 271.942C181.94 269.721 189.364 264.763 194.637 257.852C198.424 252.811 200.764 246.078 199.916 245.75C198.849 245.336 194.977 256.862 181.822 264.191C176.624 267 170.854 268.591 164.951 268.844C159.047 269.097 153.163 268.004 147.743 265.649C146.266 257.575 141.554 251.309 133.163 251.001C132.255 248.415 130.818 246.046 128.942 244.047C126.733 242.312 124.307 240.874 121.725 239.769C116.413 235.88 111.514 231.457 107.105 226.568C100.315 219.068 103.503 213.798 98.4761 209.739C89.9413 202.838 75.8481 214.184 82.4893 232.089C83.6607 235.134 85.1231 238.059 86.8563 240.823C77.5391 239.563 70.569 244.842 73.373 256.17C66.8688 257.852 65.2329 266.847 69.0327 272.907C73.4015 279.874 82.2297 283.576 90.5316 285.4C94.727 290.055 99.9611 293.656 105.809 295.909C108.487 296.901 111.348 297.306 114.196 297.095C116.13 299.445 118.734 301.151 121.661 301.984C124.588 302.818 127.7 302.74 130.581 301.76C134.275 300.449 137.545 298.164 140.046 295.146C162.272 308.512 200.009 296.883 208.526 267.785C209.361 264.925 209.459 263.266 209.203 263.197ZM97.4395 286.527C104.255 287.28 109.493 286.819 109.53 286.129C109.616 284.819 95.953 284.607 84.7866 279.65C66.9719 271.743 70.1671 261.049 74.7973 259.988C77.6956 259.324 80.7894 260.95 86.5327 263.286C93.645 266.179 97.9729 268.145 98.2894 267.625C98.9615 266.52 83.5615 257.529 78.5331 256.275C78.1296 256.178 77.7228 256.095 77.3133 256.028C76.8746 254.407 76.7029 252.725 76.8047 251.049C77.4413 244.371 84.3598 244.051 90.512 245.82C98.6912 248.17 106.87 255.228 107.639 254.289C108.188 253.615 101.069 245.493 92.1817 242.18C87.788 234.596 82.4022 225.262 86.5416 216.654C88.245 213.098 91.2819 211.616 94.0469 212.198C99.879 213.423 95.8125 220.324 104.488 229.036C106.691 231.253 109.023 233.338 111.47 235.281C106.92 233.432 103.291 232.116 103.245 232.189C102.534 233.348 119.189 241.638 122.557 243.526C124.112 244.222 125.508 245.23 126.656 246.49C127.804 247.749 128.679 249.232 129.228 250.845C140.115 278.451 121.022 305.021 97.4395 286.527ZM137.363 292.722C131.184 300.19 122.367 300.608 117.448 296.568C125.748 294.5 132.631 287.119 135.08 277.521C136.672 269.694 136.352 261.598 134.146 253.921C148.988 257.114 145.341 283.09 137.363 292.722Z" fill="black"/>
</svg>
