<svg width="430" height="361" viewBox="0 0 430 361" fill="none" xmlns="http://www.w3.org/2000/svg">
<g filter="url(#filter0_d_7047_205366)">
<g clip-path="url(#clip0_7047_205366)" filter="url(#filter1_dd_7047_205366)">
<path d="M384.895 24.8662L359.408 2.48779V30.4608L384.895 31.0824V24.8662Z" fill="#FA5C00"/>
<path d="M407.273 104.434L384.895 83.2986V31.0824L407.273 50.3527V104.434Z" fill="#FA5C00"/>
<path d="M384.895 83.2986H332.057L358.165 104.434H407.273L384.895 83.2986Z" fill="#FA5C00"/>
<path d="M404.165 148.569L380.543 124.947V233.731L404.165 254.866V148.569Z" fill="#FA5C00"/>
<path d="M379.922 254.866L355.678 233.731H380.543L404.165 254.866H379.922Z" fill="#F35B00"/>
<path d="M355.678 259.217V233.731L379.922 254.866V282.217L355.678 259.217Z" fill="#FA5C00"/>
<path d="M355.678 259.217H249.381L269.273 282.217H379.922L355.678 259.217Z" fill="#FA5C00"/>
<path d="M249.381 234.074V259.217L223.895 234.074H249.381Z" fill="#FA5C00"/>
<path d="M330.192 169.082V188.974L312.165 169.082H330.192Z" fill="#FA5C00"/>
<path d="M296.624 208.245H276.111V55.9472L296.624 74.5959V208.245Z" fill="#FA5C00"/>
<path d="M296.624 74.5959L276.111 55.9472H332.057V74.5959H296.624Z" fill="#FA5C00"/>
<path d="M359.408 2.48779H248.759V30.4608H223.895V234.074H249.381V259.217H355.678V233.731H380.543V124.947H312.165V169.082H330.192V208.245H276.111V55.9472H332.057V83.2986H384.895V31.0824L359.408 30.4608V2.48779Z" fill="url(#paint0_linear_7047_205366)"/>
<path d="M359.408 2.48779L384.895 24.8662V31.0824M359.408 2.48779V30.4608L384.895 31.0824M359.408 2.48779H248.759V30.4608H223.895V234.074M384.895 31.0824L407.273 50.3527V104.434M384.895 31.0824V83.2986M384.895 83.2986L407.273 104.434M384.895 83.2986H332.057M407.273 104.434H358.165L332.057 83.2986M332.057 83.2986V55.9472M380.543 124.947L404.165 148.569V254.866M380.543 124.947V233.731M380.543 124.947H312.165V169.082M404.165 254.866L380.543 233.731M404.165 254.866H379.922M380.543 233.731H355.678M355.678 233.731L379.922 254.866M355.678 233.731V259.217M379.922 254.866V282.217M355.678 259.217L379.922 282.217M355.678 259.217H249.381M379.922 282.217H269.273L249.381 259.217M249.381 259.217V234.074H223.895M249.381 259.217L223.895 234.074M330.192 169.082V188.974L312.165 169.082M330.192 169.082H312.165M330.192 169.082V208.245H276.111M276.111 208.245H296.624V74.5959M276.111 208.245V55.9472M296.624 74.5959L276.111 55.9472M296.624 74.5959H332.057V55.9472M276.111 55.9472H332.057" stroke="#B81E00" stroke-width="3.72973"/>
<path d="M274.246 185.86L225.76 147.941V232.481H250.625V257.968H354.435V232.481L332.057 210.103H274.246V185.86Z" fill="#E6D387"/>
<path d="M274.246 98.8405L225.76 60.9216V118.111L274.246 154.165V98.8405Z" fill="#E5D38C"/>
<path d="M314.03 167.219V126.813H333.922L378.679 160.381V218.192L332.057 179.651V167.219H314.03Z" fill="#E5D38C"/>
</g>
<g filter="url(#filter2_dd_7047_205366)">
<path d="M183.488 60.9126L158.002 38.5342V66.5071L183.488 67.1288V60.9126Z" fill="#FA5C00"/>
<path d="M205.867 140.48L183.488 119.345V67.1288L205.867 86.399V140.48Z" fill="#FA5C00"/>
<path d="M183.488 119.345H130.65L156.759 140.48H205.867L183.488 119.345Z" fill="#FA5C00"/>
<path d="M202.759 184.615L179.137 160.994V269.777L202.759 290.913V184.615Z" fill="#FA5C00"/>
<path d="M178.515 290.913L154.272 269.777H179.137L202.759 290.913H178.515Z" fill="#F35B00"/>
<path d="M154.272 295.264V269.777L178.515 290.913V318.264L154.272 295.264Z" fill="#FA5C00"/>
<path d="M154.272 295.264H47.9748L67.8667 318.264H178.515L154.272 295.264Z" fill="#FA5C00"/>
<path d="M47.9748 270.12V295.264L22.4883 270.12H47.9748Z" fill="#FA5C00"/>
<path d="M128.786 205.129V225.021L110.759 205.129H128.786Z" fill="#FA5C00"/>
<path d="M95.218 244.291H74.7045V91.9936L95.218 110.642V244.291Z" fill="#FA5C00"/>
<path d="M95.218 110.642L74.7045 91.9936H130.65V110.642H95.218Z" fill="#FA5C00"/>
<path d="M158.002 38.5342H47.3531V66.5071H22.4883V270.12H47.9748V295.264H154.272V269.777H179.137V160.994H110.759V205.129H128.786V244.291H74.7045V91.9936H130.65V119.345H183.488V67.1288L158.002 66.5071V38.5342Z" fill="#F18D00"/>
<path d="M158.002 38.5342L183.488 60.9126V67.1288M158.002 38.5342V66.5071L183.488 67.1288M158.002 38.5342H47.3531V66.5071H22.4883V270.12M183.488 67.1288L205.867 86.399V140.48M183.488 67.1288V119.345M183.488 119.345L205.867 140.48M183.488 119.345H130.65M205.867 140.48H156.759L130.65 119.345M130.65 119.345V91.9936M179.137 160.994L202.759 184.615V290.913M179.137 160.994V269.777M179.137 160.994H110.759V205.129M202.759 290.913L179.137 269.777M202.759 290.913H178.515M179.137 269.777H154.272M154.272 269.777L178.515 290.913M154.272 269.777V295.264M178.515 290.913V318.264M154.272 295.264L178.515 318.264M154.272 295.264H47.9748M178.515 318.264H67.8667L47.9748 295.264M47.9748 295.264V270.12H22.4883M47.9748 295.264L22.4883 270.12M128.786 205.129V225.021L110.759 205.129M128.786 205.129H110.759M128.786 205.129V244.291H74.7045M74.7045 244.291H95.218V110.642M74.7045 244.291V91.9936M95.218 110.642L74.7045 91.9936M95.218 110.642H130.65V91.9936M74.7045 91.9936H130.65" stroke="#B81E00" stroke-width="3.72973"/>
<path d="M72.8381 134.892L24.3516 96.9731V268.541H49.2164V294.027H153.027V268.541H177.27V215.081L112.622 167.439V203.27H130.649V246.162H72.8381V134.892Z" fill="#ECB600"/>
<path d="M72.838 90.1296V134.886L24.3516 96.9675V68.3729H49.2164V40.3999H105.162L181.622 100.697V117.481H132.514V90.1296H72.838Z" fill="#E5D38C"/>
<path d="M112.622 162.859V167.832L177.27 215.697V162.859H112.622Z" fill="#E5D38C"/>
</g>
</g>
<defs>
<filter id="filter0_d_7047_205366" x="16" y="0" width="397.139" height="330.004" filterUnits="userSpaceOnUse" color-interpolation-filters="sRGB">
<feFlood flood-opacity="0" result="BackgroundImageFix"/>
<feColorMatrix in="SourceAlpha" type="matrix" values="0 0 0 0 0 0 0 0 0 0 0 0 0 0 0 0 0 0 127 0" result="hardAlpha"/>
<feOffset dy="4"/>
<feGaussianBlur stdDeviation="2"/>
<feComposite in2="hardAlpha" operator="out"/>
<feColorMatrix type="matrix" values="0 0 0 0 0 0 0 0 0 0 0 0 0 0 0 0 0 0 0.25 0"/>
<feBlend mode="normal" in2="BackgroundImageFix" result="effect1_dropShadow_7047_205366"/>
<feBlend mode="normal" in="SourceGraphic" in2="effect1_dropShadow_7047_205366" result="shape"/>
</filter>
<filter id="filter1_dd_7047_205366" x="201.408" y="0" width="227.73" height="324.703" filterUnits="userSpaceOnUse" color-interpolation-filters="sRGB">
<feFlood flood-opacity="0" result="BackgroundImageFix"/>
<feColorMatrix in="SourceAlpha" type="matrix" values="0 0 0 0 0 0 0 0 0 0 0 0 0 0 0 0 0 0 127 0" result="hardAlpha"/>
<feMorphology radius="6" operator="erode" in="SourceAlpha" result="effect1_dropShadow_7047_205366"/>
<feOffset dy="8"/>
<feGaussianBlur stdDeviation="5"/>
<feColorMatrix type="matrix" values="0 0 0 0 0.0627451 0 0 0 0 0.0941176 0 0 0 0 0.156863 0 0 0 0.1 0"/>
<feBlend mode="normal" in2="BackgroundImageFix" result="effect1_dropShadow_7047_205366"/>
<feColorMatrix in="SourceAlpha" type="matrix" values="0 0 0 0 0 0 0 0 0 0 0 0 0 0 0 0 0 0 127 0" result="hardAlpha"/>
<feMorphology radius="5" operator="erode" in="SourceAlpha" result="effect2_dropShadow_7047_205366"/>
<feOffset dy="20"/>
<feGaussianBlur stdDeviation="12.5"/>
<feColorMatrix type="matrix" values="0 0 0 0 0.0627451 0 0 0 0 0.0941176 0 0 0 0 0.156863 0 0 0 0.1 0"/>
<feBlend mode="normal" in2="effect1_dropShadow_7047_205366" result="effect2_dropShadow_7047_205366"/>
<feBlend mode="normal" in="SourceGraphic" in2="effect2_dropShadow_7047_205366" result="shape"/>
</filter>
<filter id="filter2_dd_7047_205366" x="0" y="36.0581" width="230.217" height="325.946" filterUnits="userSpaceOnUse" color-interpolation-filters="sRGB">
<feFlood flood-opacity="0" result="BackgroundImageFix"/>
<feColorMatrix in="SourceAlpha" type="matrix" values="0 0 0 0 0 0 0 0 0 0 0 0 0 0 0 0 0 0 127 0" result="hardAlpha"/>
<feMorphology radius="6" operator="erode" in="SourceAlpha" result="effect1_dropShadow_7047_205366"/>
<feOffset dy="8"/>
<feGaussianBlur stdDeviation="5"/>
<feColorMatrix type="matrix" values="0 0 0 0 0.0627451 0 0 0 0 0.0941176 0 0 0 0 0.156863 0 0 0 0.1 0"/>
<feBlend mode="normal" in2="BackgroundImageFix" result="effect1_dropShadow_7047_205366"/>
<feColorMatrix in="SourceAlpha" type="matrix" values="0 0 0 0 0 0 0 0 0 0 0 0 0 0 0 0 0 0 127 0" result="hardAlpha"/>
<feMorphology radius="5" operator="erode" in="SourceAlpha" result="effect2_dropShadow_7047_205366"/>
<feOffset dy="20"/>
<feGaussianBlur stdDeviation="12.5"/>
<feColorMatrix type="matrix" values="0 0 0 0 0.0627451 0 0 0 0 0.0941176 0 0 0 0 0.156863 0 0 0 0.1 0"/>
<feBlend mode="normal" in2="effect1_dropShadow_7047_205366" result="effect2_dropShadow_7047_205366"/>
<feBlend mode="normal" in="SourceGraphic" in2="effect2_dropShadow_7047_205366" result="shape"/>
</filter>
<linearGradient id="paint0_linear_7047_205366" x1="315.584" y1="2.48779" x2="315.584" y2="282.217" gradientUnits="userSpaceOnUse">
<stop stop-color="#F18D00"/>
<stop offset="0.512744" stop-color="#EFB600"/>
</linearGradient>
<clipPath id="clip0_7047_205366">
<rect width="187.73" height="284.703" fill="white" transform="translate(221.408)"/>
</clipPath>
</defs>
</svg>
