<svg width="305" height="330" viewBox="0 0 305 330" fill="none" xmlns="http://www.w3.org/2000/svg">
<path d="M203.896 196.336C206.786 199.558 209.085 203.262 210.69 207.281C214.554 215.63 218.637 224.118 221.941 232.702C218.44 239.923 212.915 245.97 206.038 250.105C209.29 262.986 208.463 276.559 203.671 288.95C153.619 296.059 131.049 293.802 105.922 294.454C104.84 294.483 104.572 294.172 104.496 293.221C103.882 285.646 103.382 278.063 102.996 270.474C110.826 265.948 115.488 257.015 117.788 248.27C120.088 239.526 120.052 230.36 119.998 221.319C121.92 220.513 124.063 221.564 125.931 222.487C134.387 226.548 143.73 228.411 153.096 227.905C162.463 227.4 171.551 224.54 179.521 219.593C183.504 217.059 187.396 213.831 191.105 210.908C196.337 206.995 200.694 202.032 203.896 196.336Z" fill="#FFC5F6"/>
<path d="M74.7111 327.81H201.921C198.84 290.314 199.779 290.581 196.97 290.274C192.256 289.758 112.41 295.032 104.023 294.027L102.979 276.205L66.9883 283.852L69.343 323.73C72.6505 327.946 71.4224 327.096 74.7111 327.81Z" fill="white"/>
<path d="M221.444 232.125C241.368 275.175 241.784 274.893 241.396 279.31C240.945 284.47 236.385 289.405 228.496 290.327C227.156 290.598 225.769 290.529 224.463 290.127C223.156 289.724 221.972 289.001 221.017 288.022C206.569 276.314 207.271 276.952 206.984 276.484C206.191 275.198 207.706 266.422 207.672 261.52C207.648 258.232 205.895 254.468 206.153 251.328C206.407 248.216 210.253 248.297 217.003 239.219C217.689 238.297 221.91 233.135 221.444 232.125Z" fill="white"/>
<path d="M117.773 189.65C120.824 188.02 122.162 188.205 125.564 189.382C131.817 191.787 138.376 193.303 145.05 193.888C155.171 194.38 165.123 191.16 173.038 184.834C176.134 182.335 177.254 181.415 181.356 181.964C193.768 183.622 203.475 192.999 203.795 195.885C204.234 199.841 182.662 225.461 155.092 228.361C147.734 229.133 143.941 228.189 137.689 226.317C122.381 221.718 114.197 221.36 111.101 206.468C108.951 196.093 108.645 194.532 117.773 189.65Z" fill="white"/>
<path d="M124.308 228.296C131.985 228.058 135.949 229.537 136.383 225.563C136.42 225.219 135.934 224.627 135.77 224.838C132.674 228.817 127.122 227.59 127.253 226.184C127.341 225.244 128.039 225.809 128.414 225.862C128.863 225.981 129.339 225.95 129.77 225.776C130.201 225.601 130.563 225.292 130.803 224.894C128.891 224.518 127.051 223.839 125.354 222.883C124.886 225.31 124.816 227.253 122.504 227.86C122.759 228.052 123.051 228.19 123.361 228.265C123.671 228.34 123.994 228.35 124.308 228.296Z" fill="black"/>
<path d="M165.978 248.774C163.698 248.781 161.471 249.463 159.578 250.734C157.685 252.004 156.21 253.806 155.339 255.913C154.468 258.02 154.24 260.338 154.684 262.574C155.127 264.811 156.222 266.866 157.832 268.481C159.441 270.096 161.492 271.199 163.727 271.651C165.961 272.103 168.28 271.883 170.39 271.02C172.5 270.157 174.308 268.689 175.585 266.8C176.863 264.912 177.553 262.688 177.569 260.408C177.572 258.883 177.275 257.372 176.694 255.962C176.113 254.552 175.26 253.27 174.184 252.189C173.107 251.109 171.829 250.251 170.421 249.665C169.013 249.079 167.503 248.776 165.978 248.774ZM172.671 265.334C172.269 265.424 171.901 265.624 171.608 265.912C171.315 266.2 171.109 266.565 171.012 266.964C170.723 268.041 170.092 268.994 169.215 269.681C168.337 270.368 167.261 270.751 166.147 270.774C165.032 270.797 163.941 270.456 163.037 269.804C162.133 269.152 161.466 268.223 161.136 267.159C161.017 266.71 160.781 266.301 160.451 265.974C160.122 265.647 159.712 265.413 159.263 265.296C158.205 264.987 157.276 264.344 156.613 263.464C155.949 262.584 155.588 261.513 155.582 260.411C155.576 259.31 155.925 258.236 156.577 257.348C157.229 256.46 158.15 255.807 159.203 255.483C159.679 255.357 160.112 255.103 160.453 254.747C160.795 254.391 161.032 253.949 161.138 253.468C161.481 252.455 162.13 251.575 162.996 250.95C163.862 250.324 164.902 249.984 165.97 249.976C167.039 249.969 168.083 250.295 168.958 250.908C169.833 251.522 170.494 252.393 170.851 253.4C170.98 253.904 171.238 254.365 171.601 254.737C171.962 255.11 172.416 255.382 172.915 255.525C173.951 255.878 174.846 256.554 175.471 257.453C176.097 258.35 176.421 259.425 176.393 260.519C176.366 261.614 175.99 262.671 175.319 263.536C174.65 264.402 173.722 265.032 172.671 265.334Z" fill="black"/>
<path d="M205.799 208.999C208.606 209.652 207.691 210.672 203.343 222.721C203.171 223.218 203.086 223.944 202.383 223.944C201.679 223.944 201.614 223.235 201.366 222.75C200.255 220.571 201.253 218.45 201.638 216.352C202.018 214.288 201.719 211.737 204.734 210.978C202.688 210.641 200.6 210.65 198.558 211.004C200.539 211.883 199.887 213.392 199.707 214.735C199.634 215.265 199.696 216.073 199.125 216.19C198.411 216.335 198.417 215.461 198.22 214.998C197.914 214.219 197.655 213.422 197.446 212.611C196.991 211.028 196.614 209.461 199.024 208.861C197.078 208.4 195.049 208.428 193.117 208.942C194.882 210.014 195.14 210.222 198.22 219.357C198.587 220.924 198.508 222.563 197.992 224.088C197.474 225.613 196.54 226.962 195.296 227.984C195.668 228.378 195.092 228.337 205.776 228.287C208.444 228.275 209.27 227.365 209.244 224.474C208.583 224.437 208.484 225.039 208.202 225.409C206.163 228.075 199.354 228.106 200.052 225.865C200.245 225.251 200.699 225.693 201.036 225.77C201.512 225.935 202.029 225.94 202.507 225.783C202.986 225.627 203.4 225.318 203.687 224.904C203.878 224.628 204.005 224.315 204.06 223.985C205.346 220.291 206.831 216.665 208.21 213.001C208.386 212.155 208.737 211.354 209.24 210.652C209.744 209.949 210.389 209.36 211.134 208.921C209.396 208.357 207.52 208.385 205.799 208.999Z" fill="black"/>
<path d="M190.327 279.582C190.032 279.324 189.677 279.142 189.295 279.053C184.023 278.901 187.028 273.924 183.395 272.916C183.139 272.954 182.893 273.042 182.672 273.176C182.45 273.309 182.258 273.486 182.105 273.695C180.084 275.955 181.875 278.549 178.801 278.643C177.126 278.697 173.17 280.599 176.465 282.746C178.748 284.232 180.611 282.651 180.867 285.628C181.063 287.928 182.843 290.393 184.441 288.642C185.117 288.036 185.545 287.202 185.645 286.301C185.581 285.736 185.708 285.165 186.006 284.681C186.304 284.197 186.756 283.827 187.289 283.63C187.644 283.499 188.022 283.449 188.397 283.482C189.692 283.403 193.316 281.535 190.327 279.582ZM183.361 283.611C183.025 283.618 182.691 283.558 182.379 283.434C182.067 283.309 181.783 283.123 181.545 282.887C181.185 282.531 180.941 282.075 180.844 281.579C180.746 281.083 180.8 280.569 180.998 280.104C181.196 279.638 181.531 279.243 181.958 278.971C182.385 278.699 182.884 278.563 183.39 278.58C184.038 278.613 184.647 278.894 185.093 279.365C185.538 279.836 185.784 280.461 185.78 281.109C185.777 281.757 185.523 282.379 185.072 282.845C184.622 283.311 184.009 283.585 183.361 283.611Z" fill="black"/>
<path d="M190.77 238.306C188.164 236.221 186.005 238.289 185.759 234.725C185.637 232.94 183.929 230.275 182.25 231.973C179.923 234.321 181.934 236.927 179.032 237.023C177.722 237.068 175.219 238.156 175.183 239.467C175.088 242.907 180.171 239.073 181.65 246.347C181.698 246.656 181.836 246.943 182.046 247.174C182.256 247.406 182.529 247.57 182.832 247.647C183.135 247.724 183.453 247.711 183.748 247.608C184.043 247.506 184.302 247.319 184.492 247.071C186.645 244.93 184.676 242.334 187.76 242.056C190.049 241.842 192.853 239.971 190.77 238.306ZM183.489 242.014C183.151 242.033 182.812 241.982 182.494 241.867C182.175 241.751 181.884 241.572 181.636 241.34C181.262 240.991 181.005 240.535 180.899 240.035C180.792 239.534 180.843 239.013 181.043 238.542C181.243 238.071 181.583 237.673 182.017 237.402C182.45 237.131 182.957 237 183.468 237.026C184.107 237.058 184.709 237.333 185.151 237.795C185.593 238.257 185.842 238.871 185.845 239.51C185.848 240.15 185.605 240.766 185.167 241.232C184.728 241.698 184.128 241.978 183.489 242.014Z" fill="black"/>
<path d="M220.528 231.432C218.104 231.42 219.313 235.158 214.227 237.585C210.999 239.133 212.764 241.333 214.267 241.462C214.649 241.493 215.027 241.556 215.397 241.654C218.175 238.569 221.245 235.051 221.291 231.646C221.062 231.505 220.797 231.431 220.528 231.432Z" fill="black"/>
<path d="M140.029 241.515C145.901 241.954 142.661 247.852 146.244 247.707C149.642 247.572 146.244 242.375 152.245 241.596C152.754 241.522 153.231 241.298 153.614 240.954C153.997 240.61 154.27 240.16 154.398 239.661C154.312 239.131 154.058 238.642 153.674 238.266C153.289 237.891 152.794 237.648 152.262 237.575C146.496 237.086 149.759 231.517 146.194 231.409C142.859 231.306 146.249 236.612 139.886 237.632C139.372 237.652 138.887 237.875 138.536 238.252C138.186 238.629 137.999 239.13 138.017 239.644C138.036 240.159 138.258 240.645 138.636 240.996C139.013 241.347 139.514 241.534 140.029 241.515ZM146.073 237.043C146.732 237.026 147.371 237.271 147.849 237.724C148.328 238.178 148.606 238.803 148.624 239.462C148.642 240.121 148.397 240.76 147.943 241.238C147.49 241.716 146.865 241.995 146.206 242.013C145.726 242.006 145.259 241.862 144.86 241.596C144.461 241.331 144.147 240.956 143.956 240.516C143.765 240.076 143.705 239.591 143.783 239.118C143.861 238.645 144.074 238.205 144.396 237.85C144.83 237.375 145.432 237.088 146.073 237.047V237.043Z" fill="black"/>
<path d="M110.794 274.442C105.488 279.679 102.629 278.377 103.006 282.975C104.14 283.114 105.184 283.66 105.946 284.512C106.707 285.364 107.133 286.463 107.146 287.605C107.2 288.046 107.412 288.453 107.744 288.749C108.075 289.045 108.503 289.211 108.947 289.216C109.392 289.221 109.823 289.064 110.161 288.775C110.498 288.486 110.72 288.084 110.784 287.644C111.358 281.757 116.778 284.361 117.223 281.174C117.043 277.861 112.239 281.444 110.794 274.442ZM108.902 283.604C108.248 283.562 107.637 283.266 107.198 282.78C106.758 282.294 106.526 281.656 106.549 281.002C106.574 280.347 106.854 279.728 107.329 279.276C107.804 278.825 108.436 278.576 109.091 278.583C109.426 278.588 109.757 278.659 110.064 278.795C110.371 278.93 110.647 279.125 110.876 279.369C111.107 279.612 111.287 279.899 111.405 280.212C111.524 280.526 111.578 280.86 111.565 281.195C111.552 281.53 111.471 281.859 111.329 282.162C111.186 282.465 110.985 282.737 110.735 282.961C110.487 283.185 110.196 283.357 109.88 283.468C109.564 283.578 109.229 283.624 108.895 283.604H108.902Z" fill="black"/>
<path d="M152.598 279.298C146.293 278.467 149.674 272.981 146.234 272.97C142.966 272.97 145.982 278.435 139.733 279.238C139.269 279.281 138.839 279.496 138.526 279.841C138.214 280.186 138.042 280.636 138.045 281.101C138.048 281.567 138.226 282.014 138.543 282.355C138.86 282.696 139.293 282.906 139.757 282.943C145.662 283.534 142.753 288.848 146.188 289.327C149.714 288.442 146.463 283.872 152.655 282.963C153.112 282.916 153.535 282.698 153.84 282.354C154.145 282.01 154.309 281.564 154.301 281.104C154.294 280.645 154.115 280.205 153.8 279.871C153.485 279.537 153.056 279.332 152.598 279.298ZM146.164 283.62C145.827 283.622 145.493 283.556 145.182 283.426C144.871 283.296 144.589 283.105 144.353 282.864C144.118 282.623 143.933 282.337 143.811 282.023C143.688 281.709 143.63 281.373 143.64 281.036C143.65 280.699 143.727 280.368 143.868 280.061C144.008 279.755 144.209 279.48 144.459 279.253C144.708 279.026 145 278.851 145.318 278.74C145.636 278.628 145.974 278.582 146.31 278.603C146.96 278.645 147.568 278.937 148.006 279.418C148.445 279.899 148.679 280.532 148.66 281.182C148.641 281.833 148.37 282.451 147.905 282.906C147.439 283.361 146.815 283.617 146.164 283.62Z" fill="black"/>
<path d="M130.214 249.856C128.827 246.952 128.697 251.593 122.026 256.928C121.703 258.356 121.258 259.754 120.693 261.106C124.362 263.092 127.276 266.23 128.985 270.036C130.361 273.014 130.673 266.736 139.782 260.8C142.935 258.748 134.971 259.837 130.214 249.856ZM136.856 261.106C134.448 263.158 131.801 261.079 131.808 264.777C131.808 266.261 130.492 267.936 129.372 267.905C125.588 266.409 129.259 262.467 124.25 261.982C123.057 261.866 121.634 261.283 121.589 259.852C121.545 258.368 123.019 258.043 124.178 257.64C125.477 257.191 127.235 257.931 127.24 255.287C127.24 253.739 129.214 249.911 131.141 252.988C132.653 255.396 131.18 257.391 133.877 257.489C135.97 257.566 138.893 259.378 136.863 261.106H136.856Z" fill="black"/>
<path d="M204.931 266.679C203.579 269.591 201.462 268.088 201.341 266.74C200.794 260.577 195.167 263.442 195.132 260.327C195.098 257.03 200.896 260.124 201.362 254.006C201.4 253.548 201.602 253.119 201.931 252.797C202.26 252.475 202.693 252.282 203.153 252.254C205.113 252.228 204.666 255.35 207.538 257.431C207.484 256.788 207.41 256.146 207.317 255.508C204.025 252.025 203.899 249.498 202.845 249.429C201.672 250.496 199.384 255.105 192.784 259.467C189.879 261.387 197.697 260.384 202.454 270.331C203.576 272.677 203.939 270.09 207.442 266.28C207.519 265.264 207.58 264.246 207.624 263.227C206.393 264.073 205.452 265.279 204.931 266.679Z" fill="black"/>
<path d="M164.024 289.686C162.132 293.575 161.337 293.107 162.74 293.055C162.88 292.733 163.108 292.457 163.398 292.258C163.688 292.06 164.028 291.947 164.38 291.934C164.73 291.92 165.078 292.004 165.383 292.178C165.688 292.352 165.938 292.607 166.105 292.916C168.709 292.796 168.035 293.65 165.473 289.682C165.023 288.984 164.509 288.692 164.024 289.686Z" fill="black"/>
<path d="M165.97 257.814C165.607 257.825 165.25 257.914 164.925 258.076C164.599 258.238 164.313 258.469 164.085 258.752C163.858 259.035 163.694 259.365 163.606 259.717C163.518 260.07 163.508 260.438 163.575 260.795C163.643 261.152 163.787 261.49 163.999 261.786C164.21 262.082 164.482 262.328 164.798 262.508C165.114 262.689 165.465 262.798 165.827 262.83C166.189 262.861 166.553 262.814 166.895 262.69C167.371 262.512 167.783 262.195 168.076 261.78C168.37 261.365 168.532 260.871 168.541 260.363C168.545 260.026 168.48 259.691 168.352 259.378C168.225 259.066 168.036 258.782 167.797 258.544C167.557 258.306 167.271 258.119 166.957 257.993C166.644 257.868 166.308 257.807 165.97 257.814Z" fill="black"/>
<path d="M129.68 257.377C129.177 257.344 128.675 257.464 128.242 257.722C127.809 257.981 127.465 258.365 127.256 258.824C127.045 259.281 126.978 259.792 127.064 260.289C127.15 260.785 127.385 261.244 127.738 261.603C127.972 261.843 128.252 262.032 128.56 262.161C128.869 262.29 129.201 262.355 129.535 262.353C130.038 262.387 130.54 262.266 130.972 262.008C131.405 261.749 131.749 261.365 131.959 260.907C132.17 260.449 132.237 259.939 132.151 259.442C132.065 258.946 131.83 258.487 131.477 258.127C131.243 257.888 130.963 257.699 130.655 257.57C130.346 257.441 130.014 257.375 129.68 257.377Z" fill="black"/>
<path d="M203.06 257.838C202.399 257.882 201.782 258.188 201.346 258.687C200.91 259.186 200.69 259.838 200.734 260.499C200.779 261.161 201.084 261.778 201.583 262.214C202.082 262.65 202.734 262.87 203.396 262.826C203.723 262.804 204.043 262.717 204.338 262.572C204.632 262.426 204.894 262.224 205.11 261.977C205.326 261.729 205.491 261.442 205.596 261.131C205.701 260.82 205.744 260.491 205.722 260.164C205.7 259.836 205.614 259.516 205.468 259.222C205.322 258.928 205.12 258.666 204.873 258.45C204.626 258.234 204.339 258.068 204.028 257.963C203.717 257.858 203.388 257.816 203.06 257.838Z" fill="black"/>
<path d="M192.04 187.502C191.856 187.29 191.627 187.12 191.37 187.007C191.113 186.893 190.833 186.838 190.552 186.845C189.734 186.845 189.176 187.189 188.208 188.909C185.883 192.612 183.125 196.025 179.993 199.076C172.444 205.674 163.739 209.418 147.693 206.369C139.124 204.742 127.604 200.641 120.345 195.077C119.406 194.356 117.815 192.095 116.374 192.095C108.261 192.095 129.95 210.963 157.177 210.963C172.511 210.963 183.607 205.371 191.509 190.428C191.983 189.545 192.627 188.329 192.04 187.502Z" fill="#FDFE1F"/>
<path d="M165.576 77.4895C173.72 89.1855 178.648 102.761 183.422 116.19C195.607 150.486 187.74 188.915 151.946 193.015C129.997 195.53 109.356 185.112 95.9276 167.924C93.6654 170.058 90.9324 171.63 87.9498 172.512C84.9671 173.394 81.8188 173.561 78.7595 173C75.7003 172.439 72.8161 171.165 70.3406 169.282C67.865 167.399 65.8676 164.96 64.5101 162.162C62.693 158.418 62.1008 154.197 62.8176 150.098C63.9098 143.823 74.3416 122.602 85.3324 111.251C95.0762 101.188 121.989 80.9846 165.576 77.4878V77.4895Z" fill="white"/>
<path d="M83.9061 153.319C81.0526 147.254 75.0567 149.318 75.1978 148.215C75.3491 147.029 79.281 145.188 83.3058 147.6C85.4763 149.078 87.0634 151.268 87.7939 153.79C88.5244 156.313 88.3527 159.012 87.3083 161.422C86.3055 163.738 84.9106 164.626 84.5718 164.335C83.8012 163.754 86.4689 158.766 83.9061 153.319Z" fill="black"/>
<path d="M122.571 154.903C121.121 150.88 124.219 150.066 125.574 153.821C126.947 157.629 124.009 158.89 122.571 154.903Z" fill="black"/>
<path d="M128.568 153.037C126.607 148.759 129.493 147.397 131.47 151.706C133.446 156.014 130.524 157.302 128.568 153.037Z" fill="black"/>
<path d="M172.345 138.603C170.544 134.944 173.415 133.548 175.207 137.192C176.999 140.837 174.141 142.247 172.345 138.603Z" fill="black"/>
<path d="M177.941 137.285C176.311 133.62 179.219 132.297 180.865 135.989C182.472 139.616 179.606 141.03 177.941 137.285Z" fill="black"/>
<path d="M169.435 153.266C168.076 148.818 162.668 151.083 159.469 152C147.458 155.356 135.706 158.825 144.995 167.17C146.16 168.29 147.475 169.242 148.901 170C151.363 171.226 154.125 171.72 156.859 171.423C159.593 171.127 162.184 170.053 164.326 168.328C167.207 165.929 170.883 157.776 169.435 153.266ZM163.041 166.728C161.068 168.097 158.737 168.855 156.336 168.909C153.936 168.963 151.572 168.311 149.539 167.033C151.663 165.169 154.193 163.829 156.929 163.121C159.664 162.413 162.527 162.358 165.288 162.958C164.768 164.338 164.008 165.615 163.041 166.728Z" fill="black"/>
<path d="M191.56 99.4074C189.126 94.9113 185.54 94.9732 181.117 96.0671C150.624 103.035 157.127 106.649 148.749 110.888C146.322 112.116 142.557 110.778 139.271 111.836C134.416 112.514 114.835 117.154 110.474 122.457C103.126 126.735 96.1998 131.699 89.7871 137.282L91.6275 140.163C97.614 137.238 103.281 133.702 108.539 129.609C109.832 139.459 122.386 143.451 132.275 144.638C133.695 144.959 135.17 144.953 136.587 144.621C138.005 144.288 139.329 143.638 140.458 142.719C147.968 136.728 149.383 122.079 147.775 117.197C150.489 114.939 151.42 114.666 153.202 114.509C155.412 123.582 167.388 127.197 176.7 128.315C191.664 130.084 195 105.527 191.56 99.4074Z" fill="black"/>
<path d="M118.963 127.894L120.439 134.06L126.605 132.586L125.129 126.42L118.963 127.894Z" fill="white"/>
<path d="M123.654 120.252L125.13 126.419L131.296 124.945L129.822 118.778L123.656 120.252H123.654Z" fill="white"/>
<path d="M162.074 112.049L163.548 118.216L169.714 116.74L168.24 110.575L162.074 112.049Z" fill="white"/>
<path d="M166.766 104.41L168.24 110.576L174.406 109.1L172.932 102.936L166.766 104.41Z" fill="white"/>
<path d="M242.338 275.345C241.378 269.35 234.015 254.61 227.949 241.703C214.768 213.679 211.366 193.178 193.591 184.305C177.993 176.417 177.36 185.982 183.686 175.189C200.441 146.611 184.704 106.833 167.895 78.3529C173.031 67.4929 164.553 49.2196 140.216 48.2203C115.471 47.2227 30.0161 77.6168 54.1029 150.357C58.126 163.257 64.4057 176.31 69.294 193.175C79.6793 229.617 60.2124 236.467 56.566 259.588C54.846 267.415 58.2103 278.062 65.6355 284.118C65.6854 285.357 67.2145 322.786 67.6256 324.743C68.9139 331.503 78.5957 329.789 98.8917 329.638C101.016 329.832 103.156 329.558 105.163 328.835C105.864 328.516 106.47 328.022 106.925 327.401C107.379 326.779 107.666 326.051 107.757 325.286C107.891 323.814 105.835 296.621 105.784 295.954C135.904 295.659 167.704 295.52 197.551 291.17C197.518 303.696 198.62 316.199 200.843 328.525L203.291 328.253C203.084 319.44 201.498 299.959 200.325 290.757C206.235 289.832 205.174 290.049 205.368 289.736C206.571 286.132 207.515 282.448 208.194 278.711C217.917 287.113 222.2 292.113 228.784 292.078C230.816 291.983 232.805 291.459 234.62 290.542C236.435 289.624 238.036 288.333 239.318 286.753C240.597 285.172 241.528 283.338 242.048 281.372C242.569 279.406 242.667 277.352 242.338 275.345ZM193.834 187.936C197.15 190.032 200.074 192.692 202.475 195.795C194.123 208.81 181.739 218.734 167.215 224.047C155.605 228.282 141.684 226.565 130.072 222.79C127.845 222.112 125.671 221.27 123.569 220.27C121.761 212.529 119.167 204.992 115.829 197.778C130.474 211.06 161.792 217.917 178.251 207.434C188.571 200.968 194.097 190.306 193.839 187.936H193.834ZM105.373 179.458C109.158 182.836 113.296 185.795 117.717 188.283C108.976 190.882 115.708 194.69 105.378 179.458H105.373ZM190.547 187.229C190.767 187.222 190.986 187.262 191.189 187.348C191.392 187.433 191.574 187.562 191.722 187.724C192.437 188.73 188.724 194.843 188.118 195.636C163.624 228.046 112.356 198.302 115.295 193.086C119.109 191.727 115.529 193.86 127.715 200.026C133.936 203.085 140.527 205.325 147.323 206.691C164.695 210.022 173.309 205.547 181.338 198.393C183.04 196.684 184.57 194.812 185.907 192.805C189.152 189.049 188.934 187.229 190.552 187.229H190.547ZM189.171 185.554C188.113 186.122 187.284 187.039 186.823 188.147C185.666 189.984 184.39 191.743 183.003 193.414C174.515 205.224 161.094 207.718 146.945 204.623C138.426 202.718 128.252 199.164 121.303 193.832C121.231 193.777 119.573 192.1 119.095 191.704C124.654 189.659 119.079 190.225 131.795 193.736C146.709 197.852 166.24 194.472 177.489 183.14C181.505 183.178 185.475 183.999 189.178 185.554H189.171ZM76.4199 140.748C81.1013 138.672 86.3931 138.438 91.2395 140.092C94.9787 141.387 96.9017 143.279 97.3369 142.862C97.6155 142.667 96.7503 140.798 94.1187 138.852C92.6561 137.228 91.5465 135.317 90.8603 133.242C90.174 131.167 89.9259 128.971 90.1318 126.795C92.514 107.115 131.565 96.2891 149.014 90.5409C155.206 88.4012 162.518 86.1119 166.458 80.7695C227.622 193.602 135.751 216.899 97.5467 167.217C98.072 166.18 98.4175 165.062 98.5684 163.909C98.6991 162.628 98.4875 161.926 98.2519 161.9C97.5243 161.785 96.8759 166.169 91.9532 169.338C90.4138 167.433 87.3763 165.278 85.9539 167.143C84.9735 168.414 86.1001 169.664 87.0461 171.374C85.1713 171.844 83.2363 172.014 81.3082 171.88C81.487 170.891 81.9677 169.982 82.6842 169.277C86.2962 165.352 78.5803 163.207 75.8437 170.388C63.1897 164.219 64.6827 145.786 76.4199 140.748ZM104.026 324.805C103.704 326.181 102.746 325.794 76.2101 325.981C74.2097 325.981 71.6899 325.696 71.2806 323.917C71.2238 323.695 69.6311 297.868 68.8468 286.289C77.9834 291.181 92.5019 287.694 101.745 282.799C102.951 307.116 104.133 324.175 104.026 324.805ZM203.022 287.151C202.953 287.323 203.093 287.261 202.468 287.354C170.944 292.183 135.683 292.305 105.558 293.079C105.239 288.891 104.927 284.904 104.624 281.148C124.518 268.879 129.016 246.158 124.232 223.184C133.531 227.49 143.658 229.715 153.906 229.703C171.6 229.345 192.353 217.298 203.92 197.728C210.423 207.073 212.401 216.421 219.937 233.404C216.155 238.866 211.705 243.835 206.693 248.196C202.159 233.738 192.718 225.552 192.429 225.836C191.526 226.73 215.793 246.834 203.022 287.151ZM236.414 284.832C228.43 294.884 218.886 284.008 208.664 275.818C209.895 267.296 209.431 258.614 207.298 250.272C207.591 250.7 216.268 245.647 221.23 236.289C236.624 270.264 242.888 276.819 236.414 284.832Z" fill="black"/>
<path d="M77.3386 170.918C78.7576 167.382 81.7882 166.852 81.9826 167.422C82.177 167.991 79.1773 169.247 79.6262 173.939C80.1525 179.415 84.6933 180.335 87.49 178.316C92.724 175.016 86.7573 168.722 87.2217 168.117C88.0817 166.988 96.7918 174.465 90.2799 180.432C83.3465 186.785 73.9209 179.426 77.3386 170.918Z" fill="#FDFE1F"/>
<path d="M162.785 232.642C164.811 232.986 164.572 230.596 170.797 227.553C169.956 236.287 168.656 235.928 167.556 239.285C167.363 240.616 166.78 241.86 165.879 242.859C162.797 240.431 160.02 237.639 157.608 234.543C156.951 233.7 154.366 230.905 156.815 231.122C158.752 231.292 160.828 232.305 162.785 232.642Z" fill="#92FCFF"/>
<path d="M160.085 211.232C165.315 219.256 172.821 221.998 167.689 226.497C166.34 227.799 164.739 228.811 162.985 229.469C160.419 229.228 157.899 228.627 155.501 227.684C154.342 226.926 154.199 226.697 157.147 217.515C157.801 215.484 158.721 210.326 160.085 211.232Z" fill="#92FCFF"/>
<path d="M170.508 223.116C170.097 221.37 168.812 220.341 166.867 218.246C166.559 217.916 160.092 210.506 159.607 210.938C159.173 210.747 156.874 216.134 154.619 222.846C154.058 224.516 152.962 227.884 154.817 228.448C157.226 229.339 159.722 229.977 162.264 230.35C163.167 230.438 163.191 230.421 164.175 229.733C166.729 227.952 171.162 225.873 170.508 223.116ZM159.581 211.984C159.867 214.93 160.919 220.156 161.442 223.484C160.278 223.89 156.519 225.802 155.441 226.408C155.756 223.566 158.673 217.116 159.581 211.984ZM161.685 228.604C159.638 228.243 157.625 227.715 155.665 227.027C156.963 226.489 159.163 225.288 161.561 224.275C162.369 229.49 162.551 228.75 161.685 228.604ZM168.714 224.29C167.608 225.818 164.818 227.244 162.99 228.561C162.452 223.04 161.349 224.029 164.959 224.015C169.315 224.07 168.991 223.907 168.714 224.29ZM162.211 223.291C161.948 221.743 160.551 213.988 160.035 211.939C163.819 218.019 168.859 221.808 168.924 223.652C166.698 223.365 164.454 223.245 162.211 223.291Z" fill="black"/>
<path d="M171.814 226.658C171.656 225.577 172.261 225.553 164.957 230.657C162.906 232.091 163.858 231.879 160.698 231.298C158.177 230.906 155.781 229.934 153.699 228.458C153.823 229.461 154.076 230.445 154.454 231.382C155.934 234.416 165.196 243.902 165.849 243.068C166.733 243.546 172.416 230.739 171.814 226.658ZM157.597 233.022C156.549 231.646 156.487 231.862 157.695 232.254C159.561 232.772 161.463 233.156 163.385 233.403C163.858 236.397 164.53 239.356 165.395 242.261C164.212 240.768 160.934 237.387 157.597 233.022ZM166.085 241.823C165.875 240.799 165.397 239.232 165.087 237.659C164.716 235.791 164.547 234.071 164.267 233.187C165.643 232.408 170.161 228.715 170.115 228.887C170.352 228.71 167.392 237.855 166.085 241.823Z" fill="black"/>
<path d="M267.277 149.963C271.698 151.803 271.386 157.269 270.688 161.74C263.351 208.732 262.738 215.56 255.614 215.173C249.671 214.85 223.201 212.887 218.223 207.395C212.488 201.071 216.269 184.899 217.053 177.037C219.2 155.537 219.045 150.008 223.529 146.318C229.914 141.065 244.355 144.792 249.31 145.329C255.512 145.882 261.581 147.448 267.277 149.963Z" fill="white"/>
<path d="M270.111 150.697C266.563 147.524 259.586 146.127 254.87 145.464C239.639 143.319 233.37 141 226.265 143.73C218.846 146.616 218.953 153.2 217.89 161.652C213.378 199.693 210.308 208.082 223.521 211.551C229.822 213.034 254.639 218.997 260.068 215.438C262.933 213.691 263.754 210.66 266.418 196.96C268.752 184.728 272.254 159.187 272.29 156.871C272.386 155.746 272.241 154.614 271.865 153.549C271.489 152.485 270.891 151.513 270.111 150.697ZM220.284 161.948C221.308 154.174 220.752 148.281 227.076 145.765C228.786 145.077 227.672 145.348 226.732 147.03C223.15 153.506 219.508 193.885 219.534 198.403C219.363 201.804 220.054 205.193 221.543 208.256C213.256 205.498 217.178 189.776 220.284 161.948ZM270.195 156.843C270.195 157.098 263.362 210.443 258.718 213.213C257.103 214.245 249.633 213.665 247.845 213.51C240.211 212.642 232.65 211.209 225.227 209.222C220.351 206.388 221.478 196.212 222.114 190.278C227.195 145.204 225.864 144.244 239.83 145.107C261.132 148.269 270.436 148.962 270.187 156.843H270.195Z" fill="black"/>
<path d="M266.802 157.603C266.606 153.35 261.259 152.153 256.928 151.458C249.678 150.264 248.638 154.427 248.402 161.695C248.338 163.661 247.227 167.483 252.487 169.446C255.284 170.338 258.173 170.908 261.099 171.142C261.958 171.166 262.804 170.925 263.521 170.452C264.239 169.979 264.794 169.297 265.11 168.498C266.011 164.927 266.578 161.28 266.802 157.603ZM264.69 160.767C263.211 168.732 264.002 170.012 257.232 168.446C249.821 166.67 250.34 166.078 250.495 161.788C250.676 155.734 250.751 152.292 256.687 153.142C259.039 153.229 261.346 153.819 263.45 154.874C265.655 156.312 265.211 157.959 264.69 160.76V160.767Z" fill="black"/>
<path d="M254.952 158.004C254.373 157.964 253.801 158.153 253.36 158.53C252.918 158.907 252.642 159.442 252.591 160.02C252.54 160.598 252.717 161.173 253.084 161.623C253.45 162.072 253.978 162.361 254.555 162.426C255.134 162.467 255.706 162.278 256.148 161.9C256.59 161.523 256.866 160.987 256.916 160.409C256.967 159.831 256.79 159.257 256.423 158.808C256.056 158.358 255.528 158.07 254.952 158.004Z" fill="black"/>
<path d="M260.722 156.294C260.142 156.254 259.57 156.443 259.129 156.82C258.687 157.198 258.411 157.733 258.36 158.312C258.309 158.89 258.486 159.464 258.853 159.914C259.22 160.363 259.748 160.651 260.324 160.716C260.757 160.747 261.188 160.649 261.566 160.437C261.944 160.225 262.251 159.906 262.45 159.521C262.649 159.136 262.731 158.701 262.685 158.27C262.64 157.839 262.469 157.431 262.194 157.096C261.827 156.646 261.298 156.359 260.722 156.294Z" fill="black"/>
<path d="M259.279 161.893C258.699 161.853 258.127 162.041 257.685 162.418C257.242 162.795 256.966 163.33 256.913 163.908C256.861 164.487 257.038 165.063 257.405 165.513C257.773 165.963 258.302 166.251 258.879 166.315C259.459 166.354 260.031 166.165 260.472 165.789C260.914 165.412 261.191 164.877 261.244 164.299C261.298 163.72 261.121 163.144 260.754 162.693C260.386 162.243 259.856 161.955 259.279 161.891V161.893Z" fill="black"/>
<path d="M239.871 182.372C240.525 182.933 243.6 185.251 244.562 185.17C246.353 184.878 248.1 184.358 249.759 183.622C251.153 182.802 250.64 179.766 249.168 180.141C248.119 180.313 247.941 180.327 247.601 180.11C247.227 179.809 246.965 179.391 246.855 178.924C246.745 178.457 246.794 177.966 246.994 177.53C247.412 176.768 248.282 176.154 248.158 175.332C247.787 174.221 247.262 173.167 246.598 172.201C246.373 171.988 239.654 179.159 239.202 181.092C239.02 181.684 239.572 182.119 239.871 182.372ZM242.967 183.332C242.12 182.806 241.309 182.226 240.539 181.594C240.109 181.228 239.357 181.218 244.782 181.044C244.183 184.85 244.82 184.506 242.959 183.333L242.967 183.332ZM249.207 182.764C247.732 183.407 246.177 183.858 244.586 184.104C244.749 183.502 244.985 182.42 245.248 181.071C245.552 181.125 248.225 182.179 248.516 182.289C249.434 182.637 249.51 182.559 249.199 182.766L249.207 182.764ZM247.228 174.879C247.369 175.366 247.513 175.395 247.209 175.8C246.72 176.422 245.432 177.408 245.874 179.1C246.39 180.913 247.462 181.446 248.664 181.25C249.541 181.108 249.414 181.004 249.524 181.536C249.596 181.818 249.596 182.114 249.524 182.396C248.181 181.687 246.788 181.08 245.355 180.58C247.222 170.676 246.151 171.192 247.219 174.881L247.228 174.879ZM246.368 172.779C243.645 182.705 247.259 179.849 240.322 180.942C240.926 179.529 244.575 175.738 246.356 172.781L246.368 172.779Z" fill="black"/>
<path d="M250.522 184.532C249.602 184.613 250.694 184.35 244.451 186.13C243.63 186.223 241.298 184.525 240.667 183.997C238.395 182.086 238.936 181.089 238.659 182.855C238.269 185.344 242.297 194.171 243.131 193.817C245.821 192.668 251.62 184.36 250.522 184.532ZM242.899 193.313C242.277 191.397 241.38 189.814 239.817 184.606C244.669 188.827 244.081 185.198 243.269 190.181C243.085 191.216 242.961 192.262 242.899 193.313ZM248.305 186.937C246.109 189.997 243.943 192.368 243.188 193.347C243.959 190.509 243.983 187.267 244.157 187.217C244.657 187.145 245.149 187.024 245.625 186.856C249.98 185.612 249.323 185.519 248.305 186.937Z" fill="black"/>
<path d="M221.181 259.969C221.074 269.835 221.541 290.185 231.157 292.615C232.829 292.897 234.546 292.709 236.117 292.071C237.689 291.433 239.051 290.371 240.053 289.003C242.012 286.237 243.431 283.126 244.234 279.834C248.134 267.298 251.666 257.852 250.793 248.672C250.528 245.9 248.791 248.112 233.336 245.802C230.319 245.351 227.02 243.813 224 243.8C220.503 243.775 221.339 245.387 221.181 259.969Z" fill="white"/>
<path d="M253.522 201.306C254.776 200.25 255.825 198.973 256.618 197.539C262.177 189.79 277.791 188.507 272.614 199.154C264.447 215.972 260.856 225.227 252.724 230.114C272.445 253.126 228.62 249.517 219.497 240.89C218.705 240.132 218.073 239.223 217.639 238.216C217.205 237.209 216.978 236.126 216.971 235.03C216.964 233.934 217.177 232.847 217.597 231.835C218.018 230.823 218.638 229.905 219.419 229.137C220.466 228.11 221.769 227.384 223.193 227.035C218.515 224.999 215.135 220.313 212.164 216.165C210.607 214.339 209.664 212.069 209.469 209.677C209.495 207.295 211.466 204.797 213.831 205.091C212.229 203.601 210.925 201.819 209.989 199.84C209.537 198.843 209.374 197.739 209.517 196.654C209.661 195.569 210.105 194.545 210.801 193.7C212.99 191.441 216.717 192.209 219.722 193.139C216.881 191.808 216.471 187.449 218.568 185.115C219.703 184.024 221.136 183.295 222.686 183.019C224.236 182.743 225.833 182.934 227.275 183.567C229.259 184.479 231.1 185.676 232.737 187.121C239.389 192.242 246.329 196.978 253.522 201.306Z" fill="white"/>
<path d="M275.769 195.272C273.93 186.009 258.045 188.564 252.804 200.062C237.379 190.946 230.383 178.426 221.911 180.843C220.27 181.165 218.786 182.029 217.694 183.295C216.603 184.562 215.968 186.158 215.891 187.827C215.844 191.367 217.119 188.636 212.678 189.771C207.924 190.898 205.246 197.943 211.312 204.166C210.308 204.645 209.438 205.365 208.778 206.261C208.118 207.156 207.689 208.201 207.528 209.302C206.73 215.435 215.048 222.805 220.051 226.502C214.31 229.214 213.89 238.886 220.038 243.342C219.391 255.697 219.578 268.082 220.598 280.412C222.864 295.343 233.108 298.3 239.374 292.046C247.723 283.712 252.492 261.695 252.176 248.9C256.81 247.584 259.663 244.517 259.52 239.649C259.413 238.027 259.061 236.43 258.476 234.912C257.65 233.072 256.36 231.477 254.734 230.284C264.223 224.334 267.401 212.095 273.124 202.398C274.66 199.893 276.024 198.196 275.769 195.272ZM228.602 289.282C226.433 287.194 225.015 282.804 224.511 279.767C223.651 274.55 222.833 252.479 222.774 244.894C227.533 247.052 242.355 250.294 249.434 249.431C248.75 264.452 239.066 299.461 228.602 289.273V289.282ZM271.927 196.23C271.856 197.754 270.131 199.228 267.214 205.377C263.346 213.4 259.966 223.287 253.198 228.02C245.174 233.948 238.86 232.351 238.774 233.277C238.672 233.908 245.017 235.071 251.983 231.792C256.393 234.46 256.914 240.556 255.079 242.917C251.032 248.421 233.486 244.058 226.871 242.216C220.896 240.518 219.272 237.96 219.1 234.132C219.048 233.552 219.073 232.969 219.174 232.396C219.317 231.403 219.795 230.489 220.529 229.806C221.263 229.122 222.209 228.711 223.209 228.64C230.906 233.418 237.931 234.025 237.988 233.18C238.17 231.985 226.837 230.53 213.97 215.595C211.942 213.151 209.919 209.823 212.311 207.718C212.759 207.327 213.995 206.584 214.453 206.959C225.132 215.611 233.889 217.597 234.272 216.565C234.807 215.141 220.282 207.601 213.992 201.099C213.161 200.403 212.541 199.489 212.202 198.459C211.862 197.429 211.818 196.325 212.072 195.272C214.226 189.057 223.497 200.538 234.388 204.792C237.396 205.986 239.426 206.256 239.639 205.753C240.304 204.205 220.547 193.182 219.75 189.769C218.579 185.192 223.115 183.405 226.677 185.069C231.52 187.324 244.599 201.381 257.135 204.066C259.142 204.505 260.298 204.438 260.346 204.188C260.406 203.844 258.645 203.199 255.776 201.713C260.437 192.079 272.13 191.866 271.927 196.221V196.23Z" fill="black"/>
<path d="M38.1126 302.535C41.833 308.443 45.7184 309.436 51.7006 307.915C67.8686 303.806 78.2918 289.723 78.2316 283.883C78.1921 280.099 73.8766 274.356 71.5236 272.449C67.2718 269.009 61.0419 268.956 55.9318 270.901C50.8217 272.846 46.5767 276.506 42.4419 280.087C33.2433 288.066 31.2567 291.644 38.1126 302.535Z" fill="#FDFE1F"/>
<path d="M79.3853 282.305C79.0086 276.708 72.9301 271.051 68.6714 269.265C58.8674 265.041 35.2243 278.6 32.947 291.596C32.3501 297.938 38.2532 313.956 54.6637 308.679C65.1729 305.222 80.4345 293.299 79.3853 282.305ZM66.0346 271.592C68.7987 273.583 66.96 278.674 65.3002 281.62C61.1343 289.071 42.3227 301.35 37.1541 294.511C31.4833 286.914 54.6173 268.84 66.0346 271.599V271.592ZM37.0681 296.914C39.4899 298.817 43.3581 298.579 46.344 297.864C49.3747 301.304 50.1384 300.974 51.7999 305.776C44.0668 307.528 40.0282 304.138 37.0681 296.914ZM54.0135 305.117C50.2192 300.323 51.7019 302.215 49.084 297.009C52.2803 295.701 55.2881 293.974 58.028 291.871C62.4398 296.562 61.296 293.908 64.2338 299.563C61.0925 301.866 57.6547 303.734 54.0135 305.117ZM66.1963 298.074C60.9881 293.376 62.9679 294.42 60.2795 290.15C62.8644 288.233 65.0875 285.872 66.8447 283.177C68.1399 283.933 69.3697 284.797 70.5221 285.757C71.8276 287.021 72.9456 289.167 73.7351 289.998C71.682 293.085 69.1351 295.813 66.1963 298.074ZM75.0818 287.423C73.7967 286.648 72.5658 285.786 71.3976 284.843C70.0938 283.536 68.938 281.367 68.1468 280.564C69.28 278.243 69.6462 275.621 69.1925 273.079C74.5142 276.706 77.593 281.445 75.0818 287.423Z" fill="black"/>
<path d="M267.814 130.825C272.522 125.003 270.726 121.938 267.26 89.2389C266.918 86.032 265.404 83.0646 263.008 80.9059C260.612 78.7473 257.503 77.5497 254.278 77.5429C253.296 77.5429 255.826 77.3055 220.892 81.0069C217.447 81.3735 214.289 83.0929 212.111 85.7872C209.933 88.4816 208.914 91.9304 209.277 95.3758C212.889 129.516 212.019 131.324 216.954 135.73C218.312 136.95 219.912 137.87 221.649 138.431C223.386 138.993 225.221 139.183 227.036 138.99C260.028 135.503 263.263 136.448 267.814 130.825Z" fill="white"/>
<path d="M271.631 121.14L268.239 89.1358C267.842 85.4323 265.992 82.0376 263.095 79.6965C260.198 77.3555 256.491 76.2593 252.786 76.6486L220.794 80.037C217.091 80.4335 213.696 82.2832 211.354 85.1803C209.013 88.0773 207.916 91.7849 208.306 95.4895C211.773 128.204 210.789 132.045 216.835 136.941C222.855 141.804 225.726 140.137 259.147 136.597C262.851 136.199 266.245 134.348 268.586 131.45C270.926 128.552 272.021 124.844 271.631 121.14ZM226.018 82.2334C255.587 79.0996 253.423 79.3094 254.278 79.3094C257.069 79.3137 259.76 80.3484 261.835 82.2148C263.91 84.0813 265.223 86.6482 265.521 89.423L268.387 116.468C268.087 119.088 266.905 121.529 265.034 123.387C263.163 125.246 260.715 126.412 258.093 126.694L233.54 129.296C231.261 129.539 228.961 129.099 226.933 128.034C224.904 126.968 223.237 125.324 222.143 123.31C221.417 121.974 220.961 120.508 220.801 118.995C218.098 93.4788 216.713 90.8799 220.71 85.9366C222.089 84.2201 223.931 82.9349 226.018 82.2334ZM258.853 133.868C209.353 139.116 216.207 144.176 211.018 95.2022C210.713 92.2857 211.55 89.3643 213.354 87.0523C215.158 84.7403 217.788 83.2177 220.691 82.8045C213.565 89.0154 216.034 94.8445 218.617 119.225C218.973 122.605 220.567 125.733 223.091 128.008C225.615 130.284 228.891 131.546 232.289 131.551C233.35 131.551 231.601 131.702 258.323 128.87C260.532 128.638 262.652 127.875 264.502 126.646C266.352 125.416 267.876 123.756 268.944 121.809C269.15 124.734 268.214 127.625 266.332 129.874C264.45 132.123 261.769 133.555 258.853 133.868Z" fill="black"/>
<path d="M245.053 122.859C244.709 122.589 239.504 118.088 234.104 113.448C233.823 113.207 233.677 113.571 237.009 109.122C237.227 108.829 237.065 108.884 237.8 109.521C244.828 115.592 244.117 115.18 244.42 114.774C249.522 107.935 249.597 107.827 249.781 107.594L253.851 111.084L245.053 122.859Z" fill="black"/>
<path d="M236.539 103.267L232.473 99.7803L241.245 88.0293L252.359 97.5942L249.148 101.877C246.848 99.9017 244.551 97.9226 242.258 95.9396C241.967 95.6833 238.544 100.707 236.539 103.267Z" fill="black"/>
<path d="M242.737 101.504L246.817 105.014L243.58 109.345L239.512 105.831L242.737 101.504Z" fill="black"/>
<path d="M230.118 102.948L234.141 106.415L230.955 110.67L226.951 107.205L230.118 102.948Z" fill="black"/>
<path d="M252.156 104.456C255.691 99.7294 255.319 100.092 255.491 100.24C259.619 103.785 259.523 103.551 259.311 103.832C256.043 108.169 256.3 108.046 256.054 107.834C254.229 106.255 252.359 104.669 252.156 104.456Z" fill="black"/>
<path d="M235.362 55.7419C229.972 29.1662 230.501 25.8432 224.6 21.9336C223.172 20.9818 221.57 20.3225 219.885 19.9939C218.201 19.6653 216.468 19.6739 214.787 20.0193C188.21 25.4097 184.889 24.8817 180.977 30.7813C177.161 36.5416 178.741 39.008 184.245 66.1118C184.843 69.061 186.439 71.714 188.765 73.6231C191.091 75.5323 194.004 76.5808 197.013 76.5918C198.879 76.5918 197.73 76.7139 225.156 71.1514C228.552 70.4608 231.535 68.4496 233.449 65.5599C235.363 62.6703 236.051 59.1388 235.362 55.7419Z" fill="white"/>
<path d="M236.327 55.5479C231.339 30.9364 231.771 25.5029 225.147 21.1135C218.688 16.8324 215.028 18.9669 189.077 24.2301C187.268 24.5948 185.549 25.3128 184.017 26.343C182.486 27.3731 181.173 28.6951 180.154 30.2334C179.134 31.7717 178.428 33.4959 178.076 35.3074C177.724 37.1189 177.733 38.9821 178.102 40.7903L183.275 66.3065C183.924 69.4794 185.647 72.3317 188.153 74.3826C190.66 76.4335 193.797 77.5577 197.035 77.5656C199.051 77.5656 198.036 77.6464 225.348 72.108C228.073 71.5588 230.573 70.2129 232.532 68.2408C234.49 66.2688 235.819 63.7595 236.349 61.0312C236.702 59.2198 236.695 57.3564 236.327 55.5479ZM192.68 26.289C216.867 21.3852 215.79 21.5091 217.386 21.5091C219.995 21.513 222.523 22.4169 224.542 24.0683C226.562 25.7197 227.95 28.0174 228.472 30.5735L233.025 53.0281C232.757 55.5363 231.699 57.8943 230.002 59.7608C228.305 61.6273 226.058 62.9053 223.587 63.41L204.633 67.2559C203.106 67.5659 201.533 67.5721 200.005 67.2741C198.476 66.9761 197.021 66.3797 195.722 65.5191C194.424 64.6585 193.308 63.5504 192.438 62.2583C191.568 60.9662 190.961 59.5153 190.652 57.9886L186.798 39.0273C186.299 36.5545 186.6 33.987 187.657 31.6968C188.715 29.4065 190.474 27.5125 192.68 26.289ZM231.989 64.5899C228.537 69.7964 225.909 69.2081 199.292 74.602C196.352 75.1955 193.296 74.5981 190.795 72.941C188.295 71.2838 186.554 68.7023 185.955 65.763L180.78 40.2485C180.206 37.4275 180.73 34.494 182.245 32.0459C183.759 29.5978 186.15 27.8194 188.931 27.0733C187.338 28.6495 186.163 30.597 185.51 32.7404C184.856 34.8838 184.747 37.1559 185.19 39.3524L189.036 58.3136C189.653 61.3627 191.304 64.1051 193.71 66.0773C196.116 68.0495 199.129 69.1305 202.24 69.1376C204.084 69.1376 203.294 69.2012 223.912 65.0182C226.109 64.5722 228.159 63.5863 229.879 62.1494C231.599 60.7126 232.935 58.87 233.764 56.788C234.152 59.5184 233.52 62.2958 231.989 64.5899Z" fill="black"/>
<path fill-rule="evenodd" clip-rule="evenodd" d="M211.652 44.9612C211.541 44.9936 210.964 45.1522 209.659 45.4282C208.622 45.6476 207.878 45.7723 207.617 45.8148C203.571 46.4866 200.43 46.4217 200.254 45.5861C200.077 44.7504 202.922 43.4203 206.894 42.3929L207.47 45.1196C207.737 45.083 208.497 44.9685 209.534 44.7491C210.779 44.4857 211.392 44.3019 211.502 44.2678L210.925 41.542C214.964 40.8739 218.097 40.9402 218.274 41.7739C218.45 42.6077 215.613 43.9371 211.648 44.961L211.652 44.9612ZM210.869 41.2592L210.353 38.8193L215.937 37.6381L215.149 33.9173L199.947 37.1332L200.735 40.854L206.317 39.673L206.833 42.1121C202.34 43.2804 199.117 44.9012 199.345 45.9783C199.573 47.0553 203.175 47.2314 207.757 46.4808L209.411 54.2997L213.446 53.4461L211.792 45.6244C216.275 44.4583 219.492 42.8397 219.264 41.7635C219.036 40.6874 215.442 40.5096 210.868 41.2585L210.869 41.2592Z" fill="black"/>
<path d="M133.823 2.04872C125.61 4.20216 122.621 14.787 121.479 23.1927C118.347 46.2596 117.208 47.6717 151.973 52.615C155.439 53.1599 158.98 52.3093 161.821 50.2495C164.662 48.1897 166.571 45.0883 167.131 41.6242C170.753 17.0626 170.839 17.3911 170.614 15.7451C170.205 12.7798 166.154 7.52004 163.942 6.20768C160.696 4.283 139.15 0.652084 133.823 2.04872Z" fill="white"/>
<path d="M169.11 9.09062C164.547 2.97601 160.121 3.63134 137.897 0.413215C134.21 -0.116877 130.463 0.837381 127.479 3.06657C124.495 5.29576 122.518 8.61777 121.98 12.3036L118.791 34.28C118.262 37.9667 119.217 41.7128 121.446 44.6967C123.675 47.6805 126.996 49.6586 130.682 50.1969C153.386 53.4838 157.113 55.1849 163.081 50.7301C169.344 46.0483 168.694 40.687 171.759 19.5087C172.027 17.6831 171.932 15.8224 171.478 14.0339C171.023 12.246 170.218 10.566 169.11 9.09062ZM124.68 12.7026C124.893 11.2321 125.393 9.81778 126.152 8.54058C126.911 7.26337 127.915 6.14829 129.105 5.25906C130.295 4.36983 131.649 3.72387 133.089 3.3581C134.529 2.99234 136.028 2.91394 137.498 3.12738L156.875 5.9327C159.146 7.03035 161.009 8.82189 162.194 11.0482C163.379 13.2744 163.825 15.82 163.468 18.3167C161.248 33.6557 161.676 38.1311 156.533 41.9719C151.39 45.8143 147.599 44.1872 131.884 41.9134C129.389 41.5522 127.073 40.4057 125.273 38.6401C123.473 36.8746 122.283 34.5817 121.873 32.0939L124.68 12.7026ZM169.056 19.1268C165.788 41.6829 166.464 44.803 161.449 48.5388C156.392 52.3228 153.365 50.7163 131.081 47.4896C128.334 47.0891 125.831 45.6944 124.045 43.5701C122.259 41.4458 121.315 38.7398 121.392 35.9656C125.289 44.115 131.732 43.5474 147.505 45.8212C149.26 46.0801 151.048 45.9884 152.768 45.5514C154.487 45.1145 156.102 44.341 157.52 43.2756C162.981 39.1941 162.594 35.8401 165.097 18.542C165.415 16.3386 165.183 14.0908 164.423 11.9986C163.662 9.90641 162.396 8.03473 160.737 6.55018C163.425 7.25783 165.758 8.93046 167.292 11.2489C168.826 13.5673 169.452 16.3692 169.051 19.1199L169.056 19.1268Z" fill="black"/>
<g clip-path="url(#clip0_7047_203081)">
<path d="M149.032 20.1901C148.647 19.967 148.152 19.967 147.712 20.1901L144.632 22.0308L142.541 23.2021L139.516 25.0428C139.131 25.2659 138.636 25.2659 138.196 25.0428L135.83 23.5926C135.445 23.3695 135.17 22.9232 135.17 22.4212V19.6324C135.17 19.1862 135.39 18.7399 135.83 18.461L138.196 17.0666C138.581 16.8435 139.076 16.8435 139.516 17.0666L141.881 18.5168C142.266 18.7399 142.541 19.1862 142.541 19.6882V21.5288L144.632 20.3017V18.4053C144.632 17.959 144.412 17.5128 143.971 17.2339L139.571 14.6124C139.186 14.3893 138.691 14.3893 138.251 14.6124L133.74 17.2897C133.3 17.5128 133.08 17.959 133.08 18.4053V23.6484C133.08 24.0946 133.3 24.5408 133.74 24.8197L138.196 27.4412C138.581 27.6643 139.076 27.6643 139.516 27.4412L142.541 25.6563L144.632 24.4292L147.657 22.6444C148.042 22.4212 148.537 22.4212 148.977 22.6444L151.342 24.0388C151.727 24.2619 152.002 24.7081 152.002 25.2101V27.999C152.002 28.4452 151.782 28.8914 151.342 29.1703L149.032 30.5648C148.647 30.7879 148.152 30.7879 147.712 30.5648L145.347 29.1703C144.962 28.9472 144.687 28.501 144.687 27.999V26.2141L142.596 27.4412V29.2819C142.596 29.7281 142.816 30.1743 143.256 30.4532L147.712 33.0747C148.097 33.2979 148.592 33.2979 149.032 33.0747L153.488 30.4532C153.873 30.2301 154.148 29.7839 154.148 29.2819V23.983C154.148 23.5368 153.928 23.0906 153.488 22.8117L149.032 20.1901Z" fill="black"/>
</g>
<path d="M230.878 307.793C234.972 313.147 245.82 323.138 252.968 323.699C280.464 325.861 309.398 284.561 301.842 266.736C299.649 262.28 288.851 253.938 285.113 251.925C263.823 240.628 230.704 271.595 227.753 295.244C227.094 299.675 228.217 304.188 230.878 307.793Z" fill="#FDFE1F"/>
<path d="M302.83 266.583C301.584 264.09 299.766 261.925 297.526 260.266C292.256 255.51 285.517 249.33 278.382 248.754C258.249 246.045 236.144 267.567 228.738 287.077C226.482 292.433 226.1 298.394 227.656 303.993C231.254 311.905 243.568 322.103 249.73 324.095C252.981 325.199 258.525 324.831 262.159 324.002C288.448 317.47 309.37 281.67 302.83 266.583ZM300.032 279.311C296.437 277.841 297.058 277.729 294.321 275.159C296.132 268.739 295.708 264.943 294.775 261.926C298.716 265.539 302.711 267.891 300.032 279.311ZM230.31 303.023C224.305 281.62 254.839 248.126 278.036 251.595C283.005 252.065 287.916 255.854 291.703 259.163C302.687 278.242 263.444 322.778 239.587 313.945C235.789 310.969 232.633 307.253 230.31 303.023ZM242.917 316.598C247.071 317.428 251.367 317.191 255.405 315.91C258.052 317.802 258.932 317.232 261.708 320.825C252.302 323.306 247.804 320.186 242.917 316.598ZM264.125 320.096C260.657 317.795 260.897 318.617 257.943 314.981C262.436 313.009 266.646 310.449 270.463 307.366C273.043 309.105 273.404 307.748 277.782 312.284C273.723 315.668 269.1 318.313 264.125 320.096ZM279.605 310.769C274.402 308.24 276.297 309.379 272.491 305.708C276.85 301.996 280.826 297.856 284.359 293.35C288.234 295.462 287.472 293.835 291.482 297.721C288.065 302.533 284.078 306.915 279.608 310.769H279.605ZM292.677 295.977C287.589 293.9 288.931 293.699 285.919 291.284C289.081 287.046 291.651 282.396 293.558 277.464C295.891 278.175 297.95 279.586 299.455 281.506C297.926 286.64 295.641 291.517 292.674 295.977H292.677Z" fill="black"/>
<path d="M239.204 308.054C258.832 320.715 299.896 275.428 285.893 259.867C276.898 249.643 258.06 258.966 248.812 268.701C245.769 271.907 249.648 268.436 252.802 266.086C271.657 252.204 286.28 255.911 286.497 267.086C286.954 285.125 261.925 308.502 246.478 308.25C232.761 308.151 231.553 291.582 243.562 275.237C245.979 272.044 249.44 268.278 246.213 271.27C235.306 281.346 228.024 300.755 239.204 308.054Z" fill="black"/>
<path d="M253.276 297.388C258.774 297.711 254.697 291.917 261.351 286.868C265.87 283.446 267.399 285.58 271.114 281.839C275.542 277.228 277.626 280.893 275.977 276.115C275.159 273.794 274.329 274.336 272.95 274.874C272.43 275.121 271.856 275.231 271.281 275.193C270.707 275.156 270.152 274.971 269.669 274.658C264.362 272.675 255.46 275.172 250.763 282.661C246.014 290.412 249.51 297.253 253.276 297.388ZM274.296 275.895C274.599 276.461 274.773 277.088 274.805 277.731C273.048 278.351 274.45 278.232 273.308 276.223C273.63 276.094 273.96 275.985 274.296 275.895ZM269.202 275.86C270.132 276.42 271.227 276.644 272.302 276.494C272.407 277.191 272.691 277.849 273.127 278.403C268.778 280.442 270.858 281.66 265.719 282.93C263.331 283.466 261.127 284.625 259.331 286.288C257.536 287.952 256.213 290.061 255.496 292.402C254.635 296.043 255.546 293.923 253.61 293.235C253.166 293.105 252.695 293.093 252.244 293.201C251.793 293.309 251.379 293.532 251.041 293.849C246.277 284.964 259.883 272.047 269.202 275.86ZM251.373 294.386C252.916 294.179 253.662 294.07 254.503 295.508C253.932 295.713 253.308 295.713 252.737 295.508C252.166 295.304 251.684 294.907 251.373 294.386Z" fill="black"/>
<path d="M253.473 290.749C253.756 289.547 254.191 288.386 254.766 287.293C255.762 288.261 256.977 288.974 258.307 289.369C259.158 289.687 259.097 289.851 263.564 296.352C264.891 295.504 271.631 291.249 272.813 290.172C273.102 289.91 273.437 289.982 270.15 285.046C268.228 282.156 268.71 283.203 266.641 282.156C265.444 281.548 264.438 280.62 263.737 279.475C266.518 278.209 268.169 278.127 268.16 277.813C268.153 277.432 265.75 277.358 263.201 278.443C262.799 277.35 262.593 276.195 262.593 275.031C262.451 273.881 262.12 273.612 257.384 267.058C244.843 275.08 245.74 275.048 257.097 268.457C261.127 274.32 261.34 274.393 261.428 275.2C261.428 276.557 261.706 277.899 262.246 279.144C263.061 280.879 264.457 282.275 266.192 283.09C268.319 284.073 267.636 283.104 269.459 285.513C273.412 291.017 272.875 289.739 272.826 289.95C272.79 290.117 274.116 288.978 263.868 294.939C260.343 289.569 259.951 288.736 258.759 288.298C257.615 287.975 256.563 287.386 255.69 286.579C254.816 285.772 254.146 284.771 253.733 283.656C253.444 282.616 253.264 281.548 253.197 280.471C252.725 278.727 243.707 266.951 250.948 278.332C251.523 279.024 251.964 279.816 252.246 280.671C252.194 282.693 252.784 284.68 253.93 286.346C252.235 289.41 252.569 292.622 252.888 292.626C253.065 292.621 253.195 291.883 253.473 290.749Z" fill="black"/>
<path d="M11.5937 116.725C18.4892 121.132 29.2116 125.962 35.8749 125.975C37.2424 125.92 38.5977 125.695 39.91 125.306C66.9811 118.217 81.823 66.9055 67.5625 53.8456C65.7547 52.3156 63.6694 51.1477 61.4204 50.4056C54.1826 47.2167 46.9724 43.916 39.6847 45.4176C10.154 51.4668 -5.49108 105.803 11.5937 116.725Z" fill="#FDFE1F"/>
<path d="M65.4702 51.1775C64.2799 50.5515 53.6486 45.5394 47.2382 44.4059C18.7894 39.1565 -5.96144 93.2935 6.899 112.931C11.3504 119.726 23.6638 124.673 31.667 126.414C63.0088 133.352 87.3658 62.7755 65.4702 51.1775ZM70.3808 67.2217C66.3938 66.9465 66.9631 66.63 63.4904 65.0201C62.9125 52.0358 57.1161 50.8559 60.5286 52.3919C64.6033 54.2581 69.3281 55.4259 70.3808 67.2217ZM11.8646 114.432C1.8594 106.04 4.89348 75.433 23.4454 56.8707C27.9289 52.1281 33.7143 48.8166 40.0744 47.3523C45.0624 46.2085 51.0514 48.312 55.7986 50.3055C72.6064 65.3108 48.8188 121.268 22.7402 120.351C18.8911 118.82 15.2398 116.833 11.8646 114.432ZM26.839 121.863C31.1453 121.333 35.2472 119.721 38.762 117.177C41.7944 118.113 42.6664 117.363 46.4745 119.929C38.0964 125.349 32.8039 123.798 26.839 121.861V121.863ZM48.5884 118.44C44.481 117.324 44.9437 118.024 40.9292 115.454C44.6637 112.091 47.9341 108.247 50.6541 104.021C53.6434 104.855 53.5987 103.424 59.3538 106.446C56.4983 111.045 52.854 115.105 48.5884 118.438V118.44ZM60.6421 104.386C54.7305 103.6 56.6534 103.942 52.0954 101.754C55.1414 96.7418 57.6767 91.4366 59.6634 85.9181C63.2118 86.5614 62.9538 85.4348 67.9968 87.8755C66.2211 93.6552 63.7515 99.1985 60.6421 104.384V104.386ZM68.5885 85.796C67.4018 85.7499 66.2206 85.6107 65.0556 85.3797C63.4457 84.9222 61.6156 83.8197 60.5062 83.4086C62.2173 78.2699 63.2195 72.9219 63.4853 67.5124C65.9836 67.4523 68.4402 68.1601 70.5235 69.5403C70.6901 75.0243 70.0379 80.5026 68.5885 85.7943V85.796Z" fill="black"/>
<path d="M17.0485 113.182C18.6881 114.221 20.5415 114.876 22.47 115.096C24.3984 115.317 26.3518 115.098 28.1837 114.457C52.6731 107.037 69.7269 50.7395 43.2957 51.1885C27.9275 51.5583 15.8462 74.6217 16.5514 74.9795C17.0674 75.253 21.3519 65.0792 32.3857 56.8937C38.9785 52.045 45.726 52.1929 49.424 54.4496C54.8076 57.6299 55.272 68.0376 54.0955 74.6131C51.8582 85.4395 46.9262 95.5265 39.7559 103.941C22.4837 123.619 4.78141 110.305 14.1589 81.4295C15.5125 77.4632 16.5531 75.3665 16.3949 75.2874C15.1719 74.6682 2.58842 103.449 17.0485 113.182Z" fill="black"/>
<g clip-path="url(#clip1_7047_203081)">
<path d="M46.6867 78.0464L45.7574 75.9665L44.9741 77.6743L46.5126 78.4259L46.6867 78.0464Z" fill="black"/>
<path d="M45.8249 83.5306L45.0505 81.6137L46.5126 78.4259L47.3392 80.229L45.8249 83.5306Z" fill="black"/>
<path d="M45.0505 81.6137L41.8248 80.1341L42.8268 82.1555L45.8249 83.5306L45.0505 81.6137Z" fill="black"/>
<path d="M44.3992 86.138L43.6186 84.0345L40.5724 90.6757L41.4227 92.6274L44.3992 86.138Z" fill="black"/>
<path d="M39.9426 91.9485L39.0544 89.9794L40.5724 90.6757L41.4227 92.6274L39.9426 91.9485Z" fill="black"/>
<path d="M38.3408 91.5353L39.0544 89.9794L39.9426 91.9485L39.1768 93.6183L38.3408 91.5353Z" fill="black"/>
<path d="M38.3408 91.5353L31.8514 88.5588L32.4217 90.5199L39.1768 93.6183L38.3408 91.5353Z" fill="black"/>
<path d="M32.5554 87.0238L31.8514 88.5588L30.9995 86.3101L32.5554 87.0238Z" fill="black"/>
<path d="M39.3088 85.3189L38.7518 86.5333L38.2082 84.8141L39.3088 85.3189Z" fill="black"/>
<path d="M36.1629 86.7698L34.9105 86.1954L39.1752 76.8977L39.9053 78.6106L36.1629 86.7698Z" fill="black"/>
<path d="M39.9053 78.6106L39.1752 76.8977L42.5907 78.4643L42.0685 79.6028L39.9053 78.6106Z" fill="black"/>
<path d="M45.7574 75.9665L39.0024 72.8681L38.2191 74.5759L36.7011 73.8796L30.9995 86.3101L32.5554 87.0238L31.8514 88.5588L38.3408 91.5353L39.0544 89.9794L40.5724 90.6757L43.6186 84.0345L39.4441 82.1197L38.2082 84.8141L39.3088 85.3189L38.2122 87.7098L34.9105 86.1954L39.1752 76.8977L42.5907 78.4643L41.8248 80.1341L45.0505 81.6137L46.5126 78.4259L44.9741 77.6743L45.7574 75.9665Z" fill="url(#paint0_linear_7047_203081)"/>
<path d="M45.7574 75.9665L46.6867 78.0464L46.5126 78.4259M45.7574 75.9665L44.9741 77.6743L46.5126 78.4259M45.7574 75.9665L39.0024 72.8681L38.2191 74.5759L36.7011 73.8796L30.9995 86.3101M46.5126 78.4259L47.3392 80.229L45.8249 83.5306M46.5126 78.4259L45.0505 81.6137M45.0505 81.6137L45.8249 83.5306M45.0505 81.6137L41.8248 80.1341M45.8249 83.5306L42.8268 82.1555L41.8248 80.1341M41.8248 80.1341L42.5907 78.4643M43.6186 84.0345L44.3992 86.138L41.4227 92.6274M43.6186 84.0345L40.5724 90.6757M43.6186 84.0345L39.4441 82.1197L38.2082 84.8141M41.4227 92.6274L40.5724 90.6757M41.4227 92.6274L39.9426 91.9485M40.5724 90.6757L39.0544 89.9794M39.0544 89.9794L39.9426 91.9485M39.0544 89.9794L38.3408 91.5353M39.9426 91.9485L39.1768 93.6183M38.3408 91.5353L39.1768 93.6183M38.3408 91.5353L31.8514 88.5588M39.1768 93.6183L32.4217 90.5199L31.8514 88.5588M31.8514 88.5588L32.5554 87.0238L30.9995 86.3101M31.8514 88.5588L30.9995 86.3101M39.3088 85.3189L38.7518 86.5333L38.2082 84.8141M39.3088 85.3189L38.2082 84.8141M39.3088 85.3189L38.2122 87.7098L34.9105 86.1954M34.9105 86.1954L36.1629 86.7698L39.9053 78.6106M34.9105 86.1954L39.1752 76.8977M39.9053 78.6106L39.1752 76.8977M39.9053 78.6106L42.0685 79.6028L42.5907 78.4643M39.1752 76.8977L42.5907 78.4643" stroke="black" stroke-width="0.250508"/>
<path d="M35.4237 84.7764L33.5254 81.1038L31.1581 86.2649L32.6761 86.9612L31.9624 88.5171L38.3 91.424L39.0137 89.8681L38.2741 87.8753L34.7448 86.2565L35.4237 84.7764Z" fill="black"/>
<path d="M37.8611 79.4659L35.9629 75.7933L34.3615 79.2846L36.3119 82.8434L37.8611 79.4659Z" fill="black"/>
<path d="M38.3752 84.7544L39.5066 82.2877L40.721 82.8447L42.5134 86.1473L40.8946 89.6766L39.1276 86.0182L39.4757 85.2592L38.3752 84.7544Z" fill="black"/>
</g>
<path d="M33.384 74.6045L32.4547 72.5246L31.6714 74.2324L33.2099 74.984L33.384 74.6045Z" fill="black"/>
<path d="M32.5221 80.0887L31.7478 78.1718L33.2099 74.984L34.0365 76.7871L32.5221 80.0887Z" fill="black"/>
<path d="M31.7478 78.1718L28.522 76.6922L29.5241 78.7136L32.5221 80.0887L31.7478 78.1718Z" fill="black"/>
<path d="M31.0965 82.6961L30.3159 80.5926L27.2697 87.2338L28.12 89.1855L31.0965 82.6961Z" fill="black"/>
<path d="M26.6399 88.5066L25.7517 86.5375L27.2697 87.2338L28.12 89.1855L26.6399 88.5066Z" fill="black"/>
<path d="M25.038 88.0934L25.7517 86.5375L26.6399 88.5066L25.874 90.1764L25.038 88.0934Z" fill="black"/>
<path d="M25.038 88.0934L18.5486 85.1169L19.119 87.078L25.874 90.1764L25.038 88.0934Z" fill="black"/>
<path d="M19.2527 83.5819L18.5486 85.1169L17.6968 82.8682L19.2527 83.5819Z" fill="black"/>
<path d="M26.0061 81.877L25.449 83.0914L24.9055 81.3723L26.0061 81.877Z" fill="black"/>
<path d="M22.8601 83.3279L21.6078 82.7535L25.8724 73.4558L26.6026 75.1687L22.8601 83.3279Z" fill="black"/>
<path d="M26.6026 75.1687L25.8724 73.4558L29.2879 75.0224L28.7657 76.1609L26.6026 75.1687Z" fill="black"/>
<path d="M32.4547 72.5246L25.6996 69.4262L24.9163 71.134L23.3983 70.4377L17.6968 82.8682L19.2527 83.5819L18.5486 85.1169L25.038 88.0934L25.7517 86.5375L27.2697 87.2338L30.3159 80.5926L26.1414 78.6778L24.9055 81.3723L26.0061 81.877L24.9094 84.2679L21.6078 82.7535L25.8724 73.4558L29.2879 75.0224L28.522 76.6922L31.7478 78.1718L33.2099 74.984L31.6714 74.2324L32.4547 72.5246Z" fill="black"/>
<path d="M32.4547 72.5246L33.384 74.6045L33.2099 74.984M32.4547 72.5246L31.6714 74.2324L33.2099 74.984M32.4547 72.5246L25.6996 69.4262L24.9163 71.134L23.3983 70.4377L17.6968 82.8682M33.2099 74.984L34.0365 76.7871L32.5221 80.0887M33.2099 74.984L31.7478 78.1718M31.7478 78.1718L32.5221 80.0887M31.7478 78.1718L28.522 76.6922M32.5221 80.0887L29.5241 78.7136L28.522 76.6922M28.522 76.6922L29.2879 75.0224M30.3159 80.5926L31.0965 82.6961L28.12 89.1855M30.3159 80.5926L27.2697 87.2338M30.3159 80.5926L26.1414 78.6778L24.9055 81.3723M28.12 89.1855L27.2697 87.2338M28.12 89.1855L26.6399 88.5066M27.2697 87.2338L25.7517 86.5375M25.7517 86.5375L26.6399 88.5066M25.7517 86.5375L25.038 88.0934M26.6399 88.5066L25.874 90.1764M25.038 88.0934L25.874 90.1764M25.038 88.0934L18.5486 85.1169M25.874 90.1764L19.119 87.078L18.5486 85.1169M18.5486 85.1169L19.2527 83.5819L17.6968 82.8682M18.5486 85.1169L17.6968 82.8682M26.0061 81.877L25.449 83.0914L24.9055 81.3723M26.0061 81.877L24.9055 81.3723M26.0061 81.877L24.9094 84.2679L21.6078 82.7535M21.6078 82.7535L22.8601 83.3279L26.6026 75.1687M21.6078 82.7535L25.8724 73.4558M26.6026 75.1687L25.8724 73.4558M26.6026 75.1687L28.7657 76.1609L29.2879 75.0224M25.8724 73.4558L29.2879 75.0224" stroke="black" stroke-width="0.250508"/>
<path d="M24.5565 76.0206L22.6582 72.3479L17.854 82.822L19.3719 83.5183L18.6583 85.0742L24.9959 87.9811L25.7096 86.4252L27.1896 87.1041L28.6866 83.8404L26.0739 79.1216L25.0705 81.3091L26.1711 81.8138L24.97 84.4324L21.4407 82.8136L24.5565 76.0206Z" fill="#191919"/>
<path d="M25.8097 73.2899L24.5565 76.0223L22.6582 72.3497L23.4589 70.604L24.9769 71.3002L25.7602 69.5925L29.1757 71.1591L32.155 76.9813L31.685 78.0059L28.687 76.6308L29.4529 74.961L25.8097 73.2899Z" fill="black"/>
<path d="M26.2019 78.8441L26.0627 79.1477L28.6691 83.8801L30.1487 80.6544L26.2019 78.8441Z" fill="black"/>
<path d="M17.9755 175.11C14.8795 176.675 5.54166 182.735 3.52753 185.515C-6.85783 199.827 15.6295 245.446 42.9637 246.953C44.261 247.065 45.5672 247.016 46.8526 246.808C52.7918 245.573 66.2542 236.91 69.4827 231.138C80.5165 211.407 46.3366 160.747 17.9755 175.11Z" fill="#FDFE1F"/>
<path d="M27.9351 171.374C20.9553 171.111 13.7073 176.319 8.03299 180.335C5.66407 181.682 3.65044 183.574 2.15919 185.855C-4.56429 197.403 5.80043 228.256 27.7201 242.572C39.7481 250.21 50.13 250.909 66.157 236.438C68.0673 234.902 69.6405 232.989 70.7786 230.817C79.3648 209.548 52.3918 170.989 27.9351 171.374ZM10.5132 182.263C8.88386 186.358 8.50556 190.845 9.42619 195.155C6.52455 197.3 7.05431 197.525 3.40619 198.528C2.13511 187.275 6.16851 185.401 10.5132 182.263ZM3.71579 200.721C5.40245 199.037 7.56248 197.907 9.90779 197.482C11.1891 202.486 13.1455 207.292 15.7231 211.768C12.5755 213.736 13.7503 214.135 8.62639 215.542C6.2632 210.873 4.6082 205.877 3.71579 200.721ZM9.57583 217.372C13.9137 214.07 13.5697 215.32 16.9908 213.953C19.8992 218.731 23.2792 223.206 27.0803 227.31C22.5292 230.767 24.0617 229.856 19.5965 231.399C15.7052 227.144 12.3433 222.435 9.58443 217.372H9.57583ZM21.1927 233.079C26.0087 229.151 26.2271 230.499 28.8587 229.152C32.2067 232.582 35.9958 235.551 40.1265 237.981C36.8585 241.154 37.2025 240.377 33.5389 242.233C28.9185 239.929 24.7395 236.831 21.1927 233.079ZM35.7972 243.227C38.9053 240.054 39.6793 240.716 42.4829 239.183C46.2531 240.893 50.3949 241.615 54.5229 241.287C49.2803 244.249 44.5761 246.717 35.7972 243.222V243.227ZM69.3613 226.743C68.061 231.913 62.9096 235.838 58.0644 239.096C53.4113 240.17 48.5385 239.757 44.1323 237.916C26.5883 230.358 2.29163 195.375 13.807 179.94C23.2 173.534 27.5223 173.404 34.2097 174.929C56.1964 180.512 73.5185 210.224 69.3613 226.737V226.743Z" fill="black"/>
<path d="M59.3238 200.67C58.1973 198.898 56.8812 197.254 55.3988 195.768C54.9602 196.112 62.6555 204.431 64.2791 216.788C66.1711 232.347 53.9591 238.344 39.0313 227.003C30.7238 220.507 24.1911 212.018 20.039 202.324C17.6929 196.43 16.1363 186.586 20.555 182.591C23.5857 179.775 29.843 178.346 36.9449 181.626C49.58 187.527 54.6196 195.981 55.1924 195.51C55.7325 195.083 40.3075 175.752 25.6617 178.375C0.823186 183.019 27.6001 232.361 51.847 234.619C65.1013 235.948 72.0019 220.252 59.3238 200.67Z" fill="black"/>
<path d="M38.9456 208.636C39.8405 208.617 40.7193 208.395 41.516 207.987C42.3126 207.578 43.0063 206.995 43.5449 206.28C44.843 204.013 45.5282 201.448 45.5332 198.836C45.5332 198.161 45.6329 198.383 45.1221 197.962C37.8224 191.942 39.3188 192.786 27.3906 185.335C27.5894 189.939 28.2814 194.507 29.4546 198.963C32.7071 211.23 30.2252 209.474 38.9456 208.636ZM33.7856 206.983C30.8341 195.619 30.3851 193.019 30.0016 189.642C34.7271 192.435 39.1635 195.689 43.2456 199.359C43.172 201.351 42.6223 203.298 41.6425 205.035C41.2777 205.453 40.8286 205.789 40.3246 206.021C39.8207 206.253 39.2733 206.376 38.7185 206.381C37.0896 206.7 35.4399 206.901 33.7821 206.983H33.7856Z" fill="black"/>
<path d="M39.7295 217.045C42.4247 218.746 51.9811 224.572 54.838 224.572C55.2611 224.572 55.354 224.452 55.9233 224.137C56.687 217.732 53.7699 214.317 48.0285 200.492C47.1028 202.16 46.477 203.977 46.1795 205.862C45.0271 212.004 43.4877 210.557 33.209 211.77C35.0429 213.911 37.2528 215.699 39.7295 217.045ZM38.7113 213.509C41.0346 213.518 43.332 213.02 45.4433 212.05C49.432 209.871 47.1909 203.45 49.4183 208.91C52.0757 215.38 53.763 218.868 53.8043 222.092C49.2807 220.325 37.9648 213.552 38.7113 213.504V213.509Z" fill="black"/>
<path d="M28.4546 45.1891C18.7693 51.9452 28.0556 45.454 35.7216 52.6195C37.2128 54.0127 39.4901 59.066 40.3656 58.7324C40.5582 58.6584 40.5686 58.3884 40.5479 58.1871C40.2787 55.0862 40.8375 51.9694 42.1671 49.1552C43.4968 46.3409 45.5496 43.93 48.1159 42.1688C49.3027 41.3776 48.8624 40.5864 47.4898 40.5382C44.8696 40.526 42.2793 39.9799 39.8771 38.9334C37.6411 37.609 34.1082 33.0528 32.5585 30.6465C32.66 36.7353 31.6985 43.1371 26.652 46.5358L28.4546 45.1891Z" fill="white"/>
<path d="M50.416 40.7928C50.4916 39.6318 42.7293 40.5365 38.6185 37.1395C33.8145 33.1835 32.2872 26.6475 31.4272 26.9227C30.0202 27.2478 34.1052 38.4175 27.2544 45.1358C24.7708 47.5713 21.9672 48.6394 22.1598 49.1382C22.3748 50.3715 31.9483 47.0226 37.8204 56.9247C39.5404 59.7954 40.5466 62.4287 41.011 62.3805C42.1118 62.3805 39.3443 52.0072 45.7582 44.8554C48.1954 42.1791 50.5794 41.2624 50.416 40.7928ZM44.5783 43.7908C41.4576 47.5628 39.7609 52.3112 39.7846 57.2068C38.5724 54.5375 36.6302 52.2653 34.1822 50.6524C31.7341 49.0394 28.88 48.1514 25.949 48.0908C29.5936 46.1781 33.0646 41.2692 33.001 33.5241C32.9872 32.3751 32.829 32.4405 33.2951 33.2386C34.3105 35.28 35.7959 37.0514 37.6291 38.4071C39.4623 39.7628 41.5911 40.6641 43.8404 41.037C50.0462 42.0329 48.1129 39.8881 44.5783 43.7908Z" fill="black"/>
<path d="M29.5716 166.344C27.4268 173.764 23.2695 173.131 24.2241 174.539C27.0073 174.292 29.8043 174.825 32.302 176.077C34.7997 177.33 36.8994 179.253 38.366 181.631C38.6979 182.186 39.1056 182.835 39.754 182.869C38.4434 168.75 45.4885 167.842 46.0097 165.267C33.851 165.289 34.7935 161.641 29.7316 156.803C29.4581 159.29 31.4395 159.878 29.5716 166.344Z" fill="white"/>
<path d="M47.4398 165.141C47.4192 164.078 40.3448 165.526 36.2598 162.714C31.4903 159.429 29.5862 153.536 28.814 153.866C27.548 154.277 32.2884 164.348 26.4214 170.994C24.3574 173.469 21.8256 174.647 22.0423 175.091C22.3399 176.214 30.9003 172.356 37.1044 181.022C38.943 183.554 40.104 185.963 40.5014 185.793C41.4181 185.487 38.1966 176.264 43.4615 169.259C45.5014 166.598 47.629 165.561 47.4398 165.141ZM42.297 168.371C39.7211 172.099 38.5354 176.614 38.9465 181.127C37.7984 179.156 36.215 177.473 34.3173 176.208C32.4196 174.942 30.2578 174.127 27.997 173.825C24.3488 173.404 25.0919 174.84 27.5429 171.956C28.9012 170.272 29.8935 168.324 30.4562 166.236C31.0189 164.147 31.1397 161.964 30.8109 159.826C30.7077 158.767 30.5735 158.839 31.0586 159.539C32.1587 161.34 33.67 162.854 35.4687 163.958C37.2674 165.062 39.3022 165.724 41.4061 165.889C47.2248 166.312 45.2537 164.484 42.297 168.371Z" fill="black"/>
<path d="M138.807 259.944C133.059 257.192 128.282 259.285 123.234 262.068C110.154 269.278 121.8 289.917 133.391 299.009C144.906 308.04 156.306 297.946 155.673 286.358C155.106 275.94 144.908 262.868 138.807 259.944Z" fill="#FDFE1F"/>
<path d="M157.082 285.028C155.202 275.568 145.608 259.144 134.278 257.125C127.936 256.518 111.908 262.379 117.143 278.797C122.278 294.5 139.847 311.578 151.592 299.521C157.125 294.143 158.038 290.376 157.082 285.028ZM154.201 290.262C152.204 293.014 147.12 291.172 144.175 289.502C136.715 285.307 124.509 266.461 131.361 261.32C138.929 255.696 157.01 278.774 154.201 290.262ZM128.953 261.232C127.046 263.64 127.267 267.514 127.979 270.506C124.464 273.602 124.813 274.315 120.067 275.943C118.323 268.2 121.739 264.168 128.953 261.232ZM120.714 278.159C125.565 274.335 123.781 275.771 128.833 273.25C130.134 276.445 131.855 279.453 133.95 282.194C130.613 285.317 132.266 285.261 126.242 288.386C123.941 285.245 122.081 281.804 120.714 278.159ZM127.727 290.359C132.415 285.18 131.437 287.108 135.666 284.461C137.575 287.051 139.93 289.28 142.622 291.043C141.855 292.33 140.992 293.556 140.042 294.714C140.042 294.999 136.339 297.4 135.792 297.916C132.707 295.857 129.982 293.304 127.727 290.359ZM149.345 297.163C147.994 298.665 146.189 299.683 144.205 300.063C142.221 300.444 140.167 300.165 138.356 299.27C139.13 297.987 139.994 296.759 140.936 295.593C142.247 294.291 144.418 293.14 145.222 292.35C147.541 293.488 150.161 293.861 152.704 293.415C151.726 294.784 150.599 296.041 149.345 297.163Z" fill="black"/>
<defs>
<linearGradient id="paint0_linear_7047_203081" x1="43.082" y1="74.7394" x2="35.249" y2="91.8167" gradientUnits="userSpaceOnUse">
<stop/>
<stop offset="0.512744" stop-color="#191919"/>
</linearGradient>
<clipPath id="clip0_7047_203081">
<rect width="21.1227" height="18.6855" fill="white" transform="translate(133.08 14.5005)"/>
</clipPath>
<clipPath id="clip1_7047_203081">
<rect width="12.6089" height="19.1221" fill="white" transform="translate(37.4023 71.9519) rotate(24.6398)"/>
</clipPath>
</defs>
</svg>
