<svg width="15" height="15" viewBox="0 0 15 15" fill="none" xmlns="http://www.w3.org/2000/svg">
<path d="M6.00735 12.8533C6.00735 13.7629 5.68164 14.5004 4.77203 14.5004H1.88962C0.242523 14.5004 0.242523 8.7356 1.88962 8.7356H4.77203C5.68164 8.7356 6.00735 9.47308 6.00735 10.3827V12.8533Z" fill="#553788"/>
<path d="M13.8308 13.6769H13.419V9.55914H13.8308C14.0585 9.55914 14.2425 9.37508 14.2425 9.14737C14.2425 8.91966 14.0585 8.7356 13.8308 8.7356H3.94821C2.30112 8.7356 2.30112 14.5004 3.94821 14.5004H13.8308C14.0585 14.5004 14.2425 14.3164 14.2425 14.0887C14.2425 13.8609 14.0585 13.6769 13.8308 13.6769Z" fill="#9266CC"/>
<path d="M13.9015 13.6773H4.35985C3.5363 13.6773 3.5363 9.55957 4.35985 9.55957H13.9015C14.3561 9.55957 14.3561 13.6773 13.9015 13.6773Z" fill="#CCD6DD"/>
<path d="M4.56542 10.3831H14.1803C14.1247 9.89928 14.0321 9.55957 13.9011 9.55957H4.35953C3.67969 9.55957 3.56152 12.3629 4.00417 13.3429C3.84276 12.1245 4.0297 10.3831 4.56542 10.3831Z" fill="#99AAB5"/>
<path d="M4.7717 3.38205C4.7717 4.29166 4.03421 5.02914 3.1246 5.02914H1.47751C-0.169586 5.02914 -0.169586 0.499634 1.47751 0.499634H3.1246C4.03421 0.499634 4.7717 1.23712 4.7717 2.14673V3.38205Z" fill="#226699"/>
<path d="M12.5944 4.2056H12.1827V1.32318H12.5944C12.8222 1.32318 13.0062 1.13912 13.0062 0.911407C13.0062 0.683697 12.8222 0.499634 12.5944 0.499634H2.71188C1.06479 0.499634 1.06479 5.02914 2.71188 5.02914H12.5944C12.8222 5.02914 13.0062 4.84508 13.0062 4.61737C13.0062 4.38966 12.8222 4.2056 12.5944 4.2056Z" fill="#55ACEE"/>
<path d="M12.6671 4.20602H3.12547C2.30193 4.20602 2.30193 1.32361 3.12547 1.32361H12.6671C13.1217 1.32361 13.1217 4.20602 12.6671 4.20602Z" fill="#CCD6DD"/>
<path d="M3.12519 2.14716H12.9769C12.9299 1.68391 12.827 1.32361 12.6668 1.32361H3.12519C2.63394 1.32361 2.43794 2.34851 2.53306 3.17659C2.59729 2.6174 2.79289 2.14716 3.12519 2.14716Z" fill="#99AAB5"/>
<path d="M8.06656 7.08664C8.06656 7.99625 7.32907 8.73373 6.41946 8.73373H2.30173C0.654633 8.73373 0.654633 5.02777 2.30173 5.02777H6.41946C7.32907 5.02777 8.06656 5.76526 8.06656 6.67486V7.08664Z" fill="#F4900C"/>
<path d="M14.2423 7.91019H13.8305V5.85132H14.2423C14.47 5.85132 14.654 5.66726 14.654 5.43954C14.654 5.21183 14.47 5.02777 14.2423 5.02777H6.0068C4.35971 5.02777 4.35971 8.73373 6.0068 8.73373H14.2423C14.47 8.73373 14.654 8.54967 14.654 8.32196C14.654 8.09425 14.47 7.91019 14.2423 7.91019Z" fill="#FFAC33"/>
<path d="M14.313 7.91061H6.41844C5.59489 7.91061 5.59489 5.85175 6.41844 5.85175H14.313C14.7676 5.85175 14.7676 7.91061 14.313 7.91061Z" fill="#CCD6DD"/>
<path d="M6.41896 6.67529H14.6478C14.6211 6.23799 14.5103 5.85175 14.3135 5.85175H6.41896C5.89436 5.85175 5.70535 6.68641 5.84947 7.29295C5.931 6.94747 6.12001 6.67529 6.41896 6.67529Z" fill="#99AAB5"/>
</svg>
