<svg width="15" height="15" viewBox="0 0 15 15" fill="none" xmlns="http://www.w3.org/2000/svg">
<path d="M12.6866 3.61111H10.3533V2.05556C10.3533 1.1965 9.6568 0.5 8.79774 0.5H5.68663C4.82758 0.5 4.13108 1.1965 4.13108 2.05556V3.61111H1.79774C0.938687 3.61111 0.242188 4.30761 0.242188 5.16667V12.9444C0.242188 13.8035 0.938687 14.5 1.79774 14.5H12.6866C13.5457 14.5 14.2422 13.8035 14.2422 12.9444V5.16667C14.2422 4.30761 13.5457 3.61111 12.6866 3.61111ZM4.90885 2.83333C4.90885 2.404 5.2573 2.05556 5.68663 2.05556H8.79774C9.22708 2.05556 9.57552 2.404 9.57552 2.83333V3.61111H4.90885V2.83333Z" fill="#9A4E1C"/>
<path d="M14.2422 8.27659C14.2422 9.13565 13.5457 9.83215 12.6866 9.83215H1.79774C0.938687 9.83215 0.242188 9.13565 0.242188 8.27659V5.16548C0.242188 4.30642 0.938687 3.60992 1.79774 3.60992H12.6866C13.5457 3.60992 14.2422 4.30642 14.2422 5.16548V8.27659Z" fill="#662113"/>
<path d="M14.2422 7.49881C14.2422 8.35787 13.5457 9.05437 12.6866 9.05437H1.79774C0.938687 9.05437 0.242188 8.35787 0.242188 7.49881V5.16548C0.242188 4.30642 0.938687 3.60992 1.79774 3.60992H12.6866C13.5457 3.60992 14.2422 4.30642 14.2422 5.16548V7.49881Z" fill="#9A4E1C"/>
<path d="M8.79861 7.4994C8.79861 7.92873 8.45017 8.27717 8.02083 8.27717H6.46528C6.03594 8.27717 5.6875 7.92873 5.6875 7.4994C5.6875 7.07006 6.03594 6.72162 6.46528 6.72162H8.02083C8.45017 6.72162 8.79861 7.07006 8.79861 7.4994Z" fill="#CCD6DD"/>
</svg>
