<svg width="25" height="25" viewBox="0 0 25 25" fill="none" xmlns="http://www.w3.org/2000/svg">
<g clip-path="url(#clip0_8321_345633)">
<g clip-path="url(#clip1_8321_345633)">
<path d="M7.93405 2.7002H17.404C18.054 2.7002 18.634 2.72023 19.154 2.79023C21.924 3.10023 22.674 4.40021 22.674 7.96021V14.2802C22.674 17.8402 21.924 19.1402 19.154 19.4502C18.634 19.5202 18.064 19.5402 17.404 19.5402H7.93405C7.28405 19.5402 6.70405 19.5202 6.18405 19.4502C3.41405 19.1402 2.66406 17.8402 2.66406 14.2802V7.96021C2.66406 4.40021 3.41405 3.10023 6.18405 2.79023C6.70405 2.72023 7.28405 2.7002 7.93405 2.7002Z" stroke="#1C1C1C" stroke-width="1.5" stroke-linecap="round" stroke-linejoin="round"/>
<path d="M7.67383 22.7002H17.6738" stroke="#1C1C1C" stroke-width="1.5" stroke-linecap="round" stroke-linejoin="round"/>
</g>
</g>
<defs>
<clipPath id="clip0_8321_345633">
<rect width="24" height="24" fill="white" transform="translate(0.673828 0.700195)"/>
</clipPath>
<clipPath id="clip1_8321_345633">
<rect width="24" height="24" fill="white" transform="translate(0.673828 0.700195)"/>
</clipPath>
</defs>
</svg>
