<svg width="20" height="20" viewBox="0 0 20 20" fill="none" xmlns="http://www.w3.org/2000/svg">
<path d="M4.2432 5.34713C3.78472 5.30702 3.38052 5.64618 3.34041 6.10466C3.3003 6.56315 3.63946 6.96734 4.09794 7.00745L5.75827 7.15271C6.21675 7.19283 6.62095 6.85367 6.66106 6.39518C6.70117 5.93669 6.36201 5.5325 5.90353 5.49239L4.2432 5.34713Z" fill="#2A799B"/>
<path d="M13.3404 6.93799C13.3805 6.47951 13.7847 6.14035 14.2432 6.18046L15.9035 6.32572C16.362 6.36583 16.7012 6.77003 16.6611 7.22851C16.6209 7.687 16.2168 8.02616 15.7583 7.98605L14.0979 7.84079C13.6395 7.80067 13.3003 7.39648 13.3404 6.93799Z" fill="#2A799B"/>
<path d="M4.2432 12.5031C3.78472 12.463 3.38052 12.8021 3.34041 13.2606C3.3003 13.7191 3.63946 14.1233 4.09794 14.1634L5.75827 14.3087C6.21675 14.3488 6.62095 14.0096 6.66106 13.5511C6.70117 13.0927 6.36201 12.6885 5.90353 12.6484L4.2432 12.5031Z" fill="#2A799B"/>
<path d="M13.3404 14.438C13.3805 13.9795 13.7847 13.6404 14.2432 13.6805L15.9035 13.8257C16.362 13.8658 16.7012 14.27 16.6611 14.7285C16.6209 15.187 16.2168 15.5262 15.7583 15.486L14.0979 15.3408C13.6395 15.3007 13.3003 14.8965 13.3404 14.438Z" fill="#2A799B"/>
<path fill-rule="evenodd" clip-rule="evenodd" d="M10.0007 7.49992C11.3814 7.49992 12.5007 8.61921 12.5007 9.99992C12.5007 11.3806 11.3814 12.4999 10.0007 12.4999C8.61994 12.4999 7.50065 11.3806 7.50065 9.99992C7.50065 8.61921 8.61994 7.49992 10.0007 7.49992ZM10.834 9.99992C10.834 9.53969 10.4609 9.16659 10.0007 9.16659C9.54041 9.16659 9.16732 9.53969 9.16732 9.99992C9.16732 10.4602 9.54041 10.8333 10.0007 10.8333C10.4609 10.8333 10.834 10.4602 10.834 9.99992Z" fill="#2A799B"/>
<path fill-rule="evenodd" clip-rule="evenodd" d="M4.37092 2.70125C2.44323 2.53579 0.833984 4.06316 0.833984 5.97377V12.633C0.833984 14.4039 2.21313 15.8587 3.95752 16.0055C4.67253 16.0656 5.54964 16.1443 6.58601 16.2459C6.77179 16.2642 7.18485 16.3484 7.78205 16.4865C8.1747 16.5773 8.61669 16.684 9.08102 16.7961C9.29992 16.849 9.5245 16.9032 9.75049 16.9573C10.4499 17.1248 11.165 17.2921 11.7804 17.4181C12.3696 17.5386 12.947 17.6389 13.3305 17.6405C14.2835 17.6445 15.2156 17.6265 16.0133 17.6022C17.7975 17.5478 19.1673 16.0737 19.1673 14.3176V7.6606C19.1673 5.73358 17.5477 4.22732 15.6537 4.27851C14.9431 4.29771 14.1466 4.31059 13.3375 4.30716C13.1452 4.30635 12.7266 4.24382 12.1145 4.11856C11.5285 3.99865 10.8368 3.83703 10.1387 3.66981C9.92007 3.61743 9.70026 3.56437 9.48336 3.51202L9.48252 3.51182C9.01357 3.39862 8.55811 3.28868 8.15756 3.19605C7.59075 3.06498 7.06389 2.95147 6.74863 2.92057C5.83285 2.83078 5.03965 2.75865 4.37092 2.70125ZM2.50065 5.97377C2.50065 5.01562 3.29783 4.28194 4.22839 4.36181C4.89046 4.41864 5.67697 4.49016 6.58601 4.57928C6.77179 4.59749 7.18485 4.68176 7.78205 4.81987C8.17476 4.91068 8.61684 5.01739 9.08125 5.1295C9.3003 5.18238 9.52433 5.23645 9.75049 5.29063C10.4499 5.45816 11.165 5.62546 11.7804 5.75139C12.3696 5.87197 12.947 5.97219 13.3305 5.97382C14.161 5.97733 14.9754 5.96412 15.6987 5.94457C16.6874 5.91785 17.5006 6.70384 17.5006 7.6606V14.3176C17.5006 15.2021 16.8176 15.9102 15.9624 15.9363C15.1783 15.9602 14.2662 15.9778 13.3375 15.9738C13.1452 15.973 12.7266 15.9105 12.1145 15.7852C11.5285 15.6653 10.8368 15.5037 10.1387 15.3365C9.91984 15.284 9.6998 15.2309 9.48268 15.1785C9.01364 15.0653 8.55817 14.9554 8.15756 14.8627C7.59075 14.7316 7.06389 14.6181 6.74863 14.5872C5.70458 14.4849 4.81985 14.4055 4.09726 14.3447C3.19571 14.2688 2.50065 13.5173 2.50065 12.633V5.97377Z" fill="#2A799B"/>
</svg>
