<svg width="21" height="15" viewBox="0 0 21 15" fill="none" xmlns="http://www.w3.org/2000/svg">
<path d="M1.61709 4.81635L1.61488 4.81525C1.61488 4.81525 0.480469 11.6831 0.480469 12.6732C0.480469 13.682 1.22328 14.4995 2.13977 14.4995C2.51588 14.4995 2.85881 14.3568 3.13702 14.1245L8.75985 9.18088L1.61709 4.81635ZM19.1449 4.81635L19.1471 4.81525C19.1471 4.81525 20.2815 11.6831 20.2815 12.6732C20.2815 13.682 19.5387 14.4995 18.6222 14.4995C18.2461 14.4995 17.9032 14.3568 17.625 14.1245L12.0021 9.18088L19.1449 4.81635Z" fill="#75818D"/>
<path d="M14.8049 9.90315C17.4014 9.90315 19.5062 7.79828 19.5062 5.20179C19.5062 2.6053 17.4014 0.500427 14.8049 0.500427C12.2084 0.500427 10.1035 2.6053 10.1035 5.20179C10.1035 7.79828 12.2084 9.90315 14.8049 9.90315Z" fill="#14171A"/>
<path d="M5.95527 9.90315C8.55176 9.90315 10.6566 7.79828 10.6566 5.20179C10.6566 2.6053 8.55176 0.500427 5.95527 0.500427C3.35878 0.500427 1.25391 2.6053 1.25391 5.20179C1.25391 7.79828 3.35878 9.90315 5.95527 9.90315Z" fill="#14171A"/>
<path d="M5.95508 0.500427H14.8047V9.83125H5.95508V0.500427Z" fill="#14171A"/>
<path d="M7.66981 12.2531C9.19715 12.2531 10.4353 11.0149 10.4353 9.48755C10.4353 7.96021 9.19715 6.72205 7.66981 6.72205C6.14246 6.72205 4.9043 7.96021 4.9043 9.48755C4.9043 11.0149 6.14246 12.2531 7.66981 12.2531Z" fill="#14171A"/>
<path d="M13.0897 12.2531C14.6171 12.2531 15.8552 11.0149 15.8552 9.48755C15.8552 7.96021 14.6171 6.72205 13.0897 6.72205C11.5624 6.72205 10.3242 7.96021 10.3242 9.48755C10.3242 11.0149 11.5624 12.2531 13.0897 12.2531Z" fill="#14171A"/>
<path d="M13.0909 11.1472C14.0074 11.1472 14.7503 10.4043 14.7503 9.48786C14.7503 8.57145 14.0074 7.82855 13.0909 7.82855C12.1745 7.82855 11.4316 8.57145 11.4316 9.48786C11.4316 10.4043 12.1745 11.1472 13.0909 11.1472Z" fill="#67757F"/>
<path d="M7.67102 11.1472C8.58743 11.1472 9.33033 10.4043 9.33033 9.48786C9.33033 8.57145 8.58743 7.82855 7.67102 7.82855C6.75461 7.82855 6.01172 8.57145 6.01172 9.48786C6.01172 10.4043 6.75461 11.1472 7.67102 11.1472Z" fill="#67757F"/>
<path d="M14.6737 3.64452C15.1634 3.64452 15.5604 3.24757 15.5604 2.7579C15.5604 2.26823 15.1634 1.87128 14.6737 1.87128C14.1841 1.87128 13.7871 2.26823 13.7871 2.7579C13.7871 3.24757 14.1841 3.64452 14.6737 3.64452Z" fill="#FFCC4D"/>
<path d="M14.6737 7.22655C15.1634 7.22655 15.5604 6.8296 15.5604 6.33993C15.5604 5.85026 15.1634 5.45331 14.6737 5.45331C14.1841 5.45331 13.7871 5.85026 13.7871 6.33993C13.7871 6.8296 14.1841 7.22655 14.6737 7.22655Z" fill="#77B255"/>
<path d="M12.8827 5.43462C13.3724 5.43462 13.7693 5.03767 13.7693 4.548C13.7693 4.05833 13.3724 3.66138 12.8827 3.66138C12.393 3.66138 11.9961 4.05833 11.9961 4.548C11.9961 5.03767 12.393 5.43462 12.8827 5.43462Z" fill="#50A5E6"/>
<path d="M16.4647 5.43462C16.9544 5.43462 17.3514 5.03767 17.3514 4.548C17.3514 4.05833 16.9544 3.66138 16.4647 3.66138C15.9751 3.66138 15.5781 4.05833 15.5781 4.548C15.5781 5.03767 15.9751 5.43462 16.4647 5.43462Z" fill="#DD2E44"/>
<path d="M6.60517 3.52287V2.32375C6.60517 2.16943 6.48016 2.04443 6.32585 2.04443H5.46412C5.3098 2.04443 5.1848 2.16943 5.1848 2.32375V3.52287L5.89498 4.23361L6.60517 3.52287ZM5.18425 5.53063V6.72976C5.18425 6.88407 5.30925 7.00907 5.46356 7.00907H6.3253C6.47961 7.00907 6.60461 6.88407 6.60461 6.72976V5.53063L5.89443 4.8199L5.18425 5.53063ZM8.09854 3.81602H6.89942L6.18868 4.52675L6.89942 5.23749H8.09854C8.25285 5.23749 8.37786 5.11194 8.37786 4.95817V4.09589C8.37786 3.94157 8.25285 3.81602 8.09854 3.81602ZM4.8911 3.81602H3.69143C3.53711 3.81602 3.41211 3.94157 3.41211 4.09533V4.95707C3.41211 5.11138 3.53711 5.23638 3.69143 5.23638H4.89055L5.60129 4.52565L4.8911 3.81602Z" fill="#8899A6"/>
</svg>
