<svg width="150" height="50" viewBox="0 0 150 50" fill="none" xmlns="http://www.w3.org/2000/svg">
<g clip-path="url(#clip0_8236_181415)">
<g clip-path="url(#clip1_8236_181415)">
<g clip-path="url(#clip2_8236_181415)">
<path d="M137.67 0H11.92C11.461 0 11.007 0 10.551 0.003C10.169 0.005 9.78795 0.013 9.40195 0.019C8.56295 0.028 7.72495 0.101 6.89695 0.237C6.07095 0.378 5.26995 0.642 4.52195 1.021C3.77395 1.404 3.09095 1.902 2.49695 2.496C1.90095 3.088 1.40495 3.772 1.02595 4.521C0.645953 5.27 0.382953 6.072 0.244953 6.9C0.105953 7.727 0.0309531 8.564 0.0209531 9.402C0.00895312 9.786 0.00895313 10.171 0.00195312 10.554V39.45C0.00895313 39.837 0.00995312 40.212 0.0209531 40.601C0.0309531 41.44 0.105953 42.277 0.245953 43.104C0.382953 43.933 0.645953 44.736 1.02595 45.485C1.40495 46.232 1.90195 46.912 2.49895 47.5C3.08895 48.096 3.77195 48.594 4.52095 48.974C5.26895 49.354 6.06995 49.619 6.89695 49.761C7.72595 49.897 8.56295 49.971 9.40195 49.983C9.78995 49.991 10.169 49.996 10.551 49.996C11.009 49.999 11.461 49.999 11.92 49.999H137.67C138.12 49.999 138.575 49.999 139.025 49.996C139.405 49.996 139.796 49.991 140.177 49.984C141.015 49.973 141.851 49.898 142.677 49.761C143.507 49.618 144.311 49.353 145.062 48.974C145.81 48.594 146.493 48.096 147.083 47.5C147.679 46.909 148.177 46.228 148.561 45.483C148.938 44.733 149.199 43.93 149.335 43.101C149.474 42.274 149.551 41.438 149.566 40.599C149.571 40.211 149.571 39.836 149.571 39.447C149.581 38.992 149.581 38.541 149.581 38.08V11.92C149.581 11.463 149.581 11.008 149.571 10.555C149.571 10.173 149.571 9.787 149.566 9.405C149.551 8.566 149.474 7.729 149.335 6.901C149.199 6.074 148.937 5.272 148.56 4.522C147.788 3.019 146.565 1.795 145.062 1.022C144.311 0.644 143.507 0.38 142.677 0.239C141.851 0.101 141.015 0.028 140.177 0.019C139.796 0.012 139.405 0.005 139.025 0.002C138.575 0 138.119 0 137.67 0Z" fill="#A6A6A6"/>
<path d="M10.5568 48.906C10.1758 48.906 9.8048 48.901 9.4268 48.894C8.6438 48.883 7.8628 48.815 7.0898 48.689C6.3698 48.565 5.6718 48.334 5.0198 48.004C4.3728 47.677 3.7838 47.248 3.2738 46.734C2.7558 46.225 2.3248 45.635 1.9988 44.988C1.6668 44.336 1.4378 43.637 1.3188 42.916C1.1898 42.141 1.1208 41.358 1.1108 40.572C1.1018 40.31 1.0918 39.431 1.0918 39.431V10.556C1.0918 10.556 1.1038 9.69099 1.1108 9.43699C1.1198 8.65299 1.1888 7.87099 1.3168 7.09699C1.4368 6.37399 1.6658 5.67399 1.9968 5.01999C2.3228 4.37299 2.7518 3.78299 3.2658 3.27199C3.7798 2.75699 4.3708 2.32599 5.0188 1.99399C5.6688 1.66499 6.3658 1.43599 7.0848 1.31399C7.8598 1.18699 8.6438 1.11799 9.4298 1.10899L10.5568 1.09399H139.018L140.16 1.10999C140.938 1.11899 141.714 1.18699 142.482 1.31299C143.209 1.43599 143.913 1.66699 144.571 1.99799C145.868 2.66599 146.924 3.72399 147.59 5.02199C147.915 5.67199 148.141 6.36699 148.258 7.08399C148.388 7.86399 148.461 8.65199 148.476 9.44299C148.48 9.79599 148.48 10.178 148.48 10.555C148.49 11.024 148.49 11.47 148.49 11.92V38.081C148.49 38.535 148.49 38.979 148.48 39.425C148.48 39.831 148.48 40.204 148.475 40.587C148.461 41.364 148.389 42.138 148.262 42.904C148.146 43.63 147.918 44.334 147.587 44.991C147.258 45.632 146.829 46.217 146.317 46.724C145.806 47.241 145.215 47.672 144.567 48.001C143.911 48.334 143.208 48.566 142.482 48.689C141.71 48.815 140.929 48.883 140.146 48.892C139.78 48.901 139.396 48.906 139.025 48.906L137.67 48.909L10.5568 48.906Z" fill="black"/>
<path d="M30.962 25.3749C30.989 23.2549 32.101 21.2969 33.907 20.1859C32.762 18.5509 30.914 17.5519 28.919 17.4889C26.819 17.2689 24.784 18.7449 23.714 18.7449C22.624 18.7449 20.977 17.5099 19.204 17.5469C16.871 17.6229 14.748 18.9169 13.613 20.9569C11.195 25.1419 12.999 31.2939 15.314 34.6769C16.473 36.3339 17.827 38.1839 19.599 38.1189C21.333 38.0459 21.98 37.0119 24.074 37.0119C26.147 37.0119 26.754 38.1189 28.562 38.0769C30.423 38.0459 31.594 36.4119 32.712 34.7399C33.545 33.5599 34.186 32.2549 34.612 30.8749C32.401 29.9409 30.964 27.7749 30.962 25.3749ZM27.547 15.2629C28.561 14.0449 29.061 12.4799 28.94 10.8999C27.39 11.0629 25.959 11.8039 24.93 12.9749C23.915 14.1299 23.401 15.6409 23.5 17.1749C25.071 17.1909 26.562 16.4859 27.547 15.2629Z" fill="white"/>
<path d="M52.8782 33.9249H46.9632L45.5422 38.1199H43.0352L48.6402 22.5969H51.2442L56.8482 38.1199H54.2992L52.8782 33.9249ZM47.5742 31.9869H52.2642L49.9522 25.1799H49.8882L47.5742 31.9869ZM68.9502 32.4619C68.9502 35.9789 67.0682 38.2369 64.2272 38.2369C62.7592 38.3139 61.3762 37.5459 60.6672 36.2589H60.6132V41.8639H58.2882V26.8019H60.5382V28.6849H60.5792C61.3202 27.4059 62.7052 26.6369 64.1832 26.6849C67.0552 26.6849 68.9502 28.9549 68.9502 32.4619ZM66.5632 32.4629C66.5632 30.1709 65.3782 28.6649 63.5722 28.6649C61.7972 28.6649 60.6032 30.2029 60.6032 32.4629C60.6032 34.7429 61.7972 36.2699 63.5722 36.2699C65.3782 36.2699 66.5632 34.7739 66.5632 32.4629ZM81.4072 32.4619C81.4072 35.9789 79.5242 38.2369 76.6832 38.2369C75.2152 38.3139 73.8332 37.5459 73.1232 36.2589H73.0692V41.8639H70.7452V26.8019H72.9942V28.6849H73.0372C73.7782 27.4059 75.1622 26.6369 76.6402 26.6849C79.5132 26.6849 81.4072 28.9549 81.4072 32.4619ZM79.0192 32.4629C79.0192 30.1709 77.8342 28.6649 76.0282 28.6649C74.2532 28.6649 73.0592 30.2029 73.0592 32.4629C73.0592 34.7429 74.2532 36.2699 76.0282 36.2699C77.8342 36.2699 79.0192 34.7739 79.0192 32.4629ZM89.6382 33.7949C89.8102 35.3349 91.3052 36.3449 93.3502 36.3449C95.3082 36.3449 96.7172 35.3349 96.7172 33.9459C96.7172 32.7409 95.8672 32.0209 93.8542 31.5259L91.8432 31.0409C88.9932 30.3539 87.6692 29.0199 87.6692 26.8559C87.6692 24.1789 90.0032 22.3389 93.3182 22.3389C96.5982 22.3389 98.8472 24.1789 98.9222 26.8559H96.5772C96.4372 25.3069 95.1572 24.3719 93.2842 24.3719C91.4122 24.3719 90.1332 25.3189 90.1332 26.6949C90.1332 27.7919 90.9502 28.4389 92.9522 28.9319L94.6622 29.3519C97.8472 30.1059 99.1692 31.3849 99.1692 33.6559C99.1692 36.5599 96.8572 38.3789 93.1782 38.3789C89.7352 38.3789 87.4102 36.6039 87.2602 33.7949H89.6382ZM104.183 24.1249V26.8019H106.335V28.6419H104.183V34.8809C104.183 35.8509 104.614 36.3019 105.56 36.3019C105.816 36.2979 106.071 36.2799 106.324 36.2489V38.0769C105.899 38.1569 105.467 38.1929 105.034 38.1849C102.743 38.1849 101.849 37.3239 101.849 35.1289V28.6419H100.204V26.8019H101.849V24.1249H104.183ZM107.582 32.4619C107.582 28.9009 109.679 26.6639 112.949 26.6639C116.23 26.6639 118.318 28.9009 118.318 32.4619C118.318 36.0319 116.242 38.2599 112.949 38.2599C109.658 38.2599 107.582 36.0319 107.582 32.4619ZM115.95 32.4619C115.95 30.0199 114.832 28.5769 112.949 28.5769C111.067 28.5769 109.949 30.0299 109.949 32.4619C109.949 34.9149 111.067 36.3449 112.949 36.3449C114.832 36.3449 115.95 34.9149 115.95 32.4619ZM120.233 26.8019H122.449V28.7289H122.503C122.812 27.4899 123.948 26.6369 125.224 26.6849C125.492 26.6839 125.759 26.7129 126.02 26.7709V28.9439C125.682 28.8409 125.33 28.7929 124.977 28.8039C124.294 28.7759 123.633 29.0479 123.167 29.5489C122.702 30.0489 122.478 30.7279 122.555 31.4069V38.1199H120.233V26.8019ZM136.73 34.7959C136.418 36.8499 134.418 38.2599 131.858 38.2599C128.565 38.2599 126.522 36.0549 126.522 32.5159C126.522 28.9659 128.577 26.6639 131.759 26.6639C134.892 26.6639 136.859 28.8139 136.859 32.2459V33.0419H128.867V33.1819C128.792 34.0249 129.083 34.8589 129.666 35.4719C130.248 36.0849 131.066 36.4189 131.912 36.3869C133.038 36.4929 134.101 35.8459 134.524 34.7959H136.73ZM128.878 31.4189H134.535C134.578 30.6619 134.302 29.9209 133.776 29.3759C133.249 28.8309 132.518 28.5299 131.76 28.5459C130.996 28.5419 130.262 28.8419 129.721 29.3819C129.179 29.9209 128.876 30.6549 128.878 31.4189Z" fill="white"/>
<path d="M47.2828 10.9139C48.2698 10.8429 49.2358 11.2179 49.9158 11.9359C50.5958 12.6539 50.9178 13.6389 50.7928 14.6199C50.7928 17.0029 49.5058 18.3729 47.2828 18.3729H44.5898V10.9129L47.2828 10.9139ZM45.7488 17.3179H47.1548C47.8588 17.3589 48.5448 17.0809 49.0218 16.5609C49.4988 16.0409 49.7158 15.3329 49.6138 14.6349C49.7088 13.9399 49.4888 13.2379 49.0128 12.7219C48.5368 12.2049 47.8558 11.9289 47.1548 11.9679H45.7488V17.3179ZM52.1008 15.5549C52.0078 14.5479 52.4928 13.5749 53.3528 13.0429C54.2128 12.5109 55.2988 12.5109 56.1588 13.0429C57.0188 13.5749 57.5038 14.5479 57.4108 15.5549C57.5118 16.5659 57.0288 17.5469 56.1658 18.0839C55.3028 18.6209 54.2098 18.6209 53.3468 18.0839C52.4838 17.5469 52.0018 16.5659 52.1018 15.5549H52.1008ZM56.2678 15.5549C56.2678 14.3349 55.7198 13.6209 54.7578 13.6209C53.7918 13.6209 53.2498 14.3349 53.2498 15.5549C53.2498 16.7849 53.7918 17.4929 54.7578 17.4929C55.7208 17.4929 56.2678 16.7799 56.2678 15.5549ZM64.4668 18.3719H63.3148L62.1518 14.2259H62.0648L60.9058 18.3719H59.7648L58.2118 12.7439H59.3398L60.3468 17.0389H60.4308L61.5888 12.7439H62.6538L63.8108 17.0389H63.8988L64.9018 12.7439H66.0138L64.4668 18.3719ZM67.3188 12.7439H68.3868V13.6379H68.4698C68.7588 12.9789 69.4328 12.5769 70.1498 12.6349C70.7048 12.5929 71.2478 12.8059 71.6268 13.2129C72.0058 13.6209 72.1798 14.1779 72.0988 14.7289V18.3729H70.9868V15.0079C70.9868 14.1029 70.5948 13.6529 69.7718 13.6529C69.3958 13.6349 69.0308 13.7829 68.7728 14.0569C68.5138 14.3309 68.3888 14.7039 68.4288 15.0789V18.3729H67.3188V12.7439ZM73.8678 10.5459H74.9778V18.3709H73.8678V10.5459ZM76.5228 15.5549C76.4278 14.5469 76.9118 13.5709 77.7728 13.0379C78.6328 12.5039 79.7218 12.5039 80.5828 13.0379C81.4438 13.5709 81.9278 14.5469 81.8318 15.5549C81.9328 16.5659 81.4498 17.5469 80.5868 18.0839C79.7238 18.6209 78.6308 18.6209 77.7678 18.0839C76.9058 17.5469 76.4228 16.5659 76.5228 15.5549ZM80.6898 15.5549C80.6898 14.3349 80.1408 13.6209 79.1798 13.6209C78.2128 13.6209 77.6708 14.3349 77.6708 15.5549C77.6708 16.7849 78.2128 17.4929 79.1798 17.4929C80.1418 17.4929 80.6898 16.7799 80.6898 15.5549ZM83.0008 16.7799C83.0008 15.7679 83.7558 15.1829 85.0958 15.0999L86.6208 15.0129V14.5259C86.6208 13.9329 86.2268 13.5959 85.4688 13.5959C84.8468 13.5959 84.4188 13.8239 84.2948 14.2209H83.2198C83.3318 13.2549 84.2418 12.6339 85.5198 12.6339C86.9298 12.6339 87.7258 13.3379 87.7258 14.5259V18.3729H86.6568V17.5809H86.5698C86.2058 18.1589 85.5598 18.4969 84.8788 18.4649C84.4008 18.5149 83.9238 18.3599 83.5658 18.0389C83.2088 17.7179 83.0028 17.2609 83.0008 16.7799ZM86.6198 16.2999V15.8289L85.2448 15.9159C84.4698 15.9689 84.1198 16.2319 84.1198 16.7289C84.1198 17.2349 84.5578 17.5289 85.1618 17.5289C85.5198 17.5649 85.8758 17.4539 86.1508 17.2229C86.4258 16.9909 86.5948 16.6579 86.6198 16.2999ZM89.1858 15.5549C89.1858 13.7759 90.1008 12.6499 91.5228 12.6499C92.2408 12.6169 92.9128 13.0019 93.2478 13.6369H93.3318V10.5459H94.4418V18.3709H93.3778V17.4839H93.2908C92.9298 18.1139 92.2478 18.4919 91.5218 18.4649C90.0908 18.4649 89.1858 17.3389 89.1858 15.5549ZM90.3338 15.5549C90.3338 16.7489 90.8958 17.4669 91.8368 17.4669C92.7748 17.4669 93.3518 16.7389 93.3518 15.5599C93.3518 14.3869 92.7668 13.6469 91.8368 13.6469C90.9018 13.6469 90.3338 14.3719 90.3338 15.5549ZM99.0378 15.5549C98.9428 14.5469 99.4268 13.5709 100.288 13.0379C101.148 12.5039 102.237 12.5039 103.098 13.0379C103.959 13.5709 104.443 14.5469 104.347 15.5549C104.448 16.5659 103.965 17.5469 103.102 18.0839C102.239 18.6209 101.146 18.6209 100.283 18.0839C99.4208 17.5469 98.9378 16.5659 99.0378 15.5549ZM103.205 15.5549C103.205 14.3349 102.657 13.6209 101.695 13.6209C100.73 13.6209 100.186 14.3349 100.186 15.5549C100.186 16.7849 100.73 17.4929 101.695 17.4929C102.657 17.4929 103.205 16.7799 103.205 15.5549ZM105.839 12.7439H106.907V13.6379H106.99C107.279 12.9789 107.953 12.5769 108.67 12.6349C109.225 12.5929 109.768 12.8059 110.147 13.2129C110.526 13.6209 110.7 14.1779 110.619 14.7289V18.3729H109.507V15.0079C109.507 14.1029 109.115 13.6529 108.292 13.6529C107.916 13.6349 107.551 13.7829 107.293 14.0569C107.034 14.3309 106.909 14.7039 106.949 15.0789V18.3729H105.837L105.839 12.7439ZM116.895 11.3419V12.7689H118.115V13.7049H116.895V16.5989C116.895 17.1889 117.137 17.4469 117.691 17.4469C117.833 17.4469 117.974 17.4379 118.115 17.4209V18.3459C117.915 18.3819 117.713 18.4009 117.51 18.4039C116.275 18.4039 115.784 17.9689 115.784 16.8839V13.7049H114.89V12.7689H115.784V11.3419H116.895ZM119.632 10.5459H120.732V13.6469H120.82C121.123 12.9829 121.81 12.5799 122.537 12.6399C123.089 12.6099 123.625 12.8279 124 13.2339C124.374 13.6389 124.549 14.1909 124.475 14.7389V18.3719H123.364V15.0129C123.364 14.1129 122.945 13.6579 122.16 13.6579C121.773 13.6259 121.392 13.7659 121.119 14.0419C120.846 14.3169 120.708 14.6989 120.742 15.0849V18.3729H119.632V10.5459ZM130.952 16.8519C130.641 17.9139 129.614 18.5999 128.515 18.4809C127.764 18.5019 127.042 18.1909 126.541 17.6309C126.04 17.0709 125.81 16.3189 125.914 15.5749C125.814 14.8289 126.043 14.0769 126.54 13.5129C127.038 12.9489 127.756 12.6289 128.509 12.6349C130.075 12.6349 131.02 13.7049 131.02 15.4719V15.8599H127.045V15.9219C127.009 16.3399 127.152 16.7539 127.438 17.0609C127.723 17.3679 128.125 17.5399 128.545 17.5349C129.088 17.5989 129.616 17.3299 129.882 16.8519H130.952ZM127.045 15.0389H129.889C129.917 14.6559 129.783 14.2799 129.519 14.0019C129.255 13.7239 128.886 13.5709 128.502 13.5799C128.114 13.5749 127.74 13.7269 127.466 14.0019C127.192 14.2769 127.04 14.6509 127.045 15.0389Z" fill="white"/>
</g>
</g>
</g>
<defs>
<clipPath id="clip0_8236_181415">
<rect width="150" height="50" fill="white"/>
</clipPath>
<clipPath id="clip1_8236_181415">
<rect width="150" height="50" fill="white"/>
</clipPath>
<clipPath id="clip2_8236_181415">
<rect width="150" height="50" fill="white"/>
</clipPath>
</defs>
</svg>
