<svg width="17" height="18" viewBox="0 0 17 18" fill="none" xmlns="http://www.w3.org/2000/svg">
<path d="M3.49935 7.33317C3.49935 6.87293 3.87245 6.49984 4.33268 6.49984H8.49935C8.95959 6.49984 9.33268 6.87293 9.33268 7.33317C9.33268 7.79341 8.95959 8.1665 8.49935 8.1665H4.33268C3.87245 8.1665 3.49935 7.79341 3.49935 7.33317Z" fill="#9B2A8A"/>
<path d="M4.33268 9.83317C3.87245 9.83317 3.49935 10.2063 3.49935 10.6665C3.49935 11.1267 3.87245 11.4998 4.33268 11.4998H11.8327C12.2929 11.4998 12.666 11.1267 12.666 10.6665C12.666 10.2063 12.2929 9.83317 11.8327 9.83317H4.33268Z" fill="#9B2A8A"/>
<path fill-rule="evenodd" clip-rule="evenodd" d="M0.166016 8.99984C0.166016 4.39746 3.89698 0.666504 8.49935 0.666504C13.1017 0.666504 16.8327 4.39746 16.8327 8.99984C16.8327 13.6022 13.1017 17.3332 8.49935 17.3332C7.80574 17.3332 7.13083 17.2483 6.48492 17.0879L1.86499 16.5104C0.866426 16.3855 0.172457 15.4547 0.337897 14.4621L0.623637 12.7476C0.625293 12.7377 0.625499 12.7276 0.62425 12.7176L0.411334 11.0143C0.250935 10.3684 0.166016 9.69344 0.166016 8.99984ZM8.49935 2.33317C4.81745 2.33317 1.83268 5.31794 1.83268 8.99984C1.83268 9.57196 1.90456 10.1261 2.03936 10.6542L2.05231 10.705L2.27805 12.5109C2.29928 12.6807 2.29577 12.8528 2.26763 13.0216L1.98189 14.7361C1.97216 14.7945 2.01298 14.8492 2.07172 14.8566L6.79421 15.4469L6.84497 15.4598C7.37309 15.5946 7.92723 15.6665 8.49935 15.6665C12.1812 15.6665 15.166 12.6817 15.166 8.99984C15.166 5.31794 12.1812 2.33317 8.49935 2.33317Z" fill="#9B2A8A"/>
</svg>
