<svg width="15" height="15" viewBox="0 0 15 15" fill="none" xmlns="http://www.w3.org/2000/svg">
<path d="M13.76 0.504708L4.74273 1.54528C4.34653 1.59114 4.02233 1.95476 4.02233 2.35377V9.90851C3.6563 9.75928 3.24803 9.67321 2.81563 9.67321C1.261 9.67321 0 10.7532 0 12.0866C0 13.4196 1.261 14.5 2.81563 14.5C4.37026 14.5 5.63126 13.4196 5.63126 12.0866V4.66098L12.8715 3.82554V9.10445C12.5054 8.95482 12.0972 8.86874 11.6648 8.86874C10.1101 8.86874 8.84912 9.94873 8.84912 11.2821C8.84912 12.6151 10.1101 13.6955 11.6648 13.6955C13.2194 13.6955 14.4804 12.6151 14.4804 11.2821V1.14707C14.4804 0.748059 14.1562 0.459256 13.76 0.504708Z" fill="#5DADEC"/>
</svg>
