<svg width="170" height="50" viewBox="0 0 170 50" fill="none" xmlns="http://www.w3.org/2000/svg">
<g clip-path="url(#clip0_8236_181428)">
<g clip-path="url(#clip1_8236_181428)">
<path d="M163.695 50.296H6.298C2.827 50.296 0 47.461 0 44.009V6.287C0 2.822 2.827 0 6.298 0H163.695C167.164 0 169.994 2.822 169.994 6.287V44.009C169.994 47.461 167.164 50.296 163.695 50.296Z" fill="black"/>
<path d="M163.695 1.007C166.607 1.007 168.99 3.38 168.99 6.287V44.009C168.99 46.916 166.623 49.289 163.695 49.289H6.298C3.387 49.289 1.004 46.916 1.004 44.009V6.287C1.004 3.38 3.371 1.007 6.298 1.007H163.695ZM163.695 0H6.298C2.827 0 0 2.835 0 6.287V44.009C0 47.474 2.827 50.296 6.298 50.296H163.695C167.164 50.296 169.994 47.474 169.994 44.009V6.287C169.994 2.835 167.164 0 163.695 0Z" fill="#A6A6A6"/>
<path d="M89.5524 16.6381C88.4174 16.6381 87.4604 16.2401 86.7034 15.4561C85.9534 14.6941 85.5344 13.6431 85.5534 12.5711C85.5534 11.4261 85.9404 10.4571 86.7034 9.68908C87.4574 8.90508 88.4144 8.50708 89.5494 8.50708C90.6724 8.50708 91.6294 8.90508 92.3984 9.68908C93.1614 10.4831 93.5494 11.4511 93.5494 12.5711C93.5374 13.7191 93.1494 14.6871 92.3984 15.4531C91.6454 16.2431 90.6884 16.6381 89.5524 16.6381ZM55.7744 16.6381C54.6644 16.6381 53.7014 16.2461 52.9134 15.4711C52.1314 14.7001 51.7344 13.7251 51.7344 12.5741C51.7344 11.4231 52.1314 10.4481 52.9134 9.67708C53.6854 8.90208 54.6494 8.51008 55.7744 8.51008C56.3254 8.51008 56.8604 8.62008 57.3724 8.84308C57.8764 9.05908 58.2864 9.35408 58.5894 9.71408L58.6644 9.80508L57.8174 10.6391L57.7294 10.5361C57.2504 9.96508 56.6094 9.68608 55.7624 9.68608C55.0054 9.68608 54.3454 9.95608 53.8014 10.4891C53.2544 11.0251 52.9754 11.7271 52.9754 12.5771C52.9754 13.4271 53.2544 14.1291 53.8014 14.6651C54.3454 15.1991 55.0054 15.4681 55.7624 15.4681C56.5694 15.4681 57.2474 15.1991 57.7764 14.6651C58.0894 14.3521 58.2824 13.9131 58.3514 13.3581H55.6344V12.1851H59.5184L59.5334 12.2921C59.5624 12.4891 59.5904 12.6931 59.5904 12.8811C59.5904 13.9631 59.2644 14.8381 58.6204 15.4841C57.8884 16.2491 56.9314 16.6381 55.7744 16.6381ZM100.686 16.4721H99.4884L95.8194 10.5861L95.8514 11.6461V16.4681H94.6534V8.67608H96.0204L96.0574 8.73608L99.5074 14.2801L99.4754 13.2231V8.67608H100.686V16.4721ZM80.5524 16.4721H79.3394V9.84908H77.2344V8.67608H82.6544V9.84908H80.5494V16.4721H80.5524ZM76.2464 16.4721H75.0354V8.67608H76.2464V16.4721ZM69.4444 16.4721H68.2344V9.84908H66.1294V8.67608H71.5484V9.84908H69.4444V16.4721ZM65.3634 16.4591H60.7224V8.67608H65.3634V9.84908H61.9354V11.9881H65.0284V13.1481H61.9354V15.2861H65.3634V16.4591ZM87.5924 14.6501C88.1334 15.1921 88.7894 15.4651 89.5524 15.4651C90.3374 15.4651 90.9784 15.1991 91.5134 14.6501C92.0454 14.1171 92.3144 13.4171 92.3144 12.5741C92.3144 11.7311 92.0454 11.0281 91.5164 10.4981C90.9754 9.95608 90.3154 9.68308 89.5554 9.68308C88.7714 9.68308 88.1294 9.94908 87.5984 10.4981C87.0664 11.0311 86.7974 11.7311 86.7974 12.5741C86.7974 13.4171 87.0634 14.1201 87.5924 14.6501Z" fill="white"/>
<path d="M85.4401 27.356C82.4851 27.356 80.0891 29.604 80.0891 32.705C80.0891 35.778 82.5001 38.054 85.4401 38.054C88.3951 38.054 90.7911 35.79 90.7911 32.705C90.7911 29.604 88.3951 27.356 85.4401 27.356ZM85.4401 35.935C83.8231 35.935 82.4311 34.593 82.4311 32.692C82.4311 30.764 83.8261 29.45 85.4401 29.45C87.0571 29.45 88.4481 30.764 88.4481 32.692C88.4521 34.605 87.0571 35.935 85.4401 35.935ZM73.7661 27.356C70.8101 27.356 68.4151 29.604 68.4151 32.705C68.4151 35.778 70.8261 38.054 73.7661 38.054C76.7211 38.054 79.1171 35.79 79.1171 32.705C79.1171 29.604 76.7181 27.356 73.7661 27.356ZM73.7661 35.935C72.1491 35.935 70.7571 34.593 70.7571 32.692C70.7571 30.764 72.1521 29.45 73.7661 29.45C75.3831 29.45 76.7741 30.764 76.7741 32.692C76.7741 34.605 75.3831 35.935 73.7661 35.935ZM59.8741 28.989V31.253H65.2941C65.1281 32.523 64.7091 33.461 64.0681 34.103C63.2741 34.9 62.0481 35.765 59.8871 35.765C56.5561 35.765 53.9511 33.069 53.9511 29.729C53.9511 26.39 56.5561 23.693 59.8871 23.693C61.6851 23.693 62.9951 24.405 63.9681 25.314L65.5691 23.709C64.2181 22.411 62.4201 21.417 59.8991 21.417C55.3301 21.417 51.4961 25.148 51.4961 29.717C51.4961 34.298 55.3271 38.017 59.8991 38.017C62.3671 38.017 64.2181 37.208 65.6821 35.684C67.1731 34.188 67.6461 32.078 67.6461 30.375C67.6461 29.845 67.6051 29.369 67.5211 28.964H59.8711C59.8741 28.961 59.8741 28.989 59.8741 28.989ZM116.694 30.751C116.247 29.55 114.896 27.343 112.125 27.343C109.379 27.343 107.096 29.51 107.096 32.692C107.096 35.696 109.354 38.042 112.391 38.042C114.83 38.042 116.25 36.546 116.835 35.668L115.024 34.452C114.424 35.345 113.589 35.932 112.404 35.932C111.206 35.932 110.368 35.386 109.811 34.31L116.944 31.347C116.944 31.35 116.694 30.751 116.694 30.751ZM109.42 32.539C109.364 30.472 111.021 29.422 112.207 29.422C113.142 29.422 113.92 29.883 114.186 30.554L109.42 32.539ZM103.625 37.722H105.968V22.006H103.625V37.722ZM99.7791 28.544H99.6941C99.1661 27.914 98.1621 27.343 96.8801 27.343C94.2181 27.343 91.7661 29.692 91.7661 32.708C91.7661 35.712 94.2061 38.032 96.8801 38.032C98.1461 38.032 99.1661 37.459 99.6941 36.816H99.7791V37.584C99.7791 39.625 98.6901 40.726 96.9361 40.726C95.5001 40.726 94.6091 39.691 94.2461 38.826L92.2111 39.679C92.7951 41.09 94.3561 42.836 96.9331 42.836C99.6791 42.836 102.005 41.215 102.005 37.261V27.663H99.7911V28.544H99.7791ZM97.0891 35.935C95.4721 35.935 94.1211 34.58 94.1211 32.708C94.1211 30.82 95.4721 29.453 97.0891 29.453C98.6901 29.453 99.9321 30.836 99.9321 32.708C99.9471 34.58 98.6931 35.935 97.0891 35.935ZM127.662 22.006H122.061V37.722H124.403V31.771H127.665C130.257 31.771 132.806 29.886 132.806 26.895C132.806 23.903 130.267 22.006 127.662 22.006ZM127.73 29.576H124.4V24.182H127.73C129.485 24.182 130.476 25.634 130.476 26.879C130.476 28.111 129.472 29.576 127.73 29.576ZM142.194 27.327C140.493 27.327 138.739 28.083 138.013 29.729L140.09 30.595C140.537 29.729 141.356 29.434 142.222 29.434C143.436 29.434 144.662 30.162 144.69 31.46V31.626C144.271 31.388 143.351 31.024 142.25 31.024C140.008 31.024 137.735 32.253 137.735 34.558C137.735 36.668 139.574 38.023 141.622 38.023C143.195 38.023 144.061 37.311 144.602 36.487H144.687V37.703H146.945V31.683C146.945 28.879 144.868 27.327 142.194 27.327ZM141.9 35.935C141.134 35.935 140.061 35.558 140.061 34.593C140.061 33.376 141.4 32.915 142.541 32.915C143.573 32.915 144.061 33.138 144.674 33.445C144.505 34.856 143.317 35.922 141.9 35.935ZM155.182 27.663L152.492 34.48H152.408L149.622 27.663H147.101L151.282 37.192L148.899 42.488H151.338L157.771 27.663H155.182ZM134.098 37.722H136.44V22.006H134.098V37.722Z" fill="white"/>
<path d="M13.0847 9.47294C12.7217 9.86494 12.5117 10.4639 12.5117 11.2479V39.0519C12.5117 39.8349 12.7217 40.4339 13.0967 40.8109L13.1937 40.8949L28.7307 25.3169V24.9689L13.1817 9.38794L13.0847 9.47294Z" fill="url(#paint0_linear_8236_181428)"/>
<path d="M33.9008 30.526L28.7188 25.33V24.966L33.9008 19.77L34.0138 19.839L40.1427 23.332C41.8967 24.323 41.8967 25.96 40.1427 26.964L34.0138 30.457L33.9008 30.526Z" fill="url(#paint1_linear_8236_181428)"/>
<path d="M34.0139 30.4569L28.7189 25.1479L13.0859 40.823C13.6579 41.438 14.6179 41.507 15.6909 40.9079L34.0139 30.4569Z" fill="url(#paint2_linear_8236_181428)"/>
<path d="M34.0139 19.8391L15.6909 9.4041C14.6179 8.7891 13.6549 8.8741 13.0859 9.4891L28.7189 25.1481L34.0139 19.8391Z" fill="url(#paint3_linear_8236_181428)"/>
<path opacity="0.2" d="M33.9007 30.344L15.7027 40.71C14.6867 41.297 13.7797 41.256 13.1947 40.723L13.0977 40.82L13.1947 40.905C13.7797 41.435 14.6867 41.479 15.7027 40.892L34.0257 30.457L33.9007 30.344Z" fill="black"/>
<path opacity="0.12" d="M40.1428 26.7819L33.8848 30.3439L33.9978 30.4569L40.1268 26.9639C41.0058 26.4619 41.4378 25.8029 41.4378 25.1479C41.3848 25.7499 40.9368 26.3209 40.1428 26.7819Z" fill="black"/>
<path opacity="0.25" d="M15.6897 9.58597L40.1417 23.514C40.9357 23.963 41.3837 24.549 41.4517 25.148C41.4517 24.493 41.0207 23.834 40.1417 23.332L15.6897 9.40397C13.9347 8.39697 12.5117 9.23797 12.5117 11.248V11.429C12.5117 9.41597 13.9347 8.59197 15.6897 9.58597Z" fill="white"/>
</g>
</g>
<defs>
<linearGradient id="paint0_linear_8236_181428" x1="-14.2788" y1="2.70899" x2="-25.7473" y2="14.1776" gradientUnits="userSpaceOnUse">
<stop stop-color="#00A0FF"/>
<stop offset="1" stop-color="#00E3FF"/>
</linearGradient>
<linearGradient id="paint1_linear_8236_181428" x1="-27.7172" y1="-18.77" x2="-40.4567" y2="-18.77" gradientUnits="userSpaceOnUse">
<stop stop-color="#FFE000"/>
<stop offset="1" stop-color="#FF9C00"/>
</linearGradient>
<linearGradient id="paint2_linear_8236_181428" x1="-25.8267" y1="-8.0301" x2="-40.6252" y2="6.76811" gradientUnits="userSpaceOnUse">
<stop stop-color="#FF3A44"/>
<stop offset="1" stop-color="#C31162"/>
</linearGradient>
<linearGradient id="paint3_linear_8236_181428" x1="3.40113" y1="15.3975" x2="18.1991" y2="30.1962" gradientUnits="userSpaceOnUse">
<stop stop-color="#32A071"/>
<stop offset="1" stop-color="#00F076"/>
</linearGradient>
<clipPath id="clip0_8236_181428">
<rect width="170" height="50" fill="white"/>
</clipPath>
<clipPath id="clip1_8236_181428">
<rect width="170" height="50" fill="white"/>
</clipPath>
</defs>
</svg>
