<svg width="15" height="15" viewBox="0 0 15 15" fill="none" xmlns="http://www.w3.org/2000/svg">
<path d="M14.2416 12.8572C14.2416 12.8572 14.2416 14.4996 12.5992 14.4996H1.92364C0.28125 14.4996 0.28125 12.8572 0.28125 12.8572V5.05584C0.28125 3.41345 1.92364 3.41345 1.92364 3.41345H12.5992C12.5992 3.41345 14.2416 3.41345 14.2416 5.05584V12.8572Z" fill="#05101C"/>
<path d="M8.61778 4.39504C8.77832 4.55559 8.77832 4.81509 8.61778 4.97563C8.45724 5.13617 8.19774 5.13617 8.03719 4.97563L4.26299 1.20142C4.10244 1.04088 4.10244 0.781378 4.26299 0.620835C4.42353 0.460291 4.68303 0.460291 4.84357 0.620835L8.61778 4.39504Z" fill="#05101C"/>
<path d="M5.90556 4.39504C5.74502 4.55559 5.74502 4.81509 5.90556 4.97563C6.06611 5.13617 6.3256 5.13617 6.48615 4.97563L10.2604 1.20142C10.4209 1.04088 10.4209 0.781378 10.2604 0.620835C10.0998 0.460291 9.84032 0.460291 9.67977 0.620835L5.90556 4.39504Z" fill="#05101C"/>
<path d="M7.26159 4.64575C10.5464 4.64575 11.3676 5.05635 11.7782 5.46695C12.1888 5.87754 12.5994 6.69874 12.5994 8.75172C12.5994 10.8047 12.1888 11.6259 11.7782 12.0365C11.3676 12.4471 10.5464 12.8577 7.26159 12.8577C3.97681 12.8577 3.15562 12.4471 2.74502 12.0365C2.33443 11.6259 1.92383 10.8047 1.92383 8.75172C1.92383 6.69874 2.33443 5.87754 2.74502 5.46695C3.15562 5.05635 3.97681 4.64575 7.26159 4.64575Z" fill="#55ACEE"/>
<path d="M12.8034 13.6796C13.1435 13.6796 13.4193 13.4039 13.4193 13.0637C13.4193 12.7236 13.1435 12.4478 12.8034 12.4478C12.4632 12.4478 12.1875 12.7236 12.1875 13.0637C12.1875 13.4039 12.4632 13.6796 12.8034 13.6796Z" fill="#66757F"/>
<path d="M1.71941 13.6796C2.05956 13.6796 2.33531 13.4039 2.33531 13.0637C2.33531 12.7236 2.05956 12.4478 1.71941 12.4478C1.37926 12.4478 1.10352 12.7236 1.10352 13.0637C1.10352 13.4039 1.37926 13.6796 1.71941 13.6796Z" fill="#66757F"/>
</svg>
