<svg width="110" height="32" viewBox="0 0 110 32" fill="none" xmlns="http://www.w3.org/2000/svg">
<path d="M17.1269 4L17.1269 11.4895L24.6234 11.4895V4L17.1269 4Z" fill="white"/>
<path d="M8.89798 20.5105V28H24.6255V20.5105H8.89798Z" fill="white"/>
<path d="M0.625 20.5105L0.625 28H8.09987L8.09987 20.5105H0.625Z" fill="white"/>
<path d="M16.3515 11.7284V4.34682L0.948106 19.7358H8.35816L16.3515 11.7284Z" fill="white"/>
<path d="M24.2821 12.2663H16.9369L9.4404 19.7342H16.3752L24.2821 12.2663Z" fill="white"/>
<path d="M52.3351 15.3559V16.8362C52.3351 19.5775 51.4579 21.798 49.7034 23.4976C47.949 25.1972 45.6828 26.047 42.905 26.047C39.9443 26.047 37.4863 25.0876 35.5308 23.1686C33.5936 21.2314 32.625 18.8739 32.625 16.096C32.625 13.2999 33.5845 10.9332 35.5034 8.99599C37.4406 7.05879 39.8347 6.09019 42.6857 6.09019C44.4767 6.09019 46.1123 6.50139 47.5926 7.32379C49.0729 8.12791 50.2243 9.20616 51.0467 10.5586L47.8119 12.4227C47.355 11.6368 46.6606 10.9972 45.7285 10.5037C44.8148 10.0103 43.7913 9.76357 42.6582 9.76357C40.8307 9.76357 39.323 10.3667 38.1351 11.5728C36.9654 12.7607 36.3806 14.2685 36.3806 16.096C36.3806 17.9053 36.9746 19.4039 38.1625 20.5918C39.3687 21.7614 40.9586 22.3462 42.9324 22.3462C44.3944 22.3462 45.6006 22.0264 46.5509 21.3868C47.5195 20.7289 48.1774 19.8334 48.5247 18.7003H42.7131V15.3559H52.3351Z" fill="white"/>
<path d="M63.9078 11.9566H67.4441V25.6632H63.9078V24.0459C62.8478 25.38 61.3584 26.047 59.4394 26.047C57.6119 26.047 56.0402 25.3526 54.7244 23.9636C53.4268 22.5564 52.778 20.8385 52.778 18.8099C52.778 16.7814 53.4268 15.0726 54.7244 13.6837C56.0402 12.2764 57.6119 11.5728 59.4394 11.5728C61.3584 11.5728 62.8478 12.2399 63.9078 13.574V11.9566ZM57.3834 21.6061C58.0962 22.3188 59.0008 22.6752 60.0973 22.6752C61.1939 22.6752 62.0985 22.3188 62.8113 21.6061C63.5423 20.8751 63.9078 19.943 63.9078 18.8099C63.9078 17.6769 63.5423 16.7539 62.8113 16.0412C62.0985 15.3102 61.1939 14.9447 60.0973 14.9447C59.0008 14.9447 58.0962 15.3102 57.3834 16.0412C56.6707 16.7539 56.3143 17.6769 56.3143 18.8099C56.3143 19.943 56.6707 20.8751 57.3834 21.6061Z" fill="white"/>
<path d="M84.4397 11.5728C86.0114 11.5728 87.2632 12.0846 88.1953 13.108C89.1456 14.1314 89.6208 15.5021 89.6208 17.22V25.6632H86.0845V17.4667C86.0845 16.6443 85.8834 16.0046 85.4814 15.5478C85.0793 15.0909 84.5128 14.8624 83.7817 14.8624C82.9776 14.8624 82.3471 15.1274 81.8902 15.6574C81.4516 16.1874 81.2323 16.955 81.2323 17.9601V25.6632H77.696V17.4667C77.696 16.6443 77.495 16.0046 77.0929 15.5478C76.6909 15.0909 76.1243 14.8624 75.3933 14.8624C74.6074 14.8624 73.9769 15.1274 73.5018 15.6574C73.0449 16.1874 72.8165 16.955 72.8165 17.9601V25.6632H69.2801V11.9566H72.8165V13.4095C73.6388 12.1851 74.909 11.5728 76.6269 11.5728C78.3082 11.5728 79.551 12.2308 80.3551 13.5466C81.2689 12.2308 82.6304 11.5728 84.4397 11.5728Z" fill="white"/>
<path d="M93.008 10.3118C92.4232 10.3118 91.9115 10.1017 91.4729 9.68133C91.0525 9.24271 90.8424 8.731 90.8424 8.14618C90.8424 7.56137 91.0525 7.04966 91.4729 6.61104C91.9115 6.17243 92.4232 5.95312 93.008 5.95312C93.6111 5.95312 94.1228 6.17243 94.5432 6.61104C94.9818 7.04966 95.2011 7.56137 95.2011 8.14618C95.2011 8.731 94.9818 9.24271 94.5432 9.68133C94.1228 10.1017 93.6111 10.3118 93.008 10.3118ZM91.2536 25.6632V11.9566H94.7899V25.6632H91.2536Z" fill="white"/>
<path d="M103.18 26.047C101.115 26.047 99.3881 25.3526 97.9992 23.9636C96.6285 22.5747 95.9432 20.8568 95.9432 18.8099C95.9432 16.7631 96.6285 15.0452 97.9992 13.6562C99.3881 12.2673 101.115 11.5728 103.18 11.5728C104.514 11.5728 105.73 11.8927 106.826 12.5323C107.923 13.1719 108.754 14.0309 109.321 15.1091L106.278 16.891C106.004 16.3245 105.583 15.8767 105.017 15.5478C104.469 15.2188 103.847 15.0543 103.153 15.0543C102.093 15.0543 101.216 15.4107 100.521 16.1234C99.8267 16.8179 99.4795 17.7134 99.4795 18.8099C99.4795 19.8882 99.8267 20.7837 100.521 21.4964C101.216 22.1909 102.093 22.5381 103.153 22.5381C103.866 22.5381 104.496 22.3828 105.044 22.0721C105.611 21.7432 106.031 21.2954 106.305 20.7289L109.376 22.4833C108.773 23.5616 107.923 24.4296 106.826 25.0876C105.73 25.7272 104.514 26.047 103.18 26.047Z" fill="white"/>
</svg>
