<svg width="117" height="32" viewBox="0 0 117 32" fill="none" xmlns="http://www.w3.org/2000/svg">
<rect width="9.98574" height="9.99508" transform="matrix(-4.37114e-08 1 1 4.37114e-08 22.0029 0)" fill="#FB6320"/>
<rect width="9.98574" height="20.9695" transform="matrix(-4.37114e-08 1 1 4.37114e-08 11.0317 22.0137)" fill="#FB6320"/>
<rect width="9.98574" height="9.96628" transform="matrix(-4.37114e-08 1 1 4.37114e-08 0 22.0137)" fill="#FB6320"/>
<path d="M20.9674 10.3057L20.9674 0.463868L0.429931 20.9821L10.3098 20.9821L20.9674 10.3057Z" fill="#FB6320"/>
<path d="M31.5417 11.0225L21.7483 11.0225L11.7532 20.9794L20.9993 20.9794L31.5417 11.0225Z" fill="#FB6320"/>
<path d="M58.4435 15.4584V16.9475C58.4435 19.7051 57.5611 21.9387 55.7963 23.6484C54.0314 25.358 51.7519 26.2129 48.9575 26.2129C45.9794 26.2129 43.5068 25.2477 41.5397 23.3174C39.591 21.3688 38.6167 18.9973 38.6167 16.203C38.6167 13.3902 39.5818 11.0096 41.5121 9.06089C43.4608 7.11221 45.8691 6.13788 48.7369 6.13788C50.5385 6.13788 52.1839 6.55151 53.673 7.37878C55.162 8.18766 56.3202 9.2723 57.1475 10.6327L53.8936 12.5078C53.434 11.7173 52.7354 11.0739 51.7978 10.5775C50.8786 10.0812 49.8491 9.833 48.7094 9.833C46.871 9.833 45.3543 10.4397 44.1594 11.653C42.9828 12.8479 42.3945 14.3646 42.3945 16.203C42.3945 18.0229 42.992 19.5304 44.187 20.7253C45.4003 21.9019 46.9997 22.4902 48.9851 22.4902C50.4558 22.4902 51.6691 22.1685 52.6251 21.525C53.5994 20.8632 54.2612 19.9624 54.6105 18.8226H48.7645V15.4584H58.4435Z" fill="white"/>
<path d="M70.3605 12.039H73.9177V25.8268H70.3605V24.1999C69.2942 25.5419 67.7959 26.2129 65.8657 26.2129C64.0273 26.2129 62.4463 25.5143 61.1227 24.1171C59.8174 22.7016 59.1648 20.9735 59.1648 18.9329C59.1648 16.8923 59.8174 15.1735 61.1227 13.7763C62.4463 12.3608 64.0273 11.653 65.8657 11.653C67.7959 11.653 69.2942 12.324 70.3605 13.666V12.039ZM63.7975 21.7456C64.5145 22.4626 65.4244 22.8211 66.5275 22.8211C67.6305 22.8211 68.5405 22.4626 69.2574 21.7456C69.9928 21.0103 70.3605 20.0727 70.3605 18.9329C70.3605 17.7931 69.9928 16.8648 69.2574 16.1478C68.5405 15.4125 67.6305 15.0448 66.5275 15.0448C65.4244 15.0448 64.5145 15.4125 63.7975 16.1478C63.0805 16.8648 62.722 17.7931 62.722 18.9329C62.722 20.0727 63.0805 21.0103 63.7975 21.7456Z" fill="white"/>
<path d="M91.2897 11.653C92.8707 11.653 94.1299 12.1677 95.0675 13.1972C96.0235 14.2267 96.5014 15.6055 96.5014 17.3336V25.8268H92.9442V17.5817C92.9442 16.7545 92.742 16.111 92.3375 15.6514C91.9331 15.1919 91.3632 14.9621 90.6278 14.9621C89.819 14.9621 89.1847 15.2286 88.7251 15.7617C88.2839 16.2949 88.0633 17.067 88.0633 18.0781V25.8268H84.5061V17.5817C84.5061 16.7545 84.3039 16.111 83.8994 15.6514C83.495 15.1919 82.9251 14.9621 82.1897 14.9621C81.3992 14.9621 80.765 15.2286 80.287 15.7617C79.8274 16.2949 79.5976 17.067 79.5976 18.0781V25.8268H76.0404V12.039H79.5976V13.5006C80.4249 12.2688 81.7026 11.653 83.4306 11.653C85.1219 11.653 86.372 12.3148 87.1809 13.6384C88.1001 12.3148 89.4697 11.653 91.2897 11.653Z" fill="white"/>
<path d="M100.185 10.3845C99.5962 10.3845 99.0815 10.1731 98.6403 9.75028C98.2174 9.30907 98.006 8.79432 98.006 8.20604C98.006 7.61777 98.2174 7.10302 98.6403 6.66181C99.0815 6.2206 99.5962 6 100.185 6C100.791 6 101.306 6.2206 101.729 6.66181C102.17 7.10302 102.391 7.61777 102.391 8.20604C102.391 8.79432 102.17 9.30907 101.729 9.75028C101.306 10.1731 100.791 10.3845 100.185 10.3845ZM98.4197 25.8268V12.039H101.977V25.8268H98.4197Z" fill="white"/>
<path d="M110.693 26.2129C108.615 26.2129 106.878 25.5143 105.481 24.1171C104.102 22.72 103.413 20.9919 103.413 18.9329C103.413 16.874 104.102 15.1459 105.481 13.7487C106.878 12.3516 108.615 11.653 110.693 11.653C112.035 11.653 113.257 11.9747 114.36 12.6181C115.463 13.2616 116.3 14.1256 116.87 15.2102L113.809 17.0026C113.533 16.4328 113.11 15.9824 112.54 15.6514C111.989 15.3205 111.364 15.1551 110.665 15.1551C109.599 15.1551 108.716 15.5136 108.018 16.2305C107.319 16.9291 106.97 17.8299 106.97 18.9329C106.97 20.0176 107.319 20.9184 108.018 21.6353C108.716 22.3339 109.599 22.6832 110.665 22.6832C111.382 22.6832 112.016 22.5269 112.568 22.2144C113.138 21.8835 113.561 21.4331 113.836 20.8632L116.925 22.6281C116.318 23.7127 115.463 24.5859 114.36 25.2477C113.257 25.8912 112.035 26.2129 110.693 26.2129Z" fill="white"/>
</svg>
