<svg width="117" height="32" viewBox="0 0 117 32" fill="none" xmlns="http://www.w3.org/2000/svg">
<rect width="9.98574" height="9.99508" transform="matrix(-4.37114e-08 1 1 4.37114e-08 22.0039 0)" fill="#FB6320"/>
<rect width="9.98574" height="20.9695" transform="matrix(-4.37114e-08 1 1 4.37114e-08 11.0312 22.0137)" fill="#FB6320"/>
<rect width="9.98574" height="9.96628" transform="matrix(-4.37114e-08 1 1 4.37114e-08 0 22.0137)" fill="#FB6320"/>
<path d="M20.9671 10.3057L20.9671 0.463868L0.429687 20.9821L10.3096 20.9821L20.9671 10.3057Z" fill="#FB6320"/>
<path d="M31.5424 11.0225L21.749 11.0225L11.7539 20.9794L21.0001 20.9794L31.5424 11.0225Z" fill="#FB6320"/>
<path d="M58.444 15.4584V16.9475C58.444 19.7051 57.5616 21.9387 55.7968 23.6484C54.0319 25.358 51.7523 26.2129 48.958 26.2129C45.9799 26.2129 43.5073 25.2477 41.5402 23.3174C39.5915 21.3688 38.6172 18.9973 38.6172 16.203C38.6172 13.3902 39.5823 11.0096 41.5126 9.06089C43.4613 7.11221 45.8696 6.13788 48.7374 6.13788C50.539 6.13788 52.1844 6.55151 53.6734 7.37878C55.1625 8.18766 56.3207 9.2723 57.148 10.6327L53.894 12.5078C53.4345 11.7173 52.7359 11.0739 51.7983 10.5775C50.8791 10.0812 49.8496 9.833 48.7098 9.833C46.8715 9.833 45.3548 10.4397 44.1599 11.653C42.9833 12.8479 42.395 14.3646 42.395 16.203C42.395 18.0229 42.9925 19.5304 44.1874 20.7253C45.4008 21.9019 47.0002 22.4902 48.9856 22.4902C50.4563 22.4902 51.6696 22.1685 52.6256 21.525C53.5999 20.8632 54.2617 19.9624 54.611 18.8226H48.765V15.4584H58.444Z" fill="white"/>
<path d="M70.361 12.039H73.9182V25.8268H70.361V24.1999C69.2947 25.5419 67.7964 26.2129 65.8661 26.2129C64.0278 26.2129 62.4468 25.5143 61.1231 24.1171C59.8179 22.7016 59.1653 20.9735 59.1653 18.9329C59.1653 16.8923 59.8179 15.1735 61.1231 13.7763C62.4468 12.3608 64.0278 11.653 65.8661 11.653C67.7964 11.653 69.2947 12.324 70.361 13.666V12.039ZM63.798 21.7456C64.5149 22.4626 65.4249 22.8211 66.528 22.8211C67.631 22.8211 68.541 22.4626 69.2579 21.7456C69.9933 21.0103 70.361 20.0727 70.361 18.9329C70.361 17.7931 69.9933 16.8648 69.2579 16.1478C68.541 15.4125 67.631 15.0448 66.528 15.0448C65.4249 15.0448 64.5149 15.4125 63.798 16.1478C63.081 16.8648 62.7225 17.7931 62.7225 18.9329C62.7225 20.0727 63.081 21.0103 63.798 21.7456Z" fill="white"/>
<path d="M91.2902 11.653C92.8712 11.653 94.1304 12.1677 95.068 13.1972C96.024 14.2267 96.5019 15.6055 96.5019 17.3336V25.8268H92.9447V17.5817C92.9447 16.7545 92.7425 16.111 92.338 15.6514C91.9336 15.1919 91.3637 14.9621 90.6283 14.9621C89.8195 14.9621 89.1852 15.2286 88.7256 15.7617C88.2844 16.2949 88.0638 17.067 88.0638 18.0781V25.8268H84.5066V17.5817C84.5066 16.7545 84.3043 16.111 83.8999 15.6514C83.4955 15.1919 82.9256 14.9621 82.1902 14.9621C81.3997 14.9621 80.7655 15.2286 80.2875 15.7617C79.8279 16.2949 79.5981 17.067 79.5981 18.0781V25.8268H76.0409V12.039H79.5981V13.5006C80.4254 12.2688 81.7031 11.653 83.4311 11.653C85.1224 11.653 86.3725 12.3148 87.1814 13.6384C88.1006 12.3148 89.4702 11.653 91.2902 11.653Z" fill="white"/>
<path d="M100.185 10.3845C99.5967 10.3845 99.082 10.1731 98.6408 9.75028C98.2179 9.30907 98.0065 8.79432 98.0065 8.20604C98.0065 7.61777 98.2179 7.10302 98.6408 6.66181C99.082 6.2206 99.5967 6 100.185 6C100.792 6 101.306 6.2206 101.729 6.66181C102.17 7.10302 102.391 7.61777 102.391 8.20604C102.391 8.79432 102.17 9.30907 101.729 9.75028C101.306 10.1731 100.792 10.3845 100.185 10.3845ZM98.4202 25.8268V12.039H101.977V25.8268H98.4202Z" fill="white"/>
<path d="M110.693 26.2129C108.616 26.2129 106.879 25.5143 105.481 24.1171C104.103 22.72 103.413 20.9919 103.413 18.9329C103.413 16.874 104.103 15.1459 105.481 13.7487C106.879 12.3516 108.616 11.653 110.693 11.653C112.035 11.653 113.258 11.9747 114.361 12.6181C115.464 13.2616 116.3 14.1256 116.87 15.2102L113.809 17.0026C113.534 16.4328 113.111 15.9824 112.541 15.6514C111.989 15.3205 111.364 15.1551 110.666 15.1551C109.599 15.1551 108.717 15.5136 108.018 16.2305C107.32 16.9291 106.971 17.8299 106.971 18.9329C106.971 20.0176 107.32 20.9184 108.018 21.6353C108.717 22.3339 109.599 22.6832 110.666 22.6832C111.383 22.6832 112.017 22.5269 112.568 22.2144C113.138 21.8835 113.561 21.4331 113.837 20.8632L116.925 22.6281C116.319 23.7127 115.464 24.5859 114.361 25.2477C113.258 25.8912 112.035 26.2129 110.693 26.2129Z" fill="white"/>
</svg>
