<svg width="272" height="48" viewBox="0 0 272 48" fill="none" xmlns="http://www.w3.org/2000/svg">
<g clip-path="url(#clip0_8316_345260)">
<path d="M154.799 19.8428H157.752V36.2148H173.857V38.6311H154.799V19.8428Z" fill="#2F2F2F"/>
<path d="M222.204 24.3265C222.204 10.8914 211.311 0 197.876 0C184.438 0 173.547 10.8914 173.547 24.3265C173.547 35.8473 181.559 45.4854 192.314 48C192.25 47.8974 192.205 47.7811 192.187 47.6599C183.234 44.6488 176.779 36.1972 176.779 26.2265C176.779 13.7356 186.905 3.60841 199.396 3.60841C211.887 3.60841 222.013 13.7356 222.013 26.2265C222.013 26.7539 221.991 27.2714 221.954 27.7883C222.114 26.6562 222.204 25.5031 222.204 24.3265Z" fill="#2F2F2F"/>
<path d="M212.124 32.7649C211.914 32.1503 211.397 31.8053 210.941 31.4207C210.58 31.1153 210.157 30.8828 209.766 30.6101C209.655 30.5304 209.517 30.4148 209.551 30.288C209.59 30.1563 209.744 30.0871 209.898 30.0487C210.293 29.9498 210.689 29.8805 211.097 29.8762C211.142 29.8762 211.203 29.896 211.221 29.828C211.239 29.768 211.184 29.7334 211.146 29.7105C210.77 29.4694 210.378 29.2567 209.943 29.1312C209.124 28.895 208.296 28.8826 207.458 28.9364C207.442 29.0001 207.405 29.0087 207.368 29.0063C207.402 29.0019 207.433 28.9834 207.458 28.9364C207.394 28.9141 207.301 29.005 207.271 28.8826C208.112 28.3206 208.892 27.6769 209.631 26.9789C210.469 26.188 211.243 25.3404 211.784 24.3096C211.934 24.0234 212.043 23.7328 212.132 23.3748C211.801 23.6085 211.46 23.6023 211.15 23.6932C210.373 23.9214 209.613 23.3414 209.556 22.5333C209.479 21.4284 209.863 20.4335 210.261 19.4442C210.463 18.9539 210.736 18.4908 211.06 18.0061C210.931 18.0271 210.864 18.0036 210.778 18.0401C209.899 18.4067 209.074 18.8674 208.294 19.4127C207.74 19.8035 207.264 20.2962 206.686 20.6536C206.317 20.8824 206.187 20.8385 206.04 20.4347C205.89 20.0298 205.881 19.5939 205.784 19.1691C204.72 20.1491 204.054 21.3554 203.628 22.7144C203.447 23.2981 203.154 23.823 202.633 24.186C202.515 24.2664 202.515 24.2676 202.475 24.1792C202.221 23.6493 202.062 23.0972 202.035 22.511C202.01 21.9675 201.992 21.429 202.012 20.8849C202.035 20.3179 201.973 19.7447 201.946 19.1747C201.914 18.5056 201.77 17.8614 201.549 17.2344C201.428 16.8783 201.323 16.5085 201.103 16.1376C201.028 16.4411 200.935 16.6798 200.807 16.9012C200.629 17.2159 200.397 17.436 200.002 17.4558C199.54 17.4793 199.162 17.2845 198.797 17.0458C198.2 16.6563 197.681 16.1734 197.201 15.6503C196.729 15.1378 196.273 14.6134 195.847 14.0631C195.603 13.7528 195.346 13.4473 195.127 13.1153C195.097 13.0677 195.057 13.0052 194.991 13.0269C194.906 13.0541 194.943 13.1357 194.956 13.1858C194.997 13.3676 194.922 13.537 194.911 13.7138C194.88 14.1695 194.854 14.6289 194.775 15.0778C194.661 15.7462 194.564 16.4176 194.394 17.0737C194.213 17.7742 193.969 18.4376 193.564 19.0343C193.306 19.4164 192.821 19.5716 192.371 19.4418C192.076 19.3546 191.864 19.1456 191.648 18.9446C191.608 18.9063 191.569 18.834 191.501 18.8797C191.433 18.9181 191.461 19.0096 191.48 19.043C191.605 19.2241 191.57 19.4424 191.61 19.6371C191.774 20.4564 192.073 21.2225 192.447 21.9669C192.952 22.9593 193.67 23.8243 194.159 24.8235C194.418 25.3496 194.634 25.8882 194.615 26.5164C194.49 26.3748 194.347 26.4459 194.227 26.4205C193.464 26.269 192.908 25.7763 192.34 25.3144C191.427 24.5706 190.378 24.1353 189.268 23.807C189.226 23.7952 189.162 23.8008 189.132 23.8261C189.083 23.8768 189.155 23.9084 189.171 23.9486C189.308 24.2645 189.441 24.5761 189.563 24.8933C189.735 25.3441 189.577 25.605 189.138 25.5741C188.986 25.5617 188.822 25.5586 188.675 25.5271C187.94 25.3719 187.194 25.2927 186.451 25.2822C185.61 25.268 184.76 25.2965 183.93 25.5203C184.044 25.6161 184.186 25.6038 184.303 25.6631C185.334 26.2054 186.268 26.8805 187.076 27.7196C187.335 27.9904 187.586 28.2841 187.733 28.6334C187.969 29.1868 188.016 29.6283 187.489 30.092C187.08 30.4525 186.564 30.5669 186.01 30.7103C186.677 31.2946 187.428 31.6538 188.224 31.9339C189.024 32.2196 189.844 32.4007 190.68 32.5634C191.506 32.721 192.342 32.7581 193.213 32.888C191.986 33.3647 190.414 34.5932 190.221 35.7037C190.651 35.4861 191.084 35.3006 191.534 35.1528C191.743 35.0823 191.96 35.1918 191.933 35.3494C191.911 35.4694 191.888 35.5943 191.835 35.7025C191.57 36.2682 191.294 36.8315 191.126 37.4362C191.013 37.8387 190.893 38.248 191.044 38.6882C191.11 38.8824 191.135 38.8428 191.274 38.7699C191.83 38.4681 192.387 38.159 192.961 37.8981C193.404 37.6971 193.836 37.443 194.353 37.4597C194.614 37.4702 194.723 37.5753 194.756 37.8307C194.817 38.282 194.694 38.7198 194.686 39.1606C194.698 39.207 194.663 39.2812 194.754 39.2812C194.973 39.0994 195.198 38.9275 195.4 38.7321C196.379 37.7837 197.145 36.6584 197.945 35.564C198.596 34.6705 199.395 34.0065 200.503 33.7622C200.63 33.7338 200.6 33.7394 200.64 33.8414C200.897 34.4492 201.012 35.0885 201.07 35.7297C201.153 36.6466 201.2 37.5716 201.033 38.5009C200.903 39.1866 200.694 39.8346 200.414 40.4498C200.539 40.3626 200.685 40.2971 200.879 40.2971C201.408 40.2971 201.676 40.7008 201.69 41.1126C201.969 40.2309 202.081 39.3171 202.117 38.389C202.141 37.7639 202.037 37.1456 201.967 36.5236C201.928 36.1891 201.872 35.8465 201.797 35.5176C201.655 34.9005 201.484 34.2915 201.294 33.6911C201.25 33.5403 201.331 33.5001 201.4 33.4821C202.171 33.3053 202.933 33.2262 203.725 33.4321C204.841 33.722 205.845 34.2847 206.928 34.6544C207.747 34.9352 208.584 35.1312 209.461 35.2833C209.16 34.8573 208.758 34.5345 208.539 34.0838C208.371 33.7431 208.469 33.5149 208.787 33.3851C209.281 33.1792 209.799 33.1681 210.301 33.1025C210.848 33.0302 211.403 33.0357 211.952 33.0234C212.166 33.0203 212.19 32.9646 212.124 32.7649Z" fill="#11815F"/>
<path d="M207.18 28.9664C207.18 28.941 207.198 28.9188 207.224 28.9033C207.203 28.9175 207.189 28.9379 207.18 28.9664Z" fill="#11815F"/>
<path d="M207.197 29.0118C207.22 29.0063 207.243 29.0063 207.263 29.0075C207.245 29.0118 207.22 29.0192 207.197 29.0118Z" fill="#11815F"/>
<path d="M194.686 39.165C194.696 39.2114 194.664 39.2856 194.754 39.2856C194.754 39.3468 194.704 39.3678 194.654 39.4049C194.661 39.3196 194.548 39.2324 194.686 39.165Z" fill="#11815F"/>
<path d="M-0.00390625 19.8428H3.48393L12.2323 34.4984L21.3306 19.8428H24.8184V38.6317H21.8691V24.1901L13.7076 37.2362H10.7292L2.94848 24.3248V38.6323H-0.00390625V19.8428Z" fill="#2F2F2F"/>
<path d="M38.4876 19.8428H42.569L52.0166 38.6317H48.8509L46.6745 34.337H34.4068L32.2328 38.6317H29.0684L38.4876 19.8428ZM35.6421 31.9213H45.4422L40.528 22.2863L35.6421 31.9213Z" fill="#2F2F2F"/>
<path d="M56.0488 19.8428H69.1179C71.6393 19.8428 73.548 20.3628 74.8335 21.399C76.1232 22.439 76.7656 23.879 76.7656 25.7203C76.7656 27.5641 76.1226 29.0128 74.8335 30.0695C73.5474 31.1243 71.6393 31.6523 69.1179 31.6523H59.0018V38.6323H56.0494L56.0488 19.8428ZM59.0018 29.2372H69.1179C72.2483 29.2372 73.8133 28.0649 73.8133 25.7203C73.8133 24.5765 73.4336 23.7121 72.6725 23.1321C71.9126 22.5497 70.7273 22.2579 69.1173 22.2579H59.0012L59.0018 29.2372Z" fill="#2F2F2F"/>
<path d="M81.041 19.8428H83.994V36.2148H100.096V38.6311H81.0416V19.8428H81.041Z" fill="#2F2F2F"/>
<path d="M103.967 38.6311V19.8428H124.637V22.2572H106.92V28.0285H122.863V30.4442H106.92V36.2142H124.637V38.6305L103.967 38.6311Z" fill="#2F2F2F"/>
<path d="M143.635 19.8428C144.856 19.8428 145.926 20.0617 146.858 20.5006C147.79 20.939 148.509 21.5549 149.018 22.3525C149.527 23.1476 149.781 24.0744 149.781 25.1293C149.781 25.9528 149.594 26.7226 149.221 27.4368C148.844 28.1527 148.305 28.7513 147.608 29.236C148.29 29.7189 148.823 30.3131 149.208 31.0198C149.589 31.7284 149.782 32.4938 149.782 33.3156C149.782 34.3722 149.529 35.3022 149.019 36.1072C148.51 36.9128 147.791 37.5349 146.859 37.972C145.927 38.4128 144.857 38.6311 143.636 38.6311H128.85V19.8428H143.635ZM131.801 22.2572V28.0285H143.634C144.708 28.0285 145.51 27.7601 146.04 27.2228C146.567 26.6868 146.832 25.9875 146.832 25.1286C146.832 24.2896 146.566 23.599 146.04 23.0623C145.511 22.525 144.71 22.256 143.634 22.256L131.801 22.2572ZM143.635 36.2148C144.709 36.2148 145.51 35.9471 146.04 35.4085C146.568 34.8737 146.832 34.175 146.832 33.3156C146.832 32.4753 146.566 31.7847 146.04 31.248C145.512 30.7125 144.71 30.4436 143.635 30.4436H131.802V36.2135L143.635 36.2148Z" fill="#2F2F2F"/>
<path d="M225.383 29.2108C225.383 27.4202 225.894 25.7793 226.911 24.2854C227.934 22.791 229.35 21.6113 231.167 20.7413C232.982 19.8763 235.018 19.4404 237.275 19.4404C241.498 19.4404 244.726 20.7358 246.963 23.3314L244.922 25.0225C244.153 24.0913 243.132 23.3549 241.862 22.8077C240.591 22.2617 239.062 21.9891 237.275 21.9891C235.504 21.9891 233.912 22.3205 232.509 22.9821C231.105 23.6436 230.013 24.5247 229.237 25.6253C228.457 26.7271 228.067 27.9211 228.067 29.2096C228.067 30.4796 228.457 31.6643 229.237 32.7648C230.013 33.8648 231.105 34.7459 232.509 35.4075C233.914 36.069 235.504 36.4004 237.275 36.4004C239.062 36.4004 240.591 36.129 241.862 35.5837C243.133 35.0365 244.153 34.2995 244.922 33.3671L246.963 35.0847C244.708 37.6636 241.477 38.9509 237.275 38.9509C235.02 38.9509 232.982 38.5169 231.167 37.6494C229.35 36.7819 227.934 35.601 226.911 34.1072C225.894 32.6146 225.383 30.9816 225.383 29.2108Z" fill="#2F2F2F"/>
<path d="M250.693 19.8428H253.645V28.6196L266.665 19.8428H271.36L258.611 28.593L272.006 38.6311H267.227L256.142 30.3094L253.645 32.0004V38.6311H250.693V19.8428Z" fill="#2F2F2F"/>
</g>
<defs>
<clipPath id="clip0_8316_345260">
<rect width="272.009" height="48" fill="white" transform="translate(-0.00390625)"/>
</clipPath>
</defs>
</svg>
