<svg width="82" height="40" viewBox="0 0 82 40" fill="none" xmlns="http://www.w3.org/2000/svg">
<path d="M2.71092 2.008H6.14292L11.5429 14.872H11.6389L16.9909 2.008H20.4229V19H18.1189V5.032H18.0709L12.3349 19H10.7989L5.06292 5.032H5.01492V19H2.71092V2.008ZM34.3969 19H32.2369V17.248H32.1889C31.9169 17.856 31.4449 18.352 30.7729 18.736C30.1009 19.104 29.3249 19.288 28.4449 19.288C27.8849 19.288 27.3569 19.2 26.8609 19.024C26.3649 18.864 25.9249 18.608 25.5409 18.256C25.1729 17.904 24.8769 17.456 24.6529 16.912C24.4289 16.352 24.3169 15.696 24.3169 14.944V7.624H26.4769V14.344C26.4769 14.872 26.5489 15.328 26.6929 15.712C26.8369 16.08 27.0289 16.384 27.2689 16.624C27.5089 16.848 27.7809 17.016 28.0849 17.128C28.4049 17.224 28.7329 17.272 29.0689 17.272C29.5169 17.272 29.9329 17.2 30.3169 17.056C30.7009 16.912 31.0369 16.688 31.3249 16.384C31.6129 16.064 31.8369 15.664 31.9969 15.184C32.1569 14.704 32.2369 14.136 32.2369 13.48V7.624H34.3969V19ZM38.0609 0.855999H40.2209V19H38.0609V0.855999ZM43.9465 9.016C44.5545 8.456 45.2585 8.04 46.0585 7.768C46.8585 7.48 47.6585 7.336 48.4585 7.336C49.2905 7.336 50.0025 7.44 50.5945 7.648C51.2025 7.856 51.6985 8.136 52.0825 8.488C52.4665 8.84 52.7465 9.248 52.9225 9.712C53.1145 10.16 53.2105 10.632 53.2105 11.128V16.936C53.2105 17.336 53.2185 17.704 53.2345 18.04C53.2505 18.376 53.2745 18.696 53.3065 19H51.3865C51.3385 18.424 51.3145 17.848 51.3145 17.272H51.2665C50.7865 18.008 50.2185 18.528 49.5625 18.832C48.9065 19.136 48.1465 19.288 47.2825 19.288C46.7545 19.288 46.2505 19.216 45.7705 19.072C45.2905 18.928 44.8665 18.712 44.4985 18.424C44.1465 18.136 43.8665 17.784 43.6585 17.368C43.4505 16.936 43.3465 16.44 43.3465 15.88C43.3465 15.144 43.5065 14.528 43.8265 14.032C44.1625 13.536 44.6105 13.136 45.1705 12.832C45.7465 12.512 46.4105 12.288 47.1625 12.16C47.9305 12.016 48.7465 11.944 49.6105 11.944H51.1945V11.464C51.1945 11.176 51.1385 10.888 51.0265 10.6C50.9145 10.312 50.7465 10.056 50.5225 9.832C50.2985 9.592 50.0185 9.408 49.6825 9.28C49.3465 9.136 48.9465 9.064 48.4825 9.064C48.0665 9.064 47.6985 9.104 47.3785 9.184C47.0745 9.264 46.7945 9.368 46.5385 9.496C46.2825 9.608 46.0505 9.744 45.8425 9.904C45.6345 10.064 45.4345 10.216 45.2425 10.36L43.9465 9.016ZM50.0425 13.528C49.5305 13.528 49.0025 13.56 48.4585 13.624C47.9305 13.672 47.4425 13.776 46.9945 13.936C46.5625 14.096 46.2025 14.32 45.9145 14.608C45.6425 14.896 45.5065 15.264 45.5065 15.712C45.5065 16.368 45.7225 16.84 46.1545 17.128C46.6025 17.416 47.2025 17.56 47.9545 17.56C48.5465 17.56 49.0505 17.464 49.4665 17.272C49.8825 17.064 50.2185 16.8 50.4745 16.48C50.7305 16.16 50.9145 15.808 51.0265 15.424C51.1385 15.024 51.1945 14.632 51.1945 14.248V13.528H50.0425ZM56.5838 7.624H58.7438V9.376H58.7918C59.0638 8.768 59.5358 8.28 60.2078 7.912C60.8798 7.528 61.6558 7.336 62.5358 7.336C63.0798 7.336 63.5998 7.424 64.0958 7.6C64.6078 7.76 65.0478 8.016 65.4158 8.368C65.7998 8.72 66.1038 9.176 66.3278 9.736C66.5518 10.28 66.6638 10.928 66.6638 11.68V19H64.5038V12.28C64.5038 11.752 64.4318 11.304 64.2878 10.936C64.1438 10.552 63.9518 10.248 63.7118 10.024C63.4718 9.784 63.1918 9.616 62.8718 9.52C62.5678 9.408 62.2478 9.352 61.9118 9.352C61.4638 9.352 61.0478 9.424 60.6638 9.568C60.2798 9.712 59.9438 9.944 59.6558 10.264C59.3678 10.568 59.1438 10.96 58.9838 11.44C58.8238 11.92 58.7438 12.488 58.7438 13.144V19H56.5838V7.624ZM70.2077 9.016C70.8157 8.456 71.5197 8.04 72.3197 7.768C73.1197 7.48 73.9197 7.336 74.7197 7.336C75.5517 7.336 76.2637 7.44 76.8557 7.648C77.4637 7.856 77.9597 8.136 78.3437 8.488C78.7277 8.84 79.0077 9.248 79.1837 9.712C79.3757 10.16 79.4717 10.632 79.4717 11.128V16.936C79.4717 17.336 79.4797 17.704 79.4957 18.04C79.5117 18.376 79.5357 18.696 79.5677 19H77.6477C77.5997 18.424 77.5757 17.848 77.5757 17.272H77.5277C77.0477 18.008 76.4797 18.528 75.8237 18.832C75.1677 19.136 74.4077 19.288 73.5437 19.288C73.0157 19.288 72.5117 19.216 72.0317 19.072C71.5517 18.928 71.1277 18.712 70.7597 18.424C70.4077 18.136 70.1277 17.784 69.9197 17.368C69.7117 16.936 69.6077 16.44 69.6077 15.88C69.6077 15.144 69.7677 14.528 70.0877 14.032C70.4237 13.536 70.8717 13.136 71.4317 12.832C72.0077 12.512 72.6717 12.288 73.4237 12.16C74.1917 12.016 75.0077 11.944 75.8717 11.944H77.4557V11.464C77.4557 11.176 77.3997 10.888 77.2877 10.6C77.1757 10.312 77.0077 10.056 76.7837 9.832C76.5597 9.592 76.2797 9.408 75.9437 9.28C75.6077 9.136 75.2077 9.064 74.7437 9.064C74.3277 9.064 73.9597 9.104 73.6397 9.184C73.3357 9.264 73.0557 9.368 72.7997 9.496C72.5437 9.608 72.3117 9.744 72.1037 9.904C71.8957 10.064 71.6957 10.216 71.5037 10.36L70.2077 9.016ZM76.3037 13.528C75.7917 13.528 75.2637 13.56 74.7197 13.624C74.1917 13.672 73.7037 13.776 73.2557 13.936C72.8237 14.096 72.4637 14.32 72.1757 14.608C71.9037 14.896 71.7677 15.264 71.7677 15.712C71.7677 16.368 71.9837 16.84 72.4157 17.128C72.8637 17.416 73.4637 17.56 74.2157 17.56C74.8077 17.56 75.3117 17.464 75.7277 17.272C76.1437 17.064 76.4797 16.8 76.7357 16.48C76.9917 16.16 77.1757 15.808 77.2877 15.424C77.3997 15.024 77.4557 14.632 77.4557 14.248V13.528H76.3037Z" fill="black"/>
<path d="M24.9687 36.096C24.1607 36.096 23.4687 35.924 22.8927 35.58C22.3167 35.228 21.8727 34.728 21.5607 34.08C21.2567 33.432 21.1047 32.66 21.1047 31.764C21.1047 31.092 21.1887 30.492 21.3567 29.964C21.5327 29.428 21.7847 28.976 22.1127 28.608C22.4487 28.232 22.8567 27.944 23.3367 27.744C23.8247 27.544 24.3687 27.444 24.9687 27.444C25.4967 27.444 25.9887 27.52 26.4447 27.672C26.9007 27.824 27.2927 28.048 27.6207 28.344C27.7007 28.416 27.7527 28.492 27.7767 28.572C27.8007 28.652 27.8007 28.728 27.7767 28.8C27.7607 28.864 27.7247 28.92 27.6687 28.968C27.6127 29.008 27.5447 29.028 27.4647 29.028C27.3927 29.02 27.3127 28.98 27.2247 28.908C26.9207 28.644 26.5807 28.448 26.2047 28.32C25.8367 28.192 25.4287 28.128 24.9807 28.128C24.3167 28.128 23.7527 28.272 23.2887 28.56C22.8327 28.84 22.4847 29.252 22.2447 29.796C22.0127 30.34 21.8967 30.996 21.8967 31.764C21.8967 32.54 22.0127 33.2 22.2447 33.744C22.4847 34.288 22.8327 34.704 23.2887 34.992C23.7527 35.272 24.3167 35.412 24.9807 35.412C25.4207 35.412 25.8287 35.348 26.2047 35.22C26.5807 35.084 26.9247 34.884 27.2367 34.62C27.3247 34.548 27.4047 34.512 27.4767 34.512C27.5567 34.512 27.6207 34.536 27.6687 34.584C27.7247 34.624 27.7647 34.68 27.7887 34.752C27.8127 34.816 27.8127 34.884 27.7887 34.956C27.7727 35.028 27.7287 35.096 27.6567 35.16C27.3127 35.472 26.9127 35.708 26.4567 35.868C26.0087 36.02 25.5127 36.096 24.9687 36.096ZM31.5483 36.096C31.1563 36.096 30.8043 36.02 30.4923 35.868C30.1883 35.716 29.9443 35.508 29.7603 35.244C29.5843 34.98 29.4963 34.684 29.4963 34.356C29.4963 33.924 29.6043 33.584 29.8203 33.336C30.0363 33.088 30.4003 32.916 30.9123 32.82C31.4243 32.716 32.1283 32.664 33.0243 32.664H33.5403V33.204H33.0363C32.3163 33.204 31.7523 33.236 31.3443 33.3C30.9443 33.356 30.6643 33.464 30.5043 33.624C30.3443 33.784 30.2643 34.008 30.2643 34.296C30.2643 34.656 30.3883 34.948 30.6363 35.172C30.8843 35.396 31.2203 35.508 31.6443 35.508C31.9883 35.508 32.2883 35.428 32.5443 35.268C32.8083 35.1 33.0163 34.872 33.1683 34.584C33.3203 34.296 33.3963 33.968 33.3963 33.6V32.232C33.3963 31.696 33.2883 31.308 33.0723 31.068C32.8563 30.82 32.5123 30.696 32.0403 30.696C31.7363 30.696 31.4403 30.736 31.1523 30.816C30.8723 30.896 30.5723 31.024 30.2523 31.2C30.1643 31.248 30.0843 31.264 30.0123 31.248C29.9483 31.232 29.8963 31.2 29.8563 31.152C29.8243 31.104 29.8003 31.048 29.7843 30.984C29.7763 30.912 29.7883 30.844 29.8203 30.78C29.8523 30.716 29.9083 30.664 29.9883 30.624C30.3243 30.44 30.6643 30.304 31.0083 30.216C31.3603 30.12 31.7003 30.072 32.0283 30.072C32.5003 30.072 32.8883 30.152 33.1923 30.312C33.5043 30.472 33.7323 30.712 33.8763 31.032C34.0283 31.352 34.1043 31.764 34.1043 32.268V35.7C34.1043 35.82 34.0763 35.912 34.0203 35.976C33.9643 36.04 33.8803 36.072 33.7683 36.072C33.6563 36.072 33.5683 36.04 33.5043 35.976C33.4403 35.912 33.4083 35.82 33.4083 35.7V34.596H33.5283C33.4563 34.908 33.3283 35.176 33.1443 35.4C32.9603 35.624 32.7323 35.796 32.4603 35.916C32.1883 36.036 31.8843 36.096 31.5483 36.096ZM36.9898 38.232C36.8698 38.232 36.7778 38.2 36.7138 38.136C36.6498 38.072 36.6178 37.98 36.6178 37.86V30.48C36.6178 30.352 36.6498 30.256 36.7138 30.192C36.7778 30.128 36.8698 30.096 36.9898 30.096C37.1018 30.096 37.1898 30.128 37.2538 30.192C37.3178 30.256 37.3498 30.352 37.3498 30.48V31.704L37.2178 31.632C37.3538 31.152 37.6138 30.772 37.9978 30.492C38.3818 30.212 38.8458 30.072 39.3898 30.072C39.9098 30.072 40.3618 30.196 40.7458 30.444C41.1378 30.692 41.4378 31.04 41.6458 31.488C41.8618 31.936 41.9698 32.468 41.9698 33.084C41.9698 33.7 41.8618 34.236 41.6458 34.692C41.4378 35.14 41.1418 35.488 40.7578 35.736C40.3738 35.976 39.9178 36.096 39.3898 36.096C38.8458 36.096 38.3818 35.956 37.9978 35.676C37.6138 35.396 37.3538 35.024 37.2178 34.56H37.3498V37.86C37.3498 37.98 37.3178 38.072 37.2538 38.136C37.1898 38.2 37.1018 38.232 36.9898 38.232ZM39.2818 35.484C39.6738 35.484 40.0138 35.392 40.3018 35.208C40.5978 35.016 40.8258 34.74 40.9858 34.38C41.1458 34.02 41.2258 33.588 41.2258 33.084C41.2258 32.324 41.0498 31.736 40.6978 31.32C40.3458 30.904 39.8738 30.696 39.2818 30.696C38.8898 30.696 38.5458 30.792 38.2498 30.984C37.9618 31.168 37.7378 31.44 37.5778 31.8C37.4178 32.152 37.3378 32.58 37.3378 33.084C37.3378 33.852 37.5138 34.444 37.8658 34.86C38.2178 35.276 38.6898 35.484 39.2818 35.484ZM44.4922 36.048C44.3722 36.048 44.2802 36.012 44.2162 35.94C44.1522 35.868 44.1202 35.772 44.1202 35.652V30.516C44.1202 30.388 44.1522 30.292 44.2162 30.228C44.2802 30.164 44.3722 30.132 44.4922 30.132C44.6042 30.132 44.6922 30.164 44.7562 30.228C44.8202 30.292 44.8522 30.388 44.8522 30.516V35.652C44.8522 35.772 44.8202 35.868 44.7562 35.94C44.7002 36.012 44.6122 36.048 44.4922 36.048ZM44.4922 28.68C44.3242 28.68 44.1922 28.636 44.0962 28.548C44.0082 28.46 43.9642 28.336 43.9642 28.176C43.9642 28.016 44.0082 27.896 44.0962 27.816C44.1922 27.728 44.3242 27.684 44.4922 27.684C44.6602 27.684 44.7882 27.728 44.8762 27.816C44.9722 27.896 45.0202 28.016 45.0202 28.176C45.0202 28.336 44.9722 28.46 44.8762 28.548C44.7882 28.636 44.6602 28.68 44.4922 28.68ZM49.5763 36.096C49.1443 36.096 48.7843 36.016 48.4963 35.856C48.2083 35.696 47.9923 35.468 47.8483 35.172C47.7043 34.868 47.6323 34.496 47.6323 34.056V30.768H46.7443C46.6403 30.768 46.5563 30.744 46.4923 30.696C46.4283 30.64 46.3963 30.564 46.3963 30.468C46.3963 30.38 46.4283 30.312 46.4923 30.264C46.5563 30.208 46.6403 30.18 46.7443 30.18H47.6323V28.68C47.6323 28.552 47.6643 28.46 47.7283 28.404C47.7923 28.34 47.8843 28.308 48.0043 28.308C48.1163 28.308 48.2043 28.34 48.2683 28.404C48.3323 28.46 48.3643 28.552 48.3643 28.68V30.18H49.9843C50.0963 30.18 50.1803 30.208 50.2363 30.264C50.2923 30.312 50.3203 30.38 50.3203 30.468C50.3203 30.564 50.2923 30.64 50.2363 30.696C50.1803 30.744 50.0963 30.768 49.9843 30.768H48.3643V33.96C48.3643 34.448 48.4643 34.82 48.6643 35.076C48.8643 35.332 49.1963 35.46 49.6603 35.46C49.8203 35.46 49.9523 35.444 50.0563 35.412C50.1683 35.372 50.2603 35.352 50.3323 35.352C50.3883 35.352 50.4363 35.376 50.4763 35.424C50.5243 35.472 50.5483 35.548 50.5483 35.652C50.5483 35.716 50.5323 35.78 50.5003 35.844C50.4763 35.908 50.4283 35.948 50.3563 35.964C50.2683 35.996 50.1483 36.024 49.9963 36.048C49.8443 36.08 49.7043 36.096 49.5763 36.096ZM53.7998 36.096C53.4078 36.096 53.0558 36.02 52.7438 35.868C52.4398 35.716 52.1958 35.508 52.0118 35.244C51.8358 34.98 51.7478 34.684 51.7478 34.356C51.7478 33.924 51.8558 33.584 52.0718 33.336C52.2878 33.088 52.6518 32.916 53.1638 32.82C53.6758 32.716 54.3798 32.664 55.2758 32.664H55.7918V33.204H55.2878C54.5678 33.204 54.0038 33.236 53.5958 33.3C53.1958 33.356 52.9158 33.464 52.7558 33.624C52.5958 33.784 52.5158 34.008 52.5158 34.296C52.5158 34.656 52.6398 34.948 52.8878 35.172C53.1358 35.396 53.4718 35.508 53.8958 35.508C54.2398 35.508 54.5398 35.428 54.7958 35.268C55.0598 35.1 55.2678 34.872 55.4198 34.584C55.5718 34.296 55.6478 33.968 55.6478 33.6V32.232C55.6478 31.696 55.5398 31.308 55.3238 31.068C55.1078 30.82 54.7638 30.696 54.2918 30.696C53.9878 30.696 53.6918 30.736 53.4038 30.816C53.1238 30.896 52.8238 31.024 52.5038 31.2C52.4158 31.248 52.3358 31.264 52.2638 31.248C52.1998 31.232 52.1478 31.2 52.1078 31.152C52.0758 31.104 52.0518 31.048 52.0358 30.984C52.0278 30.912 52.0398 30.844 52.0718 30.78C52.1038 30.716 52.1598 30.664 52.2398 30.624C52.5758 30.44 52.9158 30.304 53.2598 30.216C53.6118 30.12 53.9518 30.072 54.2798 30.072C54.7518 30.072 55.1398 30.152 55.4438 30.312C55.7558 30.472 55.9838 30.712 56.1278 31.032C56.2798 31.352 56.3558 31.764 56.3558 32.268V35.7C56.3558 35.82 56.3278 35.912 56.2718 35.976C56.2158 36.04 56.1318 36.072 56.0198 36.072C55.9078 36.072 55.8198 36.04 55.7558 35.976C55.6918 35.912 55.6598 35.82 55.6598 35.7V34.596H55.7798C55.7078 34.908 55.5798 35.176 55.3958 35.4C55.2118 35.624 54.9838 35.796 54.7118 35.916C54.4398 36.036 54.1358 36.096 53.7998 36.096ZM60.5494 36.096C60.0134 36.096 59.5974 35.928 59.3014 35.592C59.0134 35.256 58.8694 34.78 58.8694 34.164V27.84C58.8694 27.712 58.9014 27.62 58.9654 27.564C59.0294 27.5 59.1214 27.468 59.2414 27.468C59.3534 27.468 59.4414 27.5 59.5054 27.564C59.5694 27.62 59.6014 27.712 59.6014 27.84V34.08C59.6014 34.544 59.6934 34.892 59.8774 35.124C60.0614 35.348 60.3294 35.46 60.6814 35.46C60.7614 35.46 60.8294 35.456 60.8854 35.448C60.9414 35.44 60.9974 35.436 61.0534 35.436C61.1254 35.428 61.1774 35.444 61.2094 35.484C61.2494 35.516 61.2694 35.588 61.2694 35.7C61.2694 35.812 61.2414 35.896 61.1854 35.952C61.1294 36.008 61.0374 36.048 60.9094 36.072C60.8534 36.08 60.7934 36.084 60.7294 36.084C60.6734 36.092 60.6134 36.096 60.5494 36.096Z" fill="black"/>
</svg>
