<svg width="125" height="40" viewBox="0 0 125 40" fill="none" xmlns="http://www.w3.org/2000/svg">
<path d="M41.4438 23.6654H51.6948V25.8929H44.0784V30.6591H50.7368V32.9105H44.0784V39.6406H41.4438V23.6654Z" fill="#1D1F21"/>
<path d="M54.5397 23.426H57.2222V25.7012H54.5397V23.426ZM54.6115 27.6892H57.1264L57.1503 39.6407H54.6115V27.6892Z" fill="#1D1F21"/>
<path d="M60.7611 28.5991C61.4796 28.2319 62.3498 27.9364 63.3717 27.7129C64.4096 27.4734 65.3996 27.3537 66.3416 27.3537C68.0181 27.3537 69.2556 27.7049 70.0541 28.4075C70.8524 29.11 71.2515 30.2039 71.2515 31.6887V39.6404H68.7367V32.0241C68.7367 30.3475 67.7866 29.5092 65.8865 29.5092C64.9764 29.5092 64.1063 29.6609 63.276 29.9642V39.6404H60.7611V28.5991Z" fill="#1D1F21"/>
<path d="M79.992 27.3537C81.3012 27.3537 82.411 27.6731 83.3211 28.3117C84.2472 28.9344 84.7023 29.9483 84.6863 31.3534V37.1017C84.6863 38.1874 84.2073 38.9459 83.2492 39.3769C82.2912 39.7922 80.9259 39.9998 79.1537 39.9998C77.7325 39.9998 76.5589 39.7043 75.6329 39.1136C74.7067 38.5227 74.2437 37.5328 74.2437 36.1437C74.2437 34.8343 74.6189 33.8524 75.3694 33.1977C76.1358 32.543 77.2136 32.2157 78.6028 32.2157C80.0399 32.2157 81.2374 32.5031 82.1954 33.0779V31.9283C82.1954 30.2996 81.2135 29.4853 79.2494 29.4853C78.5469 29.4853 77.8443 29.5971 77.1418 29.8206C76.4392 30.0282 75.8564 30.3236 75.3934 30.7068V28.3596C75.8405 28.0722 76.4871 27.8326 77.3333 27.6411C78.1956 27.4495 79.0818 27.3537 79.992 27.3537ZM79.4411 38.0358C80.447 38.0358 81.1576 37.9639 81.5727 37.8202C81.9878 37.6765 82.1954 37.3891 82.1954 36.9579V34.6348C81.3811 34.2835 80.487 34.1078 79.5129 34.1078C78.6028 34.1078 77.9082 34.2674 77.4292 34.5868C76.9661 34.9062 76.7346 35.3852 76.7346 36.0239C76.7346 36.6946 76.998 37.1975 77.525 37.5328C78.0678 37.8682 78.7066 38.0358 79.4411 38.0358Z" fill="#1D1F21"/>
<path d="M88.2435 28.5991C88.9621 28.2319 89.8322 27.9364 90.8542 27.7129C91.892 27.4734 92.882 27.3537 93.824 27.3537C95.5006 27.3537 96.7382 27.7049 97.5365 28.4075C98.3348 29.11 98.734 30.2039 98.734 31.6887V39.6404H96.2191V32.0241C96.2191 30.3475 95.2691 29.5092 93.369 29.5092C92.4589 29.5092 91.5887 29.6609 90.7584 29.9642V39.6404H88.2435V28.5991Z" fill="#1D1F21"/>
<path d="M107.57 39.8799C105.878 39.8799 104.465 39.393 103.331 38.4189C102.214 37.445 101.655 35.8722 101.655 33.7006C101.655 31.4652 102.206 29.8525 103.307 28.8626C104.425 27.8566 105.838 27.3537 107.547 27.3537C108.84 27.3537 110.069 27.5932 111.235 28.0722V30.3236C110.021 29.8127 108.912 29.5571 107.906 29.5571C106.644 29.5571 105.702 29.8765 105.08 30.5151C104.457 31.1378 104.146 32.1358 104.146 33.5091C104.146 34.946 104.449 35.9999 105.056 36.6705C105.662 37.3252 106.636 37.6526 107.978 37.6526C109.063 37.6526 110.157 37.3891 111.259 36.8622V39.1136C110.109 39.6245 108.88 39.8799 107.57 39.8799Z" fill="#1D1F21"/>
<path d="M119.117 27.3299C120.985 27.3299 122.35 27.9366 123.212 29.1502C124.091 30.3477 124.522 32.0322 124.506 34.2038H116.075C116.155 35.3854 116.498 36.2875 117.105 36.9102C117.728 37.517 118.606 37.8205 119.739 37.8205C120.474 37.8205 121.177 37.7326 121.847 37.557C122.518 37.3654 123.109 37.1258 123.619 36.8384V39.1856C122.374 39.7285 120.945 40 119.332 40C117.528 40 116.107 39.4571 115.069 38.3713C114.047 37.2696 113.536 35.7127 113.536 33.7008C113.536 31.641 114.023 30.0683 114.997 28.9825C115.971 27.8808 117.344 27.3299 119.117 27.3299ZM119.045 29.3897C118.199 29.3897 117.536 29.6132 117.057 30.0603C116.578 30.5074 116.267 31.2659 116.123 32.3357H121.943C121.831 31.3138 121.544 30.5712 121.081 30.1082C120.618 29.6291 119.939 29.3897 119.045 29.3897Z" fill="#1D1F21"/>
<path d="M27.0415 0C29.4799 0 31.4568 1.97685 31.4568 4.41542V34.4402C31.4568 36.8787 29.4799 38.8556 27.0415 38.8556C24.6029 38.8556 22.626 36.8787 22.626 34.4402V4.4154C22.626 1.97684 24.6029 0 27.0415 0Z" fill="#1D1F21"/>
<path d="M15.0756 12.363C17.2944 12.363 19.0932 14.1617 19.0932 16.3807V27.0945C19.0932 29.3133 17.2944 31.1121 15.0756 31.1121C12.8566 31.1121 11.0578 29.3133 11.0578 27.0945V16.3807C11.0578 14.1617 12.8566 12.363 15.0756 12.363Z" fill="#1D1F21"/>
<path d="M8.49629 11.0824C8.49629 8.86352 6.69751 7.06475 4.47861 7.06475C2.25971 7.06475 0.460938 8.86352 0.460938 11.0824V12.4216C0.460938 14.6406 2.25971 16.4393 4.47861 16.4393C6.69751 16.4393 8.49629 14.6406 8.49629 12.4216V11.0824Z" fill="#1D1F21"/>
<path d="M15.0756 1.76608C17.2944 1.76608 19.0932 3.56485 19.0932 5.78377V7.12299C19.0932 9.34189 17.2944 11.1407 15.0756 11.1407C12.8566 11.1407 11.0578 9.34189 11.0578 7.12299V5.78375C11.0578 3.56485 12.8566 1.76608 15.0756 1.76608Z" fill="#1D1F21"/>
<path d="M48.6906 17.5966L45.454 12.8542L42.5771 17.5966H38.6438L43.611 10.1347L38.464 2.60524H42.9816L46.2406 7.37012L49.0277 2.60524H53.0508L48.1286 10.1347L53.2082 17.5966H48.6906Z" fill="#1D1F21"/>
<path d="M55.0444 2.60524H65.3159V5.41472H58.6854V8.67373H64.4393V11.5057H58.6854V14.7872H65.3159V17.5966H55.0444V2.60524Z" fill="#1D1F21"/>
<path d="M81.4489 2.60524V17.5966H78.7069L71.7168 8.47144V17.5966H68.368V2.60524H71.4697L78.1 11.5282V2.60524H81.4489Z" fill="#1D1F21"/>
<path d="M84.6322 2.60524H90.6558C93.1731 2.60524 95.0386 3.23457 96.2523 4.49321C97.466 5.73688 98.0729 7.60987 98.0729 10.1122C98.0729 12.5995 97.466 14.4725 96.2523 15.7311C95.0386 16.9748 93.1731 17.5966 90.6558 17.5966H84.6322V2.60524ZM90.2288 14.7872C91.5924 14.7872 92.6187 14.405 93.308 13.6409C93.9973 12.8767 94.3419 11.7005 94.3419 10.1122C94.3419 8.49392 93.9973 7.31019 93.308 6.561C92.6187 5.79681 91.5924 5.41472 90.2288 5.41472H88.2734V14.7872H90.2288Z" fill="#1D1F21"/>
</svg>
